<svg width="7" height="7" viewBox="0 0 7 7" fill="none" xmlns="http://www.w3.org/2000/svg">
<path d="M4.79901 4.50171C4.77041 4.59323 4.74753 4.68189 4.73037 4.76769C4.71321 4.8535 4.70463 4.93072 4.70463 4.99936C4.71035 5.06228 4.72751 5.11376 4.75611 5.1538C4.79043 5.19384 4.84191 5.21386 4.91055 5.21386C5.09931 5.21386 5.28235 5.14808 5.45967 5.01652C5.63699 4.88495 5.79143 4.71621 5.92299 4.51029C6.05455 4.30437 6.16037 4.07557 6.24045 3.82389C6.32053 3.57221 6.36057 3.32625 6.36057 3.08601C6.36057 2.73137 6.29479 2.41391 6.16323 2.13363C6.03739 1.85334 5.86293 1.61882 5.63985 1.43006C5.41677 1.23558 5.15651 1.08686 4.85907 0.983901C4.56735 0.880941 4.2556 0.829461 3.92384 0.829461C3.52344 0.829461 3.15736 0.903821 2.8256 1.05254C2.49384 1.20126 2.20784 1.40432 1.9676 1.66172C1.72736 1.9134 1.54146 2.21371 1.40989 2.56263C1.27833 2.90583 1.21255 3.27477 1.21255 3.66945C1.21255 4.05841 1.28119 4.42163 1.41847 4.75911C1.55576 5.0966 1.74452 5.39118 1.98476 5.64286C2.23072 5.88882 2.51958 6.0833 2.85134 6.2263C3.18882 6.3693 3.55204 6.4408 3.941 6.4408C4.15264 6.4408 4.36142 6.41506 4.56735 6.36358C4.77899 6.30638 4.98205 6.22916 5.17653 6.13192C5.37101 6.03468 5.55119 5.91742 5.71707 5.78014C5.88295 5.63714 6.02881 5.47698 6.15465 5.29966H6.59223C6.46067 5.53418 6.29765 5.74582 6.10317 5.93458C5.91441 6.12334 5.70277 6.2835 5.46825 6.41506C5.23945 6.54662 4.99349 6.64672 4.73037 6.71536C4.47297 6.784 4.20984 6.81832 3.941 6.81832C3.47768 6.81832 3.05154 6.73824 2.66258 6.57808C2.27362 6.4122 1.93614 6.18626 1.65014 5.90026C1.36985 5.60854 1.14963 5.2682 0.989473 4.87923C0.835033 4.48455 0.757812 4.06127 0.757812 3.60939C0.757812 3.16323 0.837893 2.74853 0.998053 2.36529C1.16393 1.97632 1.38987 1.6417 1.67588 1.36142C1.96188 1.07542 2.2965 0.852341 2.67974 0.69218C3.06298 0.5263 3.47196 0.443359 3.90668 0.443359C4.31852 0.443359 4.70177 0.50914 5.05641 0.6407C5.41105 0.766541 5.71707 0.949581 5.97447 1.18982C6.23759 1.42434 6.44351 1.70462 6.59223 2.03066C6.74095 2.35671 6.81531 2.71707 6.81531 3.11175C6.81531 3.45495 6.75525 3.77813 6.63513 4.08129C6.52073 4.38445 6.36915 4.65043 6.18039 4.87923C5.99163 5.10232 5.77713 5.27964 5.53689 5.4112C5.30237 5.53704 5.06499 5.59996 4.82475 5.59996C4.67603 5.59996 4.54733 5.55134 4.43864 5.4541C4.32996 5.35686 4.26704 5.21386 4.24988 5.0251H4.23272C4.10116 5.16238 3.941 5.29108 3.75224 5.4112C3.56348 5.53132 3.36042 5.59138 3.14306 5.59138C2.96574 5.59138 2.80558 5.55992 2.66258 5.497C2.5253 5.42836 2.40804 5.33684 2.3108 5.22244C2.21356 5.10804 2.1392 4.97648 2.08772 4.82775C2.03624 4.67903 2.0105 4.51887 2.0105 4.34727C2.0105 4.04983 2.05912 3.75525 2.15636 3.46353C2.2536 3.16609 2.39088 2.90011 2.5682 2.66559C2.74552 2.42535 2.96002 2.23373 3.2117 2.09073C3.46338 1.942 3.7408 1.86764 4.04396 1.86764C4.23272 1.86764 4.40718 1.92484 4.56735 2.03924C4.72751 2.14793 4.85621 2.33097 4.95345 2.58837L5.16795 2.03066H5.62269L4.79901 4.50171ZM4.00964 2.32239C3.79228 2.32239 3.59208 2.38817 3.40904 2.51973C3.23172 2.65129 3.07728 2.81717 2.94572 3.01737C2.81988 3.21185 2.72264 3.42635 2.654 3.66087C2.58536 3.88967 2.55104 4.10417 2.55104 4.30437C2.55104 4.56177 2.61682 4.76483 2.74838 4.91355C2.88566 5.06228 3.05726 5.13664 3.26318 5.13664C3.46338 5.13664 3.64928 5.068 3.82088 4.93072C3.99248 4.78771 4.1412 4.61611 4.26704 4.41591C4.3986 4.20999 4.50157 3.98977 4.57593 3.75525C4.65029 3.52073 4.68747 3.30909 4.68747 3.12033C4.68747 3.01737 4.66745 2.92013 4.62741 2.82861C4.58737 2.73137 4.53589 2.64557 4.47297 2.57121C4.41005 2.49685 4.33854 2.43679 4.25846 2.39103C4.17838 2.34527 4.09544 2.32239 4.00964 2.32239Z" fill="#EEE8E2"/>
</svg>
