<svg width="74" height="50" viewBox="0 0 74 50" fill="none" xmlns="http://www.w3.org/2000/svg">
<path d="M72.2596 4.93633L68.1618 25.7408C67.8189 27.4812 65.5481 27.947 64.5478 26.4821L60.5675 20.6529C60.2971 20.257 59.8936 19.9714 59.4304 19.848L51.6185 17.7679C49.9252 17.3171 49.5892 15.0612 51.0776 14.1365L69.2418 2.85101C70.7268 1.92838 72.5975 3.22102 72.2596 4.93633Z" fill="#2229FF" stroke="#FCFCD8" stroke-width="2"/>
<rect x="0.289062" y="23.5176" width="57.3203" height="25.6953" rx="8" fill="#C7C9FF"/>
<path d="M9.52344 32.5519H10.7033V34.1595H10.7328C11.0376 33.5401 11.4112 33.0829 11.8537 32.7879C12.2961 32.4929 12.8566 32.3553 13.535 32.3749V33.7023C13.0336 33.7023 12.6059 33.7711 12.2519 33.9088C11.8979 34.0464 11.6128 34.248 11.3965 34.5135C11.1802 34.7789 11.0229 35.1034 10.9245 35.4869C10.8262 35.8605 10.7771 36.2931 10.7771 36.7847V40.1769H9.52344V32.5519Z" fill="#2229FF"/>
<path d="M20.054 40.1769H18.8741V38.9675H18.8446C18.5791 39.4395 18.2399 39.7885 17.8269 40.0147C17.414 40.231 16.9273 40.3391 16.3668 40.3391C15.8654 40.3391 15.4475 40.2752 15.1132 40.1474C14.7789 40.0097 14.5085 39.818 14.3021 39.5722C14.0956 39.3264 13.9481 39.0363 13.8596 38.702C13.7809 38.3579 13.7416 37.9794 13.7416 37.5664V32.5519H14.9952V37.7139C14.9952 38.1858 15.1329 38.5595 15.4082 38.8348C15.6835 39.1101 16.062 39.2477 16.5438 39.2477C16.9273 39.2477 17.2567 39.1887 17.532 39.0708C17.8171 38.9528 18.0531 38.7856 18.2399 38.5693C18.4267 38.353 18.5644 38.1023 18.6529 37.8171C18.7512 37.5222 18.8003 37.2026 18.8003 36.8585V32.5519H20.054V40.1769Z" fill="#2229FF"/>
<path d="M21.2436 32.5519H22.4972V33.5843H22.5267C22.7332 33.1615 23.0577 32.8567 23.5001 32.6699C23.9426 32.4733 24.4293 32.3749 24.9602 32.3749C25.5502 32.3749 26.0615 32.4831 26.4941 32.6994C26.9365 32.9157 27.3003 33.2107 27.5855 33.5843C27.8804 33.9481 28.1017 34.3709 28.2491 34.8527C28.3966 35.3345 28.4704 35.8458 28.4704 36.3865C28.4704 36.9273 28.3966 37.4386 28.2491 37.9204C28.1115 38.4022 27.8952 38.8249 27.6002 39.1887C27.3151 39.5427 26.9513 39.8229 26.5088 40.0294C26.0762 40.2359 25.5698 40.3391 24.9897 40.3391C24.8029 40.3391 24.5915 40.3195 24.3556 40.2801C24.1294 40.2408 23.9033 40.1769 23.6771 40.0884C23.451 39.9999 23.2347 39.8819 23.0282 39.7344C22.8315 39.5771 22.6644 39.3854 22.5267 39.1592H22.4972V43.0823H21.2436V32.5519ZM27.143 36.298C27.143 35.9441 27.0938 35.5999 26.9955 35.2656C26.907 34.9215 26.7645 34.6167 26.5678 34.3512C26.381 34.0858 26.1352 33.8744 25.8304 33.7171C25.5354 33.5597 25.1864 33.4811 24.7833 33.4811C24.3605 33.4811 24.0016 33.5647 23.7066 33.7318C23.4116 33.899 23.1708 34.1202 22.9839 34.3955C22.7971 34.661 22.6595 34.9658 22.571 35.3099C22.4923 35.654 22.453 36.0031 22.453 36.357C22.453 36.7307 22.4972 37.0945 22.5857 37.4484C22.6742 37.7926 22.8119 38.0974 22.9987 38.3628C23.1953 38.6283 23.4461 38.8446 23.7509 39.0118C24.0557 39.1691 24.4244 39.2477 24.857 39.2477C25.2896 39.2477 25.6485 39.1642 25.9336 38.997C26.2286 38.8299 26.4646 38.6086 26.6416 38.3333C26.8185 38.058 26.9464 37.7434 27.025 37.3894C27.1037 37.0355 27.143 36.6717 27.143 36.298Z" fill="#2229FF"/>
<path d="M34.4992 35.6344C34.4795 35.3394 34.4107 35.0592 34.2927 34.7937C34.1845 34.5282 34.0321 34.3021 33.8355 34.1153C33.6487 33.9186 33.4225 33.7662 33.157 33.6581C32.9014 33.5401 32.6163 33.4811 32.3016 33.4811C31.9772 33.4811 31.6822 33.5401 31.4167 33.6581C31.1611 33.7662 30.9399 33.9186 30.753 34.1153C30.5662 34.3119 30.4187 34.543 30.3106 34.8084C30.2024 35.0641 30.1385 35.3394 30.1189 35.6344H34.4992ZM35.7085 37.7581C35.5414 38.6135 35.1727 39.2576 34.6024 39.6902C34.0321 40.1228 33.3144 40.3391 32.4491 40.3391C31.8395 40.3391 31.3086 40.2408 30.8563 40.0442C30.4138 39.8475 30.0402 39.5722 29.7354 39.2182C29.4306 38.8643 29.1995 38.4415 29.0422 37.9499C28.8947 37.4583 28.8112 36.9224 28.7915 36.3423C28.7915 35.7622 28.88 35.2312 29.057 34.7495C29.2339 34.2677 29.4798 33.8498 29.7944 33.4958C30.1189 33.1419 30.4974 32.8666 30.93 32.6699C31.3725 32.4733 31.8543 32.3749 32.3754 32.3749C33.0538 32.3749 33.6142 32.5175 34.0567 32.8027C34.509 33.078 34.8679 33.4319 35.1333 33.8645C35.4086 34.2972 35.5955 34.7691 35.6938 35.2804C35.8019 35.7917 35.8462 36.2784 35.8265 36.7405H30.1189C30.109 37.0748 30.1484 37.3943 30.2368 37.6991C30.3253 37.9941 30.4679 38.2596 30.6646 38.4956C30.8612 38.7217 31.1119 38.9036 31.4167 39.0413C31.7215 39.1789 32.0804 39.2477 32.4934 39.2477C33.0243 39.2477 33.4569 39.1248 33.7912 38.879C34.1354 38.6332 34.3615 38.2596 34.4697 37.7581H35.7085Z" fill="#2229FF"/>
<path d="M37.1555 37.7729C37.1653 38.0482 37.2292 38.2842 37.3472 38.4808C37.4652 38.6676 37.6176 38.82 37.8044 38.938C38.0011 39.0462 38.2174 39.1248 38.4534 39.174C38.6992 39.2232 38.9499 39.2477 39.2055 39.2477C39.4022 39.2477 39.6086 39.233 39.825 39.2035C40.0413 39.174 40.2379 39.1199 40.4149 39.0413C40.6017 38.9626 40.7541 38.8495 40.8721 38.702C40.9901 38.5447 41.0491 38.3481 41.0491 38.1121C41.0491 37.7876 40.9262 37.5418 40.6804 37.3747C40.4346 37.2075 40.1248 37.0748 39.7512 36.9765C39.3874 36.8683 38.9892 36.7749 38.5566 36.6962C38.124 36.6078 37.7208 36.4898 37.3472 36.3423C36.9834 36.185 36.6786 35.9687 36.4328 35.6934C36.187 35.418 36.0641 35.0346 36.0641 34.543C36.0641 34.1595 36.1477 33.8301 36.3148 33.5548C36.4918 33.2795 36.713 33.0583 36.9785 32.8911C37.2538 32.7142 37.5586 32.5863 37.8929 32.5077C38.237 32.4192 38.5763 32.3749 38.9106 32.3749C39.3432 32.3749 39.7414 32.4143 40.1052 32.4929C40.469 32.5618 40.7885 32.6896 41.0638 32.8764C41.349 33.0534 41.5751 33.2992 41.7423 33.6138C41.9094 33.9186 42.0077 34.3021 42.0372 34.7642H40.7836C40.7639 34.5184 40.7 34.3168 40.5919 34.1595C40.4837 33.9924 40.3461 33.8596 40.1789 33.7613C40.0118 33.663 39.825 33.5942 39.6185 33.5548C39.4218 33.5057 39.2203 33.4811 39.0138 33.4811C38.827 33.4811 38.6352 33.4958 38.4386 33.5253C38.2518 33.5548 38.0797 33.6089 37.9224 33.6876C37.7651 33.7564 37.6373 33.8547 37.5389 33.9825C37.4406 34.1005 37.3915 34.2578 37.3915 34.4545C37.3915 34.6708 37.4652 34.8527 37.6127 35.0002C37.77 35.1378 37.9667 35.2558 38.2026 35.3541C38.4386 35.4426 38.7041 35.5213 38.999 35.5901C39.294 35.6491 39.589 35.713 39.884 35.7818C40.1986 35.8507 40.5034 35.9342 40.7984 36.0326C41.1032 36.1309 41.3686 36.2636 41.5948 36.4308C41.8307 36.5881 42.0176 36.7897 42.1552 37.0355C42.3027 37.2813 42.3764 37.5861 42.3764 37.9499C42.3764 38.412 42.2781 38.7954 42.0815 39.1002C41.8947 39.4051 41.6439 39.6509 41.3293 39.8377C41.0245 40.0245 40.6755 40.1523 40.2822 40.2211C39.8987 40.2998 39.5152 40.3391 39.1318 40.3391C38.709 40.3391 38.3059 40.2949 37.9224 40.2064C37.5389 40.1179 37.1997 39.9753 36.9048 39.7787C36.6098 39.5722 36.3738 39.3067 36.1968 38.9823C36.0199 38.648 35.9215 38.2448 35.9019 37.7729H37.1555Z" fill="#2229FF"/>
<path d="M43.0254 29.6465H44.279V33.6728H44.3085C44.4068 33.4368 44.5445 33.2402 44.7214 33.0829C44.8984 32.9157 45.0951 32.783 45.3114 32.6847C45.5375 32.5765 45.7686 32.4979 46.0046 32.4487C46.2504 32.3995 46.4863 32.3749 46.7125 32.3749C47.2139 32.3749 47.6318 32.4438 47.9661 32.5814C48.3004 32.7191 48.5708 32.9108 48.7773 33.1566C48.9838 33.4024 49.1263 33.6974 49.205 34.0415C49.2935 34.3758 49.3377 34.7495 49.3377 35.1624V40.1769H48.0841V35.0149C48.0841 34.543 47.9464 34.1693 47.6711 33.894C47.3958 33.6187 47.0173 33.4811 46.5355 33.4811C46.1521 33.4811 45.8177 33.5401 45.5326 33.6581C45.2573 33.7761 45.0262 33.9432 44.8394 34.1595C44.6526 34.3758 44.5101 34.6315 44.4117 34.9264C44.3232 35.2116 44.279 35.5262 44.279 35.8703V40.1769H43.0254V29.6465Z" fill="#2229FF"/>
</svg>
