<svg width="74" height="50" viewBox="0 0 74 50" fill="none" xmlns="http://www.w3.org/2000/svg">
<path d="M1.68143 4.75664L5.77927 25.5611C6.12209 27.3016 8.39292 27.7673 9.39325 26.3024L13.3736 20.4732C13.6439 20.0773 14.0474 19.7917 14.5106 19.6683L22.3225 17.5882C24.0158 17.1374 24.3518 14.8815 22.8634 13.9568L4.6992 2.67132C3.21421 1.74869 1.34356 3.04133 1.68143 4.75664Z" fill="#2229FF" stroke="#FCFCD8" stroke-width="2"/>
<rect x="16.3004" y="23.9824" width="57.3203" height="25.6953" rx="8" fill="#C7C9FF"/>
<path d="M31.1879 41.0975C30.9728 41.2246 30.6745 41.2882 30.293 41.2882C29.9703 41.2882 29.7111 41.2002 29.5155 41.0241C29.3297 40.8383 29.2368 40.54 29.2368 40.1293C28.8945 40.54 28.4935 40.8383 28.0338 41.0241C27.584 41.2002 27.0949 41.2882 26.5668 41.2882C26.2245 41.2882 25.8969 41.2491 25.5839 41.1708C25.2807 41.0926 25.0167 40.9703 24.7917 40.8041C24.5668 40.6378 24.3859 40.4227 24.2489 40.1586C24.1218 39.8848 24.0582 39.5571 24.0582 39.1757C24.0582 38.7454 24.1316 38.3933 24.2783 38.1194C24.425 37.8456 24.6157 37.6256 24.8504 37.4593C25.0949 37.2832 25.3688 37.1512 25.6719 37.0632C25.9849 36.9752 26.3028 36.9018 26.6255 36.8431C26.9678 36.7747 27.2905 36.7258 27.5937 36.6964C27.9067 36.6573 28.1805 36.6084 28.4153 36.5497C28.65 36.4813 28.8358 36.3884 28.9727 36.271C29.1096 36.1439 29.1781 35.9629 29.1781 35.7282C29.1781 35.4544 29.1243 35.2343 29.0167 35.0681C28.9189 34.9018 28.7869 34.7747 28.6206 34.6866C28.4642 34.5986 28.2832 34.5399 28.0778 34.5106C27.8822 34.4813 27.6866 34.4666 27.491 34.4666C26.9629 34.4666 26.5228 34.5693 26.1707 34.7747C25.8186 34.9703 25.6279 35.3468 25.5986 35.9043H24.3516C24.3712 35.4348 24.469 35.0387 24.645 34.716C24.8211 34.3932 25.0558 34.1341 25.3492 33.9385C25.6426 33.7331 25.9751 33.5864 26.3468 33.4984C26.7282 33.4103 27.1341 33.3663 27.5644 33.3663C27.9067 33.3663 28.2441 33.3908 28.5766 33.4397C28.9189 33.4886 29.227 33.5913 29.5008 33.7477C29.7747 33.8944 29.9947 34.1047 30.161 34.3786C30.3273 34.6524 30.4104 35.0094 30.4104 35.4495V39.3517C30.4104 39.6451 30.4251 39.8603 30.4544 39.9972C30.4935 40.1341 30.6109 40.2026 30.8065 40.2026C30.9141 40.2026 31.0412 40.1782 31.1879 40.1293V41.0975ZM29.1634 37.2099C29.007 37.3273 28.8016 37.4153 28.5473 37.474C28.293 37.5229 28.0241 37.5669 27.7404 37.606C27.4666 37.6353 27.1879 37.6745 26.9042 37.7234C26.6206 37.7625 26.3663 37.8309 26.1414 37.9287C25.9164 38.0265 25.7306 38.1683 25.5839 38.3542C25.447 38.5302 25.3785 38.7747 25.3785 39.0877C25.3785 39.2931 25.4177 39.4691 25.4959 39.6158C25.5839 39.7527 25.6915 39.8652 25.8186 39.9532C25.9556 40.0412 26.112 40.1048 26.2881 40.1439C26.4641 40.183 26.65 40.2026 26.8456 40.2026C27.2563 40.2026 27.6084 40.1488 27.9018 40.0412C28.1952 39.9239 28.4348 39.7821 28.6206 39.6158C28.8065 39.4398 28.9434 39.2539 29.0314 39.0583C29.1194 38.853 29.1634 38.6622 29.1634 38.4862V37.2099Z" fill="#2229FF"/>
<path d="M31.6883 30.6523H32.9353V36.8578L36.3974 33.5424H38.0698L35.0624 36.3003L38.2899 41.1268H36.7055L34.1089 37.1659L32.9353 38.2515V41.1268H31.6883V30.6523Z" fill="#2229FF"/>
<path d="M39.2516 38.7356C39.2613 39.0094 39.3249 39.2442 39.4423 39.4398C39.5596 39.6256 39.7112 39.7772 39.8971 39.8945C40.0927 40.0021 40.3078 40.0804 40.5425 40.1293C40.787 40.1782 41.0364 40.2026 41.2907 40.2026C41.4863 40.2026 41.6917 40.1879 41.9069 40.1586C42.122 40.1293 42.3176 40.0755 42.4937 39.9972C42.6795 39.919 42.8311 39.8065 42.9484 39.6598C43.0658 39.5033 43.1245 39.3077 43.1245 39.073C43.1245 38.7503 43.0022 38.5058 42.7577 38.3395C42.5132 38.1732 42.2052 38.0412 41.8335 37.9434C41.4716 37.8358 41.0756 37.7429 40.6452 37.6647C40.2149 37.5767 39.8139 37.4593 39.4423 37.3126C39.0804 37.1561 38.7772 36.9409 38.5327 36.6671C38.2882 36.3933 38.166 36.0118 38.166 35.5228C38.166 35.1414 38.2491 34.8138 38.4154 34.5399C38.5914 34.2661 38.8115 34.046 39.0755 33.8798C39.3494 33.7037 39.6525 33.5766 39.9851 33.4984C40.3274 33.4103 40.6648 33.3663 40.9973 33.3663C41.4276 33.3663 41.8237 33.4054 42.1856 33.4837C42.5475 33.5521 42.8653 33.6793 43.1392 33.8651C43.4228 34.0411 43.6477 34.2856 43.814 34.5986C43.9802 34.9018 44.078 35.2832 44.1074 35.7429H42.8604C42.8409 35.4984 42.7773 35.2979 42.6697 35.1414C42.5621 34.9751 42.4252 34.8431 42.2589 34.7453C42.0927 34.6475 41.9069 34.5791 41.7015 34.5399C41.5059 34.491 41.3054 34.4666 41.1 34.4666C40.9142 34.4666 40.7235 34.4813 40.5279 34.5106C40.342 34.5399 40.1709 34.5937 40.0144 34.672C39.8579 34.7404 39.7308 34.8382 39.633 34.9654C39.5352 35.0827 39.4863 35.2392 39.4863 35.4348C39.4863 35.65 39.5596 35.8309 39.7063 35.9776C39.8628 36.1145 40.0584 36.2319 40.2931 36.3297C40.5279 36.4177 40.7919 36.496 41.0853 36.5644C41.3787 36.6231 41.6721 36.6867 41.9655 36.7551C42.2785 36.8236 42.5817 36.9067 42.8751 37.0045C43.1783 37.1023 43.4423 37.2343 43.6673 37.4006C43.902 37.5571 44.0878 37.7576 44.2247 38.0021C44.3714 38.2466 44.4448 38.5498 44.4448 38.9116C44.4448 39.3713 44.347 39.7527 44.1514 40.0559C43.9656 40.3591 43.7162 40.6036 43.4032 40.7894C43.1 40.9752 42.7528 41.1024 42.3616 41.1708C41.9802 41.2491 41.5988 41.2882 41.2174 41.2882C40.7968 41.2882 40.3958 41.2442 40.0144 41.1562C39.633 41.0681 39.2956 40.9263 39.0022 40.7307C38.7088 40.5253 38.474 40.2613 38.298 39.9385C38.122 39.606 38.0242 39.205 38.0046 38.7356H39.2516Z" fill="#2229FF"/>
<path d="M45.0903 30.6523H46.3372V34.6573H46.3666C46.4644 34.4226 46.6013 34.227 46.7773 34.0705C46.9534 33.9042 47.149 33.7722 47.3642 33.6744C47.5891 33.5668 47.8189 33.4886 48.0536 33.4397C48.2982 33.3908 48.5329 33.3663 48.7578 33.3663C49.2566 33.3663 49.6723 33.4348 50.0048 33.5717C50.3373 33.7086 50.6063 33.8993 50.8116 34.1438C51.017 34.3883 51.1588 34.6817 51.2371 35.024C51.3251 35.3566 51.3691 35.7282 51.3691 36.139V41.1268H50.1221V35.9923C50.1221 35.5228 49.9852 35.1512 49.7114 34.8773C49.4375 34.6035 49.061 34.4666 48.5818 34.4666C48.2004 34.4666 47.8678 34.5253 47.5842 34.6426C47.3104 34.76 47.0805 34.9262 46.8947 35.1414C46.7089 35.3566 46.5671 35.6109 46.4693 35.9043C46.3813 36.1879 46.3372 36.5008 46.3372 36.8431V41.1268H45.0903V30.6523Z" fill="#2229FF"/>
<path d="M59.2274 41.0975C59.0122 41.2246 58.7139 41.2882 58.3325 41.2882C58.0097 41.2882 57.7506 41.2002 57.555 41.0241C57.3692 40.8383 57.2762 40.54 57.2762 40.1293C56.9339 40.54 56.533 40.8383 56.0733 41.0241C55.6234 41.2002 55.1344 41.2882 54.6063 41.2882C54.264 41.2882 53.9363 41.2491 53.6234 41.1708C53.3202 41.0926 53.0561 40.9703 52.8312 40.8041C52.6062 40.6378 52.4253 40.4227 52.2884 40.1586C52.1613 39.8848 52.0977 39.5571 52.0977 39.1757C52.0977 38.7454 52.171 38.3933 52.3177 38.1194C52.4644 37.8456 52.6551 37.6256 52.8899 37.4593C53.1344 37.2832 53.4082 37.1512 53.7114 37.0632C54.0244 36.9752 54.3422 36.9018 54.665 36.8431C55.0073 36.7747 55.33 36.7258 55.6332 36.6964C55.9461 36.6573 56.22 36.6084 56.4547 36.5497C56.6894 36.4813 56.8753 36.3884 57.0122 36.271C57.1491 36.1439 57.2176 35.9629 57.2176 35.7282C57.2176 35.4544 57.1638 35.2343 57.0562 35.0681C56.9584 34.9018 56.8264 34.7747 56.6601 34.6866C56.5036 34.5986 56.3227 34.5399 56.1173 34.5106C55.9217 34.4813 55.7261 34.4666 55.5305 34.4666C55.0024 34.4666 54.5623 34.5693 54.2102 34.7747C53.8581 34.9703 53.6674 35.3468 53.638 35.9043H52.3911C52.4106 35.4348 52.5084 35.0387 52.6845 34.716C52.8605 34.3932 53.0953 34.1341 53.3887 33.9385C53.6821 33.7331 54.0146 33.5864 54.3862 33.4984C54.7676 33.4103 55.1735 33.3663 55.6038 33.3663C55.9461 33.3663 56.2836 33.3908 56.6161 33.4397C56.9584 33.4886 57.2665 33.5913 57.5403 33.7477C57.8141 33.8944 58.0342 34.1047 58.2005 34.3786C58.3667 34.6524 58.4499 35.0094 58.4499 35.4495V39.3517C58.4499 39.6451 58.4645 39.8603 58.4939 39.9972C58.533 40.1341 58.6503 40.2026 58.8459 40.2026C58.9535 40.2026 59.0807 40.1782 59.2274 40.1293V41.0975ZM57.2029 37.2099C57.0464 37.3273 56.841 37.4153 56.5867 37.474C56.3325 37.5229 56.0635 37.5669 55.7799 37.606C55.506 37.6353 55.2273 37.6745 54.9437 37.7234C54.6601 37.7625 54.4058 37.8309 54.1808 37.9287C53.9559 38.0265 53.7701 38.1683 53.6234 38.3542C53.4865 38.5302 53.418 38.7747 53.418 39.0877C53.418 39.2931 53.4571 39.4691 53.5354 39.6158C53.6234 39.7527 53.731 39.8652 53.8581 39.9532C53.995 40.0412 54.1515 40.1048 54.3275 40.1439C54.5036 40.183 54.6894 40.2026 54.885 40.2026C55.2958 40.2026 55.6479 40.1488 55.9413 40.0412C56.2347 39.9239 56.4743 39.7821 56.6601 39.6158C56.8459 39.4398 56.9828 39.2539 57.0709 39.0583C57.1589 38.853 57.2029 38.6622 57.2029 38.4862V37.2099Z" fill="#2229FF"/>
<path d="M62.6324 42.1391C62.4857 42.5107 62.339 42.8237 62.1923 43.078C62.0554 43.3322 61.8989 43.5376 61.7229 43.6941C61.5566 43.8604 61.3659 43.9777 61.1508 44.0462C60.9454 44.1244 60.7058 44.1635 60.4319 44.1635C60.2852 44.1635 60.1385 44.1538 59.9918 44.1342C59.8451 44.1146 59.7033 44.0804 59.5664 44.0315V42.8872C59.674 42.9361 59.7962 42.9753 59.9331 43.0046C60.0798 43.0437 60.2021 43.0633 60.2999 43.0633C60.5542 43.0633 60.7645 42.9997 60.9307 42.8726C61.1068 42.7552 61.2388 42.5841 61.3268 42.3591L61.8403 41.0828L58.8329 33.5424H60.2412L62.4564 39.7478H62.4857L64.6129 33.5424H65.9332L62.6324 42.1391Z" fill="#2229FF"/>
</svg>
