<svg width="255" height="63" viewBox="0 0 255 63" fill="none" xmlns="http://www.w3.org/2000/svg">
<path d="M9.10188 22.3438H6.55188V7.10375H1.03188V5.06375C1.75188 5.06375 2.45188 5.01375 3.13188 4.91375C3.81188 4.79375 4.42188 4.58375 4.96188 4.28375C5.52188 3.98375 5.99188 3.57375 6.37188 3.05375C6.75188 2.53375 7.01188 1.87375 7.15188 1.07375H9.10188V22.3438ZM17.5518 11.8737C17.5518 12.6737 17.5718 13.5737 17.6118 14.5737C17.6718 15.5537 17.8318 16.4837 18.0918 17.3637C18.3718 18.2237 18.8118 18.9537 19.4118 19.5537C20.0118 20.1537 20.8518 20.4537 21.9318 20.4537C23.0118 20.4537 23.8518 20.1537 24.4518 19.5537C25.0518 18.9537 25.4818 18.2237 25.7418 17.3637C26.0218 16.4837 26.1818 15.5537 26.2218 14.5737C26.2818 13.5737 26.3118 12.6737 26.3118 11.8737C26.3118 11.3537 26.3018 10.7837 26.2818 10.1637C26.2818 9.52375 26.2318 8.89375 26.1318 8.27375C26.0518 7.63375 25.9218 7.01375 25.7418 6.41375C25.5818 5.81375 25.3318 5.29375 24.9918 4.85375C24.6718 4.39375 24.2618 4.02375 23.7618 3.74375C23.2618 3.46375 22.6518 3.32375 21.9318 3.32375C21.2118 3.32375 20.6018 3.46375 20.1018 3.74375C19.6018 4.02375 19.1818 4.39375 18.8418 4.85375C18.5218 5.29375 18.2718 5.81375 18.0918 6.41375C17.9318 7.01375 17.8018 7.63375 17.7018 8.27375C17.6218 8.89375 17.5718 9.52375 17.5518 10.1637C17.5518 10.7837 17.5518 11.3537 17.5518 11.8737ZM14.8518 11.9037C14.8518 11.1237 14.8718 10.3137 14.9118 9.47375C14.9518 8.63375 15.0518 7.81375 15.2118 7.01375C15.3718 6.21375 15.6018 5.45375 15.9018 4.73375C16.2018 4.01375 16.6118 3.38375 17.1318 2.84375C17.6518 2.30375 18.3018 1.87375 19.0818 1.55375C19.8818 1.23375 20.8318 1.07375 21.9318 1.07375C23.0318 1.07375 23.9718 1.23375 24.7518 1.55375C25.5518 1.87375 26.2118 2.30375 26.7318 2.84375C27.2518 3.38375 27.6618 4.01375 27.9618 4.73375C28.2618 5.45375 28.4918 6.21375 28.6518 7.01375C28.8118 7.81375 28.9118 8.63375 28.9518 9.47375C28.9918 10.3137 29.0118 11.1237 29.0118 11.9037C29.0118 12.6837 28.9918 13.4937 28.9518 14.3337C28.9118 15.1737 28.8118 15.9937 28.6518 16.7937C28.4918 17.5937 28.2618 18.3537 27.9618 19.0737C27.6618 19.7737 27.2518 20.3937 26.7318 20.9337C26.2118 21.4737 25.5618 21.9037 24.7818 22.2237C24.0018 22.5238 23.0518 22.6738 21.9318 22.6738C20.8318 22.6738 19.8818 22.5238 19.0818 22.2237C18.3018 21.9037 17.6518 21.4737 17.1318 20.9337C16.6118 20.3937 16.2018 19.7737 15.9018 19.0737C15.6018 18.3537 15.3718 17.5937 15.2118 16.7937C15.0518 15.9937 14.9518 15.1737 14.9118 14.3337C14.8718 13.4937 14.8518 12.6837 14.8518 11.9037ZM32.7217 11.8737C32.7217 12.6737 32.7417 13.5737 32.7817 14.5737C32.8417 15.5537 33.0017 16.4837 33.2617 17.3637C33.5417 18.2237 33.9817 18.9537 34.5817 19.5537C35.1817 20.1537 36.0217 20.4537 37.1017 20.4537C38.1817 20.4537 39.0217 20.1537 39.6217 19.5537C40.2217 18.9537 40.6517 18.2237 40.9117 17.3637C41.1917 16.4837 41.3517 15.5537 41.3917 14.5737C41.4517 13.5737 41.4817 12.6737 41.4817 11.8737C41.4817 11.3537 41.4717 10.7837 41.4517 10.1637C41.4517 9.52375 41.4017 8.89375 41.3017 8.27375C41.2217 7.63375 41.0917 7.01375 40.9117 6.41375C40.7517 5.81375 40.5017 5.29375 40.1617 4.85375C39.8417 4.39375 39.4317 4.02375 38.9317 3.74375C38.4317 3.46375 37.8217 3.32375 37.1017 3.32375C36.3817 3.32375 35.7717 3.46375 35.2717 3.74375C34.7717 4.02375 34.3517 4.39375 34.0117 4.85375C33.6917 5.29375 33.4417 5.81375 33.2617 6.41375C33.1017 7.01375 32.9717 7.63375 32.8717 8.27375C32.7917 8.89375 32.7417 9.52375 32.7217 10.1637C32.7217 10.7837 32.7217 11.3537 32.7217 11.8737ZM30.0217 11.9037C30.0217 11.1237 30.0417 10.3137 30.0817 9.47375C30.1217 8.63375 30.2217 7.81375 30.3817 7.01375C30.5417 6.21375 30.7717 5.45375 31.0717 4.73375C31.3717 4.01375 31.7817 3.38375 32.3017 2.84375C32.8217 2.30375 33.4717 1.87375 34.2517 1.55375C35.0517 1.23375 36.0017 1.07375 37.1017 1.07375C38.2017 1.07375 39.1417 1.23375 39.9217 1.55375C40.7217 1.87375 41.3817 2.30375 41.9017 2.84375C42.4217 3.38375 42.8317 4.01375 43.1317 4.73375C43.4317 5.45375 43.6617 6.21375 43.8217 7.01375C43.9817 7.81375 44.0817 8.63375 44.1217 9.47375C44.1617 10.3137 44.1817 11.1237 44.1817 11.9037C44.1817 12.6837 44.1617 13.4937 44.1217 14.3337C44.0817 15.1737 43.9817 15.9937 43.8217 16.7937C43.6617 17.5937 43.4317 18.3537 43.1317 19.0737C42.8317 19.7737 42.4217 20.3937 41.9017 20.9337C41.3817 21.4737 40.7317 21.9037 39.9517 22.2237C39.1717 22.5238 38.2217 22.6738 37.1017 22.6738C36.0017 22.6738 35.0517 22.5238 34.2517 22.2237C33.4717 21.9037 32.8217 21.4737 32.3017 20.9337C31.7817 20.3937 31.3717 19.7737 31.0717 19.0737C30.7717 18.3537 30.5417 17.5937 30.3817 16.7937C30.2217 15.9937 30.1217 15.1737 30.0817 14.3337C30.0417 13.4937 30.0217 12.6837 30.0217 11.9037ZM47.8916 11.8737C47.8916 12.6737 47.9116 13.5737 47.9516 14.5737C48.0116 15.5537 48.1716 16.4837 48.4316 17.3637C48.7116 18.2237 49.1516 18.9537 49.7516 19.5537C50.3516 20.1537 51.1916 20.4537 52.2716 20.4537C53.3516 20.4537 54.1916 20.1537 54.7916 19.5537C55.3916 18.9537 55.8216 18.2237 56.0816 17.3637C56.3616 16.4837 56.5216 15.5537 56.5616 14.5737C56.6216 13.5737 56.6516 12.6737 56.6516 11.8737C56.6516 11.3537 56.6416 10.7837 56.6216 10.1637C56.6216 9.52375 56.5716 8.89375 56.4716 8.27375C56.3916 7.63375 56.2616 7.01375 56.0816 6.41375C55.9216 5.81375 55.6716 5.29375 55.3316 4.85375C55.0116 4.39375 54.6016 4.02375 54.1016 3.74375C53.6016 3.46375 52.9916 3.32375 52.2716 3.32375C51.5516 3.32375 50.9416 3.46375 50.4416 3.74375C49.9416 4.02375 49.5216 4.39375 49.1816 4.85375C48.8616 5.29375 48.6116 5.81375 48.4316 6.41375C48.2716 7.01375 48.1416 7.63375 48.0416 8.27375C47.9616 8.89375 47.9116 9.52375 47.8916 10.1637C47.8916 10.7837 47.8916 11.3537 47.8916 11.8737ZM45.1916 11.9037C45.1916 11.1237 45.2116 10.3137 45.2516 9.47375C45.2916 8.63375 45.3916 7.81375 45.5516 7.01375C45.7116 6.21375 45.9416 5.45375 46.2416 4.73375C46.5416 4.01375 46.9516 3.38375 47.4716 2.84375C47.9916 2.30375 48.6416 1.87375 49.4216 1.55375C50.2216 1.23375 51.1716 1.07375 52.2716 1.07375C53.3716 1.07375 54.3116 1.23375 55.0916 1.55375C55.8916 1.87375 56.5516 2.30375 57.0716 2.84375C57.5916 3.38375 58.0016 4.01375 58.3016 4.73375C58.6016 5.45375 58.8316 6.21375 58.9916 7.01375C59.1516 7.81375 59.2516 8.63375 59.2916 9.47375C59.3316 10.3137 59.3516 11.1237 59.3516 11.9037C59.3516 12.6837 59.3316 13.4937 59.2916 14.3337C59.2516 15.1737 59.1516 15.9937 58.9916 16.7937C58.8316 17.5937 58.6016 18.3537 58.3016 19.0737C58.0016 19.7737 57.5916 20.3937 57.0716 20.9337C56.5516 21.4737 55.9016 21.9037 55.1216 22.2237C54.3416 22.5238 53.3916 22.6738 52.2716 22.6738C51.1716 22.6738 50.2216 22.5238 49.4216 22.2237C48.6416 21.9037 47.9916 21.4737 47.4716 20.9337C46.9516 20.3937 46.5416 19.7737 46.2416 19.0737C45.9416 18.3537 45.7116 17.5937 45.5516 16.7937C45.3916 15.9937 45.2916 15.1737 45.2516 14.3337C45.2116 13.4937 45.1916 12.6837 45.1916 11.9037ZM69.1216 13.7337H75.6616V15.7737H69.1216V22.3438H67.0816V15.7737H60.5416V13.7337H67.0816V7.16375H69.1216V13.7337ZM87.6295 11.1837H93.2095C94.8295 11.2037 96.0095 10.8737 96.7495 10.1937C97.5095 9.51375 97.8895 8.53375 97.8895 7.25375C97.8895 5.97375 97.5095 5.00375 96.7495 4.34375C96.0095 3.66375 94.8295 3.32375 93.2095 3.32375H87.6295V11.1837ZM84.7795 0.923749H94.1695C96.3295 0.923749 97.9595 1.48375 99.0595 2.60375C100.179 3.70375 100.739 5.25375 100.739 7.25375C100.739 9.25375 100.179 10.8137 99.0595 11.9337C97.9595 13.0537 96.3295 13.6037 94.1695 13.5837H87.6295V22.3438H84.7795V0.923749ZM102.223 6.83375H104.623V10.1037H104.683C105.303 8.84375 106.063 7.91375 106.963 7.31375C107.863 6.71375 109.003 6.43375 110.383 6.47375V9.17375C109.363 9.17375 108.493 9.31375 107.773 9.59375C107.053 9.87375 106.473 10.2837 106.033 10.8237C105.593 11.3637 105.273 12.0237 105.073 12.8037C104.873 13.5637 104.773 14.4437 104.773 15.4437V22.3438H102.223V6.83375ZM112.135 14.6037C112.135 15.5437 112.255 16.3837 112.495 17.1237C112.755 17.8437 113.105 18.4537 113.545 18.9537C113.985 19.4337 114.495 19.8037 115.075 20.0637C115.675 20.3237 116.305 20.4537 116.965 20.4537C117.625 20.4537 118.245 20.3237 118.825 20.0637C119.425 19.8037 119.945 19.4337 120.385 18.9537C120.825 18.4537 121.165 17.8437 121.405 17.1237C121.665 16.3837 121.795 15.5437 121.795 14.6037C121.795 13.6637 121.665 12.8337 121.405 12.1137C121.165 11.3737 120.825 10.7537 120.385 10.2537C119.945 9.75375 119.425 9.37375 118.825 9.11375C118.245 8.85375 117.625 8.72375 116.965 8.72375C116.305 8.72375 115.675 8.85375 115.075 9.11375C114.495 9.37375 113.985 9.75375 113.545 10.2537C113.105 10.7537 112.755 11.3737 112.495 12.1137C112.255 12.8337 112.135 13.6637 112.135 14.6037ZM109.435 14.6037C109.435 13.4637 109.595 12.4037 109.915 11.4237C110.235 10.4237 110.715 9.56375 111.355 8.84375C111.995 8.10375 112.785 7.52375 113.725 7.10375C114.665 6.68375 115.745 6.47375 116.965 6.47375C118.205 6.47375 119.285 6.68375 120.205 7.10375C121.145 7.52375 121.935 8.10375 122.575 8.84375C123.215 9.56375 123.695 10.4237 124.015 11.4237C124.335 12.4037 124.495 13.4637 124.495 14.6037C124.495 15.7437 124.335 16.8037 124.015 17.7837C123.695 18.7637 123.215 19.6237 122.575 20.3638C121.935 21.0837 121.145 21.6537 120.205 22.0737C119.285 22.4738 118.205 22.6738 116.965 22.6738C115.745 22.6738 114.665 22.4738 113.725 22.0737C112.785 21.6537 111.995 21.0837 111.355 20.3638C110.715 19.6237 110.235 18.7637 109.915 17.7837C109.595 16.8037 109.435 15.7437 109.435 14.6037ZM127.052 9.08375H124.442V6.83375H127.052V4.52375C127.052 3.26375 127.412 2.31375 128.132 1.67375C128.872 1.01375 129.942 0.683748 131.342 0.683748C131.582 0.683748 131.852 0.703748 132.152 0.743749C132.472 0.783749 132.752 0.843748 132.992 0.923749V3.14375C132.772 3.06375 132.532 3.01375 132.272 2.99375C132.012 2.95375 131.772 2.93375 131.552 2.93375C130.932 2.93375 130.452 3.05375 130.112 3.29375C129.772 3.53375 129.602 3.99375 129.602 4.67375V6.83375H132.602V9.08375H129.602V22.3438H127.052V9.08375ZM144.149 13.1037C144.109 12.5037 143.969 11.9337 143.729 11.3937C143.509 10.8537 143.199 10.3937 142.799 10.0137C142.419 9.61375 141.959 9.30375 141.419 9.08375C140.899 8.84375 140.319 8.72375 139.679 8.72375C139.019 8.72375 138.419 8.84375 137.879 9.08375C137.359 9.30375 136.909 9.61375 136.529 10.0137C136.149 10.4137 135.849 10.8837 135.629 11.4237C135.409 11.9437 135.279 12.5037 135.239 13.1037H144.149ZM146.609 17.4237C146.269 19.1637 145.519 20.4737 144.359 21.3538C143.199 22.2338 141.739 22.6738 139.979 22.6738C138.739 22.6738 137.659 22.4738 136.739 22.0737C135.839 21.6737 135.079 21.1137 134.459 20.3937C133.839 19.6737 133.369 18.8137 133.049 17.8137C132.749 16.8137 132.579 15.7237 132.539 14.5437C132.539 13.3637 132.719 12.2837 133.079 11.3037C133.439 10.3237 133.939 9.47375 134.579 8.75375C135.239 8.03375 136.009 7.47375 136.889 7.07375C137.789 6.67375 138.769 6.47375 139.829 6.47375C141.209 6.47375 142.349 6.76375 143.249 7.34375C144.169 7.90375 144.899 8.62375 145.439 9.50375C145.999 10.3837 146.379 11.3437 146.579 12.3837C146.799 13.4237 146.889 14.4137 146.849 15.3537H135.239C135.219 16.0337 135.299 16.6837 135.479 17.3037C135.659 17.9037 135.949 18.4437 136.349 18.9237C136.749 19.3837 137.259 19.7537 137.879 20.0337C138.499 20.3137 139.229 20.4537 140.069 20.4537C141.149 20.4537 142.029 20.2037 142.709 19.7037C143.409 19.2037 143.869 18.4437 144.089 17.4237H146.609ZM149.552 17.4537C149.572 18.0137 149.702 18.4937 149.942 18.8937C150.182 19.2737 150.492 19.5837 150.872 19.8237C151.272 20.0437 151.712 20.2037 152.192 20.3037C152.692 20.4037 153.202 20.4537 153.722 20.4537C154.122 20.4537 154.542 20.4237 154.982 20.3638C155.422 20.3037 155.822 20.1937 156.182 20.0337C156.562 19.8737 156.872 19.6437 157.112 19.3437C157.352 19.0237 157.472 18.6237 157.472 18.1437C157.472 17.4837 157.222 16.9837 156.722 16.6437C156.222 16.3037 155.592 16.0337 154.832 15.8337C154.092 15.6137 153.282 15.4237 152.402 15.2637C151.522 15.0837 150.702 14.8437 149.942 14.5437C149.202 14.2237 148.582 13.7837 148.082 13.2237C147.582 12.6637 147.332 11.8837 147.332 10.8837C147.332 10.1037 147.502 9.43375 147.842 8.87375C148.202 8.31375 148.652 7.86375 149.192 7.52375C149.752 7.16375 150.372 6.90375 151.052 6.74375C151.752 6.56375 152.442 6.47375 153.122 6.47375C154.002 6.47375 154.812 6.55375 155.552 6.71375C156.292 6.85375 156.942 7.11375 157.502 7.49375C158.082 7.85375 158.542 8.35375 158.882 8.99375C159.222 9.61375 159.422 10.3937 159.482 11.3337H156.932C156.892 10.8337 156.762 10.4237 156.542 10.1037C156.322 9.76375 156.042 9.49375 155.702 9.29375C155.362 9.09375 154.982 8.95375 154.562 8.87375C154.162 8.77375 153.752 8.72375 153.332 8.72375C152.952 8.72375 152.562 8.75375 152.162 8.81375C151.782 8.87375 151.432 8.98375 151.112 9.14375C150.792 9.28375 150.532 9.48375 150.332 9.74375C150.132 9.98375 150.032 10.3037 150.032 10.7037C150.032 11.1437 150.182 11.5137 150.482 11.8137C150.802 12.0937 151.202 12.3337 151.682 12.5337C152.162 12.7137 152.702 12.8737 153.302 13.0137C153.902 13.1337 154.502 13.2637 155.102 13.4037C155.742 13.5437 156.362 13.7137 156.962 13.9137C157.582 14.1137 158.122 14.3837 158.582 14.7237C159.062 15.0437 159.442 15.4537 159.722 15.9537C160.022 16.4537 160.172 17.0737 160.172 17.8137C160.172 18.7537 159.972 19.5337 159.572 20.1537C159.192 20.7737 158.682 21.2737 158.042 21.6537C157.422 22.0337 156.712 22.2937 155.912 22.4338C155.132 22.5938 154.352 22.6738 153.572 22.6738C152.712 22.6738 151.892 22.5838 151.112 22.4038C150.332 22.2237 149.642 21.9337 149.042 21.5337C148.442 21.1137 147.962 20.5737 147.602 19.9137C147.242 19.2337 147.042 18.4137 147.002 17.4537H149.552ZM163.052 17.4537C163.072 18.0137 163.202 18.4937 163.442 18.8937C163.682 19.2737 163.992 19.5837 164.372 19.8237C164.772 20.0437 165.212 20.2037 165.692 20.3037C166.192 20.4037 166.702 20.4537 167.222 20.4537C167.622 20.4537 168.042 20.4237 168.482 20.3638C168.922 20.3037 169.322 20.1937 169.682 20.0337C170.062 19.8737 170.372 19.6437 170.612 19.3437C170.852 19.0237 170.972 18.6237 170.972 18.1437C170.972 17.4837 170.722 16.9837 170.222 16.6437C169.722 16.3037 169.092 16.0337 168.332 15.8337C167.592 15.6137 166.782 15.4237 165.902 15.2637C165.022 15.0837 164.202 14.8437 163.442 14.5437C162.702 14.2237 162.082 13.7837 161.582 13.2237C161.082 12.6637 160.832 11.8837 160.832 10.8837C160.832 10.1037 161.002 9.43375 161.342 8.87375C161.702 8.31375 162.152 7.86375 162.692 7.52375C163.252 7.16375 163.872 6.90375 164.552 6.74375C165.252 6.56375 165.942 6.47375 166.622 6.47375C167.502 6.47375 168.312 6.55375 169.052 6.71375C169.792 6.85375 170.442 7.11375 171.002 7.49375C171.582 7.85375 172.042 8.35375 172.382 8.99375C172.722 9.61375 172.922 10.3937 172.982 11.3337H170.432C170.392 10.8337 170.262 10.4237 170.042 10.1037C169.822 9.76375 169.542 9.49375 169.202 9.29375C168.862 9.09375 168.482 8.95375 168.062 8.87375C167.662 8.77375 167.252 8.72375 166.832 8.72375C166.452 8.72375 166.062 8.75375 165.662 8.81375C165.282 8.87375 164.932 8.98375 164.612 9.14375C164.292 9.28375 164.032 9.48375 163.832 9.74375C163.632 9.98375 163.532 10.3037 163.532 10.7037C163.532 11.1437 163.682 11.5137 163.982 11.8137C164.302 12.0937 164.702 12.3337 165.182 12.5337C165.662 12.7137 166.202 12.8737 166.802 13.0137C167.402 13.1337 168.002 13.2637 168.602 13.4037C169.242 13.5437 169.862 13.7137 170.462 13.9137C171.082 14.1137 171.622 14.3837 172.082 14.7237C172.562 15.0437 172.942 15.4537 173.222 15.9537C173.522 16.4537 173.672 17.0737 173.672 17.8137C173.672 18.7537 173.472 19.5337 173.072 20.1537C172.692 20.7737 172.182 21.2737 171.542 21.6537C170.922 22.0337 170.212 22.2937 169.412 22.4338C168.632 22.5938 167.852 22.6738 167.072 22.6738C166.212 22.6738 165.392 22.5838 164.612 22.4038C163.832 22.2237 163.142 21.9337 162.542 21.5337C161.942 21.1137 161.462 20.5737 161.102 19.9137C160.742 19.2337 160.542 18.4137 160.502 17.4537H163.052ZM177.692 4.04375H175.142V0.923749H177.692V4.04375ZM175.142 6.83375H177.692V22.3438H175.142V6.83375ZM182.003 14.6037C182.003 15.5437 182.123 16.3837 182.363 17.1237C182.623 17.8437 182.973 18.4537 183.413 18.9537C183.853 19.4337 184.363 19.8037 184.943 20.0637C185.543 20.3237 186.173 20.4537 186.833 20.4537C187.493 20.4537 188.113 20.3237 188.693 20.0637C189.293 19.8037 189.813 19.4337 190.253 18.9537C190.693 18.4537 191.033 17.8437 191.273 17.1237C191.533 16.3837 191.663 15.5437 191.663 14.6037C191.663 13.6637 191.533 12.8337 191.273 12.1137C191.033 11.3737 190.693 10.7537 190.253 10.2537C189.813 9.75375 189.293 9.37375 188.693 9.11375C188.113 8.85375 187.493 8.72375 186.833 8.72375C186.173 8.72375 185.543 8.85375 184.943 9.11375C184.363 9.37375 183.853 9.75375 183.413 10.2537C182.973 10.7537 182.623 11.3737 182.363 12.1137C182.123 12.8337 182.003 13.6637 182.003 14.6037ZM179.303 14.6037C179.303 13.4637 179.463 12.4037 179.783 11.4237C180.103 10.4237 180.583 9.56375 181.223 8.84375C181.863 8.10375 182.653 7.52375 183.593 7.10375C184.533 6.68375 185.613 6.47375 186.833 6.47375C188.073 6.47375 189.153 6.68375 190.073 7.10375C191.013 7.52375 191.803 8.10375 192.443 8.84375C193.083 9.56375 193.563 10.4237 193.883 11.4237C194.203 12.4037 194.363 13.4637 194.363 14.6037C194.363 15.7437 194.203 16.8037 193.883 17.7837C193.563 18.7637 193.083 19.6237 192.443 20.3638C191.803 21.0837 191.013 21.6537 190.073 22.0737C189.153 22.4738 188.073 22.6738 186.833 22.6738C185.613 22.6738 184.533 22.4738 183.593 22.0737C182.653 21.6537 181.863 21.0837 181.223 20.3638C180.583 19.6237 180.103 18.7637 179.783 17.7837C179.463 16.8037 179.303 15.7437 179.303 14.6037ZM195.869 6.83375H198.269V9.29375H198.329C199.389 7.41375 201.069 6.47375 203.369 6.47375C204.389 6.47375 205.239 6.61375 205.919 6.89375C206.599 7.17375 207.149 7.56375 207.569 8.06375C207.989 8.56375 208.279 9.16375 208.439 9.86375C208.619 10.5437 208.709 11.3037 208.709 12.1437V22.3438H206.159V11.8437C206.159 10.8837 205.879 10.1237 205.319 9.56375C204.759 9.00375 203.989 8.72375 203.009 8.72375C202.229 8.72375 201.549 8.84375 200.969 9.08375C200.409 9.32375 199.939 9.66375 199.559 10.1037C199.179 10.5437 198.889 11.0637 198.689 11.6637C198.509 12.2437 198.419 12.8837 198.419 13.5837V22.3438H195.869V6.83375ZM224.779 22.2837C224.339 22.5438 223.729 22.6738 222.949 22.6738C222.289 22.6738 221.759 22.4938 221.359 22.1337C220.979 21.7537 220.789 21.1437 220.789 20.3037C220.089 21.1437 219.269 21.7537 218.329 22.1337C217.409 22.4938 216.409 22.6738 215.329 22.6738C214.629 22.6738 213.959 22.5938 213.319 22.4338C212.699 22.2737 212.159 22.0237 211.699 21.6837C211.239 21.3437 210.869 20.9037 210.589 20.3638C210.329 19.8037 210.199 19.1337 210.199 18.3537C210.199 17.4737 210.349 16.7537 210.649 16.1937C210.949 15.6337 211.339 15.1837 211.819 14.8438C212.319 14.4837 212.879 14.2137 213.499 14.0337C214.139 13.8537 214.789 13.7037 215.449 13.5837C216.149 13.4437 216.809 13.3437 217.429 13.2837C218.069 13.2037 218.629 13.1037 219.109 12.9837C219.589 12.8437 219.969 12.6537 220.249 12.4137C220.529 12.1537 220.669 11.7837 220.669 11.3037C220.669 10.7437 220.559 10.2937 220.339 9.95375C220.139 9.61375 219.869 9.35375 219.529 9.17375C219.209 8.99375 218.839 8.87375 218.419 8.81375C218.019 8.75375 217.619 8.72375 217.219 8.72375C216.139 8.72375 215.239 8.93375 214.519 9.35375C213.799 9.75375 213.409 10.5237 213.349 11.6637H210.799C210.839 10.7037 211.039 9.89375 211.399 9.23375C211.759 8.57375 212.239 8.04375 212.839 7.64375C213.439 7.22375 214.119 6.92375 214.879 6.74375C215.659 6.56375 216.489 6.47375 217.369 6.47375C218.069 6.47375 218.759 6.52375 219.439 6.62375C220.139 6.72375 220.769 6.93375 221.329 7.25375C221.889 7.55375 222.339 7.98375 222.679 8.54375C223.019 9.10375 223.189 9.83375 223.189 10.7337V18.7137C223.189 19.3137 223.219 19.7537 223.279 20.0337C223.359 20.3137 223.599 20.4537 223.999 20.4537C224.219 20.4537 224.479 20.4037 224.779 20.3037V22.2837ZM220.639 14.3337C220.319 14.5737 219.899 14.7537 219.379 14.8737C218.859 14.9737 218.309 15.0637 217.729 15.1437C217.169 15.2037 216.599 15.2837 216.019 15.3837C215.439 15.4637 214.919 15.6037 214.459 15.8037C213.999 16.0037 213.619 16.2937 213.319 16.6737C213.039 17.0337 212.899 17.5337 212.899 18.1737C212.899 18.5937 212.979 18.9537 213.139 19.2537C213.319 19.5337 213.539 19.7637 213.799 19.9437C214.079 20.1237 214.399 20.2537 214.759 20.3337C215.119 20.4137 215.499 20.4537 215.899 20.4537C216.739 20.4537 217.459 20.3437 218.059 20.1237C218.659 19.8837 219.149 19.5937 219.529 19.2537C219.909 18.8937 220.189 18.5137 220.369 18.1137C220.549 17.6937 220.639 17.3037 220.639 16.9437V14.3337ZM225.802 0.923749H228.352V22.3438H225.802V0.923749ZM3.61188 53.9437H8.35188C8.67188 53.9437 9.07188 53.9237 9.55188 53.8837C10.0319 53.8237 10.5419 53.7037 11.0819 53.5237C11.6219 53.3237 12.1519 53.0437 12.6719 52.6837C13.2119 52.3237 13.6919 51.8337 14.1119 51.2137C14.5319 50.5937 14.8719 49.8237 15.1319 48.9037C15.4119 47.9637 15.5519 46.8337 15.5519 45.5137C15.5519 44.2337 15.4219 43.0937 15.1619 42.0937C14.9219 41.0737 14.5119 40.2137 13.9319 39.5137C13.3719 38.7937 12.6419 38.2537 11.7419 37.8937C10.8419 37.5137 9.73188 37.3237 8.41188 37.3237H3.61188V53.9437ZM0.761875 34.9237H8.11188C11.4119 34.9237 13.9519 35.7637 15.7319 37.4437C17.5119 39.1237 18.4019 41.6837 18.4019 45.1237C18.4019 46.9237 18.2019 48.5237 17.8019 49.9237C17.4019 51.3037 16.7819 52.4737 15.9419 53.4337C15.1019 54.3737 14.0319 55.0937 12.7319 55.5937C11.4319 56.0937 9.89188 56.3438 8.11188 56.3438H0.761875V34.9237ZM30.7349 47.1037C30.6949 46.5037 30.5549 45.9337 30.3149 45.3937C30.0949 44.8537 29.7849 44.3937 29.3849 44.0137C29.0049 43.6137 28.5449 43.3037 28.0049 43.0837C27.4849 42.8437 26.9049 42.7237 26.2649 42.7237C25.6049 42.7237 25.0049 42.8437 24.4649 43.0837C23.9449 43.3037 23.4949 43.6137 23.1149 44.0137C22.7349 44.4137 22.4349 44.8837 22.2149 45.4237C21.9949 45.9437 21.8649 46.5037 21.8249 47.1037H30.7349ZM33.1949 51.4237C32.8549 53.1637 32.1049 54.4737 30.9449 55.3538C29.7849 56.2338 28.3249 56.6738 26.5649 56.6738C25.3249 56.6738 24.2449 56.4738 23.3249 56.0737C22.4249 55.6737 21.6649 55.1137 21.0449 54.3937C20.4249 53.6737 19.9549 52.8137 19.6349 51.8137C19.3349 50.8137 19.1649 49.7237 19.1249 48.5437C19.1249 47.3637 19.3049 46.2837 19.6649 45.3037C20.0249 44.3237 20.5249 43.4737 21.1649 42.7537C21.8249 42.0337 22.5949 41.4737 23.4749 41.0737C24.3749 40.6737 25.3549 40.4737 26.4149 40.4737C27.7949 40.4737 28.9349 40.7637 29.8349 41.3438C30.7549 41.9037 31.4849 42.6237 32.0249 43.5037C32.5849 44.3837 32.9649 45.3437 33.1649 46.3837C33.3849 47.4237 33.4749 48.4137 33.4349 49.3537H21.8249C21.8049 50.0337 21.8849 50.6837 22.0649 51.3037C22.2449 51.9037 22.5349 52.4437 22.9349 52.9237C23.3349 53.3837 23.8449 53.7537 24.4649 54.0337C25.0849 54.3137 25.8149 54.4537 26.6549 54.4537C27.7349 54.4537 28.6149 54.2037 29.2949 53.7037C29.9949 53.2037 30.4549 52.4437 30.6749 51.4237H33.1949ZM36.1382 51.4537C36.1582 52.0137 36.2882 52.4937 36.5282 52.8937C36.7682 53.2737 37.0782 53.5837 37.4582 53.8237C37.8582 54.0437 38.2982 54.2037 38.7782 54.3037C39.2782 54.4037 39.7882 54.4537 40.3082 54.4537C40.7082 54.4537 41.1282 54.4237 41.5682 54.3638C42.0082 54.3037 42.4082 54.1937 42.7682 54.0337C43.1482 53.8737 43.4582 53.6437 43.6982 53.3437C43.9382 53.0237 44.0582 52.6237 44.0582 52.1437C44.0582 51.4837 43.8082 50.9837 43.3082 50.6437C42.8082 50.3037 42.1782 50.0337 41.4182 49.8337C40.6782 49.6137 39.8682 49.4237 38.9882 49.2637C38.1082 49.0837 37.2882 48.8437 36.5282 48.5437C35.7882 48.2237 35.1682 47.7837 34.6682 47.2237C34.1682 46.6637 33.9182 45.8837 33.9182 44.8837C33.9182 44.1037 34.0882 43.4337 34.4282 42.8737C34.7882 42.3137 35.2382 41.8637 35.7782 41.5237C36.3382 41.1637 36.9582 40.9037 37.6382 40.7437C38.3382 40.5637 39.0282 40.4737 39.7082 40.4737C40.5882 40.4737 41.3982 40.5537 42.1382 40.7137C42.8782 40.8537 43.5282 41.1137 44.0882 41.4937C44.6682 41.8537 45.1282 42.3537 45.4682 42.9937C45.8082 43.6137 46.0082 44.3937 46.0682 45.3337H43.5182C43.4782 44.8337 43.3482 44.4237 43.1282 44.1037C42.9082 43.7637 42.6282 43.4937 42.2882 43.2937C41.9482 43.0937 41.5682 42.9537 41.1482 42.8737C40.7482 42.7737 40.3382 42.7237 39.9182 42.7237C39.5382 42.7237 39.1482 42.7537 38.7482 42.8137C38.3682 42.8737 38.0182 42.9837 37.6982 43.1437C37.3782 43.2837 37.1182 43.4837 36.9182 43.7437C36.7182 43.9837 36.6182 44.3037 36.6182 44.7037C36.6182 45.1437 36.7682 45.5137 37.0682 45.8137C37.3882 46.0937 37.7882 46.3337 38.2682 46.5337C38.7482 46.7137 39.2882 46.8737 39.8882 47.0137C40.4882 47.1337 41.0882 47.2637 41.6882 47.4037C42.3282 47.5437 42.9482 47.7137 43.5482 47.9137C44.1682 48.1137 44.7082 48.3837 45.1682 48.7237C45.6482 49.0437 46.0282 49.4537 46.3082 49.9537C46.6082 50.4537 46.7582 51.0737 46.7582 51.8137C46.7582 52.7537 46.5582 53.5337 46.1582 54.1537C45.7782 54.7737 45.2682 55.2737 44.6282 55.6537C44.0082 56.0337 43.2982 56.2937 42.4982 56.4338C41.7182 56.5938 40.9382 56.6738 40.1582 56.6738C39.2982 56.6738 38.4782 56.5838 37.6982 56.4038C36.9182 56.2237 36.2282 55.9337 35.6282 55.5337C35.0282 55.1137 34.5482 54.5737 34.1882 53.9137C33.8282 53.2337 33.6282 52.4137 33.5882 51.4537H36.1382ZM50.7782 38.0437H48.2282V34.9237H50.7782V38.0437ZM48.2282 40.8337H50.7782V56.3438H48.2282V40.8337ZM66.6086 55.0237C66.6086 57.5638 66.0286 59.4638 64.8686 60.7238C63.7086 61.9838 61.8886 62.6138 59.4086 62.6138C58.6886 62.6138 57.9486 62.5338 57.1886 62.3738C56.4486 62.2138 55.7686 61.9538 55.1486 61.5938C54.5486 61.2338 54.0486 60.7638 53.6486 60.1838C53.2486 59.6038 53.0286 58.8938 52.9886 58.0538H55.5386C55.5586 58.5138 55.6986 58.9038 55.9586 59.2238C56.2386 59.5438 56.5686 59.8038 56.9486 60.0038C57.3486 60.2038 57.7786 60.3438 58.2386 60.4238C58.6986 60.5238 59.1386 60.5738 59.5586 60.5738C60.3986 60.5738 61.1086 60.4238 61.6886 60.1238C62.2686 59.8438 62.7486 59.4438 63.1286 58.9238C63.5086 58.4238 63.7786 57.8138 63.9386 57.0938C64.1186 56.3737 64.2086 55.5837 64.2086 54.7237V53.7037H64.1486C63.7086 54.6637 63.0386 55.3737 62.1386 55.8337C61.2586 56.2737 60.3186 56.4938 59.3186 56.4938C58.1586 56.4938 57.1486 56.2837 56.2886 55.8637C55.4286 55.4437 54.7086 54.8837 54.1286 54.1837C53.5486 53.4637 53.1086 52.6337 52.8086 51.6937C52.5286 50.7337 52.3886 49.7237 52.3886 48.6637C52.3886 47.7437 52.5086 46.8037 52.7486 45.8437C52.9886 44.8637 53.3886 43.9837 53.9486 43.2037C54.5086 42.4037 55.2486 41.7537 56.1686 41.2537C57.0886 40.7337 58.2186 40.4737 59.5586 40.4737C60.5386 40.4737 61.4386 40.6937 62.2586 41.1337C63.0786 41.5537 63.7186 42.1937 64.1786 43.0537H64.2086V40.8337H66.6086V55.0237ZM59.4686 54.2737C60.3086 54.2737 61.0186 54.1037 61.5986 53.7637C62.1986 53.4037 62.6786 52.9437 63.0386 52.3838C63.3986 51.8037 63.6586 51.1537 63.8186 50.4337C63.9986 49.7137 64.0886 48.9937 64.0886 48.2737C64.0886 47.5937 64.0086 46.9237 63.8486 46.2637C63.6886 45.6037 63.4286 45.0137 63.0686 44.4937C62.7286 43.9537 62.2786 43.5237 61.7186 43.2037C61.1586 42.8837 60.4786 42.7237 59.6786 42.7237C58.8586 42.7237 58.1586 42.8837 57.5786 43.2037C56.9986 43.5037 56.5186 43.9137 56.1386 44.4337C55.7786 44.9537 55.5086 45.5537 55.3286 46.2337C55.1686 46.9137 55.0886 47.6237 55.0886 48.3637C55.0886 49.0637 55.1586 49.7637 55.2986 50.4637C55.4386 51.1637 55.6786 51.8037 56.0186 52.3838C56.3586 52.9437 56.8086 53.4037 57.3686 53.7637C57.9286 54.1037 58.6286 54.2737 59.4686 54.2737ZM68.9552 40.8337H71.3552V43.2937H71.4152C72.4752 41.4137 74.1552 40.4737 76.4552 40.4737C77.4752 40.4737 78.3252 40.6137 79.0052 40.8937C79.6852 41.1737 80.2352 41.5637 80.6552 42.0637C81.0752 42.5637 81.3652 43.1637 81.5252 43.8637C81.7052 44.5437 81.7952 45.3037 81.7952 46.1437V56.3438H79.2452V45.8437C79.2452 44.8837 78.9652 44.1237 78.4052 43.5637C77.8452 43.0037 77.0752 42.7237 76.0952 42.7237C75.3152 42.7237 74.6352 42.8437 74.0552 43.0837C73.4952 43.3237 73.0252 43.6637 72.6452 44.1037C72.2652 44.5437 71.9752 45.0637 71.7752 45.6637C71.5952 46.2437 71.5052 46.8837 71.5052 47.5837V56.3438H68.9552V40.8337ZM91.3947 34.9237H101.475C103.515 34.9237 105.105 35.4237 106.245 36.4237C107.405 37.4237 107.985 38.7937 107.985 40.5337C107.985 41.8337 107.685 42.9737 107.085 43.9537C106.505 44.9337 105.565 45.6037 104.265 45.9637V46.0237C104.885 46.1437 105.385 46.3437 105.765 46.6237C106.165 46.9037 106.475 47.2437 106.695 47.6437C106.935 48.0237 107.105 48.4537 107.205 48.9337C107.325 49.4137 107.415 49.9137 107.475 50.4337C107.515 50.9537 107.545 51.4837 107.565 52.0237C107.585 52.5637 107.635 53.0937 107.715 53.6137C107.795 54.1337 107.905 54.6337 108.045 55.1137C108.205 55.5737 108.435 55.9837 108.735 56.3438H105.555C105.355 56.1237 105.215 55.8237 105.135 55.4437C105.075 55.0637 105.035 54.6437 105.015 54.1837C104.995 53.7037 104.975 53.1937 104.955 52.6537C104.935 52.1137 104.875 51.5837 104.775 51.0637C104.695 50.5437 104.595 50.0537 104.475 49.5937C104.355 49.1137 104.165 48.7037 103.905 48.3637C103.645 48.0037 103.305 47.7237 102.885 47.5238C102.465 47.3037 101.905 47.1937 101.205 47.1937H94.2447V56.3438H91.3947V34.9237ZM100.185 44.7937C100.845 44.7937 101.475 44.7437 102.075 44.6437C102.675 44.5437 103.195 44.3537 103.635 44.0737C104.095 43.7737 104.455 43.3837 104.715 42.9037C104.995 42.4037 105.135 41.7637 105.135 40.9837C105.135 39.9037 104.835 39.0237 104.235 38.3437C103.635 37.6637 102.665 37.3237 101.325 37.3237H94.2447V44.7937H100.185ZM120.782 47.1037C120.742 46.5037 120.602 45.9337 120.362 45.3937C120.142 44.8537 119.832 44.3937 119.432 44.0137C119.052 43.6137 118.592 43.3037 118.052 43.0837C117.532 42.8437 116.952 42.7237 116.312 42.7237C115.652 42.7237 115.052 42.8437 114.512 43.0837C113.992 43.3037 113.542 43.6137 113.162 44.0137C112.782 44.4137 112.482 44.8837 112.262 45.4237C112.042 45.9437 111.912 46.5037 111.872 47.1037H120.782ZM123.242 51.4237C122.902 53.1637 122.152 54.4737 120.992 55.3538C119.832 56.2338 118.372 56.6738 116.612 56.6738C115.372 56.6738 114.292 56.4738 113.372 56.0737C112.472 55.6737 111.712 55.1137 111.092 54.3937C110.472 53.6737 110.002 52.8137 109.682 51.8137C109.382 50.8137 109.212 49.7237 109.172 48.5437C109.172 47.3637 109.352 46.2837 109.712 45.3037C110.072 44.3237 110.572 43.4737 111.212 42.7537C111.872 42.0337 112.642 41.4737 113.522 41.0737C114.422 40.6737 115.402 40.4737 116.462 40.4737C117.842 40.4737 118.982 40.7637 119.882 41.3438C120.802 41.9037 121.532 42.6237 122.072 43.5037C122.632 44.3837 123.012 45.3437 123.212 46.3837C123.432 47.4237 123.522 48.4137 123.482 49.3537H111.872C111.852 50.0337 111.932 50.6837 112.112 51.3037C112.292 51.9037 112.582 52.4437 112.982 52.9237C113.382 53.3837 113.892 53.7537 114.512 54.0337C115.132 54.3137 115.862 54.4537 116.702 54.4537C117.782 54.4537 118.662 54.2037 119.342 53.7037C120.042 53.2037 120.502 52.4437 120.722 51.4237H123.242ZM126.185 51.4537C126.205 52.0137 126.335 52.4937 126.575 52.8937C126.815 53.2737 127.125 53.5837 127.505 53.8237C127.905 54.0437 128.345 54.2037 128.825 54.3037C129.325 54.4037 129.835 54.4537 130.355 54.4537C130.755 54.4537 131.175 54.4237 131.615 54.3638C132.055 54.3037 132.455 54.1937 132.815 54.0337C133.195 53.8737 133.505 53.6437 133.745 53.3437C133.985 53.0237 134.105 52.6237 134.105 52.1437C134.105 51.4837 133.855 50.9837 133.355 50.6437C132.855 50.3037 132.225 50.0337 131.465 49.8337C130.725 49.6137 129.915 49.4237 129.035 49.2637C128.155 49.0837 127.335 48.8437 126.575 48.5437C125.835 48.2237 125.215 47.7837 124.715 47.2237C124.215 46.6637 123.965 45.8837 123.965 44.8837C123.965 44.1037 124.135 43.4337 124.475 42.8737C124.835 42.3137 125.285 41.8637 125.825 41.5237C126.385 41.1637 127.005 40.9037 127.685 40.7437C128.385 40.5637 129.075 40.4737 129.755 40.4737C130.635 40.4737 131.445 40.5537 132.185 40.7137C132.925 40.8537 133.575 41.1137 134.135 41.4937C134.715 41.8537 135.175 42.3537 135.515 42.9937C135.855 43.6137 136.055 44.3937 136.115 45.3337H133.565C133.525 44.8337 133.395 44.4237 133.175 44.1037C132.955 43.7637 132.675 43.4937 132.335 43.2937C131.995 43.0937 131.615 42.9537 131.195 42.8737C130.795 42.7737 130.385 42.7237 129.965 42.7237C129.585 42.7237 129.195 42.7537 128.795 42.8137C128.415 42.8737 128.065 42.9837 127.745 43.1437C127.425 43.2837 127.165 43.4837 126.965 43.7437C126.765 43.9837 126.665 44.3037 126.665 44.7037C126.665 45.1437 126.815 45.5137 127.115 45.8137C127.435 46.0937 127.835 46.3337 128.315 46.5337C128.795 46.7137 129.335 46.8737 129.935 47.0137C130.535 47.1337 131.135 47.2637 131.735 47.4037C132.375 47.5437 132.995 47.7137 133.595 47.9137C134.215 48.1137 134.755 48.3837 135.215 48.7237C135.695 49.0437 136.075 49.4537 136.355 49.9537C136.655 50.4537 136.805 51.0737 136.805 51.8137C136.805 52.7537 136.605 53.5337 136.205 54.1537C135.825 54.7737 135.315 55.2737 134.675 55.6537C134.055 56.0337 133.345 56.2937 132.545 56.4338C131.765 56.5938 130.985 56.6738 130.205 56.6738C129.345 56.6738 128.525 56.5838 127.745 56.4038C126.965 56.2237 126.275 55.9337 125.675 55.5337C125.075 55.1137 124.595 54.5737 124.235 53.9137C123.875 53.2337 123.675 52.4137 123.635 51.4537H126.185ZM139.985 48.6037C139.985 49.5437 140.105 50.3837 140.345 51.1237C140.605 51.8437 140.955 52.4537 141.395 52.9537C141.835 53.4337 142.345 53.8037 142.925 54.0637C143.525 54.3237 144.155 54.4537 144.815 54.4537C145.475 54.4537 146.095 54.3237 146.675 54.0637C147.275 53.8037 147.795 53.4337 148.235 52.9537C148.675 52.4537 149.015 51.8437 149.255 51.1237C149.515 50.3837 149.645 49.5437 149.645 48.6037C149.645 47.6637 149.515 46.8337 149.255 46.1137C149.015 45.3737 148.675 44.7537 148.235 44.2537C147.795 43.7537 147.275 43.3737 146.675 43.1137C146.095 42.8537 145.475 42.7237 144.815 42.7237C144.155 42.7237 143.525 42.8537 142.925 43.1137C142.345 43.3737 141.835 43.7537 141.395 44.2537C140.955 44.7537 140.605 45.3737 140.345 46.1137C140.105 46.8337 139.985 47.6637 139.985 48.6037ZM137.285 48.6037C137.285 47.4637 137.445 46.4037 137.765 45.4237C138.085 44.4237 138.565 43.5637 139.205 42.8437C139.845 42.1037 140.635 41.5237 141.575 41.1037C142.515 40.6837 143.595 40.4737 144.815 40.4737C146.055 40.4737 147.135 40.6837 148.055 41.1037C148.995 41.5237 149.785 42.1037 150.425 42.8437C151.065 43.5637 151.545 44.4237 151.865 45.4237C152.185 46.4037 152.345 47.4637 152.345 48.6037C152.345 49.7437 152.185 50.8037 151.865 51.7837C151.545 52.7637 151.065 53.6237 150.425 54.3638C149.785 55.0837 148.995 55.6537 148.055 56.0737C147.135 56.4738 146.055 56.6738 144.815 56.6738C143.595 56.6738 142.515 56.4738 141.575 56.0737C140.635 55.6537 139.845 55.0837 139.205 54.3638C138.565 53.6237 138.085 52.7637 137.765 51.7837C137.445 50.8037 137.285 49.7437 137.285 48.6037ZM166.692 56.3438H164.292V53.8837H164.232C163.692 54.8437 163.002 55.5537 162.162 56.0137C161.322 56.4538 160.332 56.6738 159.192 56.6738C158.172 56.6738 157.322 56.5438 156.642 56.2837C155.962 56.0037 155.412 55.6137 154.992 55.1137C154.572 54.6137 154.272 54.0237 154.092 53.3437C153.932 52.6437 153.852 51.8737 153.852 51.0337V40.8337H156.402V51.3337C156.402 52.2937 156.682 53.0537 157.242 53.6137C157.802 54.1737 158.572 54.4537 159.552 54.4537C160.332 54.4537 161.002 54.3337 161.562 54.0937C162.142 53.8537 162.622 53.5137 163.002 53.0737C163.382 52.6337 163.662 52.1237 163.842 51.5437C164.042 50.9437 164.142 50.2937 164.142 49.5937V40.8337H166.692V56.3438ZM168.932 40.8337H171.332V44.1037H171.392C172.012 42.8437 172.772 41.9137 173.672 41.3137C174.572 40.7137 175.712 40.4337 177.092 40.4737V43.1737C176.072 43.1737 175.202 43.3137 174.482 43.5937C173.762 43.8737 173.182 44.2837 172.742 44.8237C172.302 45.3637 171.982 46.0237 171.782 46.8037C171.582 47.5637 171.482 48.4437 171.482 49.4437V56.3438H168.932V40.8337ZM187.514 45.8137C187.314 44.8337 186.894 44.0737 186.254 43.5337C185.614 42.9937 184.754 42.7237 183.674 42.7237C182.754 42.7237 181.984 42.8937 181.364 43.2337C180.744 43.5737 180.244 44.0237 179.864 44.5837C179.504 45.1437 179.244 45.7937 179.084 46.5337C178.924 47.2537 178.844 48.0037 178.844 48.7837C178.844 49.5037 178.924 50.2037 179.084 50.8837C179.264 51.5637 179.534 52.1737 179.894 52.7137C180.254 53.2337 180.724 53.6537 181.304 53.9737C181.884 54.2937 182.574 54.4537 183.374 54.4537C184.634 54.4537 185.614 54.1237 186.314 53.4637C187.034 52.8037 187.474 51.8737 187.634 50.6737H190.244C189.964 52.5937 189.244 54.0737 188.084 55.1137C186.944 56.1538 185.384 56.6738 183.404 56.6738C182.224 56.6738 181.174 56.4838 180.254 56.1037C179.354 55.7237 178.594 55.1837 177.974 54.4837C177.374 53.7837 176.914 52.9537 176.594 51.9937C176.294 51.0137 176.144 49.9437 176.144 48.7837C176.144 47.6237 176.294 46.5437 176.594 45.5437C176.894 44.5237 177.344 43.6437 177.944 42.9037C178.564 42.1437 179.334 41.5537 180.254 41.1337C181.174 40.6937 182.244 40.4737 183.464 40.4737C184.344 40.4737 185.164 40.5837 185.924 40.8037C186.704 41.0037 187.384 41.3237 187.964 41.7637C188.564 42.2037 189.054 42.7637 189.434 43.4437C189.814 44.1037 190.054 44.8937 190.154 45.8137H187.514ZM202.368 47.1037C202.328 46.5037 202.188 45.9337 201.948 45.3937C201.728 44.8537 201.418 44.3937 201.018 44.0137C200.638 43.6137 200.178 43.3037 199.638 43.0837C199.118 42.8437 198.538 42.7237 197.898 42.7237C197.238 42.7237 196.638 42.8437 196.098 43.0837C195.578 43.3037 195.128 43.6137 194.748 44.0137C194.368 44.4137 194.068 44.8837 193.848 45.4237C193.628 45.9437 193.498 46.5037 193.458 47.1037H202.368ZM204.828 51.4237C204.488 53.1637 203.738 54.4737 202.578 55.3538C201.418 56.2338 199.958 56.6738 198.198 56.6738C196.958 56.6738 195.878 56.4738 194.958 56.0737C194.058 55.6737 193.298 55.1137 192.678 54.3937C192.058 53.6737 191.588 52.8137 191.268 51.8137C190.968 50.8137 190.798 49.7237 190.758 48.5437C190.758 47.3637 190.938 46.2837 191.298 45.3037C191.658 44.3237 192.158 43.4737 192.798 42.7537C193.458 42.0337 194.228 41.4737 195.108 41.0737C196.008 40.6737 196.988 40.4737 198.048 40.4737C199.428 40.4737 200.568 40.7637 201.468 41.3438C202.388 41.9037 203.118 42.6237 203.658 43.5037C204.218 44.3837 204.598 45.3437 204.798 46.3837C205.018 47.4237 205.108 48.4137 205.068 49.3537H193.458C193.438 50.0337 193.518 50.6837 193.698 51.3037C193.878 51.9037 194.168 52.4437 194.568 52.9237C194.968 53.3837 195.478 53.7537 196.098 54.0337C196.718 54.3137 197.448 54.4537 198.288 54.4537C199.368 54.4537 200.248 54.2037 200.928 53.7037C201.628 53.2037 202.088 52.4437 202.308 51.4237H204.828ZM207.771 51.4537C207.791 52.0137 207.921 52.4937 208.161 52.8937C208.401 53.2737 208.711 53.5837 209.091 53.8237C209.491 54.0437 209.931 54.2037 210.411 54.3037C210.911 54.4037 211.421 54.4537 211.941 54.4537C212.341 54.4537 212.761 54.4237 213.201 54.3638C213.641 54.3037 214.041 54.1937 214.401 54.0337C214.781 53.8737 215.091 53.6437 215.331 53.3437C215.571 53.0237 215.691 52.6237 215.691 52.1437C215.691 51.4837 215.441 50.9837 214.941 50.6437C214.441 50.3037 213.811 50.0337 213.051 49.8337C212.311 49.6137 211.501 49.4237 210.621 49.2637C209.741 49.0837 208.921 48.8437 208.161 48.5437C207.421 48.2237 206.801 47.7837 206.301 47.2237C205.801 46.6637 205.551 45.8837 205.551 44.8837C205.551 44.1037 205.721 43.4337 206.061 42.8737C206.421 42.3137 206.871 41.8637 207.411 41.5237C207.971 41.1637 208.591 40.9037 209.271 40.7437C209.971 40.5637 210.661 40.4737 211.341 40.4737C212.221 40.4737 213.031 40.5537 213.771 40.7137C214.511 40.8537 215.161 41.1137 215.721 41.4937C216.301 41.8537 216.761 42.3537 217.101 42.9937C217.441 43.6137 217.641 44.3937 217.701 45.3337H215.151C215.111 44.8337 214.981 44.4237 214.761 44.1037C214.541 43.7637 214.261 43.4937 213.921 43.2937C213.581 43.0937 213.201 42.9537 212.781 42.8737C212.381 42.7737 211.971 42.7237 211.551 42.7237C211.171 42.7237 210.781 42.7537 210.381 42.8137C210.001 42.8737 209.651 42.9837 209.331 43.1437C209.011 43.2837 208.751 43.4837 208.551 43.7437C208.351 43.9837 208.251 44.3037 208.251 44.7037C208.251 45.1437 208.401 45.5137 208.701 45.8137C209.021 46.0937 209.421 46.3337 209.901 46.5337C210.381 46.7137 210.921 46.8737 211.521 47.0137C212.121 47.1337 212.721 47.2637 213.321 47.4037C213.961 47.5437 214.581 47.7137 215.181 47.9137C215.801 48.1137 216.341 48.3837 216.801 48.7237C217.281 49.0437 217.661 49.4537 217.941 49.9537C218.241 50.4537 218.391 51.0737 218.391 51.8137C218.391 52.7537 218.191 53.5337 217.791 54.1537C217.411 54.7737 216.901 55.2737 216.261 55.6537C215.641 56.0337 214.931 56.2937 214.131 56.4338C213.351 56.5938 212.571 56.6738 211.791 56.6738C210.931 56.6738 210.111 56.5838 209.331 56.4038C208.551 56.2237 207.861 55.9337 207.261 55.5337C206.661 55.1137 206.181 54.5737 205.821 53.9137C205.461 53.2337 205.261 52.4137 205.221 51.4537H207.771ZM224.641 58.4438H254.641V28.4437H224.641V58.4438Z" fill="#EEE8E2"/>
</svg>
