<svg width="254" height="63" viewBox="0 0 254 63" fill="none" xmlns="http://www.w3.org/2000/svg">
<path d="M21.9478 22.3438H18.9778L14.0878 4.34375H14.0278L9.07781 22.3438H6.10781L0.617813 0.923749H3.52781L7.72781 18.7437H7.78781L12.5878 0.923749H15.6778L20.4178 18.7437H20.4778L24.8278 0.923749H27.6778L21.9478 22.3438ZM28.612 14.6037C28.612 15.5437 28.732 16.3837 28.972 17.1237C29.232 17.8437 29.582 18.4537 30.022 18.9537C30.462 19.4337 30.972 19.8037 31.552 20.0637C32.152 20.3237 32.782 20.4537 33.442 20.4537C34.102 20.4537 34.722 20.3237 35.302 20.0637C35.902 19.8037 36.422 19.4337 36.862 18.9537C37.302 18.4537 37.642 17.8437 37.882 17.1237C38.142 16.3837 38.272 15.5437 38.272 14.6037C38.272 13.6637 38.142 12.8337 37.882 12.1137C37.642 11.3737 37.302 10.7537 36.862 10.2537C36.422 9.75375 35.902 9.37375 35.302 9.11375C34.722 8.85375 34.102 8.72375 33.442 8.72375C32.782 8.72375 32.152 8.85375 31.552 9.11375C30.972 9.37375 30.462 9.75375 30.022 10.2537C29.582 10.7537 29.232 11.3737 28.972 12.1137C28.732 12.8337 28.612 13.6637 28.612 14.6037ZM25.912 14.6037C25.912 13.4637 26.072 12.4037 26.392 11.4237C26.712 10.4237 27.192 9.56375 27.832 8.84375C28.472 8.10375 29.262 7.52375 30.202 7.10375C31.142 6.68375 32.222 6.47375 33.442 6.47375C34.682 6.47375 35.762 6.68375 36.682 7.10375C37.622 7.52375 38.412 8.10375 39.052 8.84375C39.692 9.56375 40.172 10.4237 40.492 11.4237C40.812 12.4037 40.972 13.4637 40.972 14.6037C40.972 15.7437 40.812 16.8037 40.492 17.7837C40.172 18.7637 39.692 19.6237 39.052 20.3638C38.412 21.0837 37.622 21.6537 36.682 22.0737C35.762 22.4738 34.682 22.6738 33.442 22.6738C32.222 22.6738 31.142 22.4738 30.202 22.0737C29.262 21.6537 28.472 21.0837 27.832 20.3638C27.192 19.6237 26.712 18.7637 26.392 17.7837C26.072 16.8037 25.912 15.7437 25.912 14.6037ZM42.3886 6.83375H44.7886V10.1037H44.8486C45.4686 8.84375 46.2286 7.91375 47.1286 7.31375C48.0286 6.71375 49.1686 6.43375 50.5486 6.47375V9.17375C49.5286 9.17375 48.6586 9.31375 47.9386 9.59375C47.2186 9.87375 46.6386 10.2837 46.1986 10.8237C45.7586 11.3637 45.4386 12.0237 45.2386 12.8037C45.0386 13.5637 44.9386 14.4437 44.9386 15.4437V22.3438H42.3886V6.83375ZM51.1188 0.923749H53.6688V13.6137L60.7488 6.83375H64.1688L58.0188 12.4737L64.6188 22.3438H61.3788L56.0688 14.2437L53.6688 16.4637V22.3438H51.1188V0.923749ZM73.4351 17.4537C73.4551 18.0137 73.5851 18.4937 73.8251 18.8937C74.0651 19.2737 74.3751 19.5837 74.7551 19.8237C75.1551 20.0437 75.5951 20.2037 76.0751 20.3037C76.5751 20.4037 77.0851 20.4537 77.6051 20.4537C78.0051 20.4537 78.4251 20.4237 78.8651 20.3638C79.3051 20.3037 79.7051 20.1937 80.0651 20.0337C80.4451 19.8737 80.7551 19.6437 80.9951 19.3437C81.2351 19.0237 81.3551 18.6237 81.3551 18.1437C81.3551 17.4837 81.1051 16.9837 80.6051 16.6437C80.1051 16.3037 79.4751 16.0337 78.7151 15.8337C77.9751 15.6137 77.1651 15.4237 76.2851 15.2637C75.4051 15.0837 74.5851 14.8437 73.8251 14.5437C73.0851 14.2237 72.4651 13.7837 71.9651 13.2237C71.4651 12.6637 71.2151 11.8837 71.2151 10.8837C71.2151 10.1037 71.3851 9.43375 71.7251 8.87375C72.0851 8.31375 72.5351 7.86375 73.0751 7.52375C73.6351 7.16375 74.2551 6.90375 74.9351 6.74375C75.6351 6.56375 76.3251 6.47375 77.0051 6.47375C77.8851 6.47375 78.6951 6.55375 79.4351 6.71375C80.1751 6.85375 80.8251 7.11375 81.3851 7.49375C81.9651 7.85375 82.4251 8.35375 82.7651 8.99375C83.1051 9.61375 83.3051 10.3937 83.3651 11.3337H80.8151C80.7751 10.8337 80.6451 10.4237 80.4251 10.1037C80.2051 9.76375 79.9251 9.49375 79.5851 9.29375C79.2451 9.09375 78.8651 8.95375 78.4451 8.87375C78.0451 8.77375 77.6351 8.72375 77.2151 8.72375C76.8351 8.72375 76.4451 8.75375 76.0451 8.81375C75.6651 8.87375 75.3151 8.98375 74.9951 9.14375C74.6751 9.28375 74.4151 9.48375 74.2151 9.74375C74.0151 9.98375 73.9151 10.3037 73.9151 10.7037C73.9151 11.1437 74.0651 11.5137 74.3651 11.8137C74.6851 12.0937 75.0851 12.3337 75.5651 12.5337C76.0451 12.7137 76.5851 12.8737 77.1851 13.0137C77.7851 13.1337 78.3851 13.2637 78.9851 13.4037C79.6251 13.5437 80.2451 13.7137 80.8451 13.9137C81.4651 14.1137 82.0051 14.3837 82.4651 14.7237C82.9451 15.0437 83.3251 15.4537 83.6051 15.9537C83.9051 16.4537 84.0551 17.0737 84.0551 17.8137C84.0551 18.7537 83.8551 19.5337 83.4551 20.1537C83.0751 20.7737 82.5651 21.2737 81.9251 21.6537C81.3051 22.0337 80.5951 22.2937 79.7951 22.4338C79.0151 22.5938 78.2351 22.6738 77.4551 22.6738C76.5951 22.6738 75.7751 22.5838 74.9951 22.4038C74.2151 22.2237 73.5251 21.9337 72.9251 21.5337C72.3251 21.1137 71.8451 20.5737 71.4851 19.9137C71.1251 19.2337 70.9251 18.4137 70.8851 17.4537H73.4351ZM85.3751 0.923749H87.9251V9.11375H87.9851C88.1851 8.63375 88.4651 8.23375 88.8251 7.91375C89.1851 7.57375 89.5851 7.30375 90.0251 7.10375C90.4851 6.88375 90.9551 6.72375 91.4351 6.62375C91.9351 6.52375 92.4151 6.47375 92.8751 6.47375C93.8951 6.47375 94.7451 6.61375 95.4251 6.89375C96.1051 7.17375 96.6551 7.56375 97.0751 8.06375C97.4951 8.56375 97.7851 9.16375 97.9451 9.86375C98.1251 10.5437 98.2151 11.3037 98.2151 12.1437V22.3438H95.6651V11.8437C95.6651 10.8837 95.3851 10.1237 94.8251 9.56375C94.2651 9.00375 93.4951 8.72375 92.5151 8.72375C91.7351 8.72375 91.0551 8.84375 90.4751 9.08375C89.9151 9.32375 89.4451 9.66375 89.0651 10.1037C88.6851 10.5437 88.3951 11.0637 88.1951 11.6637C88.0151 12.2437 87.9251 12.8837 87.9251 13.5837V22.3438H85.3751V0.923749ZM114.285 22.2837C113.845 22.5438 113.235 22.6738 112.455 22.6738C111.795 22.6738 111.265 22.4938 110.865 22.1337C110.485 21.7537 110.295 21.1437 110.295 20.3037C109.595 21.1437 108.775 21.7537 107.835 22.1337C106.915 22.4938 105.915 22.6738 104.835 22.6738C104.135 22.6738 103.465 22.5938 102.825 22.4338C102.205 22.2737 101.665 22.0237 101.205 21.6837C100.745 21.3437 100.375 20.9037 100.095 20.3638C99.835 19.8037 99.705 19.1337 99.705 18.3537C99.705 17.4737 99.855 16.7537 100.155 16.1937C100.455 15.6337 100.845 15.1837 101.325 14.8438C101.825 14.4837 102.385 14.2137 103.005 14.0337C103.645 13.8537 104.295 13.7037 104.955 13.5837C105.655 13.4437 106.315 13.3437 106.935 13.2837C107.575 13.2037 108.135 13.1037 108.615 12.9837C109.095 12.8437 109.475 12.6537 109.755 12.4137C110.035 12.1537 110.175 11.7837 110.175 11.3037C110.175 10.7437 110.065 10.2937 109.845 9.95375C109.645 9.61375 109.375 9.35375 109.035 9.17375C108.715 8.99375 108.345 8.87375 107.925 8.81375C107.525 8.75375 107.125 8.72375 106.725 8.72375C105.645 8.72375 104.745 8.93375 104.025 9.35375C103.305 9.75375 102.915 10.5237 102.855 11.6637H100.305C100.345 10.7037 100.545 9.89375 100.905 9.23375C101.265 8.57375 101.745 8.04375 102.345 7.64375C102.945 7.22375 103.625 6.92375 104.385 6.74375C105.165 6.56375 105.995 6.47375 106.875 6.47375C107.575 6.47375 108.265 6.52375 108.945 6.62375C109.645 6.72375 110.275 6.93375 110.835 7.25375C111.395 7.55375 111.845 7.98375 112.185 8.54375C112.525 9.10375 112.695 9.83375 112.695 10.7337V18.7137C112.695 19.3137 112.725 19.7537 112.785 20.0337C112.865 20.3137 113.105 20.4537 113.505 20.4537C113.725 20.4537 113.985 20.4037 114.285 20.3037V22.2837ZM110.145 14.3337C109.825 14.5737 109.405 14.7537 108.885 14.8737C108.365 14.9737 107.815 15.0637 107.235 15.1437C106.675 15.2037 106.105 15.2837 105.525 15.3837C104.945 15.4637 104.425 15.6037 103.965 15.8037C103.505 16.0037 103.125 16.2937 102.825 16.6737C102.545 17.0337 102.405 17.5337 102.405 18.1737C102.405 18.5937 102.485 18.9537 102.645 19.2537C102.825 19.5337 103.045 19.7637 103.305 19.9437C103.585 20.1237 103.905 20.2537 104.265 20.3337C104.625 20.4137 105.005 20.4537 105.405 20.4537C106.245 20.4537 106.965 20.3437 107.565 20.1237C108.165 19.8837 108.655 19.5937 109.035 19.2537C109.415 18.8937 109.695 18.5137 109.875 18.1137C110.055 17.6937 110.145 17.3037 110.145 16.9437V14.3337ZM115.068 6.83375H117.468V10.1037H117.528C118.148 8.84375 118.908 7.91375 119.808 7.31375C120.708 6.71375 121.848 6.43375 123.228 6.47375V9.17375C122.208 9.17375 121.338 9.31375 120.618 9.59375C119.898 9.87375 119.318 10.2837 118.878 10.8237C118.438 11.3637 118.118 12.0237 117.918 12.8037C117.718 13.5637 117.618 14.4437 117.618 15.4437V22.3438H115.068V6.83375ZM126.349 4.04375H123.799V0.923749H126.349V4.04375ZM123.799 6.83375H126.349V22.3438H123.799V6.83375ZM128.799 6.83375H131.199V9.29375H131.259C132.319 7.41375 133.999 6.47375 136.299 6.47375C137.319 6.47375 138.169 6.61375 138.849 6.89375C139.529 7.17375 140.079 7.56375 140.499 8.06375C140.919 8.56375 141.209 9.16375 141.369 9.86375C141.549 10.5437 141.639 11.3037 141.639 12.1437V22.3438H139.089V11.8437C139.089 10.8837 138.809 10.1237 138.249 9.56375C137.689 9.00375 136.919 8.72375 135.939 8.72375C135.159 8.72375 134.479 8.84375 133.899 9.08375C133.339 9.32375 132.869 9.66375 132.489 10.1037C132.109 10.5437 131.819 11.0637 131.619 11.6637C131.439 12.2437 131.349 12.8837 131.349 13.5837V22.3438H128.799V6.83375ZM157.349 21.0237C157.349 23.5638 156.769 25.4638 155.609 26.7238C154.449 27.9838 152.629 28.6138 150.149 28.6138C149.429 28.6138 148.689 28.5338 147.929 28.3738C147.189 28.2138 146.509 27.9538 145.889 27.5938C145.289 27.2338 144.789 26.7638 144.389 26.1838C143.989 25.6038 143.769 24.8938 143.729 24.0538H146.279C146.299 24.5138 146.439 24.9038 146.699 25.2238C146.979 25.5438 147.309 25.8038 147.689 26.0038C148.089 26.2038 148.519 26.3438 148.979 26.4238C149.439 26.5238 149.879 26.5738 150.299 26.5738C151.139 26.5738 151.849 26.4238 152.429 26.1238C153.009 25.8438 153.489 25.4438 153.869 24.9238C154.249 24.4238 154.519 23.8138 154.679 23.0938C154.859 22.3737 154.949 21.5837 154.949 20.7237V19.7037H154.889C154.449 20.6637 153.779 21.3737 152.879 21.8337C151.999 22.2737 151.059 22.4938 150.059 22.4938C148.899 22.4938 147.889 22.2837 147.029 21.8637C146.169 21.4437 145.449 20.8837 144.869 20.1837C144.289 19.4637 143.849 18.6337 143.549 17.6937C143.269 16.7337 143.129 15.7237 143.129 14.6637C143.129 13.7437 143.249 12.8037 143.489 11.8437C143.729 10.8637 144.129 9.98375 144.689 9.20375C145.249 8.40375 145.989 7.75375 146.909 7.25375C147.829 6.73375 148.959 6.47375 150.299 6.47375C151.279 6.47375 152.179 6.69375 152.999 7.13375C153.819 7.55375 154.459 8.19375 154.919 9.05375H154.949V6.83375H157.349V21.0237ZM150.209 20.2737C151.049 20.2737 151.759 20.1037 152.339 19.7637C152.939 19.4037 153.419 18.9437 153.779 18.3838C154.139 17.8037 154.399 17.1537 154.559 16.4337C154.739 15.7137 154.829 14.9937 154.829 14.2737C154.829 13.5937 154.749 12.9237 154.589 12.2637C154.429 11.6037 154.169 11.0137 153.809 10.4937C153.469 9.95375 153.019 9.52375 152.459 9.20375C151.899 8.88375 151.219 8.72375 150.419 8.72375C149.599 8.72375 148.899 8.88375 148.319 9.20375C147.739 9.50375 147.259 9.91375 146.879 10.4337C146.519 10.9537 146.249 11.5537 146.069 12.2337C145.909 12.9137 145.829 13.6237 145.829 14.3637C145.829 15.0637 145.899 15.7637 146.039 16.4637C146.179 17.1637 146.419 17.8037 146.759 18.3838C147.099 18.9437 147.549 19.4037 148.109 19.7637C148.669 20.1037 149.369 20.2737 150.209 20.2737ZM180.285 22.2837C179.845 22.5438 179.235 22.6738 178.455 22.6738C177.795 22.6738 177.265 22.4938 176.865 22.1337C176.485 21.7537 176.295 21.1437 176.295 20.3037C175.595 21.1437 174.775 21.7537 173.835 22.1337C172.915 22.4938 171.915 22.6738 170.835 22.6738C170.135 22.6738 169.465 22.5938 168.825 22.4338C168.205 22.2737 167.665 22.0237 167.205 21.6837C166.745 21.3437 166.375 20.9037 166.095 20.3638C165.835 19.8037 165.705 19.1337 165.705 18.3537C165.705 17.4737 165.855 16.7537 166.155 16.1937C166.455 15.6337 166.845 15.1837 167.325 14.8438C167.825 14.4837 168.385 14.2137 169.005 14.0337C169.645 13.8537 170.295 13.7037 170.955 13.5837C171.655 13.4437 172.315 13.3437 172.935 13.2837C173.575 13.2037 174.135 13.1037 174.615 12.9837C175.095 12.8437 175.475 12.6537 175.755 12.4137C176.035 12.1537 176.175 11.7837 176.175 11.3037C176.175 10.7437 176.065 10.2937 175.845 9.95375C175.645 9.61375 175.375 9.35375 175.035 9.17375C174.715 8.99375 174.345 8.87375 173.925 8.81375C173.525 8.75375 173.125 8.72375 172.725 8.72375C171.645 8.72375 170.745 8.93375 170.025 9.35375C169.305 9.75375 168.915 10.5237 168.855 11.6637H166.305C166.345 10.7037 166.545 9.89375 166.905 9.23375C167.265 8.57375 167.745 8.04375 168.345 7.64375C168.945 7.22375 169.625 6.92375 170.385 6.74375C171.165 6.56375 171.995 6.47375 172.875 6.47375C173.575 6.47375 174.265 6.52375 174.945 6.62375C175.645 6.72375 176.275 6.93375 176.835 7.25375C177.395 7.55375 177.845 7.98375 178.185 8.54375C178.525 9.10375 178.695 9.83375 178.695 10.7337V18.7137C178.695 19.3137 178.725 19.7537 178.785 20.0337C178.865 20.3137 179.105 20.4537 179.505 20.4537C179.725 20.4537 179.985 20.4037 180.285 20.3037V22.2837ZM176.145 14.3337C175.825 14.5737 175.405 14.7537 174.885 14.8737C174.365 14.9737 173.815 15.0637 173.235 15.1437C172.675 15.2037 172.105 15.2837 171.525 15.3837C170.945 15.4637 170.425 15.6037 169.965 15.8037C169.505 16.0037 169.125 16.2937 168.825 16.6737C168.545 17.0337 168.405 17.5337 168.405 18.1737C168.405 18.5937 168.485 18.9537 168.645 19.2537C168.825 19.5337 169.045 19.7637 169.305 19.9437C169.585 20.1237 169.905 20.2537 170.265 20.3337C170.625 20.4137 171.005 20.4537 171.405 20.4537C172.245 20.4537 172.965 20.3437 173.565 20.1237C174.165 19.8837 174.655 19.5937 175.035 19.2537C175.415 18.8937 175.695 18.5137 175.875 18.1137C176.055 17.6937 176.145 17.3037 176.145 16.9437V14.3337ZM181.158 6.83375H183.558V9.29375H183.618C184.678 7.41375 186.358 6.47375 188.658 6.47375C189.678 6.47375 190.528 6.61375 191.208 6.89375C191.888 7.17375 192.438 7.56375 192.858 8.06375C193.278 8.56375 193.568 9.16375 193.728 9.86375C193.908 10.5437 193.998 11.3037 193.998 12.1437V22.3438H191.448V11.8437C191.448 10.8837 191.168 10.1237 190.608 9.56375C190.048 9.00375 189.278 8.72375 188.298 8.72375C187.518 8.72375 186.838 8.84375 186.258 9.08375C185.698 9.32375 185.228 9.66375 184.848 10.1037C184.468 10.5437 184.178 11.0637 183.978 11.6637C183.798 12.2437 183.708 12.8837 183.708 13.5837V22.3438H181.158V6.83375ZM198.188 14.7237C198.188 15.4437 198.278 16.1537 198.458 16.8537C198.658 17.5337 198.948 18.1437 199.328 18.6837C199.728 19.2237 200.228 19.6537 200.828 19.9737C201.448 20.2937 202.168 20.4537 202.988 20.4537C203.848 20.4537 204.578 20.2837 205.178 19.9437C205.778 19.6037 206.268 19.1637 206.648 18.6237C207.028 18.0637 207.298 17.4337 207.458 16.7337C207.638 16.0337 207.728 15.3237 207.728 14.6037C207.728 13.8437 207.638 13.1137 207.458 12.4137C207.278 11.6937 206.988 11.0637 206.588 10.5237C206.208 9.98375 205.708 9.55375 205.088 9.23375C204.468 8.89375 203.718 8.72375 202.838 8.72375C201.978 8.72375 201.248 8.89375 200.648 9.23375C200.048 9.57375 199.568 10.0237 199.208 10.5837C198.848 11.1437 198.588 11.7837 198.428 12.5037C198.268 13.2237 198.188 13.9637 198.188 14.7237ZM210.188 22.3438H207.638V20.2437H207.578C207.158 21.1037 206.498 21.7237 205.598 22.1037C204.698 22.4838 203.708 22.6738 202.628 22.6738C201.428 22.6738 200.378 22.4538 199.478 22.0137C198.598 21.5737 197.858 20.9838 197.258 20.2437C196.678 19.5037 196.238 18.6437 195.938 17.6637C195.638 16.6837 195.488 15.6437 195.488 14.5437C195.488 13.4437 195.628 12.4037 195.908 11.4237C196.208 10.4437 196.648 9.59375 197.228 8.87375C197.828 8.13375 198.568 7.55375 199.448 7.13375C200.348 6.69375 201.388 6.47375 202.568 6.47375C202.968 6.47375 203.398 6.51375 203.858 6.59375C204.318 6.67375 204.778 6.81375 205.238 7.01375C205.698 7.19375 206.128 7.44375 206.528 7.76375C206.948 8.06375 207.298 8.44375 207.578 8.90375H207.638V0.923749H210.188V22.3438ZM2.26781 40.8337H4.81781V42.9337H4.87781C5.29781 42.0737 5.95781 41.4537 6.85781 41.0737C7.75781 40.6737 8.74781 40.4737 9.82781 40.4737C11.0278 40.4737 12.0678 40.6937 12.9478 41.1337C13.8478 41.5737 14.5878 42.1737 15.1678 42.9337C15.7678 43.6737 16.2178 44.5337 16.5178 45.5137C16.8178 46.4937 16.9678 47.5337 16.9678 48.6338C16.9678 49.7337 16.8178 50.7737 16.5178 51.7537C16.2378 52.7337 15.7978 53.5937 15.1978 54.3337C14.6178 55.0537 13.8778 55.6237 12.9778 56.0437C12.0978 56.4638 11.0678 56.6738 9.88781 56.6738C9.50781 56.6738 9.07781 56.6338 8.59781 56.5538C8.13781 56.4738 7.67781 56.3438 7.21781 56.1637C6.75781 55.9837 6.31781 55.7437 5.89781 55.4437C5.49781 55.1237 5.15781 54.7337 4.87781 54.2737H4.81781V62.2538H2.26781V40.8337ZM14.2678 48.4537C14.2678 47.7337 14.1678 47.0337 13.9678 46.3537C13.7878 45.6537 13.4978 45.0337 13.0978 44.4937C12.7178 43.9537 12.2178 43.5237 11.5978 43.2037C10.9978 42.8837 10.2878 42.7237 9.46781 42.7237C8.60781 42.7237 7.87781 42.8937 7.27781 43.2337C6.67781 43.5737 6.18781 44.0237 5.80781 44.5837C5.42781 45.1237 5.14781 45.7437 4.96781 46.4437C4.80781 47.1437 4.72781 47.8537 4.72781 48.5737C4.72781 49.3337 4.81781 50.0737 4.99781 50.7937C5.17781 51.4937 5.45781 52.1137 5.83781 52.6537C6.23781 53.1937 6.74781 53.6337 7.36781 53.9737C7.98781 54.2937 8.73781 54.4537 9.61781 54.4537C10.4978 54.4537 11.2278 54.2837 11.8078 53.9437C12.4078 53.6037 12.8878 53.1537 13.2478 52.5938C13.6078 52.0337 13.8678 51.3937 14.0278 50.6737C14.1878 49.9537 14.2678 49.2137 14.2678 48.4537ZM20.321 48.6037C20.321 49.5437 20.441 50.3837 20.681 51.1237C20.941 51.8437 21.291 52.4537 21.731 52.9537C22.171 53.4337 22.681 53.8037 23.261 54.0637C23.861 54.3237 24.491 54.4537 25.151 54.4537C25.811 54.4537 26.431 54.3237 27.011 54.0637C27.611 53.8037 28.131 53.4337 28.571 52.9537C29.011 52.4537 29.351 51.8437 29.591 51.1237C29.851 50.3837 29.981 49.5437 29.981 48.6037C29.981 47.6637 29.851 46.8337 29.591 46.1137C29.351 45.3737 29.011 44.7537 28.571 44.2537C28.131 43.7537 27.611 43.3737 27.011 43.1137C26.431 42.8537 25.811 42.7237 25.151 42.7237C24.491 42.7237 23.861 42.8537 23.261 43.1137C22.681 43.3737 22.171 43.7537 21.731 44.2537C21.291 44.7537 20.941 45.3737 20.681 46.1137C20.441 46.8337 20.321 47.6637 20.321 48.6037ZM17.621 48.6037C17.621 47.4637 17.781 46.4037 18.101 45.4237C18.421 44.4237 18.901 43.5637 19.541 42.8437C20.181 42.1037 20.971 41.5237 21.911 41.1037C22.851 40.6837 23.931 40.4737 25.151 40.4737C26.391 40.4737 27.471 40.6837 28.391 41.1037C29.331 41.5237 30.121 42.1037 30.761 42.8437C31.401 43.5637 31.881 44.4237 32.201 45.4237C32.521 46.4037 32.681 47.4637 32.681 48.6037C32.681 49.7437 32.521 50.8037 32.201 51.7837C31.881 52.7637 31.401 53.6237 30.761 54.3638C30.121 55.0837 29.331 55.6537 28.391 56.0737C27.471 56.4738 26.391 56.6738 25.151 56.6738C23.931 56.6738 22.851 56.4738 21.911 56.0737C20.971 55.6537 20.181 55.0837 19.541 54.3638C18.901 53.6237 18.421 52.7637 18.101 51.7837C17.781 50.8037 17.621 49.7437 17.621 48.6037ZM34.0976 40.8337H36.4976V44.1037H36.5576C37.1776 42.8437 37.9376 41.9137 38.8376 41.3137C39.7376 40.7137 40.8776 40.4337 42.2576 40.4737V43.1737C41.2376 43.1737 40.3676 43.3137 39.6476 43.5937C38.9276 43.8737 38.3476 44.2837 37.9076 44.8237C37.4676 45.3637 37.1476 46.0237 36.9476 46.8037C36.7476 47.5637 36.6476 48.4437 36.6476 49.4437V56.3438H34.0976V40.8337ZM46.2178 40.8337H49.3078V43.0837H46.2178V52.7137C46.2178 53.0137 46.2378 53.2537 46.2778 53.4337C46.3378 53.6137 46.4378 53.7537 46.5778 53.8537C46.7178 53.9537 46.9078 54.0237 47.1478 54.0637C47.4078 54.0837 47.7378 54.0937 48.1378 54.0937H49.3078V56.3438H47.3578C46.6978 56.3438 46.1278 56.3037 45.6478 56.2237C45.1878 56.1237 44.8078 55.9537 44.5078 55.7137C44.2278 55.4737 44.0178 55.1337 43.8778 54.6937C43.7378 54.2537 43.6678 53.6737 43.6678 52.9537V43.0837H41.0278V40.8337H43.6678V36.1837H46.2178V40.8337ZM51.6907 43.0837H49.0807V40.8337H51.6907V38.5237C51.6907 37.2637 52.0507 36.3137 52.7707 35.6737C53.5107 35.0137 54.5807 34.6837 55.9807 34.6837C56.2207 34.6837 56.4907 34.7037 56.7907 34.7437C57.1107 34.7837 57.3907 34.8437 57.6307 34.9237V37.1437C57.4107 37.0637 57.1707 37.0137 56.9107 36.9937C56.6507 36.9537 56.4107 36.9337 56.1907 36.9337C55.5707 36.9337 55.0907 37.0537 54.7507 37.2937C54.4107 37.5337 54.2407 37.9937 54.2407 38.6737V40.8337H57.2407V43.0837H54.2407V56.3438H51.6907V43.0837ZM59.8777 48.6037C59.8777 49.5437 59.9977 50.3837 60.2377 51.1237C60.4977 51.8437 60.8477 52.4537 61.2877 52.9537C61.7277 53.4337 62.2377 53.8037 62.8177 54.0637C63.4177 54.3237 64.0477 54.4537 64.7077 54.4537C65.3677 54.4537 65.9877 54.3237 66.5677 54.0637C67.1677 53.8037 67.6877 53.4337 68.1277 52.9537C68.5677 52.4537 68.9077 51.8437 69.1477 51.1237C69.4077 50.3837 69.5377 49.5437 69.5377 48.6037C69.5377 47.6637 69.4077 46.8337 69.1477 46.1137C68.9077 45.3737 68.5677 44.7537 68.1277 44.2537C67.6877 43.7537 67.1677 43.3737 66.5677 43.1137C65.9877 42.8537 65.3677 42.7237 64.7077 42.7237C64.0477 42.7237 63.4177 42.8537 62.8177 43.1137C62.2377 43.3737 61.7277 43.7537 61.2877 44.2537C60.8477 44.7537 60.4977 45.3737 60.2377 46.1137C59.9977 46.8337 59.8777 47.6637 59.8777 48.6037ZM57.1777 48.6037C57.1777 47.4637 57.3377 46.4037 57.6577 45.4237C57.9777 44.4237 58.4577 43.5637 59.0977 42.8437C59.7377 42.1037 60.5277 41.5237 61.4677 41.1037C62.4077 40.6837 63.4877 40.4737 64.7077 40.4737C65.9477 40.4737 67.0277 40.6837 67.9477 41.1037C68.8877 41.5237 69.6777 42.1037 70.3177 42.8437C70.9577 43.5637 71.4377 44.4237 71.7577 45.4237C72.0777 46.4037 72.2377 47.4637 72.2377 48.6037C72.2377 49.7437 72.0777 50.8037 71.7577 51.7837C71.4377 52.7637 70.9577 53.6237 70.3177 54.3638C69.6777 55.0837 68.8877 55.6537 67.9477 56.0737C67.0277 56.4738 65.9477 56.6738 64.7077 56.6738C63.4877 56.6738 62.4077 56.4738 61.4677 56.0737C60.5277 55.6537 59.7377 55.0837 59.0977 54.3638C58.4577 53.6237 57.9777 52.7637 57.6577 51.7837C57.3377 50.8037 57.1777 49.7437 57.1777 48.6037ZM73.8942 34.9237H76.4442V56.3438H73.8942V34.9237ZM81.5946 38.0437H79.0446V34.9237H81.5946V38.0437ZM79.0446 40.8337H81.5946V56.3438H79.0446V40.8337ZM85.905 48.6037C85.905 49.5437 86.025 50.3837 86.265 51.1237C86.525 51.8437 86.875 52.4537 87.315 52.9537C87.755 53.4337 88.265 53.8037 88.845 54.0637C89.445 54.3237 90.075 54.4537 90.735 54.4537C91.395 54.4537 92.015 54.3237 92.595 54.0637C93.195 53.8037 93.715 53.4337 94.155 52.9537C94.595 52.4537 94.935 51.8437 95.175 51.1237C95.435 50.3837 95.565 49.5437 95.565 48.6037C95.565 47.6637 95.435 46.8337 95.175 46.1137C94.935 45.3737 94.595 44.7537 94.155 44.2537C93.715 43.7537 93.195 43.3737 92.595 43.1137C92.015 42.8537 91.395 42.7237 90.735 42.7237C90.075 42.7237 89.445 42.8537 88.845 43.1137C88.265 43.3737 87.755 43.7537 87.315 44.2537C86.875 44.7537 86.525 45.3737 86.265 46.1137C86.025 46.8337 85.905 47.6637 85.905 48.6037ZM83.205 48.6037C83.205 47.4637 83.365 46.4037 83.685 45.4237C84.005 44.4237 84.485 43.5637 85.125 42.8437C85.765 42.1037 86.555 41.5237 87.495 41.1037C88.435 40.6837 89.515 40.4737 90.735 40.4737C91.975 40.4737 93.055 40.6837 93.975 41.1037C94.915 41.5237 95.705 42.1037 96.345 42.8437C96.985 43.5637 97.465 44.4237 97.785 45.4237C98.105 46.4037 98.265 47.4637 98.265 48.6037C98.265 49.7437 98.105 50.8037 97.785 51.7837C97.465 52.7637 96.985 53.6237 96.345 54.3638C95.705 55.0837 94.915 55.6537 93.975 56.0737C93.055 56.4738 91.975 56.6738 90.735 56.6738C89.515 56.6738 88.435 56.4738 87.495 56.0737C86.555 55.6537 85.765 55.0837 85.125 54.3638C84.485 53.6237 84.005 52.7637 83.685 51.7837C83.365 50.8037 83.205 49.7437 83.205 48.6037ZM107.671 43.0837H105.061V40.8337H107.671V38.5237C107.671 37.2637 108.031 36.3137 108.751 35.6737C109.491 35.0137 110.561 34.6837 111.961 34.6837C112.201 34.6837 112.471 34.7037 112.771 34.7437C113.091 34.7837 113.371 34.8437 113.611 34.9237V37.1437C113.391 37.0637 113.151 37.0137 112.891 36.9937C112.631 36.9537 112.391 36.9337 112.171 36.9337C111.551 36.9337 111.071 37.0537 110.731 37.2937C110.391 37.5337 110.221 37.9937 110.221 38.6737V40.8337H113.221V43.0837H110.221V56.3438H107.671V43.0837ZM124.768 47.1037C124.728 46.5037 124.588 45.9337 124.348 45.3937C124.128 44.8537 123.818 44.3937 123.418 44.0137C123.038 43.6137 122.578 43.3037 122.038 43.0837C121.518 42.8437 120.938 42.7237 120.298 42.7237C119.638 42.7237 119.038 42.8437 118.498 43.0837C117.978 43.3037 117.528 43.6137 117.148 44.0137C116.768 44.4137 116.468 44.8837 116.248 45.4237C116.028 45.9437 115.898 46.5037 115.858 47.1037H124.768ZM127.228 51.4237C126.888 53.1637 126.138 54.4737 124.978 55.3538C123.818 56.2338 122.358 56.6738 120.598 56.6738C119.358 56.6738 118.278 56.4738 117.358 56.0737C116.458 55.6737 115.698 55.1137 115.078 54.3937C114.458 53.6737 113.988 52.8137 113.668 51.8137C113.368 50.8137 113.198 49.7237 113.158 48.5437C113.158 47.3637 113.338 46.2837 113.698 45.3037C114.058 44.3237 114.558 43.4737 115.198 42.7537C115.858 42.0337 116.628 41.4737 117.508 41.0737C118.408 40.6737 119.388 40.4737 120.448 40.4737C121.828 40.4737 122.968 40.7637 123.868 41.3438C124.788 41.9037 125.518 42.6237 126.058 43.5037C126.618 44.3837 126.998 45.3437 127.198 46.3837C127.418 47.4237 127.508 48.4137 127.468 49.3537H115.858C115.838 50.0337 115.918 50.6837 116.098 51.3037C116.278 51.9037 116.568 52.4437 116.968 52.9237C117.368 53.3837 117.878 53.7537 118.498 54.0337C119.118 54.3137 119.848 54.4537 120.688 54.4537C121.768 54.4537 122.648 54.2037 123.328 53.7037C124.028 53.2037 124.488 52.4437 124.708 51.4237H127.228ZM139.381 47.1037C139.341 46.5037 139.201 45.9337 138.961 45.3937C138.741 44.8537 138.431 44.3937 138.031 44.0137C137.651 43.6137 137.191 43.3037 136.651 43.0837C136.131 42.8437 135.551 42.7237 134.911 42.7237C134.251 42.7237 133.651 42.8437 133.111 43.0837C132.591 43.3037 132.141 43.6137 131.761 44.0137C131.381 44.4137 131.081 44.8837 130.861 45.4237C130.641 45.9437 130.511 46.5037 130.471 47.1037H139.381ZM141.841 51.4237C141.501 53.1637 140.751 54.4737 139.591 55.3538C138.431 56.2338 136.971 56.6738 135.211 56.6738C133.971 56.6738 132.891 56.4738 131.971 56.0737C131.071 55.6737 130.311 55.1137 129.691 54.3937C129.071 53.6737 128.601 52.8137 128.281 51.8137C127.981 50.8137 127.811 49.7237 127.771 48.5437C127.771 47.3637 127.951 46.2837 128.311 45.3037C128.671 44.3237 129.171 43.4737 129.811 42.7537C130.471 42.0337 131.241 41.4737 132.121 41.0737C133.021 40.6737 134.001 40.4737 135.061 40.4737C136.441 40.4737 137.581 40.7637 138.481 41.3438C139.401 41.9037 140.131 42.6237 140.671 43.5037C141.231 44.3837 141.611 45.3437 141.811 46.3837C142.031 47.4237 142.121 48.4137 142.081 49.3537H130.471C130.451 50.0337 130.531 50.6837 130.711 51.3037C130.891 51.9037 131.181 52.4437 131.581 52.9237C131.981 53.3837 132.491 53.7537 133.111 54.0337C133.731 54.3137 134.461 54.4537 135.301 54.4537C136.381 54.4537 137.261 54.2037 137.941 53.7037C138.641 53.2037 139.101 52.4437 139.321 51.4237H141.841ZM145.085 48.7237C145.085 49.4437 145.175 50.1537 145.355 50.8537C145.555 51.5337 145.845 52.1437 146.225 52.6837C146.625 53.2237 147.125 53.6537 147.725 53.9737C148.345 54.2937 149.065 54.4537 149.885 54.4537C150.745 54.4537 151.475 54.2837 152.075 53.9437C152.675 53.6037 153.165 53.1637 153.545 52.6237C153.925 52.0637 154.195 51.4337 154.355 50.7337C154.535 50.0337 154.625 49.3237 154.625 48.6037C154.625 47.8437 154.535 47.1137 154.355 46.4137C154.175 45.6937 153.885 45.0637 153.485 44.5237C153.105 43.9837 152.605 43.5537 151.985 43.2337C151.365 42.8937 150.615 42.7237 149.735 42.7237C148.875 42.7237 148.145 42.8937 147.545 43.2337C146.945 43.5737 146.465 44.0237 146.105 44.5837C145.745 45.1437 145.485 45.7837 145.325 46.5037C145.165 47.2237 145.085 47.9637 145.085 48.7237ZM157.085 56.3438H154.535V54.2437H154.475C154.055 55.1037 153.395 55.7237 152.495 56.1037C151.595 56.4838 150.605 56.6738 149.525 56.6738C148.325 56.6738 147.275 56.4538 146.375 56.0137C145.495 55.5737 144.755 54.9838 144.155 54.2437C143.575 53.5037 143.135 52.6437 142.835 51.6637C142.535 50.6837 142.385 49.6437 142.385 48.5437C142.385 47.4437 142.525 46.4037 142.805 45.4237C143.105 44.4437 143.545 43.5937 144.125 42.8737C144.725 42.1337 145.465 41.5537 146.345 41.1337C147.245 40.6937 148.285 40.4737 149.465 40.4737C149.865 40.4737 150.295 40.5137 150.755 40.5937C151.215 40.6737 151.675 40.8137 152.135 41.0137C152.595 41.1937 153.025 41.4437 153.425 41.7637C153.845 42.0637 154.195 42.4437 154.475 42.9037H154.535V34.9237H157.085V56.3438ZM159.598 34.9237H162.148V42.9337H162.208C162.628 42.0737 163.288 41.4537 164.188 41.0737C165.088 40.6737 166.078 40.4737 167.158 40.4737C168.358 40.4737 169.398 40.6937 170.278 41.1337C171.178 41.5737 171.918 42.1737 172.498 42.9337C173.098 43.6737 173.548 44.5337 173.848 45.5137C174.148 46.4937 174.298 47.5337 174.298 48.6338C174.298 49.7337 174.148 50.7737 173.848 51.7537C173.568 52.7337 173.128 53.5937 172.528 54.3337C171.948 55.0537 171.208 55.6237 170.308 56.0437C169.428 56.4638 168.398 56.6738 167.218 56.6738C166.838 56.6738 166.408 56.6338 165.928 56.5538C165.468 56.4738 165.008 56.3438 164.548 56.1637C164.088 55.9837 163.648 55.7437 163.228 55.4437C162.828 55.1237 162.488 54.7337 162.208 54.2737H162.148V56.3438H159.598V34.9237ZM171.598 48.4537C171.598 47.7337 171.498 47.0337 171.298 46.3537C171.118 45.6537 170.828 45.0337 170.428 44.4937C170.048 43.9537 169.548 43.5237 168.928 43.2037C168.328 42.8837 167.618 42.7237 166.798 42.7237C165.938 42.7237 165.208 42.8937 164.608 43.2337C164.008 43.5737 163.518 44.0237 163.138 44.5837C162.758 45.1237 162.478 45.7437 162.298 46.4437C162.138 47.1437 162.058 47.8537 162.058 48.5737C162.058 49.3337 162.148 50.0737 162.328 50.7937C162.508 51.4937 162.788 52.1137 163.168 52.6537C163.568 53.1937 164.078 53.6337 164.698 53.9737C165.318 54.2937 166.068 54.4537 166.948 54.4537C167.828 54.4537 168.558 54.2837 169.138 53.9437C169.738 53.6037 170.218 53.1537 170.578 52.5938C170.938 52.0337 171.198 51.3937 171.358 50.6737C171.518 49.9537 171.598 49.2137 171.598 48.4537ZM189.531 56.2837C189.091 56.5438 188.481 56.6738 187.701 56.6738C187.041 56.6738 186.511 56.4938 186.111 56.1337C185.731 55.7537 185.541 55.1437 185.541 54.3037C184.841 55.1437 184.021 55.7537 183.081 56.1337C182.161 56.4938 181.161 56.6738 180.081 56.6738C179.381 56.6738 178.711 56.5938 178.071 56.4338C177.451 56.2737 176.911 56.0237 176.451 55.6837C175.991 55.3437 175.621 54.9037 175.341 54.3638C175.081 53.8037 174.951 53.1337 174.951 52.3537C174.951 51.4737 175.101 50.7537 175.401 50.1937C175.701 49.6337 176.091 49.1837 176.571 48.8438C177.071 48.4837 177.631 48.2137 178.251 48.0337C178.891 47.8537 179.541 47.7037 180.201 47.5837C180.901 47.4437 181.561 47.3437 182.181 47.2837C182.821 47.2037 183.381 47.1037 183.861 46.9837C184.341 46.8437 184.721 46.6537 185.001 46.4137C185.281 46.1537 185.421 45.7837 185.421 45.3037C185.421 44.7437 185.311 44.2937 185.091 43.9537C184.891 43.6137 184.621 43.3537 184.281 43.1737C183.961 42.9937 183.591 42.8737 183.171 42.8137C182.771 42.7537 182.371 42.7237 181.971 42.7237C180.891 42.7237 179.991 42.9337 179.271 43.3537C178.551 43.7537 178.161 44.5237 178.101 45.6637H175.551C175.591 44.7037 175.791 43.8937 176.151 43.2337C176.511 42.5737 176.991 42.0437 177.591 41.6437C178.191 41.2237 178.871 40.9237 179.631 40.7437C180.411 40.5637 181.241 40.4737 182.121 40.4737C182.821 40.4737 183.511 40.5237 184.191 40.6237C184.891 40.7237 185.521 40.9337 186.081 41.2537C186.641 41.5537 187.091 41.9837 187.431 42.5437C187.771 43.1037 187.941 43.8337 187.941 44.7337V52.7137C187.941 53.3137 187.971 53.7537 188.031 54.0337C188.111 54.3137 188.351 54.4537 188.751 54.4537C188.971 54.4537 189.231 54.4037 189.531 54.3037V56.2837ZM185.391 48.3337C185.071 48.5737 184.651 48.7537 184.131 48.8737C183.611 48.9737 183.061 49.0637 182.481 49.1437C181.921 49.2037 181.351 49.2837 180.771 49.3837C180.191 49.4637 179.671 49.6037 179.211 49.8037C178.751 50.0037 178.371 50.2937 178.071 50.6737C177.791 51.0337 177.651 51.5337 177.651 52.1737C177.651 52.5937 177.731 52.9537 177.891 53.2537C178.071 53.5337 178.291 53.7637 178.551 53.9437C178.831 54.1237 179.151 54.2537 179.511 54.3337C179.871 54.4137 180.251 54.4537 180.651 54.4537C181.491 54.4537 182.211 54.3437 182.811 54.1237C183.411 53.8837 183.901 53.5937 184.281 53.2537C184.661 52.8937 184.941 52.5137 185.121 52.1137C185.301 51.6937 185.391 51.3037 185.391 50.9437V48.3337ZM200.934 45.8137C200.734 44.8337 200.314 44.0737 199.674 43.5337C199.034 42.9937 198.174 42.7237 197.094 42.7237C196.174 42.7237 195.404 42.8937 194.784 43.2337C194.164 43.5737 193.664 44.0237 193.284 44.5837C192.924 45.1437 192.664 45.7937 192.504 46.5337C192.344 47.2537 192.264 48.0037 192.264 48.7837C192.264 49.5037 192.344 50.2037 192.504 50.8837C192.684 51.5637 192.954 52.1737 193.314 52.7137C193.674 53.2337 194.144 53.6537 194.724 53.9737C195.304 54.2937 195.994 54.4537 196.794 54.4537C198.054 54.4537 199.034 54.1237 199.734 53.4637C200.454 52.8037 200.894 51.8737 201.054 50.6737H203.664C203.384 52.5937 202.664 54.0737 201.504 55.1137C200.364 56.1538 198.804 56.6738 196.824 56.6738C195.644 56.6738 194.594 56.4838 193.674 56.1037C192.774 55.7237 192.014 55.1837 191.394 54.4837C190.794 53.7837 190.334 52.9537 190.014 51.9937C189.714 51.0137 189.564 49.9437 189.564 48.7837C189.564 47.6237 189.714 46.5437 190.014 45.5437C190.314 44.5237 190.764 43.6437 191.364 42.9037C191.984 42.1437 192.754 41.5537 193.674 41.1337C194.594 40.6937 195.664 40.4737 196.884 40.4737C197.764 40.4737 198.584 40.5837 199.344 40.8037C200.124 41.0037 200.804 41.3237 201.384 41.7637C201.984 42.2037 202.474 42.7637 202.854 43.4437C203.234 44.1037 203.474 44.8937 203.574 45.8137H200.934ZM205.168 34.9237H207.718V47.6137L214.798 40.8337H218.218L212.068 46.4737L218.668 56.3438H215.428L210.118 48.2437L207.718 50.4637V56.3438H205.168V34.9237ZM224.004 58.4438H254.004V28.4437H224.004V58.4438Z" fill="#EEE8E2"/>
</svg>
