<svg width="62" height="10" viewBox="0 0 62 10" fill="none" xmlns="http://www.w3.org/2000/svg">
<path d="M2.80366 1.72228H0.492188V0.945312H6.03777V1.72228H3.7263V7.87972H2.80366V1.72228Z" fill="#2229FF"/>
<path d="M6.18558 0.945312H7.0111V3.59671H7.03053C7.09528 3.44131 7.18592 3.31182 7.30247 3.20822C7.41901 3.09815 7.54851 3.01074 7.69095 2.946C7.83987 2.87478 7.99202 2.82298 8.14742 2.7906C8.30928 2.75823 8.46468 2.74204 8.6136 2.74204C8.9438 2.74204 9.21898 2.78737 9.43912 2.87801C9.65926 2.96866 9.83731 3.09492 9.97328 3.25678C10.1093 3.41865 10.2031 3.61289 10.2549 3.83951C10.3132 4.05965 10.3423 4.30569 10.3423 4.57762V7.87972H9.51682V4.4805C9.51682 4.16972 9.42617 3.92368 9.24488 3.74239C9.06359 3.56109 8.81431 3.47045 8.49705 3.47045C8.24454 3.47045 8.0244 3.5093 7.83663 3.58699C7.65534 3.66469 7.50318 3.77476 7.38016 3.9172C7.25714 4.05965 7.16326 4.22799 7.09851 4.42223C7.04024 4.61 7.0111 4.81719 7.0111 5.0438V7.87972H6.18558V0.945312Z" fill="#2229FF"/>
<path d="M14.5833 4.88841C14.5703 4.69417 14.525 4.50964 14.4473 4.33482C14.3761 4.16 14.2757 4.01109 14.1462 3.88807C14.0232 3.75857 13.8743 3.65822 13.6995 3.58699C13.5311 3.5093 13.3433 3.47045 13.1362 3.47045C12.9225 3.47045 12.7282 3.5093 12.5534 3.58699C12.3851 3.65822 12.2394 3.75857 12.1164 3.88807C11.9934 4.01756 11.8962 4.16972 11.825 4.34453C11.7538 4.51288 11.7117 4.69417 11.6988 4.88841H14.5833ZM15.3796 6.28695C15.2696 6.85025 15.0268 7.27434 14.6512 7.55923C14.2757 7.84411 13.803 7.98656 13.2333 7.98656C12.8318 7.98656 12.4822 7.92181 12.1844 7.79232C11.893 7.66282 11.647 7.48153 11.4463 7.24844C11.2455 7.01535 11.0934 6.73694 10.9898 6.4132C10.8927 6.08947 10.8376 5.7366 10.8247 5.35459C10.8247 4.97258 10.883 4.62295 10.9995 4.30569C11.116 3.98843 11.2779 3.71325 11.4851 3.48016C11.6988 3.24707 11.948 3.06578 12.2329 2.93629C12.5243 2.80679 12.8416 2.74204 13.1847 2.74204C13.6315 2.74204 14.0005 2.83593 14.2919 3.02369C14.5897 3.20499 14.8261 3.43807 15.0009 3.72296C15.1822 4.00785 15.3052 4.31864 15.3699 4.65532C15.4411 4.992 15.4703 5.3125 15.4573 5.61681H11.6988C11.6923 5.83695 11.7182 6.04738 11.7765 6.2481C11.8347 6.44234 11.9286 6.61716 12.0581 6.77255C12.1876 6.92147 12.3527 7.04125 12.5534 7.1319C12.7541 7.22254 12.9905 7.26786 13.2624 7.26786C13.612 7.26786 13.8969 7.18693 14.1171 7.02506C14.3437 6.86319 14.4926 6.61716 14.5638 6.28695H15.3796Z" fill="#2229FF"/>
<path d="M21.4538 4.47079C21.3891 4.15353 21.2531 3.90749 21.0459 3.73267C20.8388 3.55786 20.5603 3.47045 20.2107 3.47045C19.9129 3.47045 19.6636 3.52548 19.4629 3.63555C19.2622 3.74562 19.1003 3.8913 18.9773 4.0726C18.8607 4.25389 18.7766 4.46432 18.7248 4.70388C18.673 4.93697 18.6471 5.17977 18.6471 5.43228C18.6471 5.66537 18.673 5.89199 18.7248 6.11213C18.783 6.33227 18.8704 6.52975 18.987 6.70456C19.1035 6.87291 19.2557 7.00888 19.4435 7.11247C19.6312 7.21607 19.8546 7.26786 20.1136 7.26786C20.5215 7.26786 20.8388 7.16103 21.0654 6.94737C21.2985 6.7337 21.4409 6.43263 21.4927 6.04414H22.3376C22.247 6.66572 22.0139 7.14484 21.6384 7.48153C21.2693 7.81821 20.7643 7.98656 20.1233 7.98656C19.7413 7.98656 19.4014 7.92505 19.1035 7.80203C18.8122 7.67901 18.5661 7.50419 18.3654 7.27758C18.1712 7.05096 18.0223 6.78226 17.9187 6.47148C17.8215 6.15421 17.773 5.80782 17.773 5.43228C17.773 5.05675 17.8215 4.70712 17.9187 4.38338C18.0158 4.05317 18.1615 3.76829 18.3557 3.52872C18.5564 3.28268 18.8057 3.09168 19.1035 2.95571C19.4014 2.81327 19.7478 2.74204 20.1427 2.74204C20.4276 2.74204 20.6931 2.77765 20.9391 2.84888C21.1916 2.91362 21.4118 3.01722 21.5995 3.15966C21.7938 3.30211 21.9524 3.4834 22.0754 3.70354C22.1984 3.9172 22.2761 4.17295 22.3085 4.47079H21.4538Z" fill="#2229FF"/>
<path d="M23.3779 5.37401C23.3779 5.67832 23.4167 5.95026 23.4944 6.18983C23.5786 6.42291 23.6919 6.62039 23.8344 6.78226C23.9768 6.93765 24.1419 7.05744 24.3297 7.14161C24.5239 7.22578 24.7279 7.26786 24.9415 7.26786C25.1552 7.26786 25.3559 7.22578 25.5437 7.14161C25.7379 7.05744 25.9063 6.93765 26.0487 6.78226C26.1912 6.62039 26.3012 6.42291 26.3789 6.18983C26.4631 5.95026 26.5052 5.67832 26.5052 5.37401C26.5052 5.0697 26.4631 4.801 26.3789 4.56791C26.3012 4.32835 26.1912 4.12763 26.0487 3.96576C25.9063 3.8039 25.7379 3.68088 25.5437 3.59671C25.3559 3.51253 25.1552 3.47045 24.9415 3.47045C24.7279 3.47045 24.5239 3.51253 24.3297 3.59671C24.1419 3.68088 23.9768 3.8039 23.8344 3.96576C23.6919 4.12763 23.5786 4.32835 23.4944 4.56791C23.4167 4.801 23.3779 5.0697 23.3779 5.37401ZM22.5038 5.37401C22.5038 5.00495 22.5556 4.66179 22.6592 4.34453C22.7628 4.0208 22.9182 3.74239 23.1254 3.5093C23.3326 3.26973 23.5883 3.08197 23.8926 2.946C24.1969 2.81003 24.5466 2.74204 24.9415 2.74204C25.343 2.74204 25.6926 2.81003 25.9904 2.946C26.2948 3.08197 26.5505 3.26973 26.7577 3.5093C26.9649 3.74239 27.1203 4.0208 27.2239 4.34453C27.3275 4.66179 27.3793 5.00495 27.3793 5.37401C27.3793 5.74307 27.3275 6.08623 27.2239 6.40349C27.1203 6.72075 26.9649 6.99916 26.7577 7.23873C26.5505 7.47182 26.2948 7.65635 25.9904 7.79232C25.6926 7.92181 25.343 7.98656 24.9415 7.98656C24.5466 7.98656 24.1969 7.92181 23.8926 7.79232C23.5883 7.65635 23.3326 7.47182 23.1254 7.23873C22.9182 6.99916 22.7628 6.72075 22.6592 6.40349C22.5556 6.08623 22.5038 5.74307 22.5038 5.37401Z" fill="#2229FF"/>
<path d="M27.867 2.85859H28.644V3.59671H28.6634C29.0389 3.02693 29.5796 2.74204 30.2853 2.74204C30.5961 2.74204 30.8777 2.80679 31.1302 2.93629C31.3828 3.06578 31.5608 3.28592 31.6644 3.59671C31.8328 3.32477 32.0529 3.11434 32.3248 2.96542C32.6032 2.8165 32.9076 2.74204 33.2378 2.74204C33.4903 2.74204 33.7169 2.77118 33.9176 2.82945C34.1248 2.88125 34.2996 2.96542 34.4421 3.08197C34.591 3.19851 34.7043 3.35067 34.782 3.53843C34.8662 3.71972 34.9082 3.93986 34.9082 4.19885V7.87972H34.0827V4.58734C34.0827 4.43194 34.0698 4.28626 34.0439 4.15029C34.018 4.01432 33.9694 3.89778 33.8982 3.80066C33.827 3.69706 33.7266 3.61613 33.5971 3.55786C33.4741 3.49958 33.3122 3.47045 33.1115 3.47045C32.7036 3.47045 32.3831 3.58699 32.15 3.82008C31.9169 4.05317 31.8004 4.36396 31.8004 4.75244V7.87972H30.9749V4.58734C30.9749 4.42547 30.9587 4.27655 30.9263 4.14058C30.9004 4.00461 30.8518 3.88807 30.7806 3.79095C30.7094 3.68735 30.6123 3.60965 30.4893 3.55786C30.3727 3.49958 30.2206 3.47045 30.0328 3.47045C29.7932 3.47045 29.586 3.51901 29.4112 3.61613C29.2429 3.71325 29.1037 3.82979 28.9936 3.96576C28.89 4.10173 28.8123 4.24418 28.7605 4.39309C28.7152 4.53554 28.6925 4.65532 28.6925 4.75244V7.87972H27.867V2.85859Z" fill="#2229FF"/>
<path d="M35.6613 2.85859H36.4383V3.59671H36.4577C36.8332 3.02693 37.3739 2.74204 38.0796 2.74204C38.3904 2.74204 38.672 2.80679 38.9246 2.93629C39.1771 3.06578 39.3551 3.28592 39.4587 3.59671C39.6271 3.32477 39.8472 3.11434 40.1191 2.96542C40.3976 2.8165 40.7019 2.74204 41.0321 2.74204C41.2846 2.74204 41.5112 2.77118 41.7119 2.82945C41.9191 2.88125 42.0939 2.96542 42.2364 3.08197C42.3853 3.19851 42.4986 3.35067 42.5763 3.53843C42.6605 3.71972 42.7025 3.93986 42.7025 4.19885V7.87972H41.877V4.58734C41.877 4.43194 41.8641 4.28626 41.8382 4.15029C41.8123 4.01432 41.7637 3.89778 41.6925 3.80066C41.6213 3.69706 41.5209 3.61613 41.3914 3.55786C41.2684 3.49958 41.1065 3.47045 40.9058 3.47045C40.4979 3.47045 40.1774 3.58699 39.9443 3.82008C39.7112 4.05317 39.5947 4.36396 39.5947 4.75244V7.87972H38.7692V4.58734C38.7692 4.42547 38.753 4.27655 38.7206 4.14058C38.6947 4.00461 38.6461 3.88807 38.5749 3.79095C38.5037 3.68735 38.4066 3.60965 38.2836 3.55786C38.167 3.49958 38.0149 3.47045 37.8271 3.47045C37.5875 3.47045 37.3803 3.51901 37.2055 3.61613C37.0372 3.71325 36.898 3.82979 36.7879 3.96576C36.6843 4.10173 36.6066 4.24418 36.5548 4.39309C36.5095 4.53554 36.4868 4.65532 36.4868 4.75244V7.87972H35.6613V2.85859Z" fill="#2229FF"/>
<path d="M47.6124 7.87972H46.8354V7.08334H46.816C46.6412 7.39412 46.4178 7.62397 46.1459 7.77289C45.8739 7.91534 45.5534 7.98656 45.1844 7.98656C44.8541 7.98656 44.579 7.94447 44.3588 7.8603C44.1387 7.76965 43.9606 7.6434 43.8247 7.48153C43.6887 7.31966 43.5916 7.12866 43.5333 6.90852C43.4815 6.6819 43.4556 6.43263 43.4556 6.16069V2.85859H44.2811V6.25781C44.2811 6.5686 44.3718 6.81463 44.5531 6.99593C44.7344 7.17722 44.9836 7.26786 45.3009 7.26786C45.5534 7.26786 45.7703 7.22902 45.9516 7.15132C46.1394 7.07362 46.2948 6.96355 46.4178 6.82111C46.5408 6.67867 46.6315 6.51356 46.6897 6.32579C46.7545 6.13155 46.7868 5.92113 46.7868 5.69451V2.85859H47.6124V7.87972Z" fill="#2229FF"/>
<path d="M48.3667 2.85859H49.1436V3.65498H49.163C49.5062 3.04636 50.0501 2.74204 50.7947 2.74204C51.1249 2.74204 51.4001 2.78737 51.6202 2.87801C51.8403 2.96866 52.0184 3.09492 52.1544 3.25678C52.2903 3.41865 52.3842 3.61289 52.436 3.83951C52.4943 4.05965 52.5234 4.30569 52.5234 4.57762V7.87972H51.6979V4.4805C51.6979 4.16972 51.6072 3.92368 51.4259 3.74239C51.2447 3.56109 50.9954 3.47045 50.6781 3.47045C50.4256 3.47045 50.2055 3.5093 50.0177 3.58699C49.8364 3.66469 49.6843 3.77476 49.5612 3.9172C49.4382 4.05965 49.3443 4.22799 49.2796 4.42223C49.2213 4.61 49.1922 4.81719 49.1922 5.0438V7.87972H48.3667V2.85859Z" fill="#2229FF"/>
<path d="M54.1518 1.95537H53.3263V0.945312H54.1518V1.95537ZM53.3263 2.85859H54.1518V7.87972H53.3263V2.85859Z" fill="#2229FF"/>
<path d="M56.0911 2.85859H57.0914V3.58699H56.0911V6.70456C56.0911 6.80169 56.0976 6.87938 56.1105 6.93765C56.1299 6.99593 56.1623 7.04125 56.2076 7.07362C56.2529 7.106 56.3145 7.12866 56.3922 7.14161C56.4763 7.14808 56.5832 7.15132 56.7127 7.15132H57.0914V7.87972H56.4601C56.2465 7.87972 56.0619 7.86677 55.9066 7.84088C55.7576 7.8085 55.6346 7.75347 55.5375 7.67577C55.4468 7.59807 55.3789 7.488 55.3335 7.34556C55.2882 7.20312 55.2656 7.01535 55.2656 6.78226V3.58699H54.4109V2.85859H55.2656V1.35322H56.0911V2.85859Z" fill="#2229FF"/>
<path d="M59.4945 8.54986C59.3974 8.7959 59.3002 9.00309 59.2031 9.17143C59.1125 9.33977 59.0089 9.47574 58.8923 9.57934C58.7823 9.68941 58.656 9.7671 58.5136 9.81242C58.3776 9.86422 58.219 9.89012 58.0377 9.89012C57.9405 9.89012 57.8434 9.88365 57.7463 9.8707C57.6492 9.85775 57.5553 9.83509 57.4646 9.80271V9.04517C57.5359 9.07755 57.6168 9.10344 57.7075 9.12287C57.8046 9.14877 57.8855 9.16172 57.9503 9.16172C58.1186 9.16172 58.2578 9.11963 58.3679 9.03546C58.4844 8.95776 58.5718 8.84446 58.6301 8.69554L58.97 7.85059L56.979 2.85859H57.9114L59.3779 6.96679H59.3974L60.8056 2.85859H61.6797L59.4945 8.54986Z" fill="#2229FF"/>
</svg>
