<svg width="228" height="59" viewBox="0 0 228 59" fill="none" xmlns="http://www.w3.org/2000/svg">
<path d="M10.3519 22.3438H7.80188V7.10375H2.28188V5.06375C3.00188 5.06375 3.70188 5.01375 4.38188 4.91375C5.06188 4.79375 5.67188 4.58375 6.21188 4.28375C6.77188 3.98375 7.24188 3.57375 7.62188 3.05375C8.00188 2.53375 8.26188 1.87375 8.40188 1.07375H10.3519V22.3438ZM16.1618 8.60375C16.1018 7.52375 16.2118 6.52375 16.4918 5.60375C16.7718 4.68375 17.2018 3.89375 17.7818 3.23375C18.3818 2.55375 19.1218 2.02375 20.0018 1.64375C20.8818 1.26375 21.8818 1.07375 23.0018 1.07375C23.9218 1.07375 24.7818 1.21375 25.5818 1.49375C26.4018 1.75375 27.1118 2.14375 27.7118 2.66375C28.3118 3.16375 28.7818 3.79375 29.1218 4.55375C29.4818 5.31375 29.6618 6.19375 29.6618 7.19375C29.6618 8.13375 29.5118 8.96375 29.2118 9.68375C28.9318 10.4037 28.5518 11.0537 28.0718 11.6337C27.5918 12.1937 27.0418 12.7037 26.4218 13.1637C25.8018 13.6237 25.1618 14.0637 24.5018 14.4837C23.8418 14.8837 23.1818 15.2837 22.5218 15.6837C21.8618 16.0637 21.2518 16.4737 20.6918 16.9137C20.1518 17.3537 19.6818 17.8337 19.2818 18.3537C18.9018 18.8537 18.6518 19.4337 18.5318 20.0937H29.4518V22.3438H15.5618C15.6618 21.0837 15.8818 20.0137 16.2218 19.1337C16.5818 18.2337 17.0318 17.4537 17.5718 16.7937C18.1118 16.1337 18.7218 15.5537 19.4018 15.0537C20.0818 14.5537 20.7918 14.0837 21.5318 13.6437C22.4318 13.0837 23.2218 12.5737 23.9018 12.1137C24.5818 11.6337 25.1418 11.1537 25.5818 10.6737C26.0418 10.1937 26.3818 9.67375 26.6018 9.11375C26.8418 8.55375 26.9618 7.90375 26.9618 7.16375C26.9618 6.58375 26.8518 6.06375 26.6318 5.60375C26.4118 5.12375 26.1118 4.71375 25.7318 4.37375C25.3718 4.03375 24.9418 3.77375 24.4418 3.59375C23.9418 3.41375 23.4118 3.32375 22.8518 3.32375C22.1118 3.32375 21.4718 3.48375 20.9318 3.80375C20.4118 4.10375 19.9818 4.50375 19.6418 5.00375C19.3018 5.50375 19.0518 6.07375 18.8918 6.71375C18.7518 7.33375 18.6918 7.96375 18.7118 8.60375H16.1618ZM32.5017 19.0137H35.8317V22.0437C35.8317 23.1838 35.5717 24.1638 35.0517 24.9838C34.5317 25.8038 33.6917 26.3838 32.5317 26.7238V25.2238C32.8717 25.1038 33.1517 24.9238 33.3717 24.6838C33.6117 24.4638 33.8017 24.2138 33.9417 23.9338C34.0817 23.6738 34.1717 23.4038 34.2117 23.1238C34.2717 22.8438 34.2917 22.5838 34.2717 22.3438H32.5017V19.0137ZM40.8213 11.8737C40.8213 12.6737 40.8413 13.5737 40.8813 14.5737C40.9413 15.5537 41.1013 16.4837 41.3613 17.3637C41.6413 18.2237 42.0813 18.9537 42.6813 19.5537C43.2813 20.1537 44.1213 20.4537 45.2013 20.4537C46.2813 20.4537 47.1213 20.1537 47.7213 19.5537C48.3213 18.9537 48.7513 18.2237 49.0113 17.3637C49.2913 16.4837 49.4513 15.5537 49.4913 14.5737C49.5513 13.5737 49.5813 12.6737 49.5813 11.8737C49.5813 11.3537 49.5713 10.7837 49.5513 10.1637C49.5513 9.52375 49.5013 8.89375 49.4013 8.27375C49.3213 7.63375 49.1913 7.01375 49.0113 6.41375C48.8513 5.81375 48.6013 5.29375 48.2613 4.85375C47.9413 4.39375 47.5313 4.02375 47.0313 3.74375C46.5313 3.46375 45.9213 3.32375 45.2013 3.32375C44.4813 3.32375 43.8713 3.46375 43.3713 3.74375C42.8713 4.02375 42.4513 4.39375 42.1113 4.85375C41.7913 5.29375 41.5413 5.81375 41.3613 6.41375C41.2013 7.01375 41.0713 7.63375 40.9713 8.27375C40.8913 8.89375 40.8413 9.52375 40.8213 10.1637C40.8213 10.7837 40.8213 11.3537 40.8213 11.8737ZM38.1213 11.9037C38.1213 11.1237 38.1413 10.3137 38.1813 9.47375C38.2213 8.63375 38.3213 7.81375 38.4813 7.01375C38.6413 6.21375 38.8713 5.45375 39.1713 4.73375C39.4713 4.01375 39.8813 3.38375 40.4013 2.84375C40.9213 2.30375 41.5713 1.87375 42.3513 1.55375C43.1513 1.23375 44.1013 1.07375 45.2013 1.07375C46.3013 1.07375 47.2413 1.23375 48.0213 1.55375C48.8213 1.87375 49.4813 2.30375 50.0013 2.84375C50.5213 3.38375 50.9313 4.01375 51.2313 4.73375C51.5313 5.45375 51.7613 6.21375 51.9213 7.01375C52.0813 7.81375 52.1813 8.63375 52.2213 9.47375C52.2613 10.3137 52.2813 11.1237 52.2813 11.9037C52.2813 12.6837 52.2613 13.4937 52.2213 14.3337C52.1813 15.1737 52.0813 15.9937 51.9213 16.7937C51.7613 17.5937 51.5313 18.3537 51.2313 19.0737C50.9313 19.7737 50.5213 20.3937 50.0013 20.9337C49.4813 21.4737 48.8313 21.9037 48.0513 22.2237C47.2713 22.5238 46.3213 22.6738 45.2013 22.6738C44.1013 22.6738 43.1513 22.5238 42.3513 22.2237C41.5713 21.9037 40.9213 21.4737 40.4013 20.9337C39.8813 20.3937 39.4713 19.7737 39.1713 19.0737C38.8713 18.3537 38.6413 17.5937 38.4813 16.7937C38.3213 15.9937 38.2213 15.1737 38.1813 14.3337C38.1413 13.4937 38.1213 12.6837 38.1213 11.9037ZM55.9912 11.8737C55.9912 12.6737 56.0113 13.5737 56.0513 14.5737C56.1113 15.5537 56.2713 16.4837 56.5313 17.3637C56.8113 18.2237 57.2513 18.9537 57.8513 19.5537C58.4513 20.1537 59.2913 20.4537 60.3713 20.4537C61.4513 20.4537 62.2913 20.1537 62.8913 19.5537C63.4913 18.9537 63.9213 18.2237 64.1813 17.3637C64.4613 16.4837 64.6213 15.5537 64.6613 14.5737C64.7213 13.5737 64.7513 12.6737 64.7513 11.8737C64.7513 11.3537 64.7413 10.7837 64.7213 10.1637C64.7213 9.52375 64.6713 8.89375 64.5713 8.27375C64.4913 7.63375 64.3613 7.01375 64.1813 6.41375C64.0213 5.81375 63.7713 5.29375 63.4313 4.85375C63.1113 4.39375 62.7013 4.02375 62.2013 3.74375C61.7013 3.46375 61.0913 3.32375 60.3713 3.32375C59.6513 3.32375 59.0413 3.46375 58.5413 3.74375C58.0413 4.02375 57.6213 4.39375 57.2813 4.85375C56.9613 5.29375 56.7113 5.81375 56.5313 6.41375C56.3713 7.01375 56.2413 7.63375 56.1413 8.27375C56.0613 8.89375 56.0113 9.52375 55.9912 10.1637C55.9912 10.7837 55.9912 11.3537 55.9912 11.8737ZM53.2913 11.9037C53.2913 11.1237 53.3113 10.3137 53.3513 9.47375C53.3913 8.63375 53.4913 7.81375 53.6513 7.01375C53.8113 6.21375 54.0413 5.45375 54.3413 4.73375C54.6413 4.01375 55.0513 3.38375 55.5713 2.84375C56.0913 2.30375 56.7413 1.87375 57.5213 1.55375C58.3213 1.23375 59.2713 1.07375 60.3713 1.07375C61.4713 1.07375 62.4113 1.23375 63.1913 1.55375C63.9913 1.87375 64.6513 2.30375 65.1713 2.84375C65.6913 3.38375 66.1013 4.01375 66.4013 4.73375C66.7013 5.45375 66.9313 6.21375 67.0913 7.01375C67.2513 7.81375 67.3513 8.63375 67.3913 9.47375C67.4313 10.3137 67.4512 11.1237 67.4512 11.9037C67.4512 12.6837 67.4313 13.4937 67.3913 14.3337C67.3513 15.1737 67.2513 15.9937 67.0913 16.7937C66.9313 17.5937 66.7013 18.3537 66.4013 19.0737C66.1013 19.7737 65.6913 20.3937 65.1713 20.9337C64.6513 21.4737 64.0013 21.9037 63.2213 22.2237C62.4413 22.5238 61.4913 22.6738 60.3713 22.6738C59.2713 22.6738 58.3213 22.5238 57.5213 22.2237C56.7413 21.9037 56.0913 21.4737 55.5713 20.9337C55.0513 20.3937 54.6413 19.7737 54.3413 19.0737C54.0413 18.3537 53.8113 17.5937 53.6513 16.7937C53.4913 15.9937 53.3913 15.1737 53.3513 14.3337C53.3113 13.4937 53.2913 12.6837 53.2913 11.9037ZM71.1612 11.8737C71.1612 12.6737 71.1812 13.5737 71.2212 14.5737C71.2812 15.5537 71.4412 16.4837 71.7012 17.3637C71.9812 18.2237 72.4212 18.9537 73.0212 19.5537C73.6212 20.1537 74.4612 20.4537 75.5412 20.4537C76.6212 20.4537 77.4612 20.1537 78.0612 19.5537C78.6612 18.9537 79.0912 18.2237 79.3512 17.3637C79.6312 16.4837 79.7912 15.5537 79.8312 14.5737C79.8912 13.5737 79.9212 12.6737 79.9212 11.8737C79.9212 11.3537 79.9112 10.7837 79.8912 10.1637C79.8912 9.52375 79.8412 8.89375 79.7412 8.27375C79.6612 7.63375 79.5312 7.01375 79.3512 6.41375C79.1912 5.81375 78.9412 5.29375 78.6012 4.85375C78.2812 4.39375 77.8712 4.02375 77.3712 3.74375C76.8712 3.46375 76.2612 3.32375 75.5412 3.32375C74.8212 3.32375 74.2112 3.46375 73.7112 3.74375C73.2112 4.02375 72.7912 4.39375 72.4512 4.85375C72.1312 5.29375 71.8812 5.81375 71.7012 6.41375C71.5412 7.01375 71.4112 7.63375 71.3112 8.27375C71.2312 8.89375 71.1812 9.52375 71.1612 10.1637C71.1612 10.7837 71.1612 11.3537 71.1612 11.8737ZM68.4612 11.9037C68.4612 11.1237 68.4812 10.3137 68.5212 9.47375C68.5612 8.63375 68.6612 7.81375 68.8212 7.01375C68.9812 6.21375 69.2112 5.45375 69.5112 4.73375C69.8112 4.01375 70.2212 3.38375 70.7412 2.84375C71.2612 2.30375 71.9112 1.87375 72.6912 1.55375C73.4912 1.23375 74.4412 1.07375 75.5412 1.07375C76.6412 1.07375 77.5812 1.23375 78.3612 1.55375C79.1612 1.87375 79.8212 2.30375 80.3412 2.84375C80.8612 3.38375 81.2712 4.01375 81.5712 4.73375C81.8712 5.45375 82.1012 6.21375 82.2612 7.01375C82.4212 7.81375 82.5212 8.63375 82.5612 9.47375C82.6012 10.3137 82.6212 11.1237 82.6212 11.9037C82.6212 12.6837 82.6012 13.4937 82.5612 14.3337C82.5212 15.1737 82.4212 15.9937 82.2612 16.7937C82.1012 17.5937 81.8712 18.3537 81.5712 19.0737C81.2712 19.7737 80.8612 20.3937 80.3412 20.9337C79.8212 21.4737 79.1712 21.9037 78.3912 22.2237C77.6112 22.5238 76.6612 22.6738 75.5412 22.6738C74.4412 22.6738 73.4912 22.5238 72.6912 22.2237C71.9112 21.9037 71.2612 21.4737 70.7412 20.9337C70.2212 20.3937 69.8112 19.7737 69.5112 19.0737C69.2112 18.3537 68.9812 17.5937 68.8212 16.7937C68.6612 15.9937 68.5612 15.1737 68.5212 14.3337C68.4812 13.4937 68.4612 12.6837 68.4612 11.9037ZM92.3911 13.7337H98.9311V15.7737H92.3911V22.3438H90.3511V15.7737H83.8111V13.7337H90.3511V7.16375H92.3911V13.7337ZM110.899 19.9437H115.639C115.959 19.9437 116.359 19.9237 116.839 19.8837C117.319 19.8237 117.829 19.7037 118.369 19.5237C118.909 19.3237 119.439 19.0437 119.959 18.6837C120.499 18.3237 120.979 17.8337 121.399 17.2137C121.819 16.5937 122.159 15.8237 122.419 14.9037C122.699 13.9637 122.839 12.8337 122.839 11.5137C122.839 10.2337 122.709 9.09375 122.449 8.09375C122.209 7.07375 121.799 6.21375 121.219 5.51375C120.659 4.79375 119.929 4.25375 119.029 3.89375C118.129 3.51375 117.019 3.32375 115.699 3.32375H110.899V19.9437ZM108.049 0.923749H115.399C118.699 0.923749 121.239 1.76375 123.019 3.44375C124.799 5.12375 125.689 7.68375 125.689 11.1237C125.689 12.9237 125.489 14.5237 125.089 15.9237C124.689 17.3037 124.069 18.4737 123.229 19.4337C122.389 20.3737 121.319 21.0937 120.019 21.5937C118.719 22.0937 117.179 22.3438 115.399 22.3438H108.049V0.923749ZM138.022 13.1037C137.982 12.5037 137.842 11.9337 137.602 11.3937C137.382 10.8537 137.072 10.3937 136.672 10.0137C136.292 9.61375 135.832 9.30375 135.292 9.08375C134.772 8.84375 134.192 8.72375 133.552 8.72375C132.892 8.72375 132.292 8.84375 131.752 9.08375C131.232 9.30375 130.782 9.61375 130.402 10.0137C130.022 10.4137 129.722 10.8837 129.502 11.4237C129.282 11.9437 129.152 12.5037 129.112 13.1037H138.022ZM140.482 17.4237C140.142 19.1637 139.392 20.4737 138.232 21.3538C137.072 22.2338 135.612 22.6738 133.852 22.6738C132.612 22.6738 131.532 22.4738 130.612 22.0737C129.712 21.6737 128.952 21.1137 128.332 20.3937C127.712 19.6737 127.242 18.8137 126.922 17.8137C126.622 16.8137 126.452 15.7237 126.412 14.5437C126.412 13.3637 126.592 12.2837 126.952 11.3037C127.312 10.3237 127.812 9.47375 128.452 8.75375C129.112 8.03375 129.882 7.47375 130.762 7.07375C131.662 6.67375 132.642 6.47375 133.702 6.47375C135.082 6.47375 136.222 6.76375 137.122 7.34375C138.042 7.90375 138.772 8.62375 139.312 9.50375C139.872 10.3837 140.252 11.3437 140.452 12.3837C140.672 13.4237 140.762 14.4137 140.722 15.3537H129.112C129.092 16.0337 129.172 16.6837 129.352 17.3037C129.532 17.9037 129.822 18.4437 130.222 18.9237C130.622 19.3837 131.132 19.7537 131.752 20.0337C132.372 20.3137 133.102 20.4537 133.942 20.4537C135.022 20.4537 135.902 20.2037 136.582 19.7037C137.282 19.2037 137.742 18.4437 137.962 17.4237H140.482ZM143.425 17.4537C143.445 18.0137 143.575 18.4937 143.815 18.8937C144.055 19.2737 144.365 19.5837 144.745 19.8237C145.145 20.0437 145.585 20.2037 146.065 20.3037C146.565 20.4037 147.075 20.4537 147.595 20.4537C147.995 20.4537 148.415 20.4237 148.855 20.3638C149.295 20.3037 149.695 20.1937 150.055 20.0337C150.435 19.8737 150.745 19.6437 150.985 19.3437C151.225 19.0237 151.345 18.6237 151.345 18.1437C151.345 17.4837 151.095 16.9837 150.595 16.6437C150.095 16.3037 149.465 16.0337 148.705 15.8337C147.965 15.6137 147.155 15.4237 146.275 15.2637C145.395 15.0837 144.575 14.8437 143.815 14.5437C143.075 14.2237 142.455 13.7837 141.955 13.2237C141.455 12.6637 141.205 11.8837 141.205 10.8837C141.205 10.1037 141.375 9.43375 141.715 8.87375C142.075 8.31375 142.525 7.86375 143.065 7.52375C143.625 7.16375 144.245 6.90375 144.925 6.74375C145.625 6.56375 146.315 6.47375 146.995 6.47375C147.875 6.47375 148.685 6.55375 149.425 6.71375C150.165 6.85375 150.815 7.11375 151.375 7.49375C151.955 7.85375 152.415 8.35375 152.755 8.99375C153.095 9.61375 153.295 10.3937 153.355 11.3337H150.805C150.765 10.8337 150.635 10.4237 150.415 10.1037C150.195 9.76375 149.915 9.49375 149.575 9.29375C149.235 9.09375 148.855 8.95375 148.435 8.87375C148.035 8.77375 147.625 8.72375 147.205 8.72375C146.825 8.72375 146.435 8.75375 146.035 8.81375C145.655 8.87375 145.305 8.98375 144.985 9.14375C144.665 9.28375 144.405 9.48375 144.205 9.74375C144.005 9.98375 143.905 10.3037 143.905 10.7037C143.905 11.1437 144.055 11.5137 144.355 11.8137C144.675 12.0937 145.075 12.3337 145.555 12.5337C146.035 12.7137 146.575 12.8737 147.175 13.0137C147.775 13.1337 148.375 13.2637 148.975 13.4037C149.615 13.5437 150.235 13.7137 150.835 13.9137C151.455 14.1137 151.995 14.3837 152.455 14.7237C152.935 15.0437 153.315 15.4537 153.595 15.9537C153.895 16.4537 154.045 17.0737 154.045 17.8137C154.045 18.7537 153.845 19.5337 153.445 20.1537C153.065 20.7737 152.555 21.2737 151.915 21.6537C151.295 22.0337 150.585 22.2937 149.785 22.4338C149.005 22.5938 148.225 22.6738 147.445 22.6738C146.585 22.6738 145.765 22.5838 144.985 22.4038C144.205 22.2237 143.515 21.9337 142.915 21.5337C142.315 21.1137 141.835 20.5737 141.475 19.9137C141.115 19.2337 140.915 18.4137 140.875 17.4537H143.425ZM158.065 4.04375H155.515V0.923749H158.065V4.04375ZM155.515 6.83375H158.065V22.3438H155.515V6.83375ZM173.896 21.0237C173.896 23.5638 173.316 25.4638 172.156 26.7238C170.996 27.9838 169.176 28.6138 166.696 28.6138C165.976 28.6138 165.236 28.5338 164.476 28.3738C163.736 28.2138 163.056 27.9538 162.436 27.5938C161.836 27.2338 161.336 26.7638 160.936 26.1838C160.536 25.6038 160.316 24.8938 160.276 24.0538H162.826C162.846 24.5138 162.986 24.9038 163.246 25.2238C163.526 25.5438 163.856 25.8038 164.236 26.0038C164.636 26.2038 165.066 26.3438 165.526 26.4238C165.986 26.5238 166.426 26.5738 166.846 26.5738C167.686 26.5738 168.396 26.4238 168.976 26.1238C169.556 25.8438 170.036 25.4438 170.416 24.9238C170.796 24.4238 171.066 23.8138 171.226 23.0938C171.406 22.3737 171.496 21.5837 171.496 20.7237V19.7037H171.436C170.996 20.6637 170.326 21.3737 169.426 21.8337C168.546 22.2737 167.606 22.4938 166.606 22.4938C165.446 22.4938 164.436 22.2837 163.576 21.8637C162.716 21.4437 161.996 20.8837 161.416 20.1837C160.836 19.4637 160.396 18.6337 160.096 17.6937C159.816 16.7337 159.676 15.7237 159.676 14.6637C159.676 13.7437 159.796 12.8037 160.036 11.8437C160.276 10.8637 160.676 9.98375 161.236 9.20375C161.796 8.40375 162.536 7.75375 163.456 7.25375C164.376 6.73375 165.506 6.47375 166.846 6.47375C167.826 6.47375 168.726 6.69375 169.546 7.13375C170.366 7.55375 171.006 8.19375 171.466 9.05375H171.496V6.83375H173.896V21.0237ZM166.756 20.2737C167.596 20.2737 168.306 20.1037 168.886 19.7637C169.486 19.4037 169.966 18.9437 170.326 18.3838C170.686 17.8037 170.946 17.1537 171.106 16.4337C171.286 15.7137 171.376 14.9937 171.376 14.2737C171.376 13.5937 171.296 12.9237 171.136 12.2637C170.976 11.6037 170.716 11.0137 170.356 10.4937C170.016 9.95375 169.566 9.52375 169.006 9.20375C168.446 8.88375 167.766 8.72375 166.966 8.72375C166.146 8.72375 165.446 8.88375 164.866 9.20375C164.286 9.50375 163.806 9.91375 163.426 10.4337C163.066 10.9537 162.796 11.5537 162.616 12.2337C162.456 12.9137 162.376 13.6237 162.376 14.3637C162.376 15.0637 162.446 15.7637 162.586 16.4637C162.726 17.1637 162.966 17.8037 163.306 18.3838C163.646 18.9437 164.096 19.4037 164.656 19.7637C165.216 20.1037 165.916 20.2737 166.756 20.2737ZM176.242 6.83375H178.642V9.29375H178.702C179.762 7.41375 181.442 6.47375 183.742 6.47375C184.762 6.47375 185.612 6.61375 186.292 6.89375C186.972 7.17375 187.522 7.56375 187.942 8.06375C188.362 8.56375 188.652 9.16375 188.812 9.86375C188.992 10.5437 189.082 11.3037 189.082 12.1437V22.3438H186.532V11.8437C186.532 10.8837 186.252 10.1237 185.692 9.56375C185.132 9.00375 184.362 8.72375 183.382 8.72375C182.602 8.72375 181.922 8.84375 181.342 9.08375C180.782 9.32375 180.312 9.66375 179.932 10.1037C179.552 10.5437 179.262 11.0637 179.062 11.6637C178.882 12.2437 178.792 12.8837 178.792 13.5837V22.3438H176.242V6.83375ZM202.182 13.1037C202.142 12.5037 202.002 11.9337 201.762 11.3937C201.542 10.8537 201.232 10.3937 200.832 10.0137C200.452 9.61375 199.992 9.30375 199.452 9.08375C198.932 8.84375 198.352 8.72375 197.712 8.72375C197.052 8.72375 196.452 8.84375 195.912 9.08375C195.392 9.30375 194.942 9.61375 194.562 10.0137C194.182 10.4137 193.882 10.8837 193.662 11.4237C193.442 11.9437 193.312 12.5037 193.272 13.1037H202.182ZM204.642 17.4237C204.302 19.1637 203.552 20.4737 202.392 21.3538C201.232 22.2338 199.772 22.6738 198.012 22.6738C196.772 22.6738 195.692 22.4738 194.772 22.0737C193.872 21.6737 193.112 21.1137 192.492 20.3937C191.872 19.6737 191.402 18.8137 191.082 17.8137C190.782 16.8137 190.612 15.7237 190.572 14.5437C190.572 13.3637 190.752 12.2837 191.112 11.3037C191.472 10.3237 191.972 9.47375 192.612 8.75375C193.272 8.03375 194.042 7.47375 194.922 7.07375C195.822 6.67375 196.802 6.47375 197.862 6.47375C199.242 6.47375 200.382 6.76375 201.282 7.34375C202.202 7.90375 202.932 8.62375 203.472 9.50375C204.032 10.3837 204.412 11.3437 204.612 12.3837C204.832 13.4237 204.922 14.4137 204.882 15.3537H193.272C193.252 16.0337 193.332 16.6837 193.512 17.3037C193.692 17.9037 193.982 18.4437 194.382 18.9237C194.782 19.3837 195.292 19.7537 195.912 20.0337C196.532 20.3137 197.262 20.4537 198.102 20.4537C199.182 20.4537 200.062 20.2037 200.742 19.7037C201.442 19.2037 201.902 18.4437 202.122 17.4237H204.642ZM205.935 6.83375H208.335V10.1037H208.395C209.015 8.84375 209.775 7.91375 210.675 7.31375C211.575 6.71375 212.715 6.43375 214.095 6.47375V9.17375C213.075 9.17375 212.205 9.31375 211.485 9.59375C210.765 9.87375 210.185 10.2837 209.745 10.8237C209.305 11.3637 208.985 12.0237 208.785 12.8037C208.585 13.5637 208.485 14.4437 208.485 15.4437V22.3438H205.935V6.83375ZM216.076 17.4537C216.096 18.0137 216.226 18.4937 216.466 18.8937C216.706 19.2737 217.016 19.5837 217.396 19.8237C217.796 20.0437 218.236 20.2037 218.716 20.3037C219.216 20.4037 219.726 20.4537 220.246 20.4537C220.646 20.4537 221.066 20.4237 221.506 20.3638C221.946 20.3037 222.346 20.1937 222.706 20.0337C223.086 19.8737 223.396 19.6437 223.636 19.3437C223.876 19.0237 223.996 18.6237 223.996 18.1437C223.996 17.4837 223.746 16.9837 223.246 16.6437C222.746 16.3037 222.116 16.0337 221.356 15.8337C220.616 15.6137 219.806 15.4237 218.926 15.2637C218.046 15.0837 217.226 14.8437 216.466 14.5437C215.726 14.2237 215.106 13.7837 214.606 13.2237C214.106 12.6637 213.856 11.8837 213.856 10.8837C213.856 10.1037 214.026 9.43375 214.366 8.87375C214.726 8.31375 215.176 7.86375 215.716 7.52375C216.276 7.16375 216.896 6.90375 217.576 6.74375C218.276 6.56375 218.966 6.47375 219.646 6.47375C220.526 6.47375 221.336 6.55375 222.076 6.71375C222.816 6.85375 223.466 7.11375 224.026 7.49375C224.606 7.85375 225.066 8.35375 225.406 8.99375C225.746 9.61375 225.946 10.3937 226.006 11.3337H223.456C223.416 10.8337 223.286 10.4237 223.066 10.1037C222.846 9.76375 222.566 9.49375 222.226 9.29375C221.886 9.09375 221.506 8.95375 221.086 8.87375C220.686 8.77375 220.276 8.72375 219.856 8.72375C219.476 8.72375 219.086 8.75375 218.686 8.81375C218.306 8.87375 217.956 8.98375 217.636 9.14375C217.316 9.28375 217.056 9.48375 216.856 9.74375C216.656 9.98375 216.556 10.3037 216.556 10.7037C216.556 11.1437 216.706 11.5137 217.006 11.8137C217.326 12.0937 217.726 12.3337 218.206 12.5337C218.686 12.7137 219.226 12.8737 219.826 13.0137C220.426 13.1337 221.026 13.2637 221.626 13.4037C222.266 13.5437 222.886 13.7137 223.486 13.9137C224.106 14.1137 224.646 14.3837 225.106 14.7237C225.586 15.0437 225.966 15.4537 226.246 15.9537C226.546 16.4537 226.696 17.0737 226.696 17.8137C226.696 18.7537 226.496 19.5337 226.096 20.1537C225.716 20.7737 225.206 21.2737 224.566 21.6537C223.946 22.0337 223.236 22.2937 222.436 22.4338C221.656 22.5938 220.876 22.6738 220.096 22.6738C219.236 22.6738 218.416 22.5838 217.636 22.4038C216.856 22.2237 216.166 21.9337 215.566 21.5337C214.966 21.1137 214.486 20.5737 214.126 19.9137C213.766 19.2337 213.566 18.4137 213.526 17.4537H216.076ZM2.64188 43.0837H0.031875V40.8337H2.64188V38.5237C2.64188 37.2637 3.00188 36.3137 3.72188 35.6737C4.46188 35.0137 5.53188 34.6837 6.93188 34.6837C7.17188 34.6837 7.44188 34.7037 7.74188 34.7437C8.06188 34.7837 8.34188 34.8437 8.58188 34.9237V37.1437C8.36188 37.0637 8.12188 37.0137 7.86188 36.9937C7.60188 36.9537 7.36188 36.9337 7.14188 36.9337C6.52188 36.9337 6.04188 37.0537 5.70188 37.2937C5.36188 37.5337 5.19188 37.9937 5.19188 38.6737V40.8337H8.19188V43.0837H5.19188V56.3438H2.64188V43.0837ZM8.87883 40.8337H11.2788V44.1037H11.3388C11.9588 42.8437 12.7188 41.9137 13.6188 41.3137C14.5188 40.7137 15.6588 40.4337 17.0388 40.4737V43.1737C16.0188 43.1737 15.1488 43.3137 14.4288 43.5937C13.7088 43.8737 13.1288 44.2837 12.6888 44.8237C12.2488 45.3637 11.9288 46.0237 11.7288 46.8037C11.5288 47.5637 11.4288 48.4437 11.4288 49.4437V56.3438H8.87883V40.8337ZM18.7917 48.6037C18.7917 49.5437 18.9117 50.3837 19.1517 51.1237C19.4117 51.8437 19.7617 52.4537 20.2017 52.9537C20.6417 53.4337 21.1517 53.8037 21.7317 54.0637C22.3317 54.3237 22.9617 54.4537 23.6217 54.4537C24.2817 54.4537 24.9017 54.3237 25.4817 54.0637C26.0817 53.8037 26.6017 53.4337 27.0417 52.9537C27.4817 52.4537 27.8217 51.8437 28.0617 51.1237C28.3217 50.3837 28.4517 49.5437 28.4517 48.6037C28.4517 47.6637 28.3217 46.8337 28.0617 46.1137C27.8217 45.3737 27.4817 44.7537 27.0417 44.2537C26.6017 43.7537 26.0817 43.3737 25.4817 43.1137C24.9017 42.8537 24.2817 42.7237 23.6217 42.7237C22.9617 42.7237 22.3317 42.8537 21.7317 43.1137C21.1517 43.3737 20.6417 43.7537 20.2017 44.2537C19.7617 44.7537 19.4117 45.3737 19.1517 46.1137C18.9117 46.8337 18.7917 47.6637 18.7917 48.6037ZM16.0917 48.6037C16.0917 47.4637 16.2517 46.4037 16.5717 45.4237C16.8917 44.4237 17.3717 43.5637 18.0117 42.8437C18.6517 42.1037 19.4417 41.5237 20.3817 41.1037C21.3217 40.6837 22.4017 40.4737 23.6217 40.4737C24.8617 40.4737 25.9417 40.6837 26.8617 41.1037C27.8017 41.5237 28.5917 42.1037 29.2317 42.8437C29.8717 43.5637 30.3517 44.4237 30.6717 45.4237C30.9917 46.4037 31.1517 47.4637 31.1517 48.6037C31.1517 49.7437 30.9917 50.8037 30.6717 51.7837C30.3517 52.7637 29.8717 53.6237 29.2317 54.3638C28.5917 55.0837 27.8017 55.6537 26.8617 56.0737C25.9417 56.4738 24.8617 56.6738 23.6217 56.6738C22.4017 56.6738 21.3217 56.4738 20.3817 56.0737C19.4417 55.6537 18.6517 55.0837 18.0117 54.3638C17.3717 53.6237 16.8917 52.7637 16.5717 51.7837C16.2517 50.8037 16.0917 49.7437 16.0917 48.6037ZM32.6583 40.8337H35.0583V43.1137H35.1183C36.2783 41.3537 37.9483 40.4737 40.1283 40.4737C41.0883 40.4737 41.9583 40.6737 42.7383 41.0737C43.5183 41.4737 44.0683 42.1537 44.3883 43.1137C44.9083 42.2737 45.5883 41.6237 46.4283 41.1637C47.2883 40.7037 48.2283 40.4737 49.2483 40.4737C50.0283 40.4737 50.7283 40.5637 51.3483 40.7437C51.9883 40.9037 52.5283 41.1637 52.9683 41.5237C53.4283 41.8837 53.7783 42.3537 54.0183 42.9337C54.2783 43.4937 54.4083 44.1737 54.4083 44.9737V56.3438H51.8583V46.1737C51.8583 45.6937 51.8183 45.2437 51.7383 44.8237C51.6583 44.4037 51.5083 44.0437 51.2883 43.7437C51.0683 43.4237 50.7583 43.1737 50.3583 42.9937C49.9783 42.8137 49.4783 42.7237 48.8583 42.7237C47.5983 42.7237 46.6083 43.0837 45.8883 43.8037C45.1683 44.5237 44.8083 45.4837 44.8083 46.6837V56.3438H42.2583V46.1737C42.2583 45.6737 42.2083 45.2137 42.1083 44.7937C42.0283 44.3737 41.8783 44.0137 41.6583 43.7137C41.4383 43.3937 41.1383 43.1537 40.7583 42.9937C40.3983 42.8137 39.9283 42.7237 39.3483 42.7237C38.6083 42.7237 37.9683 42.8737 37.4283 43.1737C36.9083 43.4737 36.4783 43.8337 36.1383 44.2537C35.8183 44.6737 35.5783 45.1137 35.4183 45.5737C35.2783 46.0137 35.2083 46.3837 35.2083 46.6837V56.3438H32.6583V40.8337ZM77.3241 56.2837C76.8841 56.5438 76.2741 56.6738 75.4941 56.6738C74.8341 56.6738 74.3041 56.4938 73.9041 56.1337C73.5241 55.7537 73.3341 55.1437 73.3341 54.3037C72.6341 55.1437 71.8141 55.7537 70.8741 56.1337C69.9541 56.4938 68.9541 56.6738 67.8741 56.6738C67.1741 56.6738 66.5041 56.5938 65.8641 56.4338C65.2441 56.2737 64.7041 56.0237 64.2441 55.6837C63.7841 55.3437 63.4141 54.9037 63.1341 54.3638C62.8741 53.8037 62.7441 53.1337 62.7441 52.3537C62.7441 51.4737 62.8941 50.7537 63.1941 50.1937C63.4941 49.6337 63.8841 49.1837 64.3641 48.8438C64.8641 48.4837 65.4241 48.2137 66.0441 48.0337C66.6841 47.8537 67.3341 47.7037 67.9941 47.5837C68.6941 47.4437 69.3541 47.3437 69.9741 47.2837C70.6141 47.2037 71.1741 47.1037 71.6541 46.9837C72.1341 46.8437 72.5141 46.6537 72.7941 46.4137C73.0741 46.1537 73.2141 45.7837 73.2141 45.3037C73.2141 44.7437 73.1041 44.2937 72.8841 43.9537C72.6841 43.6137 72.4141 43.3537 72.0741 43.1737C71.7541 42.9937 71.3841 42.8737 70.9641 42.8137C70.5641 42.7537 70.1641 42.7237 69.7641 42.7237C68.6841 42.7237 67.7841 42.9337 67.0641 43.3537C66.3441 43.7537 65.9541 44.5237 65.8941 45.6637H63.3441C63.3841 44.7037 63.5841 43.8937 63.9441 43.2337C64.3041 42.5737 64.7841 42.0437 65.3841 41.6437C65.9841 41.2237 66.6641 40.9237 67.4241 40.7437C68.2041 40.5637 69.0341 40.4737 69.9141 40.4737C70.6141 40.4737 71.3041 40.5237 71.9841 40.6237C72.6841 40.7237 73.3141 40.9337 73.8741 41.2537C74.4341 41.5537 74.8841 41.9837 75.2241 42.5437C75.5641 43.1037 75.7341 43.8337 75.7341 44.7337V52.7137C75.7341 53.3137 75.7641 53.7537 75.8241 54.0337C75.9041 54.3137 76.1441 54.4537 76.5441 54.4537C76.7641 54.4537 77.0241 54.4037 77.3241 54.3037V56.2837ZM73.1841 48.3337C72.8641 48.5737 72.4441 48.7537 71.9241 48.8737C71.4041 48.9737 70.8541 49.0637 70.2741 49.1437C69.7141 49.2037 69.1441 49.2837 68.5641 49.3837C67.9841 49.4637 67.4641 49.6037 67.0041 49.8037C66.5441 50.0037 66.1641 50.2937 65.8641 50.6737C65.5841 51.0337 65.4441 51.5337 65.4441 52.1737C65.4441 52.5937 65.5241 52.9537 65.6841 53.2537C65.8641 53.5337 66.0841 53.7637 66.3441 53.9437C66.6241 54.1237 66.9441 54.2537 67.3041 54.3337C67.6641 54.4137 68.0441 54.4537 68.4441 54.4537C69.2841 54.4537 70.0041 54.3437 70.6041 54.1237C71.2041 53.8837 71.6941 53.5937 72.0741 53.2537C72.4541 52.8937 72.7341 52.5137 72.9141 52.1137C73.0941 51.6937 73.1841 51.3037 73.1841 50.9437V48.3337ZM78.3473 34.9237H80.8973V56.3438H78.3473V34.9237ZM83.4977 34.9237H86.0477V56.3438H83.4977V34.9237ZM97.2077 48.6037C97.2077 49.5437 97.3277 50.3837 97.5677 51.1237C97.8277 51.8437 98.1777 52.4537 98.6177 52.9537C99.0577 53.4337 99.5677 53.8037 100.148 54.0637C100.748 54.3237 101.378 54.4537 102.038 54.4537C102.698 54.4537 103.318 54.3237 103.898 54.0637C104.498 53.8037 105.018 53.4337 105.458 52.9537C105.898 52.4537 106.238 51.8437 106.478 51.1237C106.738 50.3837 106.868 49.5437 106.868 48.6037C106.868 47.6637 106.738 46.8337 106.478 46.1137C106.238 45.3737 105.898 44.7537 105.458 44.2537C105.018 43.7537 104.498 43.3737 103.898 43.1137C103.318 42.8537 102.698 42.7237 102.038 42.7237C101.378 42.7237 100.748 42.8537 100.148 43.1137C99.5677 43.3737 99.0577 43.7537 98.6177 44.2537C98.1777 44.7537 97.8277 45.3737 97.5677 46.1137C97.3277 46.8337 97.2077 47.6637 97.2077 48.6037ZM94.5077 48.6037C94.5077 47.4637 94.6677 46.4037 94.9877 45.4237C95.3077 44.4237 95.7877 43.5637 96.4277 42.8437C97.0677 42.1037 97.8577 41.5237 98.7977 41.1037C99.7377 40.6837 100.818 40.4737 102.038 40.4737C103.278 40.4737 104.358 40.6837 105.278 41.1037C106.218 41.5237 107.008 42.1037 107.648 42.8437C108.288 43.5637 108.768 44.4237 109.088 45.4237C109.408 46.4037 109.568 47.4637 109.568 48.6037C109.568 49.7437 109.408 50.8037 109.088 51.7837C108.768 52.7637 108.288 53.6237 107.648 54.3638C107.008 55.0837 106.218 55.6537 105.278 56.0737C104.358 56.4738 103.278 56.6738 102.038 56.6738C100.818 56.6738 99.7377 56.4738 98.7977 56.0737C97.8577 55.6537 97.0677 55.0837 96.4277 54.3638C95.7877 53.6237 95.3077 52.7637 94.9877 51.7837C94.6677 50.8037 94.5077 49.7437 94.5077 48.6037ZM118.064 56.3438H115.334L109.574 40.8337H112.424L116.774 53.7637H116.834L121.064 40.8337H123.734L118.064 56.3438ZM135.344 47.1037C135.304 46.5037 135.164 45.9337 134.924 45.3937C134.704 44.8537 134.394 44.3937 133.994 44.0137C133.614 43.6137 133.154 43.3037 132.614 43.0837C132.094 42.8437 131.514 42.7237 130.874 42.7237C130.214 42.7237 129.614 42.8437 129.074 43.0837C128.554 43.3037 128.104 43.6137 127.724 44.0137C127.344 44.4137 127.044 44.8837 126.824 45.4237C126.604 45.9437 126.474 46.5037 126.434 47.1037H135.344ZM137.804 51.4237C137.464 53.1637 136.714 54.4737 135.554 55.3538C134.394 56.2338 132.934 56.6738 131.174 56.6738C129.934 56.6738 128.854 56.4738 127.934 56.0737C127.034 55.6737 126.274 55.1137 125.654 54.3937C125.034 53.6737 124.564 52.8137 124.244 51.8137C123.944 50.8137 123.774 49.7237 123.734 48.5437C123.734 47.3637 123.914 46.2837 124.274 45.3037C124.634 44.3237 125.134 43.4737 125.774 42.7537C126.434 42.0337 127.204 41.4737 128.084 41.0737C128.984 40.6737 129.964 40.4737 131.024 40.4737C132.404 40.4737 133.544 40.7637 134.444 41.3438C135.364 41.9037 136.094 42.6237 136.634 43.5037C137.194 44.3837 137.574 45.3437 137.774 46.3837C137.994 47.4237 138.084 48.4137 138.044 49.3537H126.434C126.414 50.0337 126.494 50.6837 126.674 51.3037C126.854 51.9037 127.144 52.4437 127.544 52.9237C127.944 53.3837 128.454 53.7537 129.074 54.0337C129.694 54.3137 130.424 54.4537 131.264 54.4537C132.344 54.4537 133.224 54.2037 133.904 53.7037C134.604 53.2037 135.064 52.4437 135.284 51.4237H137.804ZM139.098 40.8337H141.498V44.1037H141.558C142.178 42.8437 142.938 41.9137 143.838 41.3137C144.738 40.7137 145.878 40.4337 147.258 40.4737V43.1737C146.238 43.1737 145.368 43.3137 144.648 43.5937C143.928 43.8737 143.348 44.2837 142.908 44.8237C142.468 45.3637 142.148 46.0237 141.948 46.8037C141.748 47.5637 141.648 48.4437 141.648 49.4437V56.3438H139.098V40.8337ZM158.067 40.8337H161.157V43.0837H158.067V52.7137C158.067 53.0137 158.087 53.2537 158.127 53.4337C158.187 53.6137 158.287 53.7537 158.427 53.8537C158.567 53.9537 158.757 54.0237 158.997 54.0637C159.257 54.0837 159.587 54.0937 159.987 54.0937H161.157V56.3438H159.207C158.547 56.3438 157.977 56.3037 157.497 56.2237C157.037 56.1237 156.657 55.9537 156.357 55.7137C156.077 55.4737 155.867 55.1337 155.727 54.6937C155.587 54.2537 155.517 53.6737 155.517 52.9537V43.0837H152.877V40.8337H155.517V36.1837H158.067V40.8337ZM162.49 34.9237H165.04V43.1137H165.1C165.3 42.6337 165.58 42.2337 165.94 41.9137C166.3 41.5737 166.7 41.3037 167.14 41.1037C167.6 40.8837 168.07 40.7237 168.55 40.6237C169.05 40.5237 169.53 40.4737 169.99 40.4737C171.01 40.4737 171.86 40.6137 172.54 40.8937C173.22 41.1737 173.77 41.5637 174.19 42.0637C174.61 42.5637 174.9 43.1637 175.06 43.8637C175.24 44.5437 175.33 45.3037 175.33 46.1437V56.3438H172.78V45.8437C172.78 44.8837 172.5 44.1237 171.94 43.5637C171.38 43.0037 170.61 42.7237 169.63 42.7237C168.85 42.7237 168.17 42.8437 167.59 43.0837C167.03 43.3237 166.56 43.6637 166.18 44.1037C165.8 44.5437 165.51 45.0637 165.31 45.6637C165.13 46.2437 165.04 46.8837 165.04 47.5837V56.3438H162.49V34.9237ZM188.43 47.1037C188.39 46.5037 188.25 45.9337 188.01 45.3937C187.79 44.8537 187.48 44.3937 187.08 44.0137C186.7 43.6137 186.24 43.3037 185.7 43.0837C185.18 42.8437 184.6 42.7237 183.96 42.7237C183.3 42.7237 182.7 42.8437 182.16 43.0837C181.64 43.3037 181.19 43.6137 180.81 44.0137C180.43 44.4137 180.13 44.8837 179.91 45.4237C179.69 45.9437 179.56 46.5037 179.52 47.1037H188.43ZM190.89 51.4237C190.55 53.1637 189.8 54.4737 188.64 55.3538C187.48 56.2338 186.02 56.6738 184.26 56.6738C183.02 56.6738 181.94 56.4738 181.02 56.0737C180.12 55.6737 179.36 55.1137 178.74 54.3937C178.12 53.6737 177.65 52.8137 177.33 51.8137C177.03 50.8137 176.86 49.7237 176.82 48.5437C176.82 47.3637 177 46.2837 177.36 45.3037C177.72 44.3237 178.22 43.4737 178.86 42.7537C179.52 42.0337 180.29 41.4737 181.17 41.0737C182.07 40.6737 183.05 40.4737 184.11 40.4737C185.49 40.4737 186.63 40.7637 187.53 41.3438C188.45 41.9037 189.18 42.6237 189.72 43.5037C190.28 44.3837 190.66 45.3437 190.86 46.3837C191.08 47.4237 191.17 48.4137 191.13 49.3537H179.52C179.5 50.0337 179.58 50.6837 179.76 51.3037C179.94 51.9037 180.23 52.4437 180.63 52.9237C181.03 53.3837 181.54 53.7537 182.16 54.0337C182.78 54.3137 183.51 54.4537 184.35 54.4537C185.43 54.4537 186.31 54.2037 186.99 53.7037C187.69 53.2037 188.15 52.4437 188.37 51.4237H190.89ZM197.203 58.4438H227.203V28.4437H197.203V58.4438Z" fill="#EEE8E2"/>
</svg>
