<svg width="130" height="34" viewBox="0 0 130 34" fill="none" xmlns="http://www.w3.org/2000/svg">
<path d="M42.0355 8.17089C41.8945 7.48036 41.5986 6.94485 41.1477 6.56435C40.6967 6.18386 40.0907 5.99361 39.3297 5.99361C38.6815 5.99361 38.1389 6.11339 37.7021 6.35296C37.2652 6.59254 36.9129 6.90962 36.6451 7.3042C36.3915 7.69879 36.2083 8.1568 36.0955 8.67822C35.9828 9.18554 35.9264 9.71401 35.9264 10.2636C35.9264 10.7709 35.9828 11.2642 36.0955 11.7433C36.2223 12.2225 36.4126 12.6523 36.6663 13.0328C36.9199 13.3992 37.2511 13.6951 37.6598 13.9206C38.0685 14.1461 38.5546 14.2588 39.1183 14.2588C40.0062 14.2588 40.6967 14.0263 41.1899 13.5612C41.6973 13.0962 42.0073 12.4409 42.12 11.5953H43.9591C43.7618 12.9482 43.2545 13.9911 42.4371 14.7239C41.6338 15.4567 40.5346 15.8231 39.1395 15.8231C38.308 15.8231 37.5682 15.6892 36.9199 15.4214C36.2858 15.1537 35.7502 14.7732 35.3134 14.28C34.8906 13.7867 34.5665 13.2019 34.341 12.5254C34.1296 11.8349 34.0239 11.081 34.0239 10.2636C34.0239 9.44625 34.1296 8.68526 34.341 7.98064C34.5524 7.26193 34.8695 6.64186 35.2922 6.12044C35.7291 5.58493 36.2717 5.1692 36.9199 4.87326C37.5682 4.56322 38.3221 4.40821 39.1818 4.40821C39.8018 4.40821 40.3796 4.48572 40.9151 4.64073C41.4647 4.78166 41.9439 5.00714 42.3526 5.31717C42.7753 5.6272 43.1206 6.02179 43.3883 6.50093C43.6561 6.96598 43.8252 7.52264 43.8957 8.17089H42.0355Z" fill="#232323"/>
<path d="M46.2232 10.1368C46.2232 10.7991 46.3078 11.391 46.4769 11.9124C46.6601 12.4198 46.9067 12.8496 47.2168 13.2019C47.5268 13.5401 47.8861 13.8008 48.2948 13.984C48.7176 14.1672 49.1615 14.2588 49.6266 14.2588C50.0916 14.2588 50.5285 14.1672 50.9372 13.984C51.3599 13.8008 51.7263 13.5401 52.0364 13.2019C52.3464 12.8496 52.586 12.4198 52.7551 11.9124C52.9383 11.391 53.0299 10.7991 53.0299 10.1368C53.0299 9.47444 52.9383 8.8896 52.7551 8.38227C52.586 7.86085 52.3464 7.42399 52.0364 7.07168C51.7263 6.71937 51.3599 6.45161 50.9372 6.26841C50.5285 6.08521 50.0916 5.99361 49.6266 5.99361C49.1615 5.99361 48.7176 6.08521 48.2948 6.26841C47.8861 6.45161 47.5268 6.71937 47.2168 7.07168C46.9067 7.42399 46.6601 7.86085 46.4769 8.38227C46.3078 8.8896 46.2232 9.47444 46.2232 10.1368ZM44.3208 10.1368C44.3208 9.33351 44.4335 8.58661 44.659 7.89609C44.8845 7.19146 45.2227 6.58549 45.6736 6.07816C46.1246 5.55674 46.6812 5.14806 47.3436 4.85212C48.0059 4.55618 48.7669 4.40821 49.6266 4.40821C50.5003 4.40821 51.2613 4.55618 51.9095 4.85212C52.5719 5.14806 53.1285 5.55674 53.5795 6.07816C54.0304 6.58549 54.3687 7.19146 54.5941 7.89609C54.8196 8.58661 54.9324 9.33351 54.9324 10.1368C54.9324 10.9401 54.8196 11.6869 54.5941 12.3775C54.3687 13.068 54.0304 13.674 53.5795 14.1954C53.1285 14.7027 52.5719 15.1044 51.9095 15.4003C51.2613 15.6822 50.5003 15.8231 49.6266 15.8231C48.7669 15.8231 48.0059 15.6822 47.3436 15.4003C46.6812 15.1044 46.1246 14.7027 45.6736 14.1954C45.2227 13.674 44.8845 13.068 44.659 12.3775C44.4335 11.6869 44.3208 10.9401 44.3208 10.1368Z" fill="#232323"/>
<path d="M56.3955 8.65829H65.6229V10.5173H56.3955V8.65829Z" fill="#232323"/>
<path d="M67.5382 0.497559H69.335V15.5906H67.5382V0.497559Z" fill="#232323"/>
<path d="M80.7431 15.5483C80.433 15.7315 80.0032 15.8231 79.4536 15.8231C78.9886 15.8231 78.6151 15.6962 78.3333 15.4426C78.0655 15.1748 77.9316 14.745 77.9316 14.1531C77.4384 14.745 76.8606 15.1748 76.1983 15.4426C75.55 15.6962 74.8454 15.8231 74.0844 15.8231C73.5912 15.8231 73.1191 15.7667 72.6681 15.654C72.2312 15.5412 71.8507 15.3651 71.5266 15.1255C71.2025 14.8859 70.9418 14.5759 70.7445 14.1954C70.5613 13.8008 70.4697 13.3287 70.4697 12.7791C70.4697 12.159 70.5754 11.6517 70.7868 11.2571C70.9981 10.8625 71.273 10.5455 71.6112 10.3059C71.9635 10.0522 72.3581 9.86198 72.7949 9.73515C73.2459 9.60832 73.7039 9.50262 74.1689 9.41807C74.6622 9.31942 75.1272 9.24896 75.5641 9.20668C76.0151 9.15031 76.4096 9.07985 76.7479 8.99529C77.0861 8.89665 77.3538 8.76277 77.5511 8.59366C77.7484 8.41046 77.8471 8.14975 77.8471 7.81153C77.8471 7.41694 77.7696 7.09986 77.6145 6.86029C77.4736 6.62072 77.2834 6.43752 77.0438 6.31069C76.8183 6.18385 76.5576 6.0993 76.2617 6.05702C75.9798 6.01475 75.698 5.99361 75.4161 5.99361C74.6551 5.99361 74.021 6.14158 73.5136 6.43752C73.0063 6.71937 72.7315 7.26193 72.6892 8.06519H70.8925C70.9206 7.38876 71.0616 6.81801 71.3152 6.35296C71.5689 5.88791 71.9071 5.51446 72.3299 5.23262C72.7527 4.93667 73.2318 4.72529 73.7673 4.59846C74.3169 4.47162 74.9018 4.40821 75.5218 4.40821C76.0151 4.40821 76.5012 4.44344 76.9804 4.5139C77.4736 4.58436 77.9175 4.73233 78.3121 4.95781C78.7067 5.1692 79.0238 5.47219 79.2634 5.86678C79.5029 6.26136 79.6227 6.77574 79.6227 7.4099V13.0328C79.6227 13.4556 79.6439 13.7656 79.6861 13.9629C79.7425 14.1602 79.9116 14.2588 80.1935 14.2588C80.3485 14.2588 80.5317 14.2236 80.7431 14.1531V15.5483ZM77.8259 9.94653C77.6005 10.1156 77.3045 10.2425 76.9381 10.327C76.5717 10.3975 76.1842 10.4609 75.7755 10.5173C75.3809 10.5596 74.9793 10.6159 74.5706 10.6864C74.1619 10.7428 73.7955 10.8414 73.4714 10.9823C73.1472 11.1233 72.8795 11.3276 72.6681 11.5953C72.4708 11.849 72.3722 12.2013 72.3722 12.6523C72.3722 12.9482 72.4285 13.2019 72.5413 13.4133C72.6681 13.6106 72.8231 13.7726 73.0063 13.8995C73.2036 14.0263 73.4291 14.1179 73.6828 14.1743C73.9364 14.2306 74.2042 14.2588 74.486 14.2588C75.0779 14.2588 75.5852 14.1813 76.008 14.0263C76.4308 13.8572 76.776 13.6528 77.0438 13.4133C77.3116 13.1596 77.5089 12.8919 77.6357 12.61C77.7625 12.3141 77.8259 12.0393 77.8259 11.7856V9.94653Z" fill="#232323"/>
<path d="M81.4218 0.497559H83.2186V6.14158H83.2609C83.5568 5.5356 84.0219 5.09874 84.656 4.83098C85.2902 4.54913 85.9878 4.40821 86.7488 4.40821C87.5943 4.40821 88.3271 4.56322 88.9472 4.87326C89.5813 5.18329 90.1028 5.60607 90.5114 6.14158C90.9342 6.663 91.2513 7.26897 91.4627 7.9595C91.6741 8.65003 91.7798 9.38284 91.7798 10.1579C91.7798 10.933 91.6741 11.6658 91.4627 12.3563C91.2654 13.0469 90.9553 13.6528 90.5326 14.1743C90.1239 14.6816 89.6025 15.0832 88.9683 15.3792C88.3482 15.6751 87.6225 15.8231 86.791 15.8231C86.5233 15.8231 86.2203 15.7949 85.8821 15.7385C85.5579 15.6822 85.2338 15.5906 84.9097 15.4637C84.5856 15.3369 84.2755 15.1678 83.9796 14.9564C83.6977 14.7309 83.4582 14.4561 83.2609 14.132H83.2186V15.5906H81.4218V0.497559ZM89.8773 10.0311C89.8773 9.52376 89.8068 9.03053 89.6659 8.55138C89.5391 8.05815 89.3347 7.62128 89.0529 7.24079C88.7851 6.86029 88.4328 6.5573 87.9959 6.33183C87.5732 6.10635 87.0729 5.99361 86.4951 5.99361C85.8891 5.99361 85.3747 6.11339 84.952 6.35296C84.5292 6.59254 84.1839 6.90962 83.9162 7.3042C83.6484 7.6847 83.4511 8.12156 83.3243 8.6148C83.2116 9.10803 83.1552 9.60832 83.1552 10.1156C83.1552 10.6512 83.2186 11.1726 83.3454 11.6799C83.4723 12.1731 83.6696 12.61 83.9373 12.9905C84.2192 13.371 84.5785 13.681 85.0154 13.9206C85.4523 14.1461 85.9807 14.2588 86.6008 14.2588C87.2209 14.2588 87.7352 14.139 88.1439 13.8995C88.5667 13.6599 88.9049 13.3428 89.1586 12.9482C89.4122 12.5536 89.5954 12.1027 89.7082 11.5953C89.8209 11.088 89.8773 10.5666 89.8773 10.0311Z" fill="#232323"/>
<path d="M92.7932 0.497559H94.5899V6.14158H94.6322C94.9282 5.5356 95.3932 5.09874 96.0274 4.83098C96.6615 4.54913 97.3591 4.40821 98.1201 4.40821C98.9656 4.40821 99.6984 4.56322 100.319 4.87326C100.953 5.18329 101.474 5.60607 101.883 6.14158C102.306 6.663 102.623 7.26897 102.834 7.9595C103.045 8.65003 103.151 9.38284 103.151 10.1579C103.151 10.933 103.045 11.6658 102.834 12.3563C102.637 13.0469 102.327 13.6528 101.904 14.1743C101.495 14.6816 100.974 15.0832 100.34 15.3792C99.7196 15.6751 98.9938 15.8231 98.1624 15.8231C97.8946 15.8231 97.5916 15.7949 97.2534 15.7385C96.9293 15.6822 96.6052 15.5906 96.281 15.4637C95.9569 15.3369 95.6469 15.1678 95.3509 14.9564C95.0691 14.7309 94.8295 14.4561 94.6322 14.132H94.5899V15.5906H92.7932V0.497559ZM101.249 10.0311C101.249 9.52376 101.178 9.03053 101.037 8.55138C100.91 8.05815 100.706 7.62128 100.424 7.24079C100.156 6.86029 99.8041 6.5573 99.3673 6.33183C98.9445 6.10635 98.4442 5.99361 97.8664 5.99361C97.2604 5.99361 96.7461 6.11339 96.3233 6.35296C95.9005 6.59254 95.5553 6.90962 95.2875 7.3042C95.0198 7.6847 94.8225 8.12156 94.6956 8.6148C94.5829 9.10803 94.5265 9.60832 94.5265 10.1156C94.5265 10.6512 94.5899 11.1726 94.7168 11.6799C94.8436 12.1731 95.0409 12.61 95.3087 12.9905C95.5905 13.371 95.9499 13.681 96.3867 13.9206C96.8236 14.1461 97.3521 14.2588 97.9721 14.2588C98.5922 14.2588 99.1066 14.139 99.5152 13.8995C99.938 13.6599 100.276 13.3428 100.53 12.9482C100.784 12.5536 100.967 12.1027 101.079 11.5953C101.192 11.088 101.249 10.5666 101.249 10.0311Z" fill="#232323"/>
<path d="M42.346 21.3599C42.2051 20.6693 41.9092 20.1338 41.4582 19.7533C41.0072 19.3728 40.4013 19.1826 39.6403 19.1826C38.992 19.1826 38.4495 19.3024 38.0126 19.5419C37.5757 19.7815 37.2234 20.0986 36.9557 20.4932C36.702 20.8878 36.5188 21.3458 36.4061 21.8672C36.2933 22.3745 36.237 22.903 36.237 23.4526C36.237 23.9599 36.2933 24.4531 36.4061 24.9323C36.5329 25.4114 36.7231 25.8412 36.9768 26.2217C37.2305 26.5881 37.5616 26.8841 37.9703 27.1096C38.379 27.335 38.8652 27.4478 39.4289 27.4478C40.3167 27.4478 41.0072 27.2153 41.5005 26.7502C42.0078 26.2852 42.3178 25.6299 42.4306 24.7843H44.2696C44.0723 26.1372 43.565 27.18 42.7477 27.9128C41.9444 28.6456 40.8452 29.012 39.45 29.012C38.6186 29.012 37.8787 28.8782 37.2305 28.6104C36.5963 28.3427 36.0608 27.9622 35.6239 27.4689C35.2012 26.9757 34.877 26.3909 34.6516 25.7144C34.4402 25.0239 34.3345 24.2699 34.3345 23.4526C34.3345 22.6352 34.4402 21.8742 34.6516 21.1696C34.8629 20.4509 35.18 19.8308 35.6028 19.3094C36.0397 18.7739 36.5822 18.3582 37.2305 18.0622C37.8787 17.7522 38.6327 17.5972 39.4923 17.5972C40.1124 17.5972 40.6902 17.6747 41.2257 17.8297C41.7753 17.9706 42.2544 18.1961 42.6631 18.5061C43.0859 18.8162 43.4311 19.2108 43.6989 19.6899C43.9666 20.155 44.1358 20.7116 44.2062 21.3599H42.346Z" fill="#232323"/>
<path d="M46.5338 23.3257C46.5338 23.9881 46.6183 24.58 46.7874 25.1014C46.9706 25.6087 47.2173 26.0385 47.5273 26.3909C47.8373 26.7291 48.1967 26.9898 48.6054 27.173C49.0281 27.3562 49.4721 27.4478 49.9371 27.4478C50.4022 27.4478 50.839 27.3562 51.2477 27.173C51.6705 26.9898 52.0369 26.7291 52.3469 26.3909C52.6569 26.0385 52.8965 25.6087 53.0656 25.1014C53.2488 24.58 53.3404 23.9881 53.3404 23.3257C53.3404 22.6634 53.2488 22.0786 53.0656 21.5712C52.8965 21.0498 52.6569 20.613 52.3469 20.2606C52.0369 19.9083 51.6705 19.6406 51.2477 19.4574C50.839 19.2742 50.4022 19.1826 49.9371 19.1826C49.4721 19.1826 49.0281 19.2742 48.6054 19.4574C48.1967 19.6406 47.8373 19.9083 47.5273 20.2606C47.2173 20.613 46.9706 21.0498 46.7874 21.5712C46.6183 22.0786 46.5338 22.6634 46.5338 23.3257ZM44.6313 23.3257C44.6313 22.5225 44.744 21.7756 44.9695 21.0851C45.195 20.3804 45.5332 19.7745 45.9842 19.2671C46.4351 18.7457 46.9918 18.337 47.6541 18.0411C48.3165 17.7451 49.0775 17.5972 49.9371 17.5972C50.8108 17.5972 51.5718 17.7451 52.2201 18.0411C52.8824 18.337 53.4391 18.7457 53.89 19.2671C54.341 19.7745 54.6792 20.3804 54.9047 21.0851C55.1302 21.7756 55.2429 22.5225 55.2429 23.3257C55.2429 24.129 55.1302 24.8759 54.9047 25.5664C54.6792 26.257 54.341 26.8629 53.89 27.3844C53.4391 27.8917 52.8824 28.2933 52.2201 28.5893C51.5718 28.8711 50.8108 29.012 49.9371 29.012C49.0775 29.012 48.3165 28.8711 47.6541 28.5893C46.9918 28.2933 46.4351 27.8917 45.9842 27.3844C45.5332 26.8629 45.195 26.257 44.9695 25.5664C44.744 24.8759 44.6313 24.129 44.6313 23.3257Z" fill="#232323"/>
<path d="M56.3045 17.8508H57.9956V19.4574H58.0378C58.8552 18.2172 60.0319 17.5972 61.568 17.5972C62.2444 17.5972 62.8574 17.7381 63.407 18.0199C63.9567 18.3018 64.3442 18.7809 64.5697 19.4574C64.9361 18.8655 65.4152 18.4075 66.0071 18.0834C66.6131 17.7592 67.2754 17.5972 67.9941 17.5972C68.5437 17.5972 69.037 17.6606 69.4738 17.7874C69.9248 17.9002 70.3053 18.0834 70.6153 18.337C70.9394 18.5907 71.1861 18.9219 71.3552 19.3305C71.5384 19.7251 71.63 20.2043 71.63 20.768V28.7795H69.8332V21.6135C69.8332 21.2753 69.805 20.9582 69.7486 20.6623C69.6923 20.3663 69.5866 20.1127 69.4316 19.9013C69.2765 19.6758 69.0581 19.4997 68.7763 19.3728C68.5085 19.246 68.1562 19.1826 67.7193 19.1826C66.8315 19.1826 66.1339 19.4362 65.6266 19.9436C65.1193 20.4509 64.8656 21.1273 64.8656 21.9729V28.7795H63.0688V21.6135C63.0688 21.2612 63.0336 20.9371 62.9631 20.6411C62.9068 20.3452 62.8011 20.0915 62.6461 19.8801C62.491 19.6547 62.2797 19.4856 62.0119 19.3728C61.7582 19.246 61.4271 19.1826 61.0184 19.1826C60.497 19.1826 60.046 19.2883 59.6655 19.4997C59.2991 19.711 58.9961 19.9647 58.7565 20.2606C58.5311 20.5566 58.362 20.8666 58.2492 21.1907C58.1506 21.5008 58.1012 21.7615 58.1012 21.9729V28.7795H56.3045V17.8508Z" fill="#232323"/>
<path d="M73.2691 17.8508H74.9601V19.4574H75.0024C75.8198 18.2172 76.9965 17.5972 78.5326 17.5972C79.209 17.5972 79.822 17.7381 80.3716 18.0199C80.9212 18.3018 81.3088 18.7809 81.5343 19.4574C81.9007 18.8655 82.3798 18.4075 82.9717 18.0834C83.5777 17.7592 84.24 17.5972 84.9587 17.5972C85.5083 17.5972 86.0016 17.6606 86.4384 17.7874C86.8894 17.9002 87.2699 18.0834 87.5799 18.337C87.904 18.5907 88.1507 18.9219 88.3198 19.3305C88.503 19.7251 88.5946 20.2043 88.5946 20.768V28.7795H86.7978V21.6135C86.7978 21.2753 86.7696 20.9582 86.7132 20.6623C86.6569 20.3663 86.5512 20.1127 86.3961 19.9013C86.2411 19.6758 86.0227 19.4997 85.7409 19.3728C85.4731 19.246 85.1208 19.1826 84.6839 19.1826C83.7961 19.1826 83.0985 19.4362 82.5912 19.9436C82.0839 20.4509 81.8302 21.1273 81.8302 21.9729V28.7795H80.0334V21.6135C80.0334 21.2612 79.9982 20.9371 79.9277 20.6411C79.8714 20.3452 79.7657 20.0915 79.6106 19.8801C79.4556 19.6547 79.2442 19.4856 78.9765 19.3728C78.7228 19.246 78.3917 19.1826 77.983 19.1826C77.4615 19.1826 77.0106 19.2883 76.6301 19.4997C76.2637 19.711 75.9607 19.9647 75.7211 20.2606C75.4957 20.5566 75.3265 20.8666 75.2138 21.1907C75.1152 21.5008 75.0658 21.7615 75.0658 21.9729V28.7795H73.2691V17.8508Z" fill="#232323"/>
<path d="M99.281 28.7795H97.5899V27.0462H97.5476C97.1671 27.7226 96.6809 28.2229 96.089 28.547C95.4972 28.857 94.7996 29.012 93.9963 29.012C93.2776 29.012 92.6787 28.9204 92.1995 28.7372C91.7204 28.5399 91.3328 28.2651 91.0369 27.9128C90.741 27.5605 90.5296 27.1448 90.4027 26.6657C90.29 26.1724 90.2336 25.6299 90.2336 25.038V17.8508H92.0304V25.2494C92.0304 25.9258 92.2277 26.4613 92.6223 26.8559C93.0169 27.2505 93.5595 27.4478 94.25 27.4478C94.7996 27.4478 95.2717 27.3632 95.6663 27.1941C96.075 27.025 96.4132 26.7854 96.6809 26.4754C96.9487 26.1654 97.146 25.806 97.2728 25.3973C97.4137 24.9746 97.4842 24.5166 97.4842 24.0233V17.8508H99.281V28.7795Z" fill="#232323"/>
<path d="M100.923 17.8508H102.614V19.5842H102.656C103.403 18.2595 104.587 17.5972 106.207 17.5972C106.926 17.5972 107.525 17.6958 108.004 17.8931C108.483 18.0904 108.871 18.3652 109.167 18.7175C109.463 19.0698 109.667 19.4926 109.78 19.9858C109.907 20.465 109.97 21.0005 109.97 21.5924V28.7795H108.173V21.381C108.173 20.7046 107.976 20.169 107.581 19.7745C107.187 19.3799 106.644 19.1826 105.954 19.1826C105.404 19.1826 104.925 19.2671 104.516 19.4362C104.122 19.6053 103.791 19.8449 103.523 20.155C103.255 20.465 103.051 20.8314 102.91 21.2542C102.783 21.6628 102.719 22.1138 102.719 22.607V28.7795H100.923V17.8508Z" fill="#232323"/>
<path d="M113.514 15.8849H111.717V13.6865H113.514V15.8849ZM111.717 17.8508H113.514V28.7795H111.717V17.8508Z" fill="#232323"/>
<path d="M117.735 17.8508H119.912V19.4362H117.735V26.2217C117.735 26.4331 117.749 26.6022 117.777 26.7291C117.82 26.8559 117.89 26.9546 117.989 27.025C118.087 27.0955 118.221 27.1448 118.39 27.173C118.574 27.1871 118.806 27.1941 119.088 27.1941H119.912V28.7795H118.538C118.073 28.7795 117.672 28.7513 117.334 28.695C117.009 28.6245 116.742 28.5047 116.53 28.3356C116.333 28.1665 116.185 27.9269 116.086 27.6169C115.988 27.3069 115.938 26.8982 115.938 26.3909V19.4362H114.078V17.8508H115.938V14.5743H117.735V17.8508Z" fill="#232323"/>
<path d="M125.143 30.2381C124.931 30.7736 124.72 31.2246 124.509 31.591C124.311 31.9574 124.086 32.2533 123.832 32.4788C123.593 32.7184 123.318 32.8875 123.008 32.9861C122.712 33.0989 122.367 33.1552 121.972 33.1552C121.761 33.1552 121.549 33.1411 121.338 33.1129C121.126 33.0848 120.922 33.0354 120.725 32.965V31.3162C120.88 31.3866 121.056 31.443 121.253 31.4853C121.465 31.5416 121.641 31.5698 121.782 31.5698C122.148 31.5698 122.451 31.4782 122.691 31.295C122.944 31.1259 123.135 30.8793 123.261 30.5552L124.001 28.7161L119.668 17.8508H121.697L124.889 26.7925H124.931L127.997 17.8508H129.899L125.143 30.2381Z" fill="#232323"/>
<circle cx="12.714" cy="16.8273" r="4.20525" fill="#232323"/>
<circle cx="21.1291" cy="16.8273" r="4.20525" fill="#232323"/>
<circle cx="4.3073" cy="16.8273" r="4.20525" fill="#232323"/>
<circle cx="4.3073" cy="8.41619" r="4.20525" fill="#232323"/>
<circle cx="4.3073" cy="25.238" r="4.20525" fill="#232323"/>
<circle cx="21.1291" cy="8.41619" r="4.20525" fill="#232323"/>
<circle cx="21.1291" cy="25.238" r="4.20525" fill="#232323"/>
<circle cx="12.714" cy="8.41619" r="4.20525" fill="#232323"/>
<circle cx="12.714" cy="25.238" r="4.20525" fill="#232323"/>
</svg>
