<svg width="23" height="23" viewBox="0 0 23 23" fill="none" xmlns="http://www.w3.org/2000/svg">
<path d="M16.375 1.68066H6.375C3.61358 1.68066 1.375 3.91924 1.375 6.68066V16.6807C1.375 19.4421 3.61358 21.6807 6.375 21.6807H16.375C19.1364 21.6807 21.375 19.4421 21.375 16.6807V6.68066C21.375 3.91924 19.1364 1.68066 16.375 1.68066Z" stroke="#232323" stroke-width="2" stroke-linecap="round" stroke-linejoin="round"/>
<path d="M15.3786 11.051C15.502 11.8832 15.3599 12.7332 14.9724 13.48C14.5849 14.2268 13.9718 14.8324 13.2202 15.2106C12.4687 15.5889 11.6171 15.7206 10.7864 15.5869C9.95574 15.4532 9.18837 15.061 8.59345 14.4661C7.99853 13.8712 7.60635 13.1038 7.47268 12.2732C7.33902 11.4425 7.47068 10.5909 7.84894 9.83934C8.2272 9.08782 8.8328 8.47471 9.5796 8.08721C10.3264 7.69971 11.1764 7.55755 12.0086 7.68097C12.8575 7.80685 13.6435 8.20243 14.2503 8.80927C14.8572 9.41612 15.2527 10.202 15.3786 11.051Z" stroke="#232323" stroke-width="2" stroke-linecap="round" stroke-linejoin="round"/>
<path d="M16.875 6.18066H16.885" stroke="#232323" stroke-width="2" stroke-linecap="round" stroke-linejoin="round"/>
</svg>
