<svg width="25" height="24" viewBox="0 0 25 24" fill="none" xmlns="http://www.w3.org/2000/svg">
<path d="M16.8581 9.33409C18.5984 9.33409 19.9829 9.15471 21.2135 10.3853C22.4441 11.6159 23.1354 13.2849 23.1354 15.0252V22.6806H18.7609V15.0252C18.7609 14.4451 18.5304 13.8887 18.1202 13.4785C17.71 13.0683 17.1537 12.8379 16.5736 12.8379C15.9935 12.8379 15.4372 13.0683 15.027 13.4785C14.6168 13.8887 14.3863 14.4451 14.3863 15.0252V22.6806H10.0118L10.0116 9.67181L13.5787 9.67269C13.5787 13.3907 15.1178 9.33409 16.8581 9.33409Z" stroke="#232323" stroke-width="2" stroke-linecap="round" stroke-linejoin="round"/>
<path d="M5.6371 9.55676H1.26257V22.6803H5.6371V9.55676Z" stroke="#232323" stroke-width="2" stroke-linecap="round" stroke-linejoin="round"/>
<path d="M3.44984 6.27589C4.65783 6.27589 5.6371 5.29662 5.6371 4.08863C5.6371 2.88064 4.65783 1.90137 3.44984 1.90137C2.24184 1.90137 1.26257 2.88064 1.26257 4.08863C1.26257 5.29662 2.24184 6.27589 3.44984 6.27589Z" stroke="#232323" stroke-width="2" stroke-linecap="round" stroke-linejoin="round"/>
</svg>
