<svg width="130" height="34" viewBox="0 0 130 34" fill="none" xmlns="http://www.w3.org/2000/svg">
<path d="M42.0353 8.17089C41.8944 7.48036 41.5984 6.94485 41.1475 6.56435C40.6965 6.18386 40.0905 5.99361 39.3295 5.99361C38.6813 5.99361 38.1387 6.11339 37.7019 6.35296C37.265 6.59254 36.9127 6.90962 36.6449 7.3042C36.3913 7.69879 36.2081 8.1568 36.0953 8.67822C35.9826 9.18554 35.9262 9.71401 35.9262 10.2636C35.9262 10.7709 35.9826 11.2642 36.0953 11.7433C36.2222 12.2225 36.4124 12.6523 36.6661 13.0328C36.9197 13.3992 37.2509 13.6951 37.6596 13.9206C38.0683 14.1461 38.5545 14.2588 39.1182 14.2588C40.006 14.2588 40.6965 14.0263 41.1897 13.5612C41.6971 13.0962 42.0071 12.4409 42.1198 11.5953H43.9589C43.7616 12.9482 43.2543 13.9911 42.4369 14.7239C41.6337 15.4567 40.5344 15.8231 39.1393 15.8231C38.3078 15.8231 37.568 15.6892 36.9197 15.4214C36.2856 15.1537 35.7501 14.7732 35.3132 14.28C34.8904 13.7867 34.5663 13.2019 34.3408 12.5254C34.1294 11.8349 34.0237 11.081 34.0237 10.2636C34.0237 9.44625 34.1294 8.68526 34.3408 7.98064C34.5522 7.26193 34.8693 6.64186 35.2921 6.12044C35.7289 5.58493 36.2715 5.1692 36.9197 4.87326C37.568 4.56322 38.3219 4.40821 39.1816 4.40821C39.8016 4.40821 40.3794 4.48572 40.9149 4.64073C41.4645 4.78166 41.9437 5.00714 42.3524 5.31717C42.7751 5.6272 43.1204 6.02179 43.3882 6.50093C43.6559 6.96598 43.825 7.52264 43.8955 8.17089H42.0353Z" fill="#232323"/>
<path d="M46.2231 10.1368C46.2231 10.7991 46.3076 11.391 46.4767 11.9124C46.6599 12.4198 46.9065 12.8496 47.2166 13.2019C47.5266 13.5401 47.886 13.8008 48.2946 13.984C48.7174 14.1672 49.1613 14.2588 49.6264 14.2588C50.0914 14.2588 50.5283 14.1672 50.937 13.984C51.3597 13.8008 51.7261 13.5401 52.0362 13.2019C52.3462 12.8496 52.5858 12.4198 52.7549 11.9124C52.9381 11.391 53.0297 10.7991 53.0297 10.1368C53.0297 9.47444 52.9381 8.8896 52.7549 8.38227C52.5858 7.86085 52.3462 7.42399 52.0362 7.07168C51.7261 6.71937 51.3597 6.45161 50.937 6.26841C50.5283 6.08521 50.0914 5.99361 49.6264 5.99361C49.1613 5.99361 48.7174 6.08521 48.2946 6.26841C47.886 6.45161 47.5266 6.71937 47.2166 7.07168C46.9065 7.42399 46.6599 7.86085 46.4767 8.38227C46.3076 8.8896 46.2231 9.47444 46.2231 10.1368ZM44.3206 10.1368C44.3206 9.33351 44.4333 8.58661 44.6588 7.89609C44.8843 7.19146 45.2225 6.58549 45.6734 6.07816C46.1244 5.55674 46.6811 5.14806 47.3434 4.85212C48.0057 4.55618 48.7667 4.40821 49.6264 4.40821C50.5001 4.40821 51.2611 4.55618 51.9093 4.85212C52.5717 5.14806 53.1283 5.55674 53.5793 6.07816C54.0303 6.58549 54.3685 7.19146 54.594 7.89609C54.8194 8.58661 54.9322 9.33351 54.9322 10.1368C54.9322 10.9401 54.8194 11.6869 54.594 12.3775C54.3685 13.068 54.0303 13.674 53.5793 14.1954C53.1283 14.7027 52.5717 15.1044 51.9093 15.4003C51.2611 15.6822 50.5001 15.8231 49.6264 15.8231C48.7667 15.8231 48.0057 15.6822 47.3434 15.4003C46.6811 15.1044 46.1244 14.7027 45.6734 14.1954C45.2225 13.674 44.8843 13.068 44.6588 12.3775C44.4333 11.6869 44.3206 10.9401 44.3206 10.1368Z" fill="#232323"/>
<path d="M56.3954 8.65829H65.6227V10.5173H56.3954V8.65829Z" fill="#232323"/>
<path d="M67.538 0.497559H69.3348V15.5906H67.538V0.497559Z" fill="#232323"/>
<path d="M80.7429 15.5483C80.4329 15.7315 80.003 15.8231 79.4534 15.8231C78.9884 15.8231 78.6149 15.6962 78.3331 15.4426C78.0653 15.1748 77.9314 14.745 77.9314 14.1531C77.4382 14.745 76.8604 15.1748 76.1981 15.4426C75.5498 15.6962 74.8452 15.8231 74.0842 15.8231C73.591 15.8231 73.1189 15.7667 72.6679 15.654C72.2311 15.5412 71.8506 15.3651 71.5264 15.1255C71.2023 14.8859 70.9416 14.5759 70.7443 14.1954C70.5611 13.8008 70.4695 13.3287 70.4695 12.7791C70.4695 12.159 70.5752 11.6517 70.7866 11.2571C70.998 10.8625 71.2728 10.5455 71.611 10.3059C71.9633 10.0522 72.3579 9.86198 72.7948 9.73515C73.2457 9.60832 73.7037 9.50262 74.1688 9.41807C74.662 9.31942 75.127 9.24896 75.5639 9.20668C76.0149 9.15031 76.4095 9.07985 76.7477 8.99529C77.0859 8.89665 77.3537 8.76277 77.5509 8.59366C77.7482 8.41046 77.8469 8.14975 77.8469 7.81153C77.8469 7.41694 77.7694 7.09986 77.6144 6.86029C77.4734 6.62072 77.2832 6.43752 77.0436 6.31069C76.8181 6.18385 76.5574 6.0993 76.2615 6.05702C75.9796 6.01475 75.6978 5.99361 75.4159 5.99361C74.655 5.99361 74.0208 6.14158 73.5135 6.43752C73.0061 6.71937 72.7313 7.26193 72.6891 8.06519H70.8923C70.9205 7.38876 71.0614 6.81801 71.315 6.35296C71.5687 5.88791 71.9069 5.51446 72.3297 5.23262C72.7525 4.93667 73.2316 4.72529 73.7671 4.59846C74.3167 4.47162 74.9016 4.40821 75.5216 4.40821C76.0149 4.40821 76.5011 4.44344 76.9802 4.5139C77.4734 4.58436 77.9174 4.73233 78.3119 4.95781C78.7065 5.1692 79.0236 5.47219 79.2632 5.86678C79.5028 6.26136 79.6225 6.77574 79.6225 7.4099V13.0328C79.6225 13.4556 79.6437 13.7656 79.686 13.9629C79.7423 14.1602 79.9114 14.2588 80.1933 14.2588C80.3483 14.2588 80.5315 14.2236 80.7429 14.1531V15.5483ZM77.8258 9.94653C77.6003 10.1156 77.3043 10.2425 76.9379 10.327C76.5715 10.3975 76.184 10.4609 75.7753 10.5173C75.3807 10.5596 74.9791 10.6159 74.5704 10.6864C74.1617 10.7428 73.7953 10.8414 73.4712 10.9823C73.1471 11.1233 72.8793 11.3276 72.6679 11.5953C72.4706 11.849 72.372 12.2013 72.372 12.6523C72.372 12.9482 72.4283 13.2019 72.5411 13.4133C72.6679 13.6106 72.8229 13.7726 73.0061 13.8995C73.2034 14.0263 73.4289 14.1179 73.6826 14.1743C73.9362 14.2306 74.204 14.2588 74.4858 14.2588C75.0777 14.2588 75.5851 14.1813 76.0078 14.0263C76.4306 13.8572 76.7759 13.6528 77.0436 13.4133C77.3114 13.1596 77.5087 12.8919 77.6355 12.61C77.7623 12.3141 77.8258 12.0393 77.8258 11.7856V9.94653Z" fill="#232323"/>
<path d="M81.4216 0.497559H83.2184V6.14158H83.2607C83.5566 5.5356 84.0217 5.09874 84.6558 4.83098C85.29 4.54913 85.9876 4.40821 86.7486 4.40821C87.5941 4.40821 88.3269 4.56322 88.947 4.87326C89.5812 5.18329 90.1026 5.60607 90.5112 6.14158C90.934 6.663 91.2511 7.26897 91.4625 7.9595C91.6739 8.65003 91.7796 9.38284 91.7796 10.1579C91.7796 10.933 91.6739 11.6658 91.4625 12.3563C91.2652 13.0469 90.9552 13.6528 90.5324 14.1743C90.1237 14.6816 89.6023 15.0832 88.9681 15.3792C88.3481 15.6751 87.6223 15.8231 86.7908 15.8231C86.5231 15.8231 86.2201 15.7949 85.8819 15.7385C85.5578 15.6822 85.2336 15.5906 84.9095 15.4637C84.5854 15.3369 84.2753 15.1678 83.9794 14.9564C83.6976 14.7309 83.458 14.4561 83.2607 14.132H83.2184V15.5906H81.4216V0.497559ZM89.8771 10.0311C89.8771 9.52376 89.8066 9.03053 89.6657 8.55138C89.5389 8.05815 89.3345 7.62128 89.0527 7.24079C88.7849 6.86029 88.4326 6.5573 87.9958 6.33183C87.573 6.10635 87.0727 5.99361 86.4949 5.99361C85.8889 5.99361 85.3746 6.11339 84.9518 6.35296C84.529 6.59254 84.1838 6.90962 83.916 7.3042C83.6482 7.6847 83.4509 8.12156 83.3241 8.6148C83.2114 9.10803 83.155 9.60832 83.155 10.1156C83.155 10.6512 83.2184 11.1726 83.3452 11.6799C83.4721 12.1731 83.6694 12.61 83.9371 12.9905C84.219 13.371 84.5783 13.681 85.0152 13.9206C85.4521 14.1461 85.9805 14.2588 86.6006 14.2588C87.2207 14.2588 87.735 14.139 88.1437 13.8995C88.5665 13.6599 88.9047 13.3428 89.1584 12.9482C89.412 12.5536 89.5952 12.1027 89.708 11.5953C89.8207 11.088 89.8771 10.5666 89.8771 10.0311Z" fill="#232323"/>
<path d="M92.793 0.497559H94.5898V6.14158H94.632C94.928 5.5356 95.393 5.09874 96.0272 4.83098C96.6613 4.54913 97.3589 4.40821 98.1199 4.40821C98.9654 4.40821 99.6983 4.56322 100.318 4.87326C100.952 5.18329 101.474 5.60607 101.883 6.14158C102.305 6.663 102.622 7.26897 102.834 7.9595C103.045 8.65003 103.151 9.38284 103.151 10.1579C103.151 10.933 103.045 11.6658 102.834 12.3563C102.637 13.0469 102.326 13.6528 101.904 14.1743C101.495 14.6816 100.974 15.0832 100.339 15.3792C99.7194 15.6751 98.9936 15.8231 98.1622 15.8231C97.8944 15.8231 97.5914 15.7949 97.2532 15.7385C96.9291 15.6822 96.605 15.5906 96.2808 15.4637C95.9567 15.3369 95.6467 15.1678 95.3507 14.9564C95.0689 14.7309 94.8293 14.4561 94.632 14.132H94.5898V15.5906H92.793V0.497559ZM101.248 10.0311C101.248 9.52376 101.178 9.03053 101.037 8.55138C100.91 8.05815 100.706 7.62128 100.424 7.24079C100.156 6.86029 99.804 6.5573 99.3671 6.33183C98.9443 6.10635 98.444 5.99361 97.8662 5.99361C97.2603 5.99361 96.7459 6.11339 96.3231 6.35296C95.9003 6.59254 95.5551 6.90962 95.2873 7.3042C95.0196 7.6847 94.8223 8.12156 94.6954 8.6148C94.5827 9.10803 94.5263 9.60832 94.5263 10.1156C94.5263 10.6512 94.5898 11.1726 94.7166 11.6799C94.8434 12.1731 95.0407 12.61 95.3085 12.9905C95.5903 13.371 95.9497 13.681 96.3865 13.9206C96.8234 14.1461 97.3519 14.2588 97.9719 14.2588C98.592 14.2588 99.1064 14.139 99.5151 13.8995C99.9378 13.6599 100.276 13.3428 100.53 12.9482C100.783 12.5536 100.967 12.1027 101.079 11.5953C101.192 11.088 101.248 10.5666 101.248 10.0311Z" fill="#232323"/>
<path d="M42.3457 21.3599C42.2048 20.6693 41.9088 20.1338 41.4579 19.7533C41.0069 19.3728 40.4009 19.1826 39.6399 19.1826C38.9917 19.1826 38.4491 19.3024 38.0123 19.5419C37.5754 19.7815 37.2231 20.0986 36.9553 20.4932C36.7017 20.8878 36.5185 21.3458 36.4057 21.8672C36.293 22.3745 36.2366 22.903 36.2366 23.4526C36.2366 23.9599 36.293 24.4531 36.4057 24.9323C36.5326 25.4114 36.7228 25.8412 36.9765 26.2217C37.2301 26.5881 37.5613 26.8841 37.97 27.1096C38.3787 27.335 38.8649 27.4478 39.4286 27.4478C40.3164 27.4478 41.0069 27.2153 41.5001 26.7502C42.0075 26.2852 42.3175 25.6299 42.4302 24.7843H44.2693C44.072 26.1372 43.5647 27.18 42.7473 27.9128C41.944 28.6456 40.8448 29.012 39.4497 29.012C38.6182 29.012 37.8784 28.8782 37.2301 28.6104C36.596 28.3427 36.0605 27.9622 35.6236 27.4689C35.2008 26.9757 34.8767 26.3909 34.6512 25.7144C34.4398 25.0239 34.3341 24.2699 34.3341 23.4526C34.3341 22.6352 34.4398 21.8742 34.6512 21.1696C34.8626 20.4509 35.1797 19.8308 35.6025 19.3094C36.0393 18.7739 36.5819 18.3582 37.2301 18.0622C37.8784 17.7522 38.6323 17.5972 39.492 17.5972C40.112 17.5972 40.6898 17.6747 41.2253 17.8297C41.7749 17.9706 42.2541 18.1961 42.6628 18.5061C43.0855 18.8162 43.4308 19.2108 43.6986 19.6899C43.9663 20.155 44.1354 20.7116 44.2059 21.3599H42.3457Z" fill="#232323"/>
<path d="M46.5334 23.3257C46.5334 23.9881 46.618 24.58 46.7871 25.1014C46.9703 25.6087 47.2169 26.0385 47.527 26.3909C47.837 26.7291 48.1964 26.9898 48.605 27.173C49.0278 27.3562 49.4717 27.4478 49.9368 27.4478C50.4018 27.4478 50.8387 27.3562 51.2474 27.173C51.6701 26.9898 52.0365 26.7291 52.3466 26.3909C52.6566 26.0385 52.8962 25.6087 53.0653 25.1014C53.2485 24.58 53.3401 23.9881 53.3401 23.3257C53.3401 22.6634 53.2485 22.0786 53.0653 21.5712C52.8962 21.0498 52.6566 20.613 52.3466 20.2606C52.0365 19.9083 51.6701 19.6406 51.2474 19.4574C50.8387 19.2742 50.4018 19.1826 49.9368 19.1826C49.4717 19.1826 49.0278 19.2742 48.605 19.4574C48.1964 19.6406 47.837 19.9083 47.527 20.2606C47.2169 20.613 46.9703 21.0498 46.7871 21.5712C46.618 22.0786 46.5334 22.6634 46.5334 23.3257ZM44.631 23.3257C44.631 22.5225 44.7437 21.7756 44.9692 21.0851C45.1947 20.3804 45.5329 19.7745 45.9838 19.2671C46.4348 18.7457 46.9915 18.337 47.6538 18.0411C48.3161 17.7451 49.0771 17.5972 49.9368 17.5972C50.8105 17.5972 51.5715 17.7451 52.2197 18.0411C52.8821 18.337 53.4387 18.7457 53.8897 19.2671C54.3407 19.7745 54.6789 20.3804 54.9044 21.0851C55.1298 21.7756 55.2426 22.5225 55.2426 23.3257C55.2426 24.129 55.1298 24.8759 54.9044 25.5664C54.6789 26.257 54.3407 26.8629 53.8897 27.3844C53.4387 27.8917 52.8821 28.2933 52.2197 28.5893C51.5715 28.8711 50.8105 29.012 49.9368 29.012C49.0771 29.012 48.3161 28.8711 47.6538 28.5893C46.9915 28.2933 46.4348 27.8917 45.9838 27.3844C45.5329 26.8629 45.1947 26.257 44.9692 25.5664C44.7437 24.8759 44.631 24.129 44.631 23.3257Z" fill="#232323"/>
<path d="M56.3041 17.8508H57.9952V19.4574H58.0375C58.8549 18.2172 60.0316 17.5972 61.5676 17.5972C62.2441 17.5972 62.8571 17.7381 63.4067 18.0199C63.9563 18.3018 64.3439 18.7809 64.5693 19.4574C64.9357 18.8655 65.4149 18.4075 66.0068 18.0834C66.6127 17.7592 67.2751 17.5972 67.9938 17.5972C68.5434 17.5972 69.0366 17.6606 69.4735 17.7874C69.9245 17.9002 70.305 18.0834 70.615 18.337C70.9391 18.5907 71.1857 18.9219 71.3548 19.3305C71.538 19.7251 71.6296 20.2043 71.6296 20.768V28.7795H69.8329V21.6135C69.8329 21.2753 69.8047 20.9582 69.7483 20.6623C69.6919 20.3663 69.5862 20.1127 69.4312 19.9013C69.2762 19.6758 69.0578 19.4997 68.7759 19.3728C68.5082 19.246 68.1559 19.1826 67.719 19.1826C66.8312 19.1826 66.1336 19.4362 65.6263 19.9436C65.1189 20.4509 64.8653 21.1273 64.8653 21.9729V28.7795H63.0685V21.6135C63.0685 21.2612 63.0333 20.9371 62.9628 20.6411C62.9064 20.3452 62.8007 20.0915 62.6457 19.8801C62.4907 19.6547 62.2793 19.4856 62.0116 19.3728C61.7579 19.246 61.4267 19.1826 61.018 19.1826C60.4966 19.1826 60.0457 19.2883 59.6652 19.4997C59.2988 19.711 58.9958 19.9647 58.7562 20.2606C58.5307 20.5566 58.3616 20.8666 58.2489 21.1907C58.1502 21.5008 58.1009 21.7615 58.1009 21.9729V28.7795H56.3041V17.8508Z" fill="#232323"/>
<path d="M73.2687 17.8508H74.9598V19.4574H75.0021C75.8194 18.2172 76.9962 17.5972 78.5322 17.5972C79.2087 17.5972 79.8217 17.7381 80.3713 18.0199C80.9209 18.3018 81.3084 18.7809 81.5339 19.4574C81.9003 18.8655 82.3795 18.4075 82.9714 18.0834C83.5773 17.7592 84.2397 17.5972 84.9584 17.5972C85.508 17.5972 86.0012 17.6606 86.4381 17.7874C86.889 17.9002 87.2695 18.0834 87.5796 18.337C87.9037 18.5907 88.1503 18.9219 88.3194 19.3305C88.5026 19.7251 88.5942 20.2043 88.5942 20.768V28.7795H86.7974V21.6135C86.7974 21.2753 86.7693 20.9582 86.7129 20.6623C86.6565 20.3663 86.5508 20.1127 86.3958 19.9013C86.2408 19.6758 86.0224 19.4997 85.7405 19.3728C85.4728 19.246 85.1204 19.1826 84.6836 19.1826C83.7958 19.1826 83.0982 19.4362 82.5909 19.9436C82.0835 20.4509 81.8299 21.1273 81.8299 21.9729V28.7795H80.0331V21.6135C80.0331 21.2612 79.9978 20.9371 79.9274 20.6411C79.871 20.3452 79.7653 20.0915 79.6103 19.8801C79.4553 19.6547 79.2439 19.4856 78.9762 19.3728C78.7225 19.246 78.3913 19.1826 77.9826 19.1826C77.4612 19.1826 77.0103 19.2883 76.6298 19.4997C76.2634 19.711 75.9604 19.9647 75.7208 20.2606C75.4953 20.5566 75.3262 20.8666 75.2135 21.1907C75.1148 21.5008 75.0655 21.7615 75.0655 21.9729V28.7795H73.2687V17.8508Z" fill="#232323"/>
<path d="M99.2806 28.7795H97.5896V27.0462H97.5473C97.1668 27.7226 96.6806 28.2229 96.0887 28.547C95.4968 28.857 94.7993 29.012 93.996 29.012C93.2773 29.012 92.6783 28.9204 92.1992 28.7372C91.7201 28.5399 91.3325 28.2651 91.0366 27.9128C90.7406 27.5605 90.5292 27.1448 90.4024 26.6657C90.2897 26.1724 90.2333 25.6299 90.2333 25.038V17.8508H92.0301V25.2494C92.0301 25.9258 92.2274 26.4613 92.622 26.8559C93.0166 27.2505 93.5591 27.4478 94.2496 27.4478C94.7993 27.4478 95.2713 27.3632 95.6659 27.1941C96.0746 27.025 96.4128 26.7854 96.6806 26.4754C96.9483 26.1654 97.1456 25.806 97.2725 25.3973C97.4134 24.9746 97.4839 24.5166 97.4839 24.0233V17.8508H99.2806V28.7795Z" fill="#232323"/>
<path d="M100.922 17.8508H102.613V19.5842H102.656C103.403 18.2595 104.586 17.5972 106.207 17.5972C106.926 17.5972 107.525 17.6958 108.004 17.8931C108.483 18.0904 108.87 18.3652 109.166 18.7175C109.462 19.0698 109.667 19.4926 109.779 19.9858C109.906 20.465 109.97 21.0005 109.97 21.5924V28.7795H108.173V21.381C108.173 20.7046 107.976 20.169 107.581 19.7745C107.186 19.3799 106.644 19.1826 105.953 19.1826C105.404 19.1826 104.925 19.2671 104.516 19.4362C104.121 19.6053 103.79 19.8449 103.522 20.155C103.255 20.465 103.05 20.8314 102.909 21.2542C102.783 21.6628 102.719 22.1138 102.719 22.607V28.7795H100.922V17.8508Z" fill="#232323"/>
<path d="M113.514 15.8849H111.717V13.6865H113.514V15.8849ZM111.717 17.8508H113.514V28.7795H111.717V17.8508Z" fill="#232323"/>
<path d="M117.735 17.8508H119.912V19.4362H117.735V26.2217C117.735 26.4331 117.749 26.6022 117.777 26.7291C117.819 26.8559 117.89 26.9546 117.989 27.025C118.087 27.0955 118.221 27.1448 118.39 27.173C118.573 27.1871 118.806 27.1941 119.088 27.1941H119.912V28.7795H118.538C118.073 28.7795 117.671 28.7513 117.333 28.695C117.009 28.6245 116.741 28.5047 116.53 28.3356C116.333 28.1665 116.185 27.9269 116.086 27.6169C115.987 27.3069 115.938 26.8982 115.938 26.3909V19.4362H114.078V17.8508H115.938V14.5743H117.735V17.8508Z" fill="#232323"/>
<path d="M125.142 30.2381C124.931 30.7736 124.72 31.2246 124.508 31.591C124.311 31.9574 124.086 32.2533 123.832 32.4788C123.592 32.7184 123.317 32.8875 123.007 32.9861C122.712 33.0989 122.366 33.1552 121.972 33.1552C121.76 33.1552 121.549 33.1411 121.338 33.1129C121.126 33.0848 120.922 33.0354 120.724 32.965V31.3162C120.879 31.3866 121.056 31.443 121.253 31.4853C121.464 31.5416 121.64 31.5698 121.781 31.5698C122.148 31.5698 122.451 31.4782 122.69 31.295C122.944 31.1259 123.134 30.8793 123.261 30.5552L124.001 28.7161L119.668 17.8508H121.697L124.889 26.7925H124.931L127.996 17.8508H129.899L125.142 30.2381Z" fill="#232323"/>
<circle cx="12.7137" cy="16.8273" r="4.20525" fill="#232323"/>
<circle cx="21.129" cy="16.8273" r="4.20525" fill="#232323"/>
<circle cx="4.30712" cy="16.8273" r="4.20525" fill="#232323"/>
<circle cx="4.30712" cy="8.41619" r="4.20525" fill="#232323"/>
<circle cx="4.30712" cy="25.238" r="4.20525" fill="#232323"/>
<circle cx="21.129" cy="8.41619" r="4.20525" fill="#232323"/>
<circle cx="21.129" cy="25.238" r="4.20525" fill="#232323"/>
<circle cx="12.7137" cy="8.41619" r="4.20525" fill="#232323"/>
<circle cx="12.7137" cy="25.238" r="4.20525" fill="#232323"/>
</svg>
