<svg width="65" height="64" viewBox="0 0 65 64" fill="none" xmlns="http://www.w3.org/2000/svg">
<path d="M43.0207 20.5885C42.5549 20.0942 42.1345 19.6511 41.6914 19.1853H43.8558C44.2023 18.5661 44.5602 17.9809 44.8727 17.3674C46.2191 14.7087 47.5597 12.0501 48.8777 9.37437C49.5424 8.028 50.1048 6.64186 50.5479 5.2046C50.6388 4.90919 50.707 4.60242 50.7751 4.30134C50.7979 4.21612 50.8035 4.13091 50.8092 4.0457C50.8717 3.07426 50.2184 2.47777 49.247 2.63683C48.6221 2.73909 48.0994 3.04018 47.7586 3.57418C47.3212 4.25589 46.861 4.93192 46.5372 5.66475C45.3101 8.47111 44.1115 11.2945 42.9412 14.1236C41.2483 18.2138 39.3906 22.2302 37.5103 26.2353C36.6922 27.9793 35.9026 29.7404 35.0618 31.4787C34.3233 33.0012 33.4825 34.4612 32.4315 35.7962C31.7214 36.6938 30.9375 37.5118 29.9149 38.0686C28.6083 38.7787 27.3358 38.6082 26.245 37.6198C25.4781 36.921 25.3815 36.0518 25.5179 35.1088C25.6656 34.0919 26.0519 33.1546 26.4836 32.2343C27.5062 30.0812 28.7958 28.0816 29.966 26.0137C30.7216 24.6787 31.4203 23.3153 32.1418 21.9632C32.3066 21.6508 32.3918 21.3213 32.3122 20.9691C32.2497 20.7021 32.1418 20.4805 31.835 20.418C31.5055 20.4578 31.2669 20.6737 31.0795 20.9179C30.767 21.327 30.4375 21.7417 30.216 22.2018C28.9605 24.8321 27.4153 27.3033 25.9837 29.837C25.1373 31.3367 24.2681 32.8251 23.3705 34.2965C22.757 35.2963 22.0298 36.2223 21.1777 37.0346C20.8084 37.3869 20.3937 37.7107 19.962 37.9834C19.1382 38.506 18.2407 38.5174 17.326 38.2447C16.8034 38.0913 16.4625 37.7561 16.2807 37.2562C15.8717 36.12 15.8547 34.9782 16.3716 33.8874C16.8091 32.9558 17.3317 32.0582 17.8487 31.1663C18.7008 29.6892 19.587 28.2349 20.4335 26.7522C21.1095 25.5706 21.6606 24.3265 22.0298 23.0085C22.0639 22.8949 22.098 22.7756 22.1207 22.6563C22.2798 21.9973 22.115 21.452 21.6094 20.9748C20.6096 20.026 19.445 19.9295 18.1952 20.259C17.4283 20.4578 16.775 20.8611 16.1955 21.4008C14.6787 22.821 13.3437 24.3947 12.1564 26.0932C10.4465 28.536 8.78765 31.0129 7.08339 33.4557C6.35623 34.501 5.57794 35.5122 4.7883 36.512C4.34519 37.0744 3.76574 37.4891 3.07835 37.722C2.75454 37.83 2.40801 37.9095 2.07283 37.9209C1.47634 37.9379 1.01051 37.6652 0.720783 37.1312C0.402653 36.5518 0.431058 35.9439 0.601485 35.3247C0.845763 34.4726 1.20366 33.6829 1.69222 32.9387C3.85664 29.6836 6.02105 26.4227 8.16843 23.1562C8.54337 22.5825 8.88422 21.9803 9.19099 21.3611C9.41255 20.9179 9.57729 20.4351 9.38414 19.9352C9.13986 19.6909 8.85582 19.6341 8.56041 19.7477C8.22524 19.8783 7.89007 20.0147 7.5833 20.2078C6.77661 20.7134 6.08354 21.3667 5.41888 22.0371C4.79966 22.662 4.19749 23.2982 3.59532 23.9402C3.3624 24.1901 3.10676 24.3038 2.77726 24.2015C2.48754 23.9515 2.63524 23.73 2.79999 23.5198C3.63508 22.4688 4.44177 21.3895 5.32231 20.3726C5.78814 19.8272 6.35623 19.3614 6.91864 18.9126C7.56058 18.4013 8.30477 18.0889 9.1285 17.9809C9.79317 17.8957 10.4351 17.9923 11.06 18.2025C11.469 18.3388 11.7019 18.6456 11.7928 19.066C11.9292 19.7136 11.8326 20.3385 11.5997 20.9407C11.4463 21.3383 11.2475 21.7303 11.0146 22.0882C9.28189 24.7014 7.54921 27.3146 5.78246 29.9051C4.86215 31.2572 3.87368 32.5638 2.90793 33.8818C2.57275 34.3419 2.24894 34.8134 2.14668 35.3872C2.07851 35.7735 2.1126 36.1371 2.41369 36.4382C2.75454 36.4836 2.98746 36.2848 3.18629 36.0803C3.69189 35.5633 4.17476 35.0293 4.64628 34.4782C4.92464 34.1544 5.16892 33.7965 5.4132 33.4386C7.49241 30.3482 9.75341 27.3942 11.9746 24.406C12.645 23.5084 13.304 22.6052 13.997 21.7246C14.9344 20.526 16.099 19.6 17.4624 18.9183C19.0701 18.1173 20.6834 18.1684 22.2968 18.8842C23.291 19.3216 23.8022 20.1169 23.8875 21.1793C24.0124 22.7302 23.7511 24.1958 22.8933 25.5308C21.172 28.2179 19.7177 31.0527 18.235 33.8761C18.0759 34.1772 17.9566 34.5066 17.8657 34.8361C17.8032 35.0634 17.7748 35.3133 17.7919 35.5462C17.8316 36.1996 18.2179 36.5461 18.8656 36.5347C19.4564 36.5234 19.9733 36.2961 20.4335 35.9382C21.1095 35.4099 21.6208 34.7339 22.0525 34.0067C24.0636 30.6152 26.0689 27.2181 28.0629 23.8152C28.6481 22.8211 29.1821 21.7985 29.7786 20.81C30.1421 20.2022 30.6307 19.6852 31.2158 19.2705C31.6419 18.9637 32.102 18.7478 32.6474 18.7422C33.8006 18.7422 34.5391 19.6057 34.363 20.7475C34.2551 21.4633 33.9654 22.1053 33.6075 22.7131C32.1759 25.1275 30.7329 27.5362 29.29 29.9449C28.7674 30.8141 28.2333 31.6832 27.7164 32.5524C27.2335 33.3648 26.887 34.2226 26.9608 35.1884C26.9779 35.4099 27.012 35.6371 27.0915 35.8417C27.3983 36.6654 28.1652 37.0574 29.006 36.7904C29.3127 36.6938 29.5968 36.5177 29.8638 36.3359C30.8011 35.694 31.5226 34.8418 32.1645 33.9158C33.3177 32.2513 34.2153 30.4505 35.0618 28.6156C36.3684 25.7865 37.5955 22.9176 38.9589 20.1169C40.2768 17.4015 41.3051 14.5667 42.4015 11.766C43.0889 9.99927 43.7422 8.22115 44.4466 6.46576C45.0658 4.94328 45.8782 3.52305 46.9746 2.28462C47.2927 1.92672 47.6506 1.59155 48.0313 1.30182C49.3435 0.307667 50.8376 0.500818 51.9681 1.14844C52.5021 1.45521 52.7578 1.94945 52.843 2.54594C52.9623 3.39807 52.8089 4.22748 52.5646 5.03985C52.1499 6.44871 51.5705 7.79509 50.9172 9.10169C49.7014 11.5331 48.4346 13.9418 47.1905 16.3619C46.7587 17.2026 46.3327 18.0491 45.9009 18.8956C45.8725 18.9524 45.8555 19.0205 45.8214 19.1228H48.7698C48.8948 18.9467 49.0368 18.7535 49.1618 18.5547C50.7183 16.1517 52.2635 13.7487 53.8201 11.3513C55.3369 9.02216 57.0071 6.80661 58.8704 4.75013C59.6032 3.93776 60.5179 3.42648 61.6256 3.39807C62.5971 3.37535 63.4663 3.65939 64.0343 4.52857C64.3809 5.05689 64.4888 5.63635 64.3582 6.25556C64.165 7.14178 63.7901 7.95415 63.3413 8.73243C62.4778 10.2322 61.4098 11.5842 60.2793 12.8852C58.7227 14.6803 57.1377 16.4528 55.5698 18.2423C55.3539 18.4865 55.1551 18.7422 54.9051 19.0489H59.3476C56.8196 22.412 54.3484 25.7069 51.8318 29.0587C50.9456 28.2122 50.0877 27.3942 49.1902 26.5364C49.0538 26.7068 48.9345 26.8431 48.8323 26.9908C48.0483 28.144 47.253 29.2916 46.4917 30.4619C45.668 31.7287 45.0431 33.0864 44.6966 34.5578C44.4069 35.7735 44.992 36.7165 46.2077 37.0006C46.469 37.063 46.7076 37.046 46.9689 36.9608C48.1449 36.5745 49.2072 35.978 50.2127 35.2736C51.5875 34.3135 52.8373 33.2057 53.9848 31.9843C54.9449 30.9675 55.8823 29.9335 56.8082 28.8939C57.1377 28.5247 57.4331 28.1156 57.7285 27.718C58.1319 27.1726 58.5523 26.6557 59.1147 26.2694C59.3362 26.116 59.5635 25.9455 59.8646 26.0194C60.0634 26.2694 59.9327 26.4966 59.8191 26.7011C59.4442 27.3771 59.0692 28.0588 58.6545 28.7121C57.1775 31.0299 55.3369 33.0239 53.2406 34.785C52.3431 35.5406 51.4171 36.2564 50.4854 36.9665C49.4969 37.7164 48.3721 38.2276 47.1905 38.5344C45.8612 38.8809 44.6 38.5458 43.6002 37.5914C42.8446 36.8756 42.6742 35.9041 42.8787 34.91C43.015 34.2567 43.2536 33.6204 43.515 33.0069C44.2762 31.2231 45.3328 29.6097 46.4406 28.0247C47.003 27.2181 47.5882 26.4341 48.1506 25.6558C47.8097 25.2809 47.4802 24.9173 47.1053 24.5083C46.9576 24.7469 46.8383 24.9287 46.7247 25.1161C45.2192 27.468 43.8729 29.9108 42.5322 32.3593C41.9016 33.5068 41.2312 34.6316 40.6404 35.8019C39.5838 37.8981 38.7657 40.0966 37.9647 42.2952C36.4195 46.5161 34.8573 50.7313 33.1132 54.8727C32.1588 57.1507 31.0227 59.3321 29.4831 61.2864C28.8753 62.059 28.1936 62.7293 27.2676 63.0929C25.9553 63.6099 24.6942 63.4394 23.5012 62.735C22.8876 62.3714 22.507 61.7977 22.2514 61.1387C21.6151 59.5083 21.5526 57.8551 22.0639 56.1793C23.1717 52.5548 24.6544 49.1065 26.5973 45.8457C28.7958 42.1588 31.2272 38.6253 33.6643 35.0975C36.6524 30.7743 39.5497 26.3943 42.2197 21.861C42.464 21.4463 42.7196 21.0372 42.9923 20.5885H43.0207ZM44.3898 21.9064C44.1342 22.3495 43.924 22.7415 43.6854 23.1165C42.5208 24.9287 41.3505 26.7352 40.1859 28.5474C39.5326 29.5586 38.9305 30.6096 38.2317 31.5923C35.7776 35.0463 33.2666 38.4605 30.8352 41.9316C28.9094 44.6868 27.1767 47.5613 25.8985 50.6915C25.4099 51.8845 24.8703 53.0604 24.3874 54.2591C23.8818 55.5146 23.5409 56.8098 23.6148 58.1789C23.6545 58.9402 23.7738 59.69 24.1545 60.3661C24.6828 61.3148 25.5804 61.6272 26.5745 61.1784C26.9495 61.0137 27.296 60.7751 27.6198 60.5251C28.5174 59.8377 29.2218 58.9629 29.8354 58.0255C30.9829 56.2702 31.7896 54.35 32.5224 52.3958C33.4541 49.9132 34.3574 47.4193 35.3174 44.9481C36.5559 41.7498 37.8795 38.5912 39.3509 35.4951C41.1176 31.7912 43.1343 28.2236 45.2817 24.7298C45.5317 24.3208 45.7816 23.9118 46.0373 23.4857C45.4919 22.9631 44.9693 22.4632 44.3898 21.9064ZM53.0816 19.0887C53.1952 18.941 53.2975 18.8103 53.3997 18.674C54.7234 16.8902 56.0186 15.0894 57.4388 13.3794C58.6829 11.8853 59.9043 10.3685 61.0803 8.82333C61.5575 8.19843 61.904 7.47696 62.2733 6.77821C62.4039 6.52825 62.4664 6.22716 62.5005 5.94311C62.5459 5.52841 62.421 5.39207 62.0119 5.29549C61.2905 5.12507 60.6769 5.38071 60.1543 5.83518C59.768 6.17035 59.4044 6.55097 59.0863 6.94863C58.2966 7.92575 57.5354 8.92558 56.7685 9.91974C54.57 12.7715 52.701 15.8506 50.707 18.8444C50.6672 18.9069 50.6502 18.9864 50.6047 19.0944H53.0759L53.0816 19.0887Z" fill="#7F7F7F"/>
<path d="M32.8294 17.419C30.3469 17.4531 27.853 15.7091 27.1656 12.9141C26.5805 10.5338 27.1656 8.43754 28.9664 6.74463C31.3126 4.55181 35.0279 4.76768 37.1412 7.18774C39.2773 9.63053 39.2375 13.2493 37.0163 15.6011C35.8858 16.7941 34.4769 17.3963 32.8294 17.4134V17.419Z" fill="#7F7F7F"/>
</svg>
