<svg width="65" height="63" viewBox="0 0 65 63" fill="none" xmlns="http://www.w3.org/2000/svg">
<path d="M42.6616 20.1627C42.1958 19.6684 41.7754 19.2253 41.3323 18.7595H43.4967C43.8432 18.1403 44.2011 17.5551 44.5136 16.9416C45.8599 14.283 47.2006 11.6243 48.5186 8.94859C49.1833 7.60222 49.7457 6.21608 50.1888 4.77882C50.2797 4.48341 50.3478 4.17664 50.416 3.87555C50.4387 3.79034 50.4444 3.70513 50.4501 3.61991C50.5126 2.64848 49.8593 2.05199 48.8878 2.21105C48.2629 2.31331 47.7403 2.6144 47.3994 3.1484C46.962 3.83011 46.5019 4.50613 46.1781 5.23897C44.951 8.04533 43.7523 10.8687 42.5821 13.6978C40.8891 17.7881 39.0315 21.8045 37.1511 25.8095C36.3331 27.5535 35.5434 29.3146 34.7027 31.0529C33.9641 32.5754 33.1234 34.0354 32.0724 35.3704C31.3623 36.268 30.5783 37.0861 29.5558 37.6428C28.2492 38.3529 26.9766 38.1825 25.8859 37.194C25.119 36.4952 25.0224 35.6261 25.1588 34.683C25.3065 33.6662 25.6928 32.7288 26.1245 31.8085C27.1471 29.6555 28.4366 27.6558 29.6069 25.5879C30.3625 24.2529 31.0612 22.8895 31.7827 21.5375C31.9474 21.225 32.0326 20.8955 31.9531 20.5433C31.8906 20.2763 31.7827 20.0547 31.4759 19.9923C31.1464 20.032 30.9078 20.2479 30.7203 20.4922C30.4079 20.9012 30.0784 21.3159 29.8568 21.7761C28.6014 24.4063 27.0562 26.8775 25.6246 29.4112C24.7781 30.9109 23.909 32.3993 23.0114 33.8707C22.3978 34.8705 21.6707 35.7965 20.8186 36.6089C20.4493 36.9611 20.0346 37.2849 19.6028 37.5576C18.7791 38.0802 17.8815 38.0916 16.9669 37.8189C16.4443 37.6655 16.1034 37.3303 15.9216 36.8304C15.5126 35.6942 15.4956 34.5524 16.0125 33.4616C16.4499 32.53 16.9726 31.6324 17.4895 30.7405C18.3417 29.2635 19.2279 27.8092 20.0744 26.3264C20.7504 25.1448 21.3014 23.9007 21.6707 22.5827C21.7048 22.4691 21.7388 22.3498 21.7616 22.2305C21.9206 21.5715 21.7559 21.0262 21.2503 20.549C20.2505 19.6003 19.0859 19.5037 17.8361 19.8332C17.0692 20.032 16.4159 20.4354 15.8364 20.975C14.3196 22.3953 12.9846 23.9689 11.7973 25.6675C10.0873 28.1102 8.42852 30.5871 6.72426 33.0299C5.9971 34.0752 5.21881 35.0864 4.42917 36.0862C3.98606 36.6486 3.40661 37.0633 2.71922 37.2962C2.39541 37.4042 2.04888 37.4837 1.7137 37.4951C1.11721 37.5121 0.651378 37.2394 0.361652 36.7054C0.0435219 36.126 0.0719269 35.5181 0.242354 34.8989C0.486632 34.0468 0.844527 33.2571 1.33308 32.5129C3.4975 29.2578 5.66192 25.997 7.8093 22.7304C8.18424 22.1567 8.52509 21.5545 8.83186 20.9353C9.05342 20.4922 9.21816 20.0093 9.02501 19.5094C8.78073 19.2651 8.49669 19.2083 8.20128 19.3219C7.86611 19.4526 7.53094 19.5889 7.22417 19.7821C6.41748 20.2877 5.72441 20.941 5.05975 21.6113C4.44053 22.2362 3.83836 22.8725 3.23619 23.5144C3.00327 23.7644 2.74762 23.878 2.41813 23.7757C2.12841 23.5258 2.27611 23.3042 2.44086 23.094C3.27595 22.0431 4.08264 20.9637 4.96317 19.9468C5.42901 19.4014 5.9971 18.9356 6.5595 18.4868C7.20145 17.9755 7.94564 17.6631 8.76937 17.5551C9.43404 17.4699 10.076 17.5665 10.7009 17.7767C11.1099 17.913 11.3428 18.2198 11.4337 18.6402C11.5701 19.2878 11.4735 19.9127 11.2406 20.5149C11.0872 20.9126 10.8883 21.3045 10.6554 21.6624C8.92276 24.2756 7.19008 26.8889 5.42333 29.4793C4.50302 30.8314 3.51455 32.138 2.5488 33.456C2.21362 33.9161 1.88981 34.3876 1.78755 34.9614C1.71938 35.3477 1.75347 35.7113 2.05456 36.0124C2.39541 36.0578 2.62833 35.859 2.82716 35.6545C3.33276 35.1375 3.81563 34.6035 4.28715 34.0525C4.56551 33.7286 4.80979 33.3708 5.05407 33.0129C7.13328 29.9225 9.39428 26.9684 11.6155 23.9802C12.2859 23.0827 12.9448 22.1794 13.6379 21.2989C14.5752 20.1002 15.7398 19.1742 17.1032 18.4925C18.7109 17.6915 20.3243 17.7426 21.9377 18.4584C22.9318 18.8958 23.4431 19.6912 23.5283 20.7535C23.6533 22.3044 23.392 23.77 22.5342 25.1051C20.8129 27.7921 19.3586 30.6269 17.8758 33.4503C17.7168 33.7514 17.5975 34.0809 17.5066 34.4104C17.4441 34.6376 17.4157 34.8876 17.4327 35.1205C17.4725 35.7738 17.8588 36.1203 18.5064 36.1089C19.0972 36.0976 19.6142 35.8703 20.0744 35.5125C20.7504 34.9841 21.2617 34.3081 21.6934 33.5809C23.7044 30.1895 25.7098 26.7923 27.7038 23.3894C28.2889 22.3953 28.8229 21.3727 29.4194 20.3842C29.783 19.7764 30.2716 19.2594 30.8567 18.8447C31.2828 18.5379 31.7429 18.3221 32.2883 18.3164C33.4415 18.3164 34.18 19.1799 34.0039 20.3217C33.896 21.0375 33.6062 21.6795 33.2483 22.2873C31.8168 24.7017 30.3738 27.1104 28.9309 29.5191C28.4082 30.3883 27.8742 31.2575 27.3573 32.1266C26.8744 32.939 26.5278 33.7968 26.6017 34.7626C26.6187 34.9841 26.6528 35.2114 26.7324 35.4159C27.0391 36.2396 27.806 36.6316 28.6468 36.3646C28.9536 36.268 29.2376 36.0919 29.5046 35.9101C30.442 35.2682 31.1635 34.416 31.8054 33.4901C32.9586 31.8256 33.8562 30.0247 34.7027 28.1898C36.0093 25.3607 37.2363 22.4918 38.5998 19.6912C39.9177 16.9757 40.946 14.1409 42.0424 11.3402C42.7298 9.57349 43.3831 7.79537 44.0875 6.03998C44.7067 4.5175 45.5191 3.09727 46.6155 1.85884C46.9336 1.50094 47.2915 1.16577 47.6721 0.876042C48.9844 -0.118114 50.4785 0.0750372 51.609 0.722659C52.143 1.02943 52.3986 1.52366 52.4838 2.12016C52.6031 2.97229 52.4498 3.8017 52.2055 4.61407C51.7908 6.02293 51.2113 7.36931 50.558 8.67591C49.3423 11.1073 48.0755 13.516 46.8314 15.9361C46.3996 16.7769 45.9735 17.6233 45.5418 18.4698C45.5134 18.5266 45.4963 18.5947 45.4623 18.697H48.4106C48.5356 18.5209 48.6777 18.3277 48.8026 18.1289C50.3592 15.7259 51.9044 13.3229 53.461 10.9255C54.9778 8.59638 56.6479 6.38083 58.5113 4.32435C59.2441 3.51198 60.1587 3.0007 61.2665 2.97229C62.2379 2.94957 63.1071 3.23361 63.6752 4.10279C64.0217 4.63111 64.1297 5.21056 63.999 5.82978C63.8059 6.716 63.4309 7.52837 62.9821 8.30665C62.1186 9.80641 61.0506 11.1585 59.9201 12.4594C58.3636 14.2545 56.7786 16.027 55.2107 17.8165C54.9948 18.0607 54.796 18.3164 54.546 18.6232H58.9885C56.4605 21.9862 53.9893 25.2812 51.4726 28.6329C50.5864 27.7864 49.7286 26.9684 48.831 26.1106C48.6947 26.281 48.5754 26.4173 48.4731 26.565C47.6892 27.7183 46.8939 28.8658 46.1326 30.0361C45.3089 31.3029 44.684 32.6606 44.3374 34.132C44.0477 35.3477 44.6329 36.2907 45.8486 36.5748C46.1099 36.6373 46.3485 36.6202 46.6098 36.535C47.7858 36.1487 48.8481 35.5522 49.8536 34.8478C51.2284 33.8877 52.4782 32.7799 53.6257 31.5585C54.5858 30.5417 55.5231 29.5077 56.4491 28.4681C56.7786 28.0989 57.074 27.6899 57.3694 27.2922C57.7728 26.7468 58.1931 26.2299 58.7556 25.8436C58.9771 25.6902 59.2043 25.5198 59.5054 25.5936C59.7043 25.8436 59.5736 26.0708 59.46 26.2753C59.085 26.9513 58.7101 27.6331 58.2954 28.2864C56.8184 30.6042 54.9778 32.5982 52.8815 34.3592C51.9839 35.1148 51.0579 35.8306 50.1263 36.5407C49.1378 37.2906 48.013 37.8018 46.8314 38.1086C45.502 38.4552 44.2409 38.12 43.241 37.1656C42.4855 36.4498 42.3151 35.4784 42.5196 34.4842C42.6559 33.8309 42.8945 33.1946 43.1558 32.5811C43.9171 30.7973 44.9737 29.1839 46.0815 27.599C46.6439 26.7923 47.229 26.0083 47.7914 25.23C47.4506 24.8551 47.1211 24.4915 46.7462 24.0825C46.5984 24.3211 46.4791 24.5029 46.3655 24.6904C44.8601 27.0422 43.5137 29.485 42.173 31.9335C41.5424 33.081 40.8721 34.2058 40.2813 35.3761C39.2246 37.4724 38.4066 39.6709 37.6056 41.8694C36.0604 46.0903 34.4981 50.3055 32.7541 54.4469C31.7997 56.7249 30.6635 58.9064 29.124 60.8606C28.5162 61.6332 27.8345 62.3035 26.9085 62.6671C25.5962 63.1841 24.335 63.0137 23.142 62.3092C22.5285 61.9456 22.1479 61.3719 21.8922 60.7129C21.256 59.0825 21.1935 57.4293 21.7048 55.7535C22.8125 52.1291 24.2953 48.6808 26.2381 45.4199C28.4366 41.733 30.868 38.1995 33.3052 34.6717C36.2933 30.3485 39.1906 25.9685 41.8606 21.4352C42.1049 21.0205 42.3605 20.6115 42.6332 20.1627H42.6616ZM44.0307 21.4806C43.775 21.9238 43.5648 22.3157 43.3262 22.6907C42.1617 24.5029 40.9914 26.3094 39.8268 28.1216C39.1735 29.1328 38.5713 30.1838 37.8726 31.1666C35.4184 34.6205 32.9075 38.0348 30.4761 41.5058C28.5502 44.261 26.8176 47.1356 25.5394 50.2657C25.0508 51.4587 24.5111 52.6347 24.0283 53.8333C23.5227 55.0888 23.1818 56.3841 23.2557 57.7531C23.2954 58.5144 23.4147 59.2643 23.7953 59.9403C24.3237 60.889 25.2212 61.2015 26.2154 60.7527C26.5903 60.5879 26.9369 60.3493 27.2607 60.0994C28.1583 59.412 28.8627 58.5371 29.4762 57.5998C30.6238 55.8444 31.4305 53.9242 32.1633 51.97C33.095 49.4874 33.9982 46.9935 34.9583 44.5223C36.1967 41.324 37.5204 38.1654 38.9917 35.0693C40.7585 31.3654 42.7752 27.7978 44.9226 24.3041C45.1725 23.895 45.4225 23.486 45.6781 23.0599C45.1328 22.5373 44.6101 22.0374 44.0307 21.4806ZM52.7224 18.6629C52.8361 18.5152 52.9383 18.3846 53.0406 18.2482C54.3642 16.4644 55.6595 14.6636 57.0797 12.9536C58.3238 11.4595 59.5452 9.94275 60.7211 8.39755C61.1983 7.77265 61.5449 7.05117 61.9141 6.35242C62.0448 6.10247 62.1073 5.80138 62.1414 5.51733C62.1868 5.10263 62.0618 4.96629 61.6528 4.86971C60.9313 4.69928 60.3178 4.95493 59.7952 5.4094C59.4089 5.74457 59.0453 6.12519 58.7272 6.52285C57.9375 7.49996 57.1763 8.4998 56.4093 9.49396C54.2108 12.3458 52.3418 15.4248 50.3478 18.4186C50.3081 18.4811 50.291 18.5607 50.2456 18.6686H52.7168L52.7224 18.6629Z" fill="#EEE8E2"/>
<path d="M32.4703 16.9933C29.9878 17.0273 27.4938 15.2833 26.8065 12.4883C26.2213 10.108 26.8065 8.01176 28.6073 6.31885C30.9535 4.12603 34.6688 4.3419 36.7821 6.76196C38.9181 9.20475 38.8784 12.8235 36.6571 15.1754C35.5266 16.3684 34.1178 16.9705 32.4703 16.9876V16.9933Z" fill="#EEE8E2"/>
</svg>
