<svg width="20" height="20" viewBox="0 0 20 20" fill="none" xmlns="http://www.w3.org/2000/svg">
<path d="M8.44565 10.7919C8.82487 11.2989 9.30869 11.7183 9.86428 12.0219C10.4199 12.3254 11.0343 12.506 11.6658 12.5512C12.2972 12.5964 12.9311 12.5053 13.5243 12.284C14.1175 12.0627 14.6561 11.7165 15.1037 11.2687L17.7528 8.61963C18.5571 7.78692 19.0021 6.67164 18.992 5.514C18.982 4.35636 18.5176 3.24898 17.699 2.43038C16.8804 1.61177 15.773 1.14743 14.6154 1.13737C13.4578 1.12731 12.3425 1.57234 11.5098 2.37659L9.99095 3.88658" stroke="#232323" stroke-width="2" stroke-linecap="round" stroke-linejoin="round"/>
<path d="M11.9762 9.02607C11.597 8.51909 11.1132 8.09961 10.5576 7.79606C10.002 7.49251 9.38761 7.312 8.75612 7.26677C8.12463 7.22155 7.49079 7.31266 6.89761 7.53394C6.30442 7.75521 5.76577 8.10147 5.31817 8.54923L2.66907 11.1983C1.86482 12.031 1.41979 13.1463 1.42985 14.304C1.43991 15.4616 1.90425 16.569 2.72286 17.3876C3.54146 18.2062 4.64884 18.6705 5.80648 18.6806C6.96412 18.6906 8.0794 18.2456 8.91211 17.4414L10.4221 15.9314" stroke="#232323" stroke-width="2" stroke-linecap="round" stroke-linejoin="round"/>
</svg>
