<svg width="380" height="492" viewBox="0 0 380 492" fill="none" xmlns="http://www.w3.org/2000/svg">
<rect x="0.414062" y="0.331055" width="234" height="78" rx="39" fill="#2229FF"/>
<path d="M99.6541 32.3591C99.3554 30.9404 98.6927 29.8764 97.6661 29.1671C96.6581 28.4577 95.4541 28.1031 94.0541 28.1031C92.8594 28.1031 91.8327 28.3271 90.9741 28.7751C90.1341 29.2231 89.4341 29.8297 88.8741 30.5951C88.3327 31.3417 87.9314 32.2004 87.6701 33.1711C87.4087 34.1417 87.2781 35.1497 87.2781 36.1951C87.2781 37.3337 87.4087 38.4164 87.6701 39.4431C87.9314 40.4511 88.3327 41.3377 88.8741 42.1031C89.4341 42.8497 90.1434 43.4471 91.0021 43.8951C91.8607 44.3431 92.8874 44.5671 94.0821 44.5671C94.9594 44.5671 95.7341 44.4271 96.4061 44.1471C97.0967 43.8484 97.6847 43.4471 98.1701 42.9431C98.6741 42.4204 99.0661 41.8044 99.3461 41.0951C99.6261 40.3857 99.7941 39.6204 99.8501 38.7991H102.51C102.249 41.3191 101.381 43.2791 99.9061 44.6791C98.4314 46.0791 96.4154 46.7791 93.8581 46.7791C92.3087 46.7791 90.9554 46.5177 89.7981 45.9951C88.6407 45.4537 87.6794 44.7164 86.9141 43.7831C86.1487 42.8497 85.5701 41.7484 85.1781 40.4791C84.8047 39.2097 84.6181 37.8471 84.6181 36.3911C84.6181 34.9351 84.8234 33.5724 85.2341 32.3031C85.6447 31.0151 86.2421 29.8951 87.0261 28.9431C87.8287 27.9911 88.8181 27.2444 89.9941 26.7031C91.1887 26.1431 92.5514 25.8631 94.0821 25.8631C95.1274 25.8631 96.1167 26.0031 97.0501 26.2831C97.9834 26.5631 98.8141 26.9737 99.5421 27.5151C100.27 28.0564 100.877 28.7377 101.362 29.5591C101.847 30.3617 102.165 31.2951 102.314 32.3591H99.6541ZM106.589 39.1071C106.589 39.9844 106.701 40.7684 106.925 41.4591C107.168 42.1311 107.494 42.7004 107.905 43.1671C108.316 43.6151 108.792 43.9604 109.333 44.2031C109.893 44.4457 110.481 44.5671 111.097 44.5671C111.713 44.5671 112.292 44.4457 112.833 44.2031C113.393 43.9604 113.878 43.6151 114.289 43.1671C114.7 42.7004 115.017 42.1311 115.241 41.4591C115.484 40.7684 115.605 39.9844 115.605 39.1071C115.605 38.2297 115.484 37.4551 115.241 36.7831C115.017 36.0924 114.7 35.5137 114.289 35.0471C113.878 34.5804 113.393 34.2257 112.833 33.9831C112.292 33.7404 111.713 33.6191 111.097 33.6191C110.481 33.6191 109.893 33.7404 109.333 33.9831C108.792 34.2257 108.316 34.5804 107.905 35.0471C107.494 35.5137 107.168 36.0924 106.925 36.7831C106.701 37.4551 106.589 38.2297 106.589 39.1071ZM104.069 39.1071C104.069 38.0431 104.218 37.0537 104.517 36.1391C104.816 35.2057 105.264 34.4031 105.861 33.7311C106.458 33.0404 107.196 32.4991 108.073 32.1071C108.95 31.7151 109.958 31.5191 111.097 31.5191C112.254 31.5191 113.262 31.7151 114.121 32.1071C114.998 32.4991 115.736 33.0404 116.333 33.7311C116.93 34.4031 117.378 35.2057 117.677 36.1391C117.976 37.0537 118.125 38.0431 118.125 39.1071C118.125 40.1711 117.976 41.1604 117.677 42.0751C117.378 42.9897 116.93 43.7924 116.333 44.4831C115.736 45.1551 114.998 45.6871 114.121 46.0791C113.262 46.4524 112.254 46.6391 111.097 46.6391C109.958 46.6391 108.95 46.4524 108.073 46.0791C107.196 45.6871 106.458 45.1551 105.861 44.4831C105.264 43.7924 104.816 42.9897 104.517 42.0751C104.218 41.1604 104.069 40.1711 104.069 39.1071ZM120.371 31.8551H122.611V34.1511H122.667C123.657 32.3964 125.225 31.5191 127.371 31.5191C128.323 31.5191 129.117 31.6497 129.751 31.9111C130.386 32.1724 130.899 32.5364 131.291 33.0031C131.683 33.4697 131.954 34.0297 132.103 34.6831C132.271 35.3177 132.355 36.0271 132.355 36.8111V46.3311H129.975V36.5311C129.975 35.6351 129.714 34.9257 129.191 34.4031C128.669 33.8804 127.95 33.6191 127.035 33.6191C126.307 33.6191 125.673 33.7311 125.131 33.9551C124.609 34.1791 124.17 34.4964 123.815 34.9071C123.461 35.3177 123.19 35.8031 123.003 36.3631C122.835 36.9044 122.751 37.5017 122.751 38.1551V46.3311H120.371V31.8551ZM135.37 31.8551H137.61V34.1511H137.666C138.655 32.3964 140.223 31.5191 142.37 31.5191C143.322 31.5191 144.115 31.6497 144.75 31.9111C145.384 32.1724 145.898 32.5364 146.29 33.0031C146.682 33.4697 146.952 34.0297 147.102 34.6831C147.27 35.3177 147.354 36.0271 147.354 36.8111V46.3311H144.974V36.5311C144.974 35.6351 144.712 34.9257 144.19 34.4031C143.667 33.8804 142.948 33.6191 142.034 33.6191C141.306 33.6191 140.671 33.7311 140.13 33.9551C139.607 34.1791 139.168 34.4964 138.814 34.9071C138.459 35.3177 138.188 35.8031 138.002 36.3631C137.834 36.9044 137.75 37.5017 137.75 38.1551V46.3311H135.37V31.8551ZM160.42 37.7071C160.383 37.1471 160.252 36.6151 160.028 36.1111C159.823 35.6071 159.534 35.1777 159.16 34.8231C158.806 34.4497 158.376 34.1604 157.872 33.9551C157.387 33.7311 156.846 33.6191 156.248 33.6191C155.632 33.6191 155.072 33.7311 154.568 33.9551C154.083 34.1604 153.663 34.4497 153.308 34.8231C152.954 35.1964 152.674 35.6351 152.468 36.1391C152.263 36.6244 152.142 37.1471 152.104 37.7071H160.42ZM162.716 41.7391C162.399 43.3631 161.699 44.5857 160.616 45.4071C159.534 46.2284 158.171 46.6391 156.528 46.6391C155.371 46.6391 154.363 46.4524 153.504 46.0791C152.664 45.7057 151.955 45.1831 151.376 44.5111C150.798 43.8391 150.359 43.0364 150.06 42.1031C149.78 41.1697 149.622 40.1524 149.584 39.0511C149.584 37.9497 149.752 36.9417 150.088 36.0271C150.424 35.1124 150.891 34.3191 151.488 33.6471C152.104 32.9751 152.823 32.4524 153.644 32.0791C154.484 31.7057 155.399 31.5191 156.388 31.5191C157.676 31.5191 158.74 31.7897 159.58 32.3311C160.439 32.8537 161.12 33.5257 161.624 34.3471C162.147 35.1684 162.502 36.0644 162.688 37.0351C162.894 38.0057 162.978 38.9297 162.94 39.8071H152.104C152.086 40.4417 152.16 41.0484 152.328 41.6271C152.496 42.1871 152.767 42.6911 153.14 43.1391C153.514 43.5684 153.99 43.9137 154.568 44.1751C155.147 44.4364 155.828 44.5671 156.612 44.5671C157.62 44.5671 158.442 44.3337 159.076 43.8671C159.73 43.4004 160.159 42.6911 160.364 41.7391H162.716ZM174.675 36.5031C174.489 35.5884 174.097 34.8791 173.499 34.3751C172.902 33.8711 172.099 33.6191 171.091 33.6191C170.233 33.6191 169.514 33.7777 168.935 34.0951C168.357 34.4124 167.89 34.8324 167.535 35.3551C167.199 35.8777 166.957 36.4844 166.807 37.1751C166.658 37.8471 166.583 38.5471 166.583 39.2751C166.583 39.9471 166.658 40.6004 166.807 41.2351C166.975 41.8697 167.227 42.4391 167.563 42.9431C167.899 43.4284 168.338 43.8204 168.879 44.1191C169.421 44.4177 170.065 44.5671 170.811 44.5671C171.987 44.5671 172.902 44.2591 173.555 43.6431C174.227 43.0271 174.638 42.1591 174.787 41.0391H177.223C176.962 42.8311 176.29 44.2124 175.207 45.1831C174.143 46.1537 172.687 46.6391 170.839 46.6391C169.738 46.6391 168.758 46.4617 167.899 46.1071C167.059 45.7524 166.35 45.2484 165.771 44.5951C165.211 43.9417 164.782 43.1671 164.483 42.2711C164.203 41.3564 164.063 40.3577 164.063 39.2751C164.063 38.1924 164.203 37.1844 164.483 36.2511C164.763 35.2991 165.183 34.4777 165.743 33.7871C166.322 33.0777 167.041 32.5271 167.899 32.1351C168.758 31.7244 169.757 31.5191 170.895 31.5191C171.717 31.5191 172.482 31.6217 173.191 31.8271C173.919 32.0137 174.554 32.3124 175.095 32.7231C175.655 33.1337 176.113 33.6564 176.467 34.2911C176.822 34.9071 177.046 35.6444 177.139 36.5031H174.675ZM182.631 31.8551H185.515V33.9551H182.631V42.9431C182.631 43.2231 182.649 43.4471 182.687 43.6151C182.743 43.7831 182.836 43.9137 182.967 44.0071C183.097 44.1004 183.275 44.1657 183.499 44.2031C183.741 44.2217 184.049 44.2311 184.423 44.2311H185.515V46.3311H183.695C183.079 46.3311 182.547 46.2937 182.099 46.2191C181.669 46.1257 181.315 45.9671 181.035 45.7431C180.773 45.5191 180.577 45.2017 180.447 44.7911C180.316 44.3804 180.251 43.8391 180.251 43.1671V33.9551H177.787V31.8551H180.251V27.5151H182.631V31.8551Z" fill="#F7FFC4"/>
<circle cx="40.4141" cy="39.3311" r="23" fill="#C7C9FF"/>
<path d="M32.4141 39.69L37.8378 45.3311L48.4141 34.3311" stroke="#2229FF" stroke-width="4" stroke-linecap="round"/>
<rect x="145.82" y="155.039" width="234" height="78" rx="39" fill="#FFE819"/>
<path d="M230.352 189.159C230.085 187.892 229.493 186.942 228.577 186.309C227.677 185.675 226.602 185.359 225.352 185.359C224.285 185.359 223.368 185.559 222.602 185.959C221.852 186.359 221.227 186.9 220.727 187.584C220.243 188.25 219.885 189.017 219.652 189.884C219.418 190.75 219.302 191.65 219.302 192.584C219.302 193.6 219.418 194.567 219.652 195.484C219.885 196.384 220.243 197.175 220.727 197.859C221.227 198.525 221.86 199.059 222.627 199.459C223.393 199.859 224.31 200.059 225.377 200.059C226.16 200.059 226.852 199.934 227.452 199.684C228.068 199.417 228.593 199.059 229.027 198.609C229.477 198.142 229.827 197.592 230.077 196.959C230.327 196.325 230.477 195.642 230.527 194.909H232.902C232.668 197.159 231.893 198.909 230.577 200.159C229.26 201.409 227.46 202.034 225.177 202.034C223.793 202.034 222.585 201.8 221.552 201.334C220.518 200.85 219.66 200.192 218.977 199.359C218.293 198.525 217.777 197.542 217.427 196.409C217.093 195.275 216.927 194.059 216.927 192.759C216.927 191.459 217.11 190.242 217.477 189.109C217.843 187.959 218.377 186.959 219.077 186.109C219.793 185.259 220.677 184.592 221.727 184.109C222.793 183.609 224.01 183.359 225.377 183.359C226.31 183.359 227.193 183.484 228.027 183.734C228.86 183.984 229.602 184.35 230.252 184.834C230.902 185.317 231.443 185.925 231.877 186.659C232.31 187.375 232.593 188.209 232.727 189.159H230.352ZM236.544 195.184C236.544 195.967 236.644 196.667 236.844 197.284C237.06 197.884 237.352 198.392 237.719 198.809C238.085 199.209 238.51 199.517 238.994 199.734C239.494 199.95 240.019 200.059 240.569 200.059C241.119 200.059 241.635 199.95 242.119 199.734C242.619 199.517 243.052 199.209 243.419 198.809C243.785 198.392 244.069 197.884 244.269 197.284C244.485 196.667 244.594 195.967 244.594 195.184C244.594 194.4 244.485 193.709 244.269 193.109C244.069 192.492 243.785 191.975 243.419 191.559C243.052 191.142 242.619 190.825 242.119 190.609C241.635 190.392 241.119 190.284 240.569 190.284C240.019 190.284 239.494 190.392 238.994 190.609C238.51 190.825 238.085 191.142 237.719 191.559C237.352 191.975 237.06 192.492 236.844 193.109C236.644 193.709 236.544 194.4 236.544 195.184ZM234.294 195.184C234.294 194.234 234.427 193.35 234.694 192.534C234.96 191.7 235.36 190.984 235.894 190.384C236.427 189.767 237.085 189.284 237.869 188.934C238.652 188.584 239.552 188.409 240.569 188.409C241.602 188.409 242.502 188.584 243.269 188.934C244.052 189.284 244.71 189.767 245.244 190.384C245.777 190.984 246.177 191.7 246.444 192.534C246.71 193.35 246.844 194.234 246.844 195.184C246.844 196.134 246.71 197.017 246.444 197.834C246.177 198.65 245.777 199.367 245.244 199.984C244.71 200.584 244.052 201.059 243.269 201.409C242.502 201.742 241.602 201.909 240.569 201.909C239.552 201.909 238.652 201.742 237.869 201.409C237.085 201.059 236.427 200.584 235.894 199.984C235.36 199.367 234.96 198.65 234.694 197.834C234.427 197.017 234.294 196.134 234.294 195.184ZM248.974 183.784H251.099V201.634H248.974V183.784ZM265.341 201.584C264.974 201.8 264.466 201.909 263.816 201.909C263.266 201.909 262.824 201.759 262.491 201.459C262.174 201.142 262.016 200.634 262.016 199.934C261.433 200.634 260.749 201.142 259.966 201.459C259.199 201.759 258.366 201.909 257.466 201.909C256.883 201.909 256.324 201.842 255.791 201.709C255.274 201.575 254.824 201.367 254.441 201.084C254.058 200.8 253.749 200.434 253.516 199.984C253.299 199.517 253.191 198.959 253.191 198.309C253.191 197.575 253.316 196.975 253.566 196.509C253.816 196.042 254.141 195.667 254.541 195.384C254.958 195.084 255.424 194.859 255.941 194.709C256.474 194.559 257.016 194.434 257.566 194.334C258.149 194.217 258.699 194.134 259.216 194.084C259.749 194.017 260.216 193.934 260.616 193.834C261.016 193.717 261.333 193.559 261.566 193.359C261.799 193.142 261.916 192.834 261.916 192.434C261.916 191.967 261.824 191.592 261.641 191.309C261.474 191.025 261.249 190.809 260.966 190.659C260.699 190.509 260.391 190.409 260.041 190.359C259.708 190.309 259.374 190.284 259.041 190.284C258.141 190.284 257.391 190.459 256.791 190.809C256.191 191.142 255.866 191.784 255.816 192.734H253.691C253.724 191.934 253.891 191.259 254.191 190.709C254.491 190.159 254.891 189.717 255.391 189.384C255.891 189.034 256.458 188.784 257.091 188.634C257.741 188.484 258.433 188.409 259.166 188.409C259.749 188.409 260.324 188.45 260.891 188.534C261.474 188.617 261.999 188.792 262.466 189.059C262.933 189.309 263.308 189.667 263.591 190.134C263.874 190.6 264.016 191.209 264.016 191.959V198.609C264.016 199.109 264.041 199.475 264.091 199.709C264.158 199.942 264.358 200.059 264.691 200.059C264.874 200.059 265.091 200.017 265.341 199.934V201.584ZM261.891 194.959C261.624 195.159 261.274 195.309 260.841 195.409C260.408 195.492 259.949 195.567 259.466 195.634C258.999 195.684 258.524 195.75 258.041 195.834C257.558 195.9 257.124 196.017 256.741 196.184C256.358 196.35 256.041 196.592 255.791 196.909C255.558 197.209 255.441 197.625 255.441 198.159C255.441 198.509 255.508 198.809 255.641 199.059C255.791 199.292 255.974 199.484 256.191 199.634C256.424 199.784 256.691 199.892 256.991 199.959C257.291 200.025 257.608 200.059 257.941 200.059C258.641 200.059 259.241 199.967 259.741 199.784C260.241 199.584 260.649 199.342 260.966 199.059C261.283 198.759 261.516 198.442 261.666 198.109C261.816 197.759 261.891 197.434 261.891 197.134V194.959ZM266.894 183.784H269.019V190.459H269.069C269.419 189.742 269.969 189.225 270.719 188.909C271.469 188.575 272.294 188.409 273.194 188.409C274.194 188.409 275.06 188.592 275.794 188.959C276.544 189.325 277.16 189.825 277.644 190.459C278.144 191.075 278.519 191.792 278.769 192.609C279.019 193.425 279.144 194.292 279.144 195.209C279.144 196.125 279.019 196.992 278.769 197.809C278.535 198.625 278.169 199.342 277.669 199.959C277.185 200.559 276.569 201.034 275.819 201.384C275.085 201.734 274.227 201.909 273.244 201.909C272.927 201.909 272.569 201.875 272.169 201.809C271.785 201.742 271.402 201.634 271.019 201.484C270.635 201.334 270.269 201.134 269.919 200.884C269.585 200.617 269.302 200.292 269.069 199.909H269.019V201.634H266.894V183.784ZM276.894 195.059C276.894 194.459 276.81 193.875 276.644 193.309C276.494 192.725 276.252 192.209 275.919 191.759C275.602 191.309 275.185 190.95 274.669 190.684C274.169 190.417 273.577 190.284 272.894 190.284C272.177 190.284 271.569 190.425 271.069 190.709C270.569 190.992 270.16 191.367 269.844 191.834C269.527 192.284 269.294 192.8 269.144 193.384C269.01 193.967 268.944 194.559 268.944 195.159C268.944 195.792 269.019 196.409 269.169 197.009C269.319 197.592 269.552 198.109 269.869 198.559C270.202 199.009 270.627 199.375 271.144 199.659C271.66 199.925 272.285 200.059 273.019 200.059C273.752 200.059 274.36 199.917 274.844 199.634C275.344 199.35 275.744 198.975 276.044 198.509C276.344 198.042 276.56 197.509 276.694 196.909C276.827 196.309 276.894 195.692 276.894 195.059ZM281.213 183.784H283.338V190.459H283.388C283.738 189.742 284.288 189.225 285.038 188.909C285.788 188.575 286.613 188.409 287.513 188.409C288.513 188.409 289.38 188.592 290.113 188.959C290.863 189.325 291.48 189.825 291.963 190.459C292.463 191.075 292.838 191.792 293.088 192.609C293.338 193.425 293.463 194.292 293.463 195.209C293.463 196.125 293.338 196.992 293.088 197.809C292.855 198.625 292.488 199.342 291.988 199.959C291.505 200.559 290.888 201.034 290.138 201.384C289.405 201.734 288.546 201.909 287.563 201.909C287.246 201.909 286.888 201.875 286.488 201.809C286.105 201.742 285.721 201.634 285.338 201.484C284.955 201.334 284.588 201.134 284.238 200.884C283.905 200.617 283.621 200.292 283.388 199.909H283.338V201.634H281.213V183.784ZM291.213 195.059C291.213 194.459 291.13 193.875 290.963 193.309C290.813 192.725 290.571 192.209 290.238 191.759C289.921 191.309 289.505 190.95 288.988 190.684C288.488 190.417 287.896 190.284 287.213 190.284C286.496 190.284 285.888 190.425 285.388 190.709C284.888 190.992 284.48 191.367 284.163 191.834C283.846 192.284 283.613 192.8 283.463 193.384C283.33 193.967 283.263 194.559 283.263 195.159C283.263 195.792 283.338 196.409 283.488 197.009C283.638 197.592 283.871 198.109 284.188 198.559C284.521 199.009 284.946 199.375 285.463 199.659C285.98 199.925 286.605 200.059 287.338 200.059C288.071 200.059 288.68 199.917 289.163 199.634C289.663 199.35 290.063 198.975 290.363 198.509C290.663 198.042 290.88 197.509 291.013 196.909C291.146 196.309 291.213 195.692 291.213 195.059ZM297.007 195.184C297.007 195.967 297.107 196.667 297.307 197.284C297.524 197.884 297.816 198.392 298.182 198.809C298.549 199.209 298.974 199.517 299.457 199.734C299.957 199.95 300.482 200.059 301.032 200.059C301.582 200.059 302.099 199.95 302.582 199.734C303.082 199.517 303.516 199.209 303.882 198.809C304.249 198.392 304.532 197.884 304.732 197.284C304.949 196.667 305.057 195.967 305.057 195.184C305.057 194.4 304.949 193.709 304.732 193.109C304.532 192.492 304.249 191.975 303.882 191.559C303.516 191.142 303.082 190.825 302.582 190.609C302.099 190.392 301.582 190.284 301.032 190.284C300.482 190.284 299.957 190.392 299.457 190.609C298.974 190.825 298.549 191.142 298.182 191.559C297.816 191.975 297.524 192.492 297.307 193.109C297.107 193.709 297.007 194.4 297.007 195.184ZM294.757 195.184C294.757 194.234 294.891 193.35 295.157 192.534C295.424 191.7 295.824 190.984 296.357 190.384C296.891 189.767 297.549 189.284 298.332 188.934C299.116 188.584 300.016 188.409 301.032 188.409C302.066 188.409 302.966 188.584 303.732 188.934C304.516 189.284 305.174 189.767 305.707 190.384C306.241 190.984 306.641 191.7 306.907 192.534C307.174 193.35 307.307 194.234 307.307 195.184C307.307 196.134 307.174 197.017 306.907 197.834C306.641 198.65 306.241 199.367 305.707 199.984C305.174 200.584 304.516 201.059 303.732 201.409C302.966 201.742 302.066 201.909 301.032 201.909C300.016 201.909 299.116 201.742 298.332 201.409C297.549 201.059 296.891 200.584 296.357 199.984C295.824 199.367 295.424 198.65 295.157 197.834C294.891 197.017 294.757 196.134 294.757 195.184ZM309.238 188.709H311.238V191.434H311.288C311.805 190.384 312.438 189.609 313.188 189.109C313.938 188.609 314.888 188.375 316.038 188.409V190.659C315.188 190.659 314.463 190.775 313.863 191.009C313.263 191.242 312.78 191.584 312.413 192.034C312.046 192.484 311.78 193.034 311.613 193.684C311.446 194.317 311.363 195.05 311.363 195.884V201.634H309.238V188.709ZM328.588 201.584C328.221 201.8 327.713 201.909 327.063 201.909C326.513 201.909 326.071 201.759 325.738 201.459C325.421 201.142 325.263 200.634 325.263 199.934C324.68 200.634 323.996 201.142 323.213 201.459C322.446 201.759 321.613 201.909 320.713 201.909C320.13 201.909 319.571 201.842 319.038 201.709C318.521 201.575 318.071 201.367 317.688 201.084C317.305 200.8 316.996 200.434 316.763 199.984C316.546 199.517 316.438 198.959 316.438 198.309C316.438 197.575 316.563 196.975 316.813 196.509C317.063 196.042 317.388 195.667 317.788 195.384C318.205 195.084 318.671 194.859 319.188 194.709C319.721 194.559 320.263 194.434 320.813 194.334C321.396 194.217 321.946 194.134 322.463 194.084C322.996 194.017 323.463 193.934 323.863 193.834C324.263 193.717 324.58 193.559 324.813 193.359C325.046 193.142 325.163 192.834 325.163 192.434C325.163 191.967 325.071 191.592 324.888 191.309C324.721 191.025 324.496 190.809 324.213 190.659C323.946 190.509 323.638 190.409 323.288 190.359C322.955 190.309 322.621 190.284 322.288 190.284C321.388 190.284 320.638 190.459 320.038 190.809C319.438 191.142 319.113 191.784 319.063 192.734H316.938C316.971 191.934 317.138 191.259 317.438 190.709C317.738 190.159 318.138 189.717 318.638 189.384C319.138 189.034 319.705 188.784 320.338 188.634C320.988 188.484 321.68 188.409 322.413 188.409C322.996 188.409 323.571 188.45 324.138 188.534C324.721 188.617 325.246 188.792 325.713 189.059C326.18 189.309 326.555 189.667 326.838 190.134C327.121 190.6 327.263 191.209 327.263 191.959V198.609C327.263 199.109 327.288 199.475 327.338 199.709C327.405 199.942 327.605 200.059 327.938 200.059C328.121 200.059 328.338 200.017 328.588 199.934V201.584ZM325.138 194.959C324.871 195.159 324.521 195.309 324.088 195.409C323.655 195.492 323.196 195.567 322.713 195.634C322.246 195.684 321.771 195.75 321.288 195.834C320.805 195.9 320.371 196.017 319.988 196.184C319.605 196.35 319.288 196.592 319.038 196.909C318.805 197.209 318.688 197.625 318.688 198.159C318.688 198.509 318.755 198.809 318.888 199.059C319.038 199.292 319.221 199.484 319.438 199.634C319.671 199.784 319.938 199.892 320.238 199.959C320.538 200.025 320.855 200.059 321.188 200.059C321.888 200.059 322.488 199.967 322.988 199.784C323.488 199.584 323.896 199.342 324.213 199.059C324.53 198.759 324.763 198.442 324.913 198.109C325.063 197.759 325.138 197.434 325.138 197.134V194.959ZM333.016 188.709H335.591V190.584H333.016V198.609C333.016 198.859 333.032 199.059 333.066 199.209C333.116 199.359 333.199 199.475 333.316 199.559C333.432 199.642 333.591 199.7 333.791 199.734C334.007 199.75 334.282 199.759 334.616 199.759H335.591V201.634H333.966C333.416 201.634 332.941 201.6 332.541 201.534C332.157 201.45 331.841 201.309 331.591 201.109C331.357 200.909 331.182 200.625 331.066 200.259C330.949 199.892 330.891 199.409 330.891 198.809V190.584H328.691V188.709H330.891V184.834H333.016V188.709ZM346.427 193.934C346.393 193.434 346.277 192.959 346.077 192.509C345.893 192.059 345.635 191.675 345.302 191.359C344.985 191.025 344.602 190.767 344.152 190.584C343.718 190.384 343.235 190.284 342.702 190.284C342.152 190.284 341.652 190.384 341.202 190.584C340.768 190.767 340.393 191.025 340.077 191.359C339.76 191.692 339.51 192.084 339.327 192.534C339.143 192.967 339.035 193.434 339.002 193.934H346.427ZM348.477 197.534C348.193 198.984 347.568 200.075 346.602 200.809C345.635 201.542 344.418 201.909 342.952 201.909C341.918 201.909 341.018 201.742 340.252 201.409C339.502 201.075 338.868 200.609 338.352 200.009C337.835 199.409 337.443 198.692 337.177 197.859C336.927 197.025 336.785 196.117 336.752 195.134C336.752 194.15 336.902 193.25 337.202 192.434C337.502 191.617 337.918 190.909 338.452 190.309C339.002 189.709 339.643 189.242 340.377 188.909C341.127 188.575 341.943 188.409 342.827 188.409C343.977 188.409 344.927 188.65 345.677 189.134C346.443 189.6 347.052 190.2 347.502 190.934C347.968 191.667 348.285 192.467 348.452 193.334C348.635 194.2 348.71 195.025 348.677 195.809H339.002C338.985 196.375 339.052 196.917 339.202 197.434C339.352 197.934 339.593 198.384 339.927 198.784C340.26 199.167 340.685 199.475 341.202 199.709C341.718 199.942 342.327 200.059 343.027 200.059C343.927 200.059 344.66 199.85 345.227 199.434C345.81 199.017 346.193 198.384 346.377 197.534H348.477Z" fill="#908415"/>
<circle cx="185.82" cy="194.039" r="23" fill="#FFF7AB"/>
<path d="M177.82 194.398L183.244 200.039L193.82 189.039" stroke="#908415" stroke-width="4" stroke-linecap="round"/>
<path d="M121.414 79.8311V126.831M145.914 196.331V196.331C132.383 196.331 121.414 185.362 121.414 171.831V126.831M121.414 126.831V133.581C121.414 145.593 111.676 155.331 99.6641 155.331V155.331C87.6519 155.331 77.9141 165.069 77.9141 177.081V252.831M77.9141 252.831V285.901C77.9141 299.708 89.1069 310.901 102.914 310.901H178.914C188.027 310.901 195.414 318.289 195.414 327.401V327.401M77.9141 252.831V272.831M355.414 258.331V358.644C355.414 372.452 344.221 383.644 330.414 383.644H290.758M355.414 258.331V234.331M355.414 258.331V274.831M195.414 327.401V491.203M195.414 327.401V234.331M234.414 36.3311H287.414C301.221 36.3311 312.414 47.5239 312.414 61.3311V156.331" stroke="url(#paint0_linear_1_21973)"/>
<rect x="96.1484" y="344.615" width="195.344" height="78" rx="39" fill="#B7FF40"/>
<path d="M195.055 381.14C194.788 379.874 194.196 378.924 193.28 378.29C192.38 377.657 191.305 377.34 190.055 377.34C188.988 377.34 188.071 377.54 187.305 377.94C186.555 378.34 185.93 378.882 185.43 379.565C184.946 380.232 184.588 380.999 184.355 381.865C184.121 382.732 184.005 383.632 184.005 384.565C184.005 385.582 184.121 386.549 184.355 387.465C184.588 388.365 184.946 389.157 185.43 389.84C185.93 390.507 186.563 391.04 187.33 391.44C188.096 391.84 189.013 392.04 190.08 392.04C190.863 392.04 191.555 391.915 192.155 391.665C192.771 391.399 193.296 391.04 193.73 390.59C194.18 390.124 194.53 389.574 194.78 388.94C195.03 388.307 195.18 387.624 195.23 386.89H197.605C197.371 389.14 196.596 390.89 195.28 392.14C193.963 393.39 192.163 394.015 189.88 394.015C188.496 394.015 187.288 393.782 186.255 393.315C185.221 392.832 184.363 392.174 183.68 391.34C182.996 390.507 182.48 389.524 182.13 388.39C181.796 387.257 181.63 386.04 181.63 384.74C181.63 383.44 181.813 382.224 182.18 381.09C182.546 379.94 183.08 378.94 183.78 378.09C184.496 377.24 185.38 376.574 186.43 376.09C187.496 375.59 188.713 375.34 190.08 375.34C191.013 375.34 191.896 375.465 192.73 375.715C193.563 375.965 194.305 376.332 194.955 376.815C195.605 377.299 196.146 377.907 196.58 378.64C197.013 379.357 197.296 380.19 197.43 381.14H195.055ZM199.622 380.69H201.622V383.415H201.672C202.188 382.365 202.822 381.59 203.572 381.09C204.322 380.59 205.272 380.357 206.422 380.39V382.64C205.572 382.64 204.847 382.757 204.247 382.99C203.647 383.224 203.163 383.565 202.797 384.015C202.43 384.465 202.163 385.015 201.997 385.665C201.83 386.299 201.747 387.032 201.747 387.865V393.615H199.622V380.69ZM216.057 385.915C216.024 385.415 215.907 384.94 215.707 384.49C215.524 384.04 215.266 383.657 214.932 383.34C214.616 383.007 214.232 382.749 213.782 382.565C213.349 382.365 212.866 382.265 212.332 382.265C211.782 382.265 211.282 382.365 210.832 382.565C210.399 382.749 210.024 383.007 209.707 383.34C209.391 383.674 209.141 384.065 208.957 384.515C208.774 384.949 208.666 385.415 208.632 385.915H216.057ZM218.107 389.515C217.824 390.965 217.199 392.057 216.232 392.79C215.266 393.524 214.049 393.89 212.582 393.89C211.549 393.89 210.649 393.724 209.882 393.39C209.132 393.057 208.499 392.59 207.982 391.99C207.466 391.39 207.074 390.674 206.807 389.84C206.557 389.007 206.416 388.099 206.382 387.115C206.382 386.132 206.532 385.232 206.832 384.415C207.132 383.599 207.549 382.89 208.082 382.29C208.632 381.69 209.274 381.224 210.007 380.89C210.757 380.557 211.574 380.39 212.457 380.39C213.607 380.39 214.557 380.632 215.307 381.115C216.074 381.582 216.682 382.182 217.132 382.915C217.599 383.649 217.916 384.449 218.082 385.315C218.266 386.182 218.341 387.007 218.307 387.79H208.632C208.616 388.357 208.682 388.899 208.832 389.415C208.982 389.915 209.224 390.365 209.557 390.765C209.891 391.149 210.316 391.457 210.832 391.69C211.349 391.924 211.957 392.04 212.657 392.04C213.557 392.04 214.291 391.832 214.857 391.415C215.441 390.999 215.824 390.365 216.007 389.515H218.107ZM231.46 393.565C231.093 393.782 230.585 393.89 229.935 393.89C229.385 393.89 228.943 393.74 228.61 393.44C228.293 393.124 228.135 392.615 228.135 391.915C227.552 392.615 226.868 393.124 226.085 393.44C225.318 393.74 224.485 393.89 223.585 393.89C223.002 393.89 222.443 393.824 221.91 393.69C221.393 393.557 220.943 393.349 220.56 393.065C220.177 392.782 219.868 392.415 219.635 391.965C219.418 391.499 219.31 390.94 219.31 390.29C219.31 389.557 219.435 388.957 219.685 388.49C219.935 388.024 220.26 387.649 220.66 387.365C221.077 387.065 221.543 386.84 222.06 386.69C222.593 386.54 223.135 386.415 223.685 386.315C224.268 386.199 224.818 386.115 225.335 386.065C225.868 385.999 226.335 385.915 226.735 385.815C227.135 385.699 227.452 385.54 227.685 385.34C227.918 385.124 228.035 384.815 228.035 384.415C228.035 383.949 227.943 383.574 227.76 383.29C227.593 383.007 227.368 382.79 227.085 382.64C226.818 382.49 226.51 382.39 226.16 382.34C225.827 382.29 225.493 382.265 225.16 382.265C224.26 382.265 223.51 382.44 222.91 382.79C222.31 383.124 221.985 383.765 221.935 384.715H219.81C219.843 383.915 220.01 383.24 220.31 382.69C220.61 382.14 221.01 381.699 221.51 381.365C222.01 381.015 222.577 380.765 223.21 380.615C223.86 380.465 224.552 380.39 225.285 380.39C225.868 380.39 226.443 380.432 227.01 380.515C227.593 380.599 228.118 380.774 228.585 381.04C229.052 381.29 229.427 381.649 229.71 382.115C229.993 382.582 230.135 383.19 230.135 383.94V390.59C230.135 391.09 230.16 391.457 230.21 391.69C230.277 391.924 230.477 392.04 230.81 392.04C230.993 392.04 231.21 391.999 231.46 391.915V393.565ZM228.01 386.94C227.743 387.14 227.393 387.29 226.96 387.39C226.527 387.474 226.068 387.549 225.585 387.615C225.118 387.665 224.643 387.732 224.16 387.815C223.677 387.882 223.243 387.999 222.86 388.165C222.477 388.332 222.16 388.574 221.91 388.89C221.677 389.19 221.56 389.607 221.56 390.14C221.56 390.49 221.627 390.79 221.76 391.04C221.91 391.274 222.093 391.465 222.31 391.615C222.543 391.765 222.81 391.874 223.11 391.94C223.41 392.007 223.727 392.04 224.06 392.04C224.76 392.04 225.36 391.949 225.86 391.765C226.36 391.565 226.768 391.324 227.085 391.04C227.402 390.74 227.635 390.424 227.785 390.09C227.935 389.74 228.01 389.415 228.01 389.115V386.94ZM235.888 380.69H238.463V382.565H235.888V390.59C235.888 390.84 235.905 391.04 235.938 391.19C235.988 391.34 236.071 391.457 236.188 391.54C236.305 391.624 236.463 391.682 236.663 391.715C236.88 391.732 237.155 391.74 237.488 391.74H238.463V393.615H236.838C236.288 393.615 235.813 393.582 235.413 393.515C235.03 393.432 234.713 393.29 234.463 393.09C234.23 392.89 234.055 392.607 233.938 392.24C233.821 391.874 233.763 391.39 233.763 390.79V382.565H231.563V380.69H233.763V376.815H235.888V380.69ZM249.299 385.915C249.265 385.415 249.149 384.94 248.949 384.49C248.765 384.04 248.507 383.657 248.174 383.34C247.857 383.007 247.474 382.749 247.024 382.565C246.59 382.365 246.107 382.265 245.574 382.265C245.024 382.265 244.524 382.365 244.074 382.565C243.64 382.749 243.265 383.007 242.949 383.34C242.632 383.674 242.382 384.065 242.199 384.515C242.015 384.949 241.907 385.415 241.874 385.915H249.299ZM251.349 389.515C251.065 390.965 250.44 392.057 249.474 392.79C248.507 393.524 247.29 393.89 245.824 393.89C244.79 393.89 243.89 393.724 243.124 393.39C242.374 393.057 241.74 392.59 241.224 391.99C240.707 391.39 240.315 390.674 240.049 389.84C239.799 389.007 239.657 388.099 239.624 387.115C239.624 386.132 239.774 385.232 240.074 384.415C240.374 383.599 240.79 382.89 241.324 382.29C241.874 381.69 242.515 381.224 243.249 380.89C243.999 380.557 244.815 380.39 245.699 380.39C246.849 380.39 247.799 380.632 248.549 381.115C249.315 381.582 249.924 382.182 250.374 382.915C250.84 383.649 251.157 384.449 251.324 385.315C251.507 386.182 251.582 387.007 251.549 387.79H241.874C241.857 388.357 241.924 388.899 242.074 389.415C242.224 389.915 242.465 390.365 242.799 390.765C243.132 391.149 243.557 391.457 244.074 391.69C244.59 391.924 245.199 392.04 245.899 392.04C246.799 392.04 247.532 391.832 248.099 391.415C248.682 390.999 249.065 390.365 249.249 389.515H251.349Z" fill="#354E0D"/>
<circle cx="136.148" cy="383.615" r="23" fill="#A1D24F"/>
<path d="M128.148 383.974L133.572 389.615L144.148 378.615" stroke="#354E0D" stroke-width="4" stroke-linecap="round"/>
<rect x="184.914" y="334.594" width="21" height="21" rx="10.5" fill="#EEE8E2" stroke="#2229FF"/>
<path fill-rule="evenodd" clip-rule="evenodd" d="M196.414 340.094H194.414V344.094L190.414 344.094V346.094H194.414V350.094H196.414V346.094H200.414V344.094L196.414 344.094V340.094Z" fill="#2229FF"/>
<rect x="135.32" y="185.078" width="21" height="21" rx="10.5" fill="#EEE8E2" stroke="#2229FF"/>
<path fill-rule="evenodd" clip-rule="evenodd" d="M146.82 190.578H144.82V194.578L140.82 194.578V196.578H144.82V200.578H146.82V196.578H150.82V194.578L146.82 194.578V190.578Z" fill="#2229FF"/>
<rect x="111.414" y="69.4561" width="21" height="21" rx="10.5" fill="#EEE8E2" stroke="#2229FF"/>
<path fill-rule="evenodd" clip-rule="evenodd" d="M122.914 74.9561H120.914V78.9561L116.914 78.9561V80.9561H120.914V84.9561H122.914V80.9561H126.914V78.9561L122.914 78.9561V74.9561Z" fill="#2229FF"/>
<defs>
<linearGradient id="paint0_linear_1_21973" x1="216.664" y1="36.3311" x2="216.664" y2="457.831" gradientUnits="userSpaceOnUse">
<stop offset="0.79" stop-color="#2229FF"/>
<stop offset="1" stop-color="#2229FF" stop-opacity="0"/>
</linearGradient>
</defs>
</svg>
