<svg width="74" height="50" viewBox="0 0 74 50" fill="none" xmlns="http://www.w3.org/2000/svg">
<rect x="0.789062" y="23.9697" width="57.3203" height="25.6953" rx="8" fill="#C7C9FF"/>
<path d="M10.0234 33.0041H11.2033V34.6117H11.2328C11.5376 33.9922 11.9112 33.535 12.3537 33.2401C12.7961 32.9451 13.3566 32.8074 14.035 32.8271V34.1545C13.5336 34.1545 13.1059 34.2233 12.7519 34.3609C12.3979 34.4986 12.1128 34.7002 11.8965 34.9656C11.6802 35.2311 11.5229 35.5556 11.4245 35.939C11.3262 36.3127 11.2771 36.7453 11.2771 37.2369V40.629H10.0234V33.0041Z" fill="#2229FF"/>
<path d="M20.554 40.629H19.3741V39.4197H19.3446C19.0791 39.8916 18.7399 40.2407 18.3269 40.4668C17.914 40.6831 17.4273 40.7913 16.8668 40.7913C16.3654 40.7913 15.9475 40.7274 15.6132 40.5995C15.2789 40.4619 15.0085 40.2702 14.8021 40.0243C14.5956 39.7785 14.4481 39.4885 14.3596 39.1542C14.2809 38.8101 14.2416 38.4315 14.2416 38.0186V33.0041H15.4952V38.166C15.4952 38.638 15.6329 39.0116 15.9082 39.2869C16.1835 39.5622 16.562 39.6999 17.0438 39.6999C17.4273 39.6999 17.7567 39.6409 18.032 39.5229C18.3171 39.4049 18.5531 39.2378 18.7399 39.0215C18.9267 38.8051 19.0644 38.5544 19.1529 38.2693C19.2512 37.9743 19.3003 37.6548 19.3003 37.3106V33.0041H20.554V40.629Z" fill="#2229FF"/>
<path d="M21.7436 33.0041H22.9972V34.0365H23.0267C23.2332 33.6137 23.5577 33.3089 24.0001 33.1221C24.4426 32.9254 24.9293 32.8271 25.4602 32.8271C26.0502 32.8271 26.5615 32.9353 26.9941 33.1516C27.4365 33.3679 27.8003 33.6628 28.0855 34.0365C28.3804 34.4003 28.6017 34.8231 28.7491 35.3048C28.8966 35.7866 28.9704 36.2979 28.9704 36.8387C28.9704 37.3795 28.8966 37.8907 28.7491 38.3725C28.6115 38.8543 28.3952 39.2771 28.1002 39.6409C27.8151 39.9949 27.4513 40.2751 27.0088 40.4816C26.5762 40.688 26.0698 40.7913 25.4897 40.7913C25.3029 40.7913 25.0915 40.7716 24.8556 40.7323C24.6294 40.6929 24.4033 40.629 24.1771 40.5405C23.951 40.4521 23.7347 40.3341 23.5282 40.1866C23.3315 40.0293 23.1644 39.8375 23.0267 39.6114H22.9972V43.5345H21.7436V33.0041ZM27.643 36.7502C27.643 36.3962 27.5938 36.0521 27.4955 35.7178C27.407 35.3737 27.2645 35.0689 27.0678 34.8034C26.881 34.5379 26.6352 34.3265 26.3304 34.1692C26.0354 34.0119 25.6864 33.9332 25.2833 33.9332C24.8605 33.9332 24.5016 34.0168 24.2066 34.184C23.9116 34.3511 23.6708 34.5723 23.4839 34.8476C23.2971 35.1131 23.1595 35.4179 23.071 35.762C22.9923 36.1062 22.953 36.4552 22.953 36.8092C22.953 37.1828 22.9972 37.5466 23.0857 37.9006C23.1742 38.2447 23.3119 38.5495 23.4987 38.815C23.6953 39.0804 23.9461 39.2968 24.2509 39.4639C24.5557 39.6212 24.9244 39.6999 25.357 39.6999C25.7896 39.6999 26.1485 39.6163 26.4336 39.4492C26.7286 39.282 26.9646 39.0608 27.1416 38.7855C27.3185 38.5102 27.4464 38.1955 27.525 37.8416C27.6037 37.4876 27.643 37.1238 27.643 36.7502Z" fill="#2229FF"/>
<path d="M34.9992 36.0865C34.9795 35.7915 34.9107 35.5113 34.7927 35.2458C34.6845 34.9804 34.5321 34.7542 34.3355 34.5674C34.1487 34.3708 33.9225 34.2184 33.657 34.1102C33.4014 33.9922 33.1163 33.9332 32.8016 33.9332C32.4772 33.9332 32.1822 33.9922 31.9167 34.1102C31.6611 34.2184 31.4399 34.3708 31.253 34.5674C31.0662 34.7641 30.9187 34.9951 30.8106 35.2606C30.7024 35.5162 30.6385 35.7915 30.6189 36.0865H34.9992ZM36.2085 38.2103C36.0414 39.0657 35.6727 39.7097 35.1024 40.1423C34.5321 40.575 33.8144 40.7913 32.9491 40.7913C32.3395 40.7913 31.8086 40.6929 31.3563 40.4963C30.9138 40.2997 30.5402 40.0243 30.2354 39.6704C29.9306 39.3164 29.6995 38.8936 29.5422 38.402C29.3947 37.9104 29.3112 37.3745 29.2915 36.7944C29.2915 36.2143 29.38 35.6834 29.557 35.2016C29.7339 34.7198 29.9798 34.3019 30.2944 33.948C30.6189 33.594 30.9974 33.3187 31.43 33.1221C31.8725 32.9254 32.3543 32.8271 32.8754 32.8271C33.5538 32.8271 34.1142 32.9697 34.5567 33.2548C35.009 33.5301 35.3679 33.8841 35.6333 34.3167C35.9086 34.7493 36.0955 35.2213 36.1938 35.7325C36.3019 36.2438 36.3462 36.7305 36.3265 37.1926H30.6189C30.609 37.5269 30.6484 37.8465 30.7368 38.1513C30.8253 38.4463 30.9679 38.7117 31.1646 38.9477C31.3612 39.1739 31.6119 39.3558 31.9167 39.4934C32.2215 39.6311 32.5804 39.6999 32.9934 39.6999C33.5243 39.6999 33.9569 39.577 34.2912 39.3312C34.6354 39.0854 34.8615 38.7117 34.9697 38.2103H36.2085Z" fill="#2229FF"/>
<path d="M37.6555 38.225C37.6653 38.5003 37.7292 38.7363 37.8472 38.933C37.9652 39.1198 38.1176 39.2722 38.3044 39.3902C38.5011 39.4983 38.7174 39.577 38.9534 39.6261C39.1992 39.6753 39.4499 39.6999 39.7055 39.6999C39.9022 39.6999 40.1086 39.6851 40.325 39.6556C40.5413 39.6261 40.7379 39.5721 40.9149 39.4934C41.1017 39.4147 41.2541 39.3017 41.3721 39.1542C41.4901 38.9969 41.5491 38.8002 41.5491 38.5642C41.5491 38.2398 41.4262 37.994 41.1804 37.8268C40.9346 37.6597 40.6248 37.5269 40.2512 37.4286C39.8874 37.3205 39.4892 37.2271 39.0566 37.1484C38.624 37.0599 38.2208 36.9419 37.8472 36.7944C37.4834 36.6371 37.1786 36.4208 36.9328 36.1455C36.687 35.8702 36.5641 35.4867 36.5641 34.9951C36.5641 34.6117 36.6477 34.2823 36.8148 34.007C36.9918 33.7317 37.213 33.5104 37.4785 33.3433C37.7538 33.1663 38.0586 33.0385 38.3929 32.9598C38.737 32.8713 39.0763 32.8271 39.4106 32.8271C39.8432 32.8271 40.2414 32.8664 40.6052 32.9451C40.969 33.0139 41.2885 33.1417 41.5638 33.3285C41.849 33.5055 42.0751 33.7513 42.2423 34.066C42.4094 34.3708 42.5077 34.7542 42.5372 35.2163H41.2836C41.2639 34.9705 41.2 34.769 41.0919 34.6117C40.9837 34.4445 40.8461 34.3118 40.6789 34.2135C40.5118 34.1151 40.325 34.0463 40.1185 34.007C39.9218 33.9578 39.7203 33.9332 39.5138 33.9332C39.327 33.9332 39.1352 33.948 38.9386 33.9775C38.7518 34.007 38.5797 34.0611 38.4224 34.1397C38.2651 34.2085 38.1373 34.3069 38.0389 34.4347C37.9406 34.5527 37.8915 34.71 37.8915 34.9066C37.8915 35.1229 37.9652 35.3048 38.1127 35.4523C38.27 35.59 38.4667 35.708 38.7026 35.8063C38.9386 35.8948 39.2041 35.9734 39.499 36.0423C39.794 36.1013 40.089 36.1652 40.384 36.234C40.6986 36.3028 41.0034 36.3864 41.2984 36.4847C41.6032 36.583 41.8686 36.7158 42.0948 36.8829C42.3307 37.0402 42.5176 37.2418 42.6552 37.4876C42.8027 37.7334 42.8764 38.0382 42.8764 38.402C42.8764 38.8641 42.7781 39.2476 42.5815 39.5524C42.3947 39.8572 42.1439 40.103 41.8293 40.2898C41.5245 40.4766 41.1755 40.6045 40.7822 40.6733C40.3987 40.7519 40.0152 40.7913 39.6318 40.7913C39.209 40.7913 38.8059 40.747 38.4224 40.6585C38.0389 40.57 37.6997 40.4275 37.4048 40.2308C37.1098 40.0243 36.8738 39.7589 36.6968 39.4344C36.5199 39.1001 36.4215 38.697 36.4019 38.225H37.6555Z" fill="#2229FF"/>
<path d="M43.5254 30.0986H44.779V34.125H44.8085C44.9068 33.889 45.0445 33.6923 45.2214 33.535C45.3984 33.3679 45.5951 33.2351 45.8114 33.1368C46.0375 33.0287 46.2686 32.95 46.5046 32.9008C46.7504 32.8517 46.9863 32.8271 47.2125 32.8271C47.7139 32.8271 48.1318 32.8959 48.4661 33.0336C48.8004 33.1712 49.0708 33.363 49.2773 33.6088C49.4838 33.8546 49.6263 34.1495 49.705 34.4937C49.7935 34.828 49.8377 35.2016 49.8377 35.6146V40.629H48.5841V35.4671C48.5841 34.9951 48.4464 34.6215 48.1711 34.3462C47.8958 34.0709 47.5173 33.9332 47.0355 33.9332C46.6521 33.9332 46.3177 33.9922 46.0326 34.1102C45.7573 34.2282 45.5262 34.3954 45.3394 34.6117C45.1526 34.828 45.0101 35.0836 44.9117 35.3786C44.8232 35.6637 44.779 35.9784 44.779 36.3225V40.629H43.5254V30.0986Z" fill="#2229FF"/>
</svg>
