<svg width="322" height="406" viewBox="0 0 322 406" fill="none" xmlns="http://www.w3.org/2000/svg">
<rect x="0.468445" y="10.042" width="320.914" height="392.035" rx="31" fill="#232323"/>
<mask id="mask0_1_20891" style="mask-type:alpha" maskUnits="userSpaceOnUse" x="29" y="0" width="263" height="406">
<rect x="29.6013" y="0.711914" width="3.02235" height="3.02235" fill="#00FB87"/>
<rect x="53.1754" y="0.711914" width="3.02235" height="3.02235" fill="#00FB87"/>
<rect x="76.759" y="0.711914" width="3.02235" height="3.02235" fill="#00FB87"/>
<rect x="100.324" y="0.711914" width="3.02235" height="3.02235" fill="#00FB87"/>
<rect x="123.898" y="0.711914" width="3.02235" height="3.02235" fill="#00FB87"/>
<rect x="147.462" y="0.711914" width="3.02235" height="3.02235" fill="#00FB87"/>
<rect x="29.6013" y="24.2869" width="3.02235" height="3.02235" fill="#00FB87"/>
<rect x="53.1754" y="24.2869" width="3.02235" height="3.02235" fill="#00FB87"/>
<rect x="76.759" y="24.2869" width="3.02235" height="3.02235" fill="#00FB87"/>
<rect x="100.324" y="24.2869" width="3.02235" height="3.02235" fill="#00FB87"/>
<rect x="123.898" y="24.2869" width="3.02235" height="3.02235" fill="#00FB87"/>
<rect x="147.462" y="24.2869" width="3.02235" height="3.02235" fill="#00FB87"/>
<rect x="29.6013" y="47.8593" width="3.02235" height="3.02235" fill="#00FB87"/>
<rect x="53.1754" y="47.8594" width="3.02235" height="3.02235" fill="#00FB87"/>
<rect x="76.759" y="47.8594" width="3.02235" height="3.02235" fill="#00FB87"/>
<rect x="100.324" y="47.8594" width="3.02235" height="3.02235" fill="#00FB87"/>
<rect x="123.898" y="47.8594" width="3.02235" height="3.02235" fill="#00FB87"/>
<rect x="147.462" y="47.8594" width="3.02235" height="3.02235" fill="#00FB87"/>
<rect x="29.6013" y="71.4362" width="3.02235" height="3.02235" fill="#00FB87"/>
<rect x="53.1754" y="71.4362" width="3.02235" height="3.02235" fill="#00FB87"/>
<rect x="76.759" y="71.4362" width="3.02235" height="3.02235" fill="#00FB87"/>
<rect x="100.324" y="71.4362" width="3.02235" height="3.02235" fill="#00FB87"/>
<rect x="123.898" y="71.4362" width="3.02235" height="3.02235" fill="#00FB87"/>
<rect x="147.462" y="71.4362" width="3.02235" height="3.02235" fill="#00FB87"/>
<rect x="29.6013" y="95.0105" width="3.02235" height="3.02235" fill="#00FB87"/>
<rect x="53.1754" y="95.0105" width="3.02235" height="3.02235" fill="#00FB87"/>
<rect x="76.759" y="95.0105" width="3.02235" height="3.02235" fill="#00FB87"/>
<rect x="100.324" y="95.0105" width="3.02235" height="3.02235" fill="#00FB87"/>
<rect x="123.898" y="95.0105" width="3.02235" height="3.02235" fill="#00FB87"/>
<rect x="147.462" y="95.0105" width="3.02235" height="3.02235" fill="#00FB87"/>
<rect x="29.6013" y="118.585" width="3.02235" height="3.02235" fill="#00FB87"/>
<rect x="53.1754" y="118.585" width="3.02235" height="3.02235" fill="#00FB87"/>
<rect x="76.759" y="118.585" width="3.02235" height="3.02235" fill="#00FB87"/>
<rect x="100.324" y="118.585" width="3.02235" height="3.02235" fill="#00FB87"/>
<rect x="123.898" y="118.585" width="3.02235" height="3.02235" fill="#00FB87"/>
<rect x="147.462" y="118.585" width="3.02235" height="3.02235" fill="#00FB87"/>
<rect x="29.6013" y="142.158" width="3.02235" height="3.02235" fill="#00FB87"/>
<rect x="53.1754" y="142.158" width="3.02235" height="3.02235" fill="#00FB87"/>
<rect x="76.759" y="142.158" width="3.02235" height="3.02235" fill="#00FB87"/>
<rect x="100.324" y="142.158" width="3.02235" height="3.02235" fill="#00FB87"/>
<rect x="123.898" y="142.158" width="3.02235" height="3.02235" fill="#00FB87"/>
<rect x="147.462" y="142.158" width="3.02235" height="3.02235" fill="#00FB87"/>
<rect x="29.6013" y="165.733" width="3.02235" height="3.02235" fill="#00FB87"/>
<rect x="53.1754" y="165.733" width="3.02235" height="3.02235" fill="#00FB87"/>
<rect x="76.759" y="165.733" width="3.02235" height="3.02235" fill="#00FB87"/>
<rect x="100.324" y="165.733" width="3.02235" height="3.02235" fill="#00FB87"/>
<rect x="123.898" y="165.733" width="3.02235" height="3.02235" fill="#00FB87"/>
<rect x="147.462" y="165.733" width="3.02235" height="3.02235" fill="#00FB87"/>
<rect x="29.6013" y="189.309" width="3.02235" height="3.02235" fill="#00FB87"/>
<rect x="53.1754" y="189.309" width="3.02235" height="3.02235" fill="#00FB87"/>
<rect x="76.759" y="189.309" width="3.02235" height="3.02235" fill="#00FB87"/>
<rect x="100.324" y="189.309" width="3.02235" height="3.02235" fill="#00FB87"/>
<rect x="123.898" y="189.309" width="3.02235" height="3.02235" fill="#00FB87"/>
<rect x="147.462" y="189.309" width="3.02235" height="3.02235" fill="#00FB87"/>
<rect x="29.6013" y="213.751" width="3.02235" height="3.02235" fill="#00FB87"/>
<rect x="53.1754" y="213.751" width="3.02235" height="3.02235" fill="#00FB87"/>
<rect x="76.759" y="213.751" width="3.02235" height="3.02235" fill="#00FB87"/>
<rect x="100.324" y="213.751" width="3.02235" height="3.02235" fill="#00FB87"/>
<rect x="123.898" y="213.751" width="3.02235" height="3.02235" fill="#00FB87"/>
<rect x="147.462" y="213.751" width="3.02235" height="3.02235" fill="#00FB87"/>
<rect x="29.6013" y="237.325" width="3.02235" height="3.02235" fill="#00FB87"/>
<rect x="53.1754" y="237.325" width="3.02235" height="3.02235" fill="#00FB87"/>
<rect x="76.759" y="237.325" width="3.02235" height="3.02235" fill="#00FB87"/>
<rect x="100.324" y="237.325" width="3.02235" height="3.02235" fill="#00FB87"/>
<rect x="123.898" y="237.325" width="3.02235" height="3.02235" fill="#00FB87"/>
<rect x="147.462" y="237.325" width="3.02235" height="3.02235" fill="#00FB87"/>
<rect x="29.6013" y="260.898" width="3.02235" height="3.02235" fill="#00FB87"/>
<rect x="53.1754" y="260.898" width="3.02235" height="3.02235" fill="#00FB87"/>
<rect x="76.759" y="260.898" width="3.02235" height="3.02235" fill="#00FB87"/>
<rect x="100.324" y="260.898" width="3.02235" height="3.02235" fill="#00FB87"/>
<rect x="123.898" y="260.898" width="3.02235" height="3.02235" fill="#00FB87"/>
<rect x="147.462" y="260.898" width="3.02235" height="3.02235" fill="#00FB87"/>
<rect x="29.6013" y="284.474" width="3.02235" height="3.02235" fill="#00FB87"/>
<rect x="53.1754" y="284.474" width="3.02235" height="3.02235" fill="#00FB87"/>
<rect x="76.759" y="284.474" width="3.02235" height="3.02235" fill="#00FB87"/>
<rect x="100.324" y="284.474" width="3.02235" height="3.02235" fill="#00FB87"/>
<rect x="123.898" y="284.474" width="3.02235" height="3.02235" fill="#00FB87"/>
<rect x="147.462" y="284.474" width="3.02235" height="3.02235" fill="#00FB87"/>
<rect x="29.6013" y="308.049" width="3.02235" height="3.02235" fill="#00FB87"/>
<rect x="53.1754" y="308.05" width="3.02235" height="3.02235" fill="#00FB87"/>
<rect x="76.759" y="308.05" width="3.02235" height="3.02235" fill="#00FB87"/>
<rect x="100.324" y="308.05" width="3.02235" height="3.02235" fill="#00FB87"/>
<rect x="123.898" y="308.05" width="3.02235" height="3.02235" fill="#00FB87"/>
<rect x="147.462" y="308.05" width="3.02235" height="3.02235" fill="#00FB87"/>
<rect x="29.6013" y="331.624" width="3.02235" height="3.02235" fill="#00FB87"/>
<rect x="53.1754" y="331.624" width="3.02235" height="3.02235" fill="#00FB87"/>
<rect x="76.759" y="331.624" width="3.02235" height="3.02235" fill="#00FB87"/>
<rect x="100.324" y="331.624" width="3.02235" height="3.02235" fill="#00FB87"/>
<rect x="123.898" y="331.624" width="3.02235" height="3.02235" fill="#00FB87"/>
<rect x="147.462" y="331.624" width="3.02235" height="3.02235" fill="#00FB87"/>
<rect x="29.6013" y="355.196" width="3.02235" height="3.02235" fill="#00FB87"/>
<rect x="53.1754" y="355.196" width="3.02235" height="3.02235" fill="#00FB87"/>
<rect x="76.759" y="355.196" width="3.02235" height="3.02235" fill="#00FB87"/>
<rect x="100.324" y="355.196" width="3.02235" height="3.02235" fill="#00FB87"/>
<rect x="123.898" y="355.196" width="3.02235" height="3.02235" fill="#00FB87"/>
<rect x="147.462" y="355.196" width="3.02235" height="3.02235" fill="#00FB87"/>
<rect x="29.6013" y="378.772" width="3.02235" height="3.02235" fill="#00FB87"/>
<rect x="53.1754" y="378.772" width="3.02235" height="3.02235" fill="#00FB87"/>
<rect x="76.759" y="378.772" width="3.02235" height="3.02235" fill="#00FB87"/>
<rect x="100.324" y="378.772" width="3.02235" height="3.02235" fill="#00FB87"/>
<rect x="123.898" y="378.772" width="3.02235" height="3.02235" fill="#00FB87"/>
<rect x="147.462" y="378.772" width="3.02235" height="3.02235" fill="#00FB87"/>
<rect x="29.6013" y="402.347" width="3.02235" height="3.02235" fill="#00FB87"/>
<rect x="53.1754" y="402.347" width="3.02235" height="3.02235" fill="#00FB87"/>
<rect x="76.759" y="402.347" width="3.02235" height="3.02235" fill="#00FB87"/>
<rect x="100.324" y="402.347" width="3.02235" height="3.02235" fill="#00FB87"/>
<rect x="123.898" y="402.347" width="3.02235" height="3.02235" fill="#00FB87"/>
<rect x="147.462" y="402.347" width="3.02235" height="3.02235" fill="#00FB87"/>
<rect x="171.07" y="0.709961" width="3.02235" height="3.02235" fill="#00FB87"/>
<rect x="194.644" y="0.709961" width="3.02235" height="3.02235" fill="#00FB87"/>
<rect x="218.228" y="0.709961" width="3.02235" height="3.02235" fill="#00FB87"/>
<rect x="241.792" y="0.709961" width="3.02235" height="3.02235" fill="#00FB87"/>
<rect x="265.366" y="0.709961" width="3.02235" height="3.02235" fill="#00FB87"/>
<rect x="288.931" y="0.709961" width="3.02235" height="3.02235" fill="#00FB87"/>
<rect x="171.07" y="24.2849" width="3.02235" height="3.02235" fill="#00FB87"/>
<rect x="194.644" y="24.2849" width="3.02235" height="3.02235" fill="#00FB87"/>
<rect x="218.228" y="24.2849" width="3.02235" height="3.02235" fill="#00FB87"/>
<rect x="241.792" y="24.2849" width="3.02235" height="3.02235" fill="#00FB87"/>
<rect x="265.366" y="24.2849" width="3.02235" height="3.02235" fill="#00FB87"/>
<rect x="288.931" y="24.2849" width="3.02235" height="3.02235" fill="#00FB87"/>
<rect x="171.07" y="47.8574" width="3.02235" height="3.02235" fill="#00FB87"/>
<rect x="194.644" y="47.8574" width="3.02235" height="3.02235" fill="#00FB87"/>
<rect x="218.228" y="47.8574" width="3.02235" height="3.02235" fill="#00FB87"/>
<rect x="241.792" y="47.8574" width="3.02235" height="3.02235" fill="#00FB87"/>
<rect x="265.366" y="47.8574" width="3.02235" height="3.02235" fill="#00FB87"/>
<rect x="288.931" y="47.8574" width="3.02235" height="3.02235" fill="#00FB87"/>
<rect x="171.07" y="71.4342" width="3.02235" height="3.02235" fill="#00FB87"/>
<rect x="194.644" y="71.4342" width="3.02235" height="3.02235" fill="#00FB87"/>
<rect x="218.228" y="71.4342" width="3.02235" height="3.02235" fill="#00FB87"/>
<rect x="241.792" y="71.4342" width="3.02235" height="3.02235" fill="#00FB87"/>
<rect x="265.366" y="71.4342" width="3.02235" height="3.02235" fill="#00FB87"/>
<rect x="288.931" y="71.4342" width="3.02235" height="3.02235" fill="#00FB87"/>
<rect x="171.07" y="95.0085" width="3.02235" height="3.02235" fill="#00FB87"/>
<rect x="194.644" y="95.0085" width="3.02235" height="3.02235" fill="#00FB87"/>
<rect x="218.228" y="95.0085" width="3.02235" height="3.02235" fill="#00FB87"/>
<rect x="241.792" y="95.0085" width="3.02235" height="3.02235" fill="#00FB87"/>
<rect x="265.366" y="95.0085" width="3.02235" height="3.02235" fill="#00FB87"/>
<rect x="288.931" y="95.0085" width="3.02235" height="3.02235" fill="#00FB87"/>
<rect x="171.07" y="118.583" width="3.02235" height="3.02235" fill="#00FB87"/>
<rect x="194.644" y="118.583" width="3.02235" height="3.02235" fill="#00FB87"/>
<rect x="218.228" y="118.583" width="3.02235" height="3.02235" fill="#00FB87"/>
<rect x="241.792" y="118.583" width="3.02235" height="3.02235" fill="#00FB87"/>
<rect x="265.366" y="118.583" width="3.02235" height="3.02235" fill="#00FB87"/>
<rect x="288.931" y="118.583" width="3.02235" height="3.02235" fill="#00FB87"/>
<rect x="171.07" y="142.156" width="3.02235" height="3.02235" fill="#00FB87"/>
<rect x="194.644" y="142.156" width="3.02235" height="3.02235" fill="#00FB87"/>
<rect x="218.228" y="142.156" width="3.02235" height="3.02235" fill="#00FB87"/>
<rect x="241.792" y="142.156" width="3.02235" height="3.02235" fill="#00FB87"/>
<rect x="265.366" y="142.156" width="3.02235" height="3.02235" fill="#00FB87"/>
<rect x="288.931" y="142.156" width="3.02235" height="3.02235" fill="#00FB87"/>
<rect x="171.07" y="165.731" width="3.02235" height="3.02235" fill="#00FB87"/>
<rect x="194.644" y="165.731" width="3.02235" height="3.02235" fill="#00FB87"/>
<rect x="218.228" y="165.731" width="3.02235" height="3.02235" fill="#00FB87"/>
<rect x="241.792" y="165.731" width="3.02235" height="3.02235" fill="#00FB87"/>
<rect x="265.366" y="165.731" width="3.02235" height="3.02235" fill="#00FB87"/>
<rect x="288.931" y="165.731" width="3.02235" height="3.02235" fill="#00FB87"/>
<rect x="171.07" y="189.307" width="3.02235" height="3.02235" fill="#00FB87"/>
<rect x="194.644" y="189.307" width="3.02235" height="3.02235" fill="#00FB87"/>
<rect x="218.228" y="189.307" width="3.02235" height="3.02235" fill="#00FB87"/>
<rect x="241.792" y="189.307" width="3.02235" height="3.02235" fill="#00FB87"/>
<rect x="265.366" y="189.307" width="3.02235" height="3.02235" fill="#00FB87"/>
<rect x="288.931" y="189.307" width="3.02235" height="3.02235" fill="#00FB87"/>
<rect x="171.07" y="213.752" width="3.02235" height="3.02235" fill="#00FB87"/>
<rect x="194.644" y="213.752" width="3.02235" height="3.02235" fill="#00FB87"/>
<rect x="218.228" y="213.752" width="3.02235" height="3.02235" fill="#00FB87"/>
<rect x="241.792" y="213.752" width="3.02235" height="3.02235" fill="#00FB87"/>
<rect x="265.366" y="213.752" width="3.02235" height="3.02235" fill="#00FB87"/>
<rect x="288.931" y="213.752" width="3.02235" height="3.02235" fill="#00FB87"/>
<rect x="171.07" y="237.326" width="3.02235" height="3.02235" fill="#00FB87"/>
<rect x="194.644" y="237.326" width="3.02235" height="3.02235" fill="#00FB87"/>
<rect x="218.228" y="237.326" width="3.02235" height="3.02235" fill="#00FB87"/>
<rect x="241.792" y="237.326" width="3.02235" height="3.02235" fill="#00FB87"/>
<rect x="265.366" y="237.326" width="3.02235" height="3.02235" fill="#00FB87"/>
<rect x="288.931" y="237.326" width="3.02235" height="3.02235" fill="#00FB87"/>
<rect x="171.07" y="260.898" width="3.02235" height="3.02235" fill="#00FB87"/>
<rect x="194.644" y="260.898" width="3.02235" height="3.02235" fill="#00FB87"/>
<rect x="218.228" y="260.898" width="3.02235" height="3.02235" fill="#00FB87"/>
<rect x="241.792" y="260.898" width="3.02235" height="3.02235" fill="#00FB87"/>
<rect x="265.366" y="260.898" width="3.02235" height="3.02235" fill="#00FB87"/>
<rect x="288.931" y="260.898" width="3.02235" height="3.02235" fill="#00FB87"/>
<rect x="171.07" y="284.475" width="3.02235" height="3.02235" fill="#00FB87"/>
<rect x="194.644" y="284.475" width="3.02235" height="3.02235" fill="#00FB87"/>
<rect x="218.228" y="284.475" width="3.02235" height="3.02235" fill="#00FB87"/>
<rect x="241.792" y="284.475" width="3.02235" height="3.02235" fill="#00FB87"/>
<rect x="265.366" y="284.475" width="3.02235" height="3.02235" fill="#00FB87"/>
<rect x="288.931" y="284.475" width="3.02235" height="3.02235" fill="#00FB87"/>
<rect x="171.07" y="308.051" width="3.02235" height="3.02235" fill="#00FB87"/>
<rect x="194.644" y="308.051" width="3.02235" height="3.02235" fill="#00FB87"/>
<rect x="218.228" y="308.051" width="3.02235" height="3.02235" fill="#00FB87"/>
<rect x="241.792" y="308.051" width="3.02235" height="3.02235" fill="#00FB87"/>
<rect x="265.366" y="308.051" width="3.02235" height="3.02235" fill="#00FB87"/>
<rect x="288.931" y="308.051" width="3.02235" height="3.02235" fill="#00FB87"/>
<rect x="171.07" y="331.625" width="3.02235" height="3.02235" fill="#00FB87"/>
<rect x="194.644" y="331.625" width="3.02235" height="3.02235" fill="#00FB87"/>
<rect x="218.228" y="331.625" width="3.02235" height="3.02235" fill="#00FB87"/>
<rect x="241.792" y="331.625" width="3.02235" height="3.02235" fill="#00FB87"/>
<rect x="265.366" y="331.625" width="3.02235" height="3.02235" fill="#00FB87"/>
<rect x="288.931" y="331.625" width="3.02235" height="3.02235" fill="#00FB87"/>
<rect x="171.07" y="355.197" width="3.02235" height="3.02235" fill="#00FB87"/>
<rect x="194.644" y="355.197" width="3.02235" height="3.02235" fill="#00FB87"/>
<rect x="218.228" y="355.197" width="3.02235" height="3.02235" fill="#00FB87"/>
<rect x="241.792" y="355.197" width="3.02235" height="3.02235" fill="#00FB87"/>
<rect x="265.366" y="355.197" width="3.02235" height="3.02235" fill="#00FB87"/>
<rect x="288.931" y="355.197" width="3.02235" height="3.02235" fill="#00FB87"/>
<rect x="171.07" y="378.772" width="3.02235" height="3.02235" fill="#00FB87"/>
<rect x="194.644" y="378.772" width="3.02235" height="3.02235" fill="#00FB87"/>
<rect x="218.228" y="378.772" width="3.02235" height="3.02235" fill="#00FB87"/>
<rect x="241.792" y="378.772" width="3.02235" height="3.02235" fill="#00FB87"/>
<rect x="265.366" y="378.772" width="3.02235" height="3.02235" fill="#00FB87"/>
<rect x="288.931" y="378.772" width="3.02235" height="3.02235" fill="#00FB87"/>
<rect x="171.07" y="402.348" width="3.02235" height="3.02235" fill="#00FB87"/>
<rect x="194.644" y="402.348" width="3.02235" height="3.02235" fill="#00FB87"/>
<rect x="218.228" y="402.348" width="3.02235" height="3.02235" fill="#00FB87"/>
<rect x="241.792" y="402.348" width="3.02235" height="3.02235" fill="#00FB87"/>
<rect x="265.366" y="402.348" width="3.02235" height="3.02235" fill="#00FB87"/>
<rect x="288.931" y="402.348" width="3.02235" height="3.02235" fill="#00FB87"/>
</mask>
<g mask="url(#mask0_1_20891)">
<rect x="0.468445" y="10.042" width="320.914" height="392.035" rx="31" fill="url(#paint0_linear_1_20891)"/>
</g>
<mask id="mask1_1_20891" style="mask-type:alpha" maskUnits="userSpaceOnUse" x="0" y="10" width="322" height="393">
<rect x="0.468445" y="10.042" width="320.914" height="392.035" rx="31" fill="#232323"/>
</mask>
<g mask="url(#mask1_1_20891)">
<path d="M89.8433 367.89C85.4984 359.451 78.7135 339.865 86.3339 329.036C95.8594 315.5 154.265 324.775 185.599 334.802C191.114 346.333 197.13 367.389 197.631 390.952C203.146 393.709 210.917 405.742 210.415 428.803C210.215 438.028 213.34 451.364 214.927 456.878L197.631 470.415L159.78 359.367C148.012 358.956 122.174 356.534 111.625 350.139C123.709 357.866 128.541 373.327 129.449 380.173C131.203 390.534 137.37 413.212 147.998 421.032C143.386 423.238 132.206 428.135 127.192 430.307C116.893 416.103 95.0032 383.733 89.8433 367.89Z" fill="#F7FFC4"/>
</g>
<path d="M222.267 260.091C220.262 260.007 216.301 258.637 216.502 253.824C216.753 247.808 225.025 244.8 230.791 244.549C236.556 244.299 243.324 242.293 245.58 234.773M201.713 234.773C200.877 236.194 199.306 239.937 199.708 243.547C200.109 247.156 202.882 250.732 204.218 252.069C206.14 253.573 209.332 257.484 206.725 261.094C203.466 265.606 192.436 264.102 182.911 253.824M200.959 282.401C203.215 278.724 209.231 271.371 215.247 271.371C222.768 271.371 229.285 277.638 231.29 282.401M239.563 282.401C242.236 280.061 248.186 274.68 250.592 271.872" stroke="#E1FF26" stroke-width="2"/>
<path d="M174.89 270.87L173.888 275.632L187.172 279.894L187.924 268.363L188.927 267.11L193.188 262.848L194.943 258.587L193.188 253.323L191.434 250.816L188.676 248.56C187.172 247.892 183.462 246.655 180.655 247.056C177.145 247.557 173.888 250.064 170.377 250.315C166.867 250.565 167.621 252.571 169.626 254.576C161.805 266.007 169.877 270.201 174.89 270.87Z" fill="#FF8E8E"/>
<path d="M245.078 279.894C238.661 293.33 229.537 305.212 225.777 309.473C212.743 292.929 199.455 281.649 181.156 276.134C162.857 270.619 135.534 276.134 131.774 278.641C130.571 270.619 131.774 248.894 132.526 239.035L116.735 234.522C113.894 250.565 109.616 284.707 115.231 292.929C122.249 303.206 149.823 300.449 153.583 299.196C151.578 306.214 150.241 320.503 149.823 326.769L184.667 336.295C188.26 330.362 195.846 317.695 197.451 314.486C204.47 323.009 221.265 332.535 229.537 330.279C242.572 325.867 254.353 298.193 258.615 284.907C254.854 283.57 246.883 280.696 245.078 279.894Z" fill="#FBBC04"/>
<path d="M238.057 264.101C238.458 264.703 239.561 266.023 240.063 266.608V261.344C235.549 262.347 233.043 261.846 232.542 260.342C232.041 258.838 233.545 258.085 234.297 258.085C235.049 258.085 238.308 257.584 239.561 257.333C240.814 257.083 243.321 256.581 247.081 257.835C250.841 259.088 253.599 260.342 254.1 265.104C254.501 268.914 256.439 279.56 257.359 284.406L245.326 280.145V279.393C243.722 278.791 241.984 276.802 241.316 275.883C241.065 276.217 240.313 276.836 239.31 276.635C238.308 276.435 238.558 274.379 238.809 273.376C238.308 274.045 237.054 275.181 236.052 274.379C235.049 273.577 235.801 270.87 236.302 269.616C235.885 269.115 234.949 267.862 234.548 266.859C234.046 265.606 234.046 263.6 235.049 263.099C236.052 262.597 237.556 263.349 238.057 264.101Z" fill="#FF8E8E"/>
<circle cx="175.391" cy="252.571" r="3.51208" stroke="#232323" stroke-width="2"/>
<circle cx="175.391" cy="252.32" r="0.752013" fill="#232323"/>
<path d="M46.7966 216.725L48.5513 167.343L96.9308 181.882L95.6774 219.733L118.238 224.496V230.261L46.7966 216.725Z" fill="#5A21AD"/>
<path d="M52.0607 207.701L52.8127 173.86L93.9227 186.143L92.92 215.973L52.0607 207.701Z" fill="#232323"/>
<mask id="mask2_1_20891" style="mask-type:alpha" maskUnits="userSpaceOnUse" x="52" y="173" width="42" height="43">
<path d="M52.0591 207.7L52.8111 173.86L93.9212 186.143L92.9185 215.972L52.0591 207.7Z" fill="black"/>
</mask>
<g mask="url(#mask2_1_20891)">
<path d="M66.3471 187.145C68.7535 183.135 66.8484 177.453 65.5951 175.113C68.1854 176.116 74.6195 178.522 79.6329 180.126C79.8836 193.412 70.6088 197.423 69.8568 203.188C69.2552 207.801 72.7813 211.795 74.6195 213.215C71.0266 212.547 63.0385 211.009 59.8296 210.207C55.8189 199.177 63.339 192.159 66.3471 187.145Z" fill="#E1FF26"/>
<path d="M84.145 192.66C86.752 189.05 85.2312 183.302 84.145 180.878C85.3148 181.213 88.0555 182.082 89.6598 182.884C90.9131 196.921 83.1423 199.679 81.6383 204.191C80.4351 207.801 84.6463 215.053 86.9024 218.228L81.137 217.226C80.6356 216.892 79.0815 214.569 76.8755 207.951C74.1182 199.679 80.8863 197.172 84.145 192.66Z" fill="#E1FF26"/>
</g>
<path d="M258.49 264.887L226.528 259.84H223.269V261.595L226.026 262.598L258.013 267.849C258.877 267.991 259.678 267.366 259.751 266.493C259.816 265.71 259.266 265.009 258.49 264.887Z" fill="white"/>
<path d="M222.479 260.14L223.269 260.091V261.344L222.389 261.124C221.835 260.986 221.909 260.176 222.479 260.14Z" fill="#D9D9D9"/>
<path d="M128.266 227.253C129.67 230.261 131.358 236.194 132.026 238.784C127.096 237.865 117.185 235.676 116.984 234.272C114.227 231.765 115.23 227.754 115.731 225.498C111.219 223.242 105.955 225.248 104.2 224.997C102.796 224.796 102.947 223.409 103.198 222.741C102.613 223.159 101.242 223.744 100.44 222.741C99.638 221.738 101.61 220.151 102.696 219.482C101.61 219.566 99.4375 219.482 99.4375 218.479C99.4375 217.226 102.696 215.973 107.96 215.722C112.172 215.522 117.569 217.978 119.742 219.231L118.238 213.968C114.813 214.385 107.862 214.669 107.461 212.464C106.959 209.706 115.482 210.458 117.738 210.458C119.994 210.458 122.501 211.21 123.002 213.968C123.504 216.725 126.512 223.493 128.266 227.253Z" fill="#FF8E8E"/>
<path d="M180.904 245.803C180.703 250.415 185.333 251.735 187.672 251.819C185.264 253.824 184.665 256.832 184.666 258.085C187.339 256.832 192.687 255.178 192.687 258.587C192.687 262.848 186.42 264.854 184.666 264.102C184.666 266.859 189.428 272.624 193.188 266.859C196.948 261.094 196.948 255.579 193.69 250.064C190.431 244.549 181.156 242.795 180.904 245.803Z" fill="#3E3E3E"/>
<path d="M179.402 254.075L185.919 256.832M167.871 262.096C169.208 263.182 172.784 264.603 176.393 261.595" stroke="#232323" stroke-width="2"/>
<path d="M178.399 246.555L179.652 251.317" stroke="#232323" stroke-width="3"/>
<path d="M235.552 262.848C234.954 262.915 234.466 263.851 234.298 264.352C235.254 264.639 238.347 267.615 239.813 268.112C240.912 268.485 240.658 266.537 240.315 266.107C239.312 264.854 237.808 262.597 235.552 262.848Z" fill="#FF8E8E"/>
<path d="M232.794 260.843C233.63 261.344 235.953 262.197 238.56 261.595C241.167 260.993 235.802 260.843 232.794 260.843Z" fill="#FF8E8E"/>
<path d="M239.061 264.102C240.064 265.773 243.022 270.218 245.829 271.622" stroke="#232323"/>
<path d="M102.947 219.231C105.621 218.479 112.121 217.677 116.734 220.485M102.947 222.741C104.618 221.738 109.514 220.334 115.731 222.741" stroke="#232323"/>
<path d="M95.3669 114.47V96.8605H113.674V101.202H106.65V103.679H113.256V107.628H99.5456V110.129H113.674V114.47H95.3669Z" fill="#E1FF26"/>
<path d="M138.513 114.47V96.8605H155.617C159.357 96.8605 161.635 99.3131 161.635 103.483C161.635 107.628 159.357 110.105 155.617 110.105H143.423V114.47H138.513ZM143.423 105.273H154.447C155.847 105.273 156.516 104.93 156.516 103.483C156.516 102.036 155.847 101.717 154.447 101.717L143.423 101.717V105.273Z" fill="#E1FF26"/>
<path d="M121.695 96.8115H115.008L119.187 105.641L115.008 114.47H121.695L125.873 105.641L121.695 96.8115Z" fill="#E1FF26"/>
<path d="M130.474 96.8115H137.16L132.982 105.641L137.16 114.47H130.474L126.296 105.641L130.474 96.8115Z" fill="#E1FF26"/>
<path d="M163.135 114.71V110.248H168.261V114.71H163.135Z" fill="#E1FF26"/>
<path d="M170.326 114.71V97.1064H175.263V109.856H189.57V114.71H170.326Z" fill="#E1FF26"/>
<path d="M190.676 114.71L198.407 97.1064H204.71L212.42 114.71H207.147L205.823 111.449H197.273L195.929 114.71H190.676ZM198.954 107.306H204.122L201.538 101.005L198.954 107.306Z" fill="#E1FF26"/>
<path d="M213.67 114.71V97.1064H231.338C235.266 97.1064 236.506 98.8717 236.506 101.422C236.506 103.53 235.455 104.854 233.901 105.491C235.791 106.055 237.367 107.281 237.367 109.856C237.367 112.724 235.896 114.71 232.199 114.71H213.67ZM218.607 110.542H230.623C231.527 110.542 232.241 110.468 232.241 109.096C232.241 107.723 231.485 107.649 230.623 107.649H218.607V110.542ZM223.634 104.143H227.451C228.48 104.143 229.237 104.045 229.237 102.672C229.237 101.348 228.522 101.274 227.451 101.274H223.634V104.143Z" fill="#E1FF26"/>
<path d="M142.799 125.601V120.425H145.783C146.476 120.425 147.001 120.542 147.359 120.777C147.721 121.006 147.903 121.35 147.903 121.809C147.903 122.102 147.831 122.334 147.687 122.505C147.543 122.67 147.337 122.793 147.071 122.873C146.809 122.953 146.5 123.003 146.143 123.025L146.175 122.969C146.436 122.974 146.681 122.993 146.911 123.025C147.145 123.057 147.351 123.115 147.527 123.201C147.703 123.286 147.841 123.406 147.943 123.561C148.044 123.71 148.095 123.907 148.095 124.153C148.095 124.473 148.009 124.739 147.839 124.953C147.668 125.161 147.431 125.318 147.127 125.425C146.823 125.531 146.471 125.59 146.071 125.601H142.799ZM143.863 124.721H145.959C146.295 124.721 146.553 124.667 146.735 124.561C146.916 124.449 147.007 124.273 147.007 124.033C147.007 123.857 146.953 123.729 146.847 123.649C146.74 123.569 146.599 123.521 146.423 123.505C146.247 123.483 146.057 123.473 145.855 123.473H143.863V124.721ZM143.863 122.617H145.743C146.079 122.617 146.337 122.569 146.519 122.473C146.7 122.371 146.791 122.201 146.791 121.961C146.791 121.721 146.7 121.553 146.519 121.457C146.337 121.355 146.097 121.305 145.799 121.305H143.863V122.617ZM154.083 120.425L151.811 123.969V125.601H150.739V123.969L148.467 120.425H149.699L151.611 123.521H150.971L152.851 120.425H154.083ZM162.823 123.737C162.775 124.153 162.628 124.507 162.383 124.801C162.138 125.094 161.804 125.318 161.383 125.473C160.962 125.627 160.46 125.705 159.879 125.705C159.394 125.705 158.948 125.649 158.543 125.537C158.143 125.425 157.796 125.257 157.503 125.033C157.215 124.809 156.991 124.531 156.831 124.201C156.671 123.865 156.591 123.473 156.591 123.025C156.591 122.577 156.671 122.185 156.831 121.849C156.991 121.513 157.215 121.233 157.503 121.009C157.796 120.779 158.143 120.609 158.543 120.497C158.948 120.379 159.394 120.321 159.879 120.321C160.46 120.321 160.962 120.401 161.383 120.561C161.81 120.721 162.146 120.95 162.391 121.249C162.636 121.542 162.78 121.899 162.823 122.321H161.767C161.698 122.097 161.58 121.905 161.415 121.745C161.255 121.579 161.047 121.454 160.791 121.369C160.535 121.283 160.231 121.241 159.879 121.241C159.442 121.241 159.058 121.31 158.727 121.449C158.396 121.582 158.14 121.782 157.959 122.049C157.778 122.31 157.687 122.635 157.687 123.025C157.687 123.409 157.778 123.731 157.959 123.993C158.14 124.254 158.396 124.454 158.727 124.593C159.058 124.726 159.442 124.793 159.879 124.793C160.231 124.793 160.532 124.75 160.783 124.665C161.039 124.579 161.247 124.457 161.407 124.297C161.572 124.137 161.692 123.95 161.767 123.737H162.823ZM166.941 125.705C166.253 125.705 165.664 125.598 165.173 125.385C164.688 125.166 164.315 124.857 164.053 124.457C163.797 124.057 163.669 123.577 163.669 123.017C163.669 122.451 163.797 121.969 164.053 121.569C164.315 121.169 164.688 120.862 165.173 120.649C165.664 120.43 166.253 120.321 166.941 120.321C167.635 120.321 168.224 120.43 168.709 120.649C169.195 120.862 169.565 121.169 169.821 121.569C170.083 121.969 170.213 122.451 170.213 123.017C170.213 123.577 170.083 124.057 169.821 124.457C169.565 124.857 169.195 125.166 168.709 125.385C168.224 125.598 167.635 125.705 166.941 125.705ZM166.941 124.785C167.368 124.785 167.741 124.721 168.061 124.593C168.387 124.465 168.64 124.27 168.821 124.009C169.008 123.747 169.101 123.417 169.101 123.017C169.101 122.617 169.008 122.286 168.821 122.025C168.64 121.763 168.387 121.569 168.061 121.441C167.741 121.307 167.368 121.241 166.941 121.241C166.52 121.241 166.144 121.307 165.813 121.441C165.483 121.569 165.224 121.763 165.037 122.025C164.851 122.286 164.757 122.617 164.757 123.017C164.757 123.417 164.851 123.747 165.037 124.009C165.224 124.27 165.483 124.465 165.813 124.593C166.144 124.721 166.52 124.785 166.941 124.785ZM171.802 124.473V123.585H175.226V124.473H171.802ZM170.514 125.601L172.946 120.425H174.098L176.554 125.601H175.394L173.266 120.937H173.778L171.666 125.601H170.514ZM176.892 123.857H177.972C177.994 124.038 178.076 124.203 178.22 124.353C178.37 124.497 178.564 124.611 178.804 124.697C179.044 124.777 179.314 124.817 179.612 124.817C179.884 124.817 180.108 124.787 180.284 124.729C180.46 124.67 180.591 124.587 180.676 124.481C180.762 124.374 180.804 124.246 180.804 124.097C180.804 123.953 180.751 123.843 180.644 123.769C180.538 123.689 180.37 123.625 180.14 123.577C179.911 123.523 179.61 123.47 179.236 123.417C178.943 123.374 178.666 123.315 178.404 123.241C178.143 123.161 177.911 123.059 177.708 122.937C177.511 122.814 177.354 122.665 177.236 122.489C177.124 122.307 177.068 122.094 177.068 121.849C177.068 121.545 177.154 121.278 177.324 121.049C177.5 120.819 177.759 120.641 178.1 120.513C178.442 120.385 178.86 120.321 179.356 120.321C180.103 120.321 180.676 120.481 181.076 120.801C181.482 121.115 181.679 121.55 181.668 122.105H180.628C180.607 121.79 180.474 121.563 180.228 121.425C179.988 121.286 179.684 121.217 179.316 121.217C178.975 121.217 178.692 121.267 178.468 121.369C178.25 121.47 178.14 121.643 178.14 121.889C178.14 121.985 178.167 122.07 178.22 122.145C178.274 122.214 178.364 122.275 178.492 122.329C178.62 122.382 178.794 122.433 179.012 122.481C179.231 122.529 179.503 122.577 179.828 122.625C180.132 122.667 180.407 122.726 180.652 122.801C180.903 122.87 181.116 122.963 181.292 123.081C181.474 123.193 181.612 123.337 181.708 123.513C181.804 123.689 181.852 123.905 181.852 124.161C181.852 124.475 181.77 124.75 181.604 124.985C181.444 125.214 181.194 125.393 180.852 125.521C180.516 125.649 180.079 125.713 179.54 125.713C179.156 125.713 178.818 125.673 178.524 125.593C178.231 125.507 177.978 125.395 177.764 125.257C177.551 125.118 177.378 124.966 177.244 124.801C177.111 124.635 177.015 124.47 176.956 124.305C176.903 124.139 176.882 123.99 176.892 123.857ZM182.943 120.425H184.007V125.601H182.943V120.425ZM185.041 123.857H186.121C186.142 124.038 186.225 124.203 186.369 124.353C186.518 124.497 186.713 124.611 186.953 124.697C187.193 124.777 187.462 124.817 187.761 124.817C188.033 124.817 188.257 124.787 188.433 124.729C188.609 124.67 188.739 124.587 188.825 124.481C188.91 124.374 188.953 124.246 188.953 124.097C188.953 123.953 188.899 123.843 188.793 123.769C188.686 123.689 188.518 123.625 188.289 123.577C188.059 123.523 187.758 123.47 187.385 123.417C187.091 123.374 186.814 123.315 186.553 123.241C186.291 123.161 186.059 123.059 185.857 122.937C185.659 122.814 185.502 122.665 185.385 122.489C185.273 122.307 185.217 122.094 185.217 121.849C185.217 121.545 185.302 121.278 185.473 121.049C185.649 120.819 185.907 120.641 186.249 120.513C186.59 120.385 187.009 120.321 187.505 120.321C188.251 120.321 188.825 120.481 189.225 120.801C189.63 121.115 189.827 121.55 189.817 122.105H188.777C188.755 121.79 188.622 121.563 188.377 121.425C188.137 121.286 187.833 121.217 187.465 121.217C187.123 121.217 186.841 121.267 186.617 121.369C186.398 121.47 186.289 121.643 186.289 121.889C186.289 121.985 186.315 122.07 186.369 122.145C186.422 122.214 186.513 122.275 186.641 122.329C186.769 122.382 186.942 122.433 187.161 122.481C187.379 122.529 187.651 122.577 187.977 122.625C188.281 122.667 188.555 122.726 188.801 122.801C189.051 122.87 189.265 122.963 189.441 123.081C189.622 123.193 189.761 123.337 189.857 123.513C189.953 123.689 190.001 123.905 190.001 124.161C190.001 124.475 189.918 124.75 189.753 124.985C189.593 125.214 189.342 125.393 189.001 125.521C188.665 125.649 188.227 125.713 187.689 125.713C187.305 125.713 186.966 125.673 186.673 125.593C186.379 125.507 186.126 125.395 185.913 125.257C185.699 125.118 185.526 124.966 185.393 124.801C185.259 124.635 185.163 124.47 185.105 124.305C185.051 124.139 185.03 123.99 185.041 123.857Z" fill="#E1FF26"/>
<defs>
<linearGradient id="paint0_linear_1_20891" x1="9.1498" y1="16.6831" x2="300.159" y2="378.584" gradientUnits="userSpaceOnUse">
<stop offset="0.025" stop-color="#232323"/>
<stop offset="0.525" stop-color="#595959" stop-opacity="0.2"/>
<stop offset="1" stop-color="#898989" stop-opacity="0"/>
</linearGradient>
</defs>
</svg>
