<svg width="8" height="9" viewBox="0 0 8 9" fill="none" xmlns="http://www.w3.org/2000/svg">
<path d="M3.64018 7.22902V1.4442L2.54324 1.48559C2.21209 1.49939 1.95337 1.54423 1.7671 1.62012C1.58773 1.69601 1.44975 1.83399 1.35316 2.03406C1.26347 2.22724 1.18758 2.5101 1.12549 2.88264H0.804688L0.897824 0.978516C1.0979 0.999213 1.32901 1.01646 1.59118 1.03026C1.86024 1.03716 2.12585 1.04061 2.38801 1.04061H5.86511C6.08588 1.04061 6.3308 1.03716 6.59986 1.03026C6.87582 1.01646 7.12763 0.999213 7.3553 0.978516L7.44844 2.88264H7.12763C7.06554 2.5101 6.9862 2.22724 6.88962 2.03406C6.79993 1.83399 6.66195 1.69601 6.47568 1.62012C6.2963 1.54423 6.04104 1.49939 5.70989 1.48559L4.61294 1.4442V7.22902C4.61294 7.3877 4.63364 7.51878 4.67503 7.62227C4.71643 7.71885 4.79232 7.79129 4.9027 7.83959C5.01999 7.88788 5.17866 7.92237 5.37873 7.94307L5.69954 7.97412V8.28457H2.55359V7.97412L2.87439 7.94307C3.08136 7.92237 3.24004 7.88788 3.35042 7.83959C3.46081 7.79129 3.5367 7.71885 3.57809 7.62227C3.61949 7.51878 3.64018 7.3877 3.64018 7.22902Z" fill="#EEE8E2"/>
</svg>
