<svg width="101" height="46" viewBox="0 0 101 46" fill="none" xmlns="http://www.w3.org/2000/svg">
<path d="M24.1075 13.3973C23.9281 14.9715 23.3702 16.3236 22.4536 17.4538C21.5369 18.5638 20.2816 19.4316 18.7074 20.0169C17.1332 20.6021 15.2401 20.9048 13.0681 20.9048C11.2349 20.9048 9.58097 20.6829 8.06655 20.259C6.55212 19.8352 5.25689 19.1894 4.16093 18.3418C3.06497 17.4942 2.22805 16.4245 1.63025 15.1531C1.03245 13.8817 0.733551 12.4084 0.733551 10.693C0.733551 8.97755 1.03245 7.5043 1.63025 6.21268C2.22805 4.92106 3.08489 3.87162 4.16093 3.00381C5.25689 2.136 6.55212 1.49019 8.06655 1.0462C9.58097 0.602206 11.2548 0.400391 13.0681 0.400391C15.2601 0.400391 17.1332 0.703114 18.7273 1.30856C20.3214 1.91401 21.5768 2.78181 22.4934 3.91198C23.41 5.04215 23.9481 6.39431 24.1075 8.00884H20.1421C19.883 7.16121 19.4446 6.41449 18.8269 5.80905C18.2092 5.18342 17.4321 4.71924 16.4756 4.39634C15.5191 4.07343 14.3634 3.91198 13.0482 3.91198C11.3943 3.91198 9.95958 4.17434 8.72413 4.67888C7.48868 5.2036 6.51227 5.95032 5.83477 6.95939C5.15726 7.96847 4.81851 9.19955 4.81851 10.693C4.81851 12.1864 5.15726 13.3771 5.83477 14.3862C6.51227 15.3953 7.46875 16.142 8.72413 16.6465C9.95958 17.1713 11.4142 17.4134 13.0482 17.4134C14.3634 17.4134 15.4992 17.252 16.4557 16.9291C17.4121 16.6062 18.1893 16.142 18.807 15.5366C19.4247 14.9311 19.8631 14.2248 20.1421 13.3973H24.1075Z" fill="#7F7F7F"/>
<path d="M39.5704 20.884C36.9799 20.884 34.768 20.4804 32.9348 19.6529C31.1015 18.8255 29.7067 17.655 28.7303 16.1414C27.7539 14.6277 27.2756 12.7912 27.2756 10.6722C27.2756 8.55309 27.7539 6.6762 28.7303 5.16259C29.7067 3.64897 31.1015 2.47844 32.9348 1.651C34.768 0.823553 36.9799 0.419922 39.5704 0.419922V3.91133C37.9961 3.91133 36.5814 4.15351 35.326 4.65805C34.0905 5.16259 33.1141 5.90931 32.4167 6.8982C31.7193 7.8871 31.3606 9.15854 31.3606 10.6722C31.3606 12.1858 31.7193 13.4572 32.4167 14.4461C33.1141 15.435 34.0905 16.1817 35.326 16.6661C36.5614 17.1504 37.9762 17.3926 39.5704 17.3926V20.884Z" fill="#7F7F7F"/>
<path d="M65.753 0.400391C68.3434 0.400391 70.5553 0.804021 72.3885 1.63146C74.2218 2.45891 75.6166 3.62944 76.593 5.14305C77.5694 6.65667 78.0477 8.49319 78.0477 10.6123C78.0477 12.7313 77.5694 14.6082 76.593 16.1218C75.6166 17.6354 74.2218 18.806 72.3885 19.6334C70.5553 20.4609 68.3434 20.8645 65.753 20.8645V17.3731C67.3272 17.3731 68.7419 17.1309 69.9973 16.6264C71.2328 16.1218 72.2092 15.3751 72.9066 14.3862C73.6041 13.3973 73.9627 12.1259 73.9627 10.6123C73.9627 9.09864 73.6041 7.8272 72.9066 6.83831C72.2092 5.84941 71.2328 5.10269 69.9973 4.61833C68.7619 4.13398 67.3471 3.8918 65.753 3.8918V0.400391Z" fill="#7F7F7F"/>
<path d="M12.99 45.1018C10.3996 45.1018 8.18772 44.6982 6.35447 43.8707C4.52122 43.0433 3.12636 41.8727 2.14995 40.3591C1.17355 38.8455 0.695312 37.009 0.695312 34.8899C0.695312 32.7709 1.17355 30.894 2.14995 29.3804C3.12636 27.8667 4.52122 26.6962 6.35447 25.8688C8.18772 25.0413 10.3996 24.6377 12.99 24.6377C15.5805 24.6377 17.8123 25.0413 19.6256 25.8688C21.4389 26.6962 22.8537 27.8667 23.8102 29.3804C24.7667 30.894 25.2648 32.7305 25.2648 34.8899C25.2648 37.0493 24.7866 38.8455 23.8102 40.3591C22.8338 41.8727 21.4389 43.0433 19.6256 43.8707C17.8123 44.6982 15.5805 45.1018 12.99 45.1018ZM12.99 41.5902C14.5842 41.5902 15.9989 41.348 17.2145 40.8637C18.43 40.3793 19.3865 39.6326 20.064 38.6437C20.7415 37.6548 21.1002 36.3834 21.1002 34.8697C21.1002 33.3561 20.7614 32.0847 20.064 31.0958C19.3665 30.1069 18.4101 29.3602 17.2145 28.8556C15.9989 28.3511 14.5842 28.1089 12.99 28.1089C11.3959 28.1089 10.001 28.3511 8.74566 28.8556C7.51021 29.3602 6.53381 30.1069 5.83638 31.0958C5.13894 32.0847 4.78027 33.3561 4.78027 34.8697C4.78027 36.3834 5.13894 37.6548 5.83638 38.6437C6.53381 39.6326 7.51021 40.3793 8.74566 40.8637C9.98111 41.348 11.3959 41.5902 12.99 41.5902Z" fill="#7F7F7F"/>
<path d="M27.3763 44.6987L36.5026 25.0015H40.8267L50.0527 44.6987H45.6888L37.6982 26.9591H39.6112L31.6804 44.6987H27.3563H27.3763ZM32.2184 40.4V37.0297H45.091V40.4H32.2184Z" fill="#7F7F7F"/>
<path d="M51.3259 38.0595H55.3909C55.4706 38.7457 55.7894 39.3713 56.3275 39.9364C56.8854 40.5014 57.6028 40.9253 58.4995 41.2482C59.3962 41.5711 60.4124 41.7123 61.5283 41.7123C62.5446 41.7123 63.3815 41.5913 64.059 41.3693C64.7166 41.1473 65.2147 40.8244 65.5336 40.4207C65.8524 40.0171 66.0118 39.5327 66.0118 38.9676C66.0118 38.4026 65.8125 37.9989 65.414 37.6962C65.0155 37.3935 64.3778 37.1513 63.521 36.9697C62.6641 36.7679 61.5283 36.5862 60.1334 36.3844C59.0375 36.223 57.9814 36.001 57.005 35.6982C56.0286 35.3955 55.1518 35.0322 54.4145 34.5479C53.6772 34.0635 53.0794 33.4985 52.641 32.8325C52.2026 32.1463 52.0034 31.339 52.0034 30.4107C52.0034 29.2603 52.3222 28.2311 52.9798 27.3633C53.6374 26.4955 54.5938 25.8093 55.8891 25.3249C57.1843 24.8406 58.7386 24.5984 60.6117 24.5984C63.4213 24.5984 65.5734 25.2038 67.0878 26.4147C68.6023 27.6256 69.3395 29.2805 69.2997 31.3996H65.3941C65.3144 30.2089 64.8162 29.3411 63.8996 28.8163C62.9829 28.2916 61.8471 28.0292 60.4523 28.0292C59.177 28.0292 58.1209 28.2311 57.2839 28.6145C56.447 28.998 56.0286 29.664 56.0286 30.5923C56.0286 30.9556 56.1282 31.2785 56.3275 31.561C56.5267 31.8436 56.8655 32.0656 57.3437 32.2674C57.822 32.4692 58.4795 32.671 59.2965 32.8526C60.1135 33.0343 61.1298 33.2159 62.3652 33.3975C63.501 33.559 64.5372 33.781 65.4738 34.0434C66.4103 34.3057 67.2074 34.669 67.8849 35.113C68.5624 35.557 69.0805 36.1019 69.4392 36.7679C69.7978 37.4339 69.9772 38.2613 69.9772 39.23C69.9772 40.4207 69.6783 41.4702 69.0606 42.3582C68.4429 43.2461 67.5063 43.9323 66.231 44.4167C64.9557 44.901 63.3217 45.1432 61.2892 45.1432C59.8545 45.1432 58.5792 44.9818 57.4633 44.679C56.3673 44.3561 55.4108 43.9525 54.6138 43.4076C53.8167 42.8829 53.1591 42.2976 52.661 41.672C52.1628 41.0463 51.8041 40.4207 51.5849 39.7749C51.3657 39.1493 51.286 38.5842 51.3259 38.0797V38.0595Z" fill="#7F7F7F"/>
<path d="M74.0439 25.0015H78.0492V44.6987H74.0439V25.0015Z" fill="#7F7F7F"/>
<path d="M81.92 38.0595H85.985C86.0648 38.7457 86.3836 39.3713 86.9216 39.9364C87.4795 40.5014 88.1969 40.9253 89.0936 41.2482C89.9903 41.5711 91.0066 41.7123 92.1224 41.7123C93.1387 41.7123 93.9756 41.5913 94.6531 41.3693C95.3107 41.1473 95.8089 40.8244 96.1277 40.4207C96.4465 40.0171 96.6059 39.5327 96.6059 38.9676C96.6059 38.4026 96.4067 37.9989 96.0081 37.6962C95.6096 37.3935 94.972 37.1513 94.1151 36.9697C93.2583 36.7679 92.1224 36.5862 90.7276 36.3844C89.6316 36.223 88.5755 36.001 87.5991 35.6982C86.6227 35.3955 85.7459 35.0322 85.0086 34.5479C84.2714 34.0635 83.6736 33.4985 83.2352 32.8325C82.7968 32.1463 82.5975 31.339 82.5975 30.4107C82.5975 29.2603 82.9163 28.2311 83.5739 27.3633C84.2315 26.4955 85.188 25.8093 86.4832 25.3249C87.7784 24.8406 89.3327 24.5984 91.2058 24.5984C94.0155 24.5984 96.1676 25.2038 97.682 26.4147C99.1964 27.6256 99.9337 29.2805 99.8938 31.3996H95.9882C95.9085 30.2089 95.4103 29.3411 94.4937 28.8163C93.5771 28.2916 92.4413 28.0292 91.0464 28.0292C89.7711 28.0292 88.715 28.2311 87.8781 28.6145C87.0412 28.998 86.6227 29.664 86.6227 30.5923C86.6227 30.9556 86.7223 31.2785 86.9216 31.561C87.1209 31.8436 87.4596 32.0656 87.9378 32.2674C88.4161 32.4692 89.0737 32.671 89.8907 32.8526C90.7077 33.0343 91.7239 33.2159 92.9594 33.3975C94.0952 33.559 95.1314 33.781 96.0679 34.0434C97.0045 34.3057 97.8015 34.669 98.479 35.113C99.1565 35.557 99.6746 36.1019 100.033 36.7679C100.392 37.4339 100.571 38.2613 100.571 39.23C100.571 40.4207 100.272 41.4702 99.6547 42.3582C99.037 43.2461 98.1004 43.9323 96.8251 44.4167C95.5498 44.901 93.9158 45.1432 91.8833 45.1432C90.4486 45.1432 89.1733 44.9818 88.0574 44.679C86.9615 44.3561 86.005 43.9525 85.2079 43.4076C84.4108 42.8829 83.7533 42.2976 83.2551 41.672C82.7569 41.0463 82.3982 40.4207 82.1791 39.7749C81.9599 39.1493 81.8802 38.5842 81.92 38.0797V38.0595Z" fill="#7F7F7F"/>
<path d="M66.0778 0.400391H39.1769V3.91198H66.0778V0.400391Z" fill="#7F7F7F"/>
<path d="M66.0778 17.373H39.1769V20.8846H66.0778V17.373Z" fill="#7F7F7F"/>
</svg>
