<svg width="322" height="406" viewBox="0 0 322 406" fill="none" xmlns="http://www.w3.org/2000/svg">
<rect x="0.11676" y="10.042" width="320.914" height="392.035" rx="31" fill="#2229FF"/>
<mask id="mask0_1_21486" style="mask-type:alpha" maskUnits="userSpaceOnUse" x="29" y="0" width="263" height="406">
<rect x="29.2496" y="0.711914" width="3.02235" height="3.02235" fill="#00FB87"/>
<rect x="52.8237" y="0.711914" width="3.02235" height="3.02235" fill="#00FB87"/>
<rect x="76.4073" y="0.711914" width="3.02235" height="3.02235" fill="#00FB87"/>
<rect x="99.9718" y="0.711914" width="3.02235" height="3.02235" fill="#00FB87"/>
<rect x="123.546" y="0.711914" width="3.02235" height="3.02235" fill="#00FB87"/>
<rect x="147.11" y="0.711914" width="3.02235" height="3.02235" fill="#00FB87"/>
<rect x="29.2496" y="24.2869" width="3.02235" height="3.02235" fill="#00FB87"/>
<rect x="52.8237" y="24.2869" width="3.02235" height="3.02235" fill="#00FB87"/>
<rect x="76.4073" y="24.2869" width="3.02235" height="3.02235" fill="#00FB87"/>
<rect x="99.9718" y="24.2869" width="3.02235" height="3.02235" fill="#00FB87"/>
<rect x="123.546" y="24.2869" width="3.02235" height="3.02235" fill="#00FB87"/>
<rect x="147.11" y="24.2869" width="3.02235" height="3.02235" fill="#00FB87"/>
<rect x="29.2496" y="47.8593" width="3.02235" height="3.02235" fill="#00FB87"/>
<rect x="52.8237" y="47.8594" width="3.02235" height="3.02235" fill="#00FB87"/>
<rect x="76.4073" y="47.8594" width="3.02235" height="3.02235" fill="#00FB87"/>
<rect x="99.9718" y="47.8594" width="3.02235" height="3.02235" fill="#00FB87"/>
<rect x="123.546" y="47.8594" width="3.02235" height="3.02235" fill="#00FB87"/>
<rect x="147.11" y="47.8594" width="3.02235" height="3.02235" fill="#00FB87"/>
<rect x="29.2496" y="71.4362" width="3.02235" height="3.02235" fill="#00FB87"/>
<rect x="52.8237" y="71.4362" width="3.02235" height="3.02235" fill="#00FB87"/>
<rect x="76.4073" y="71.4362" width="3.02235" height="3.02235" fill="#00FB87"/>
<rect x="99.9718" y="71.4362" width="3.02235" height="3.02235" fill="#00FB87"/>
<rect x="123.546" y="71.4362" width="3.02235" height="3.02235" fill="#00FB87"/>
<rect x="147.11" y="71.4362" width="3.02235" height="3.02235" fill="#00FB87"/>
<rect x="29.2496" y="95.0105" width="3.02235" height="3.02235" fill="#00FB87"/>
<rect x="52.8237" y="95.0105" width="3.02235" height="3.02235" fill="#00FB87"/>
<rect x="76.4073" y="95.0105" width="3.02235" height="3.02235" fill="#00FB87"/>
<rect x="99.9718" y="95.0105" width="3.02235" height="3.02235" fill="#00FB87"/>
<rect x="123.546" y="95.0105" width="3.02235" height="3.02235" fill="#00FB87"/>
<rect x="147.11" y="95.0105" width="3.02235" height="3.02235" fill="#00FB87"/>
<rect x="29.2496" y="118.585" width="3.02235" height="3.02235" fill="#00FB87"/>
<rect x="52.8237" y="118.585" width="3.02235" height="3.02235" fill="#00FB87"/>
<rect x="76.4073" y="118.585" width="3.02235" height="3.02235" fill="#00FB87"/>
<rect x="99.9718" y="118.585" width="3.02235" height="3.02235" fill="#00FB87"/>
<rect x="123.546" y="118.585" width="3.02235" height="3.02235" fill="#00FB87"/>
<rect x="147.11" y="118.585" width="3.02235" height="3.02235" fill="#00FB87"/>
<rect x="29.2496" y="142.158" width="3.02235" height="3.02235" fill="#00FB87"/>
<rect x="52.8237" y="142.158" width="3.02235" height="3.02235" fill="#00FB87"/>
<rect x="76.4073" y="142.158" width="3.02235" height="3.02235" fill="#00FB87"/>
<rect x="99.9718" y="142.158" width="3.02235" height="3.02235" fill="#00FB87"/>
<rect x="123.546" y="142.158" width="3.02235" height="3.02235" fill="#00FB87"/>
<rect x="147.11" y="142.158" width="3.02235" height="3.02235" fill="#00FB87"/>
<rect x="29.2496" y="165.733" width="3.02235" height="3.02235" fill="#00FB87"/>
<rect x="52.8237" y="165.733" width="3.02235" height="3.02235" fill="#00FB87"/>
<rect x="76.4073" y="165.733" width="3.02235" height="3.02235" fill="#00FB87"/>
<rect x="99.9718" y="165.733" width="3.02235" height="3.02235" fill="#00FB87"/>
<rect x="123.546" y="165.733" width="3.02235" height="3.02235" fill="#00FB87"/>
<rect x="147.11" y="165.733" width="3.02235" height="3.02235" fill="#00FB87"/>
<rect x="29.2496" y="189.309" width="3.02235" height="3.02235" fill="#00FB87"/>
<rect x="52.8237" y="189.309" width="3.02235" height="3.02235" fill="#00FB87"/>
<rect x="76.4073" y="189.309" width="3.02235" height="3.02235" fill="#00FB87"/>
<rect x="99.9718" y="189.309" width="3.02235" height="3.02235" fill="#00FB87"/>
<rect x="123.546" y="189.309" width="3.02235" height="3.02235" fill="#00FB87"/>
<rect x="147.11" y="189.309" width="3.02235" height="3.02235" fill="#00FB87"/>
<rect x="29.2496" y="213.751" width="3.02235" height="3.02235" fill="#00FB87"/>
<rect x="52.8237" y="213.751" width="3.02235" height="3.02235" fill="#00FB87"/>
<rect x="76.4073" y="213.751" width="3.02235" height="3.02235" fill="#00FB87"/>
<rect x="99.9718" y="213.751" width="3.02235" height="3.02235" fill="#00FB87"/>
<rect x="123.546" y="213.751" width="3.02235" height="3.02235" fill="#00FB87"/>
<rect x="147.11" y="213.751" width="3.02235" height="3.02235" fill="#00FB87"/>
<rect x="29.2496" y="237.325" width="3.02235" height="3.02235" fill="#00FB87"/>
<rect x="52.8237" y="237.325" width="3.02235" height="3.02235" fill="#00FB87"/>
<rect x="76.4073" y="237.325" width="3.02235" height="3.02235" fill="#00FB87"/>
<rect x="99.9718" y="237.325" width="3.02235" height="3.02235" fill="#00FB87"/>
<rect x="123.546" y="237.325" width="3.02235" height="3.02235" fill="#00FB87"/>
<rect x="147.11" y="237.325" width="3.02235" height="3.02235" fill="#00FB87"/>
<rect x="29.2496" y="260.898" width="3.02235" height="3.02235" fill="#00FB87"/>
<rect x="52.8237" y="260.898" width="3.02235" height="3.02235" fill="#00FB87"/>
<rect x="76.4073" y="260.898" width="3.02235" height="3.02235" fill="#00FB87"/>
<rect x="99.9718" y="260.898" width="3.02235" height="3.02235" fill="#00FB87"/>
<rect x="123.546" y="260.898" width="3.02235" height="3.02235" fill="#00FB87"/>
<rect x="147.11" y="260.898" width="3.02235" height="3.02235" fill="#00FB87"/>
<rect x="29.2496" y="284.474" width="3.02235" height="3.02235" fill="#00FB87"/>
<rect x="52.8237" y="284.474" width="3.02235" height="3.02235" fill="#00FB87"/>
<rect x="76.4073" y="284.474" width="3.02235" height="3.02235" fill="#00FB87"/>
<rect x="99.9718" y="284.474" width="3.02235" height="3.02235" fill="#00FB87"/>
<rect x="123.546" y="284.474" width="3.02235" height="3.02235" fill="#00FB87"/>
<rect x="147.11" y="284.474" width="3.02235" height="3.02235" fill="#00FB87"/>
<rect x="29.2496" y="308.049" width="3.02235" height="3.02235" fill="#00FB87"/>
<rect x="52.8237" y="308.05" width="3.02235" height="3.02235" fill="#00FB87"/>
<rect x="76.4073" y="308.05" width="3.02235" height="3.02235" fill="#00FB87"/>
<rect x="99.9718" y="308.05" width="3.02235" height="3.02235" fill="#00FB87"/>
<rect x="123.546" y="308.05" width="3.02235" height="3.02235" fill="#00FB87"/>
<rect x="147.11" y="308.05" width="3.02235" height="3.02235" fill="#00FB87"/>
<rect x="29.2496" y="331.624" width="3.02235" height="3.02235" fill="#00FB87"/>
<rect x="52.8237" y="331.624" width="3.02235" height="3.02235" fill="#00FB87"/>
<rect x="76.4073" y="331.624" width="3.02235" height="3.02235" fill="#00FB87"/>
<rect x="99.9718" y="331.624" width="3.02235" height="3.02235" fill="#00FB87"/>
<rect x="123.546" y="331.624" width="3.02235" height="3.02235" fill="#00FB87"/>
<rect x="147.11" y="331.624" width="3.02235" height="3.02235" fill="#00FB87"/>
<rect x="29.2496" y="355.196" width="3.02235" height="3.02235" fill="#00FB87"/>
<rect x="52.8237" y="355.196" width="3.02235" height="3.02235" fill="#00FB87"/>
<rect x="76.4073" y="355.196" width="3.02235" height="3.02235" fill="#00FB87"/>
<rect x="99.9718" y="355.196" width="3.02235" height="3.02235" fill="#00FB87"/>
<rect x="123.546" y="355.196" width="3.02235" height="3.02235" fill="#00FB87"/>
<rect x="147.11" y="355.196" width="3.02235" height="3.02235" fill="#00FB87"/>
<rect x="29.2496" y="378.772" width="3.02235" height="3.02235" fill="#00FB87"/>
<rect x="52.8237" y="378.772" width="3.02235" height="3.02235" fill="#00FB87"/>
<rect x="76.4073" y="378.772" width="3.02235" height="3.02235" fill="#00FB87"/>
<rect x="99.9718" y="378.772" width="3.02235" height="3.02235" fill="#00FB87"/>
<rect x="123.546" y="378.772" width="3.02235" height="3.02235" fill="#00FB87"/>
<rect x="147.11" y="378.772" width="3.02235" height="3.02235" fill="#00FB87"/>
<rect x="29.2496" y="402.347" width="3.02235" height="3.02235" fill="#00FB87"/>
<rect x="52.8237" y="402.347" width="3.02235" height="3.02235" fill="#00FB87"/>
<rect x="76.4073" y="402.347" width="3.02235" height="3.02235" fill="#00FB87"/>
<rect x="99.9718" y="402.347" width="3.02235" height="3.02235" fill="#00FB87"/>
<rect x="123.546" y="402.347" width="3.02235" height="3.02235" fill="#00FB87"/>
<rect x="147.11" y="402.347" width="3.02235" height="3.02235" fill="#00FB87"/>
<rect x="170.718" y="0.709961" width="3.02235" height="3.02235" fill="#00FB87"/>
<rect x="194.292" y="0.709961" width="3.02235" height="3.02235" fill="#00FB87"/>
<rect x="217.876" y="0.709961" width="3.02235" height="3.02235" fill="#00FB87"/>
<rect x="241.441" y="0.709961" width="3.02235" height="3.02235" fill="#00FB87"/>
<rect x="265.015" y="0.709961" width="3.02235" height="3.02235" fill="#00FB87"/>
<rect x="288.579" y="0.709961" width="3.02235" height="3.02235" fill="#00FB87"/>
<rect x="170.718" y="24.2849" width="3.02235" height="3.02235" fill="#00FB87"/>
<rect x="194.292" y="24.2849" width="3.02235" height="3.02235" fill="#00FB87"/>
<rect x="217.876" y="24.2849" width="3.02235" height="3.02235" fill="#00FB87"/>
<rect x="241.441" y="24.2849" width="3.02235" height="3.02235" fill="#00FB87"/>
<rect x="265.015" y="24.2849" width="3.02235" height="3.02235" fill="#00FB87"/>
<rect x="288.579" y="24.2849" width="3.02235" height="3.02235" fill="#00FB87"/>
<rect x="170.718" y="47.8574" width="3.02235" height="3.02235" fill="#00FB87"/>
<rect x="194.292" y="47.8574" width="3.02235" height="3.02235" fill="#00FB87"/>
<rect x="217.876" y="47.8574" width="3.02235" height="3.02235" fill="#00FB87"/>
<rect x="241.441" y="47.8574" width="3.02235" height="3.02235" fill="#00FB87"/>
<rect x="265.015" y="47.8574" width="3.02235" height="3.02235" fill="#00FB87"/>
<rect x="288.579" y="47.8574" width="3.02235" height="3.02235" fill="#00FB87"/>
<rect x="170.718" y="71.4342" width="3.02235" height="3.02235" fill="#00FB87"/>
<rect x="194.292" y="71.4342" width="3.02235" height="3.02235" fill="#00FB87"/>
<rect x="217.876" y="71.4342" width="3.02235" height="3.02235" fill="#00FB87"/>
<rect x="241.441" y="71.4342" width="3.02235" height="3.02235" fill="#00FB87"/>
<rect x="265.015" y="71.4342" width="3.02235" height="3.02235" fill="#00FB87"/>
<rect x="288.579" y="71.4342" width="3.02235" height="3.02235" fill="#00FB87"/>
<rect x="170.718" y="95.0085" width="3.02235" height="3.02235" fill="#00FB87"/>
<rect x="194.292" y="95.0085" width="3.02235" height="3.02235" fill="#00FB87"/>
<rect x="217.876" y="95.0085" width="3.02235" height="3.02235" fill="#00FB87"/>
<rect x="241.441" y="95.0085" width="3.02235" height="3.02235" fill="#00FB87"/>
<rect x="265.015" y="95.0085" width="3.02235" height="3.02235" fill="#00FB87"/>
<rect x="288.579" y="95.0085" width="3.02235" height="3.02235" fill="#00FB87"/>
<rect x="170.718" y="118.583" width="3.02235" height="3.02235" fill="#00FB87"/>
<rect x="194.292" y="118.583" width="3.02235" height="3.02235" fill="#00FB87"/>
<rect x="217.876" y="118.583" width="3.02235" height="3.02235" fill="#00FB87"/>
<rect x="241.441" y="118.583" width="3.02235" height="3.02235" fill="#00FB87"/>
<rect x="265.015" y="118.583" width="3.02235" height="3.02235" fill="#00FB87"/>
<rect x="288.579" y="118.583" width="3.02235" height="3.02235" fill="#00FB87"/>
<rect x="170.718" y="142.156" width="3.02235" height="3.02235" fill="#00FB87"/>
<rect x="194.292" y="142.156" width="3.02235" height="3.02235" fill="#00FB87"/>
<rect x="217.876" y="142.156" width="3.02235" height="3.02235" fill="#00FB87"/>
<rect x="241.441" y="142.156" width="3.02235" height="3.02235" fill="#00FB87"/>
<rect x="265.015" y="142.156" width="3.02235" height="3.02235" fill="#00FB87"/>
<rect x="288.579" y="142.156" width="3.02235" height="3.02235" fill="#00FB87"/>
<rect x="170.718" y="165.731" width="3.02235" height="3.02235" fill="#00FB87"/>
<rect x="194.292" y="165.731" width="3.02235" height="3.02235" fill="#00FB87"/>
<rect x="217.876" y="165.731" width="3.02235" height="3.02235" fill="#00FB87"/>
<rect x="241.441" y="165.731" width="3.02235" height="3.02235" fill="#00FB87"/>
<rect x="265.015" y="165.731" width="3.02235" height="3.02235" fill="#00FB87"/>
<rect x="288.579" y="165.731" width="3.02235" height="3.02235" fill="#00FB87"/>
<rect x="170.718" y="189.307" width="3.02235" height="3.02235" fill="#00FB87"/>
<rect x="194.292" y="189.307" width="3.02235" height="3.02235" fill="#00FB87"/>
<rect x="217.876" y="189.307" width="3.02235" height="3.02235" fill="#00FB87"/>
<rect x="241.441" y="189.307" width="3.02235" height="3.02235" fill="#00FB87"/>
<rect x="265.015" y="189.307" width="3.02235" height="3.02235" fill="#00FB87"/>
<rect x="288.579" y="189.307" width="3.02235" height="3.02235" fill="#00FB87"/>
<rect x="170.718" y="213.752" width="3.02235" height="3.02235" fill="#00FB87"/>
<rect x="194.292" y="213.752" width="3.02235" height="3.02235" fill="#00FB87"/>
<rect x="217.876" y="213.752" width="3.02235" height="3.02235" fill="#00FB87"/>
<rect x="241.441" y="213.752" width="3.02235" height="3.02235" fill="#00FB87"/>
<rect x="265.015" y="213.752" width="3.02235" height="3.02235" fill="#00FB87"/>
<rect x="288.579" y="213.752" width="3.02235" height="3.02235" fill="#00FB87"/>
<rect x="170.718" y="237.326" width="3.02235" height="3.02235" fill="#00FB87"/>
<rect x="194.292" y="237.326" width="3.02235" height="3.02235" fill="#00FB87"/>
<rect x="217.876" y="237.326" width="3.02235" height="3.02235" fill="#00FB87"/>
<rect x="241.441" y="237.326" width="3.02235" height="3.02235" fill="#00FB87"/>
<rect x="265.015" y="237.326" width="3.02235" height="3.02235" fill="#00FB87"/>
<rect x="288.579" y="237.326" width="3.02235" height="3.02235" fill="#00FB87"/>
<rect x="170.718" y="260.898" width="3.02235" height="3.02235" fill="#00FB87"/>
<rect x="194.292" y="260.898" width="3.02235" height="3.02235" fill="#00FB87"/>
<rect x="217.876" y="260.898" width="3.02235" height="3.02235" fill="#00FB87"/>
<rect x="241.441" y="260.898" width="3.02235" height="3.02235" fill="#00FB87"/>
<rect x="265.015" y="260.898" width="3.02235" height="3.02235" fill="#00FB87"/>
<rect x="288.579" y="260.898" width="3.02235" height="3.02235" fill="#00FB87"/>
<rect x="170.718" y="284.475" width="3.02235" height="3.02235" fill="#00FB87"/>
<rect x="194.292" y="284.475" width="3.02235" height="3.02235" fill="#00FB87"/>
<rect x="217.876" y="284.475" width="3.02235" height="3.02235" fill="#00FB87"/>
<rect x="241.441" y="284.475" width="3.02235" height="3.02235" fill="#00FB87"/>
<rect x="265.015" y="284.475" width="3.02235" height="3.02235" fill="#00FB87"/>
<rect x="288.579" y="284.475" width="3.02235" height="3.02235" fill="#00FB87"/>
<rect x="170.718" y="308.051" width="3.02235" height="3.02235" fill="#00FB87"/>
<rect x="194.292" y="308.051" width="3.02235" height="3.02235" fill="#00FB87"/>
<rect x="217.876" y="308.051" width="3.02235" height="3.02235" fill="#00FB87"/>
<rect x="241.441" y="308.051" width="3.02235" height="3.02235" fill="#00FB87"/>
<rect x="265.015" y="308.051" width="3.02235" height="3.02235" fill="#00FB87"/>
<rect x="288.579" y="308.051" width="3.02235" height="3.02235" fill="#00FB87"/>
<rect x="170.718" y="331.625" width="3.02235" height="3.02235" fill="#00FB87"/>
<rect x="194.292" y="331.625" width="3.02235" height="3.02235" fill="#00FB87"/>
<rect x="217.876" y="331.625" width="3.02235" height="3.02235" fill="#00FB87"/>
<rect x="241.441" y="331.625" width="3.02235" height="3.02235" fill="#00FB87"/>
<rect x="265.015" y="331.625" width="3.02235" height="3.02235" fill="#00FB87"/>
<rect x="288.579" y="331.625" width="3.02235" height="3.02235" fill="#00FB87"/>
<rect x="170.718" y="355.197" width="3.02235" height="3.02235" fill="#00FB87"/>
<rect x="194.292" y="355.197" width="3.02235" height="3.02235" fill="#00FB87"/>
<rect x="217.876" y="355.197" width="3.02235" height="3.02235" fill="#00FB87"/>
<rect x="241.441" y="355.197" width="3.02235" height="3.02235" fill="#00FB87"/>
<rect x="265.015" y="355.197" width="3.02235" height="3.02235" fill="#00FB87"/>
<rect x="288.579" y="355.197" width="3.02235" height="3.02235" fill="#00FB87"/>
<rect x="170.718" y="378.772" width="3.02235" height="3.02235" fill="#00FB87"/>
<rect x="194.292" y="378.772" width="3.02235" height="3.02235" fill="#00FB87"/>
<rect x="217.876" y="378.772" width="3.02235" height="3.02235" fill="#00FB87"/>
<rect x="241.441" y="378.772" width="3.02235" height="3.02235" fill="#00FB87"/>
<rect x="265.015" y="378.772" width="3.02235" height="3.02235" fill="#00FB87"/>
<rect x="288.579" y="378.772" width="3.02235" height="3.02235" fill="#00FB87"/>
<rect x="170.718" y="402.348" width="3.02235" height="3.02235" fill="#00FB87"/>
<rect x="194.292" y="402.348" width="3.02235" height="3.02235" fill="#00FB87"/>
<rect x="217.876" y="402.348" width="3.02235" height="3.02235" fill="#00FB87"/>
<rect x="241.441" y="402.348" width="3.02235" height="3.02235" fill="#00FB87"/>
<rect x="265.015" y="402.348" width="3.02235" height="3.02235" fill="#00FB87"/>
<rect x="288.579" y="402.348" width="3.02235" height="3.02235" fill="#00FB87"/>
</mask>
<g mask="url(#mask0_1_21486)">
<rect x="0.11676" y="10.042" width="320.914" height="392.035" rx="31" fill="url(#paint0_linear_1_21486)"/>
</g>
<defs>
<linearGradient id="paint0_linear_1_21486" x1="8.79811" y1="16.6831" x2="299.807" y2="378.584" gradientUnits="userSpaceOnUse">
<stop offset="0.025" stop-color="#232323"/>
<stop offset="0.525" stop-color="#595959" stop-opacity="0.2"/>
<stop offset="1" stop-color="#898989" stop-opacity="0"/>
</linearGradient>
</defs>
</svg>
